<svg width="16" height="16" viewBox="0 0 16 16" fill="none" xmlns="http://www.w3.org/2000/svg">
<path d="M6.83341 4C6.83341 3.72386 7.05727 3.5 7.33341 3.5H10.3334C12.2664 3.5 13.8334 5.067 13.8334 7C13.8334 8.933 12.2664 10.5 10.3334 10.5H3.64193C3.75173 10.6051 3.8715 10.7132 3.99455 10.8201C4.23582 11.0296 4.47855 11.2244 4.66186 11.3674C4.75325 11.4388 4.82927 11.4967 4.88216 11.5367C4.9086 11.5567 4.96125 11.5961 4.97509 11.6064C5.1974 11.7702 5.23309 12.0742 5.06935 12.2965C4.90559 12.5189 4.5925 12.5663 4.37015 12.4025L4.36948 12.402C4.35337 12.39 4.30731 12.3557 4.27946 12.3347C4.22298 12.292 4.14274 12.2308 4.04663 12.1558C3.85495 12.0062 3.59768 11.7998 3.33894 11.5752C3.08269 11.3527 2.81356 11.1025 2.60456 10.8659C2.50056 10.7482 2.40087 10.6221 2.32448 10.4954C2.25635 10.3824 2.16675 10.2051 2.16675 10C2.16675 9.79487 2.25636 9.6176 2.32448 9.5046C2.40088 9.37787 2.50056 9.25178 2.60456 9.13409C2.81356 8.89755 3.0827 8.6473 3.33894 8.42481C3.59768 8.20017 3.85495 7.9938 4.04663 7.84421C4.14274 7.76921 4.22298 7.708 4.27946 7.66534C4.30719 7.64439 4.35299 7.61026 4.36927 7.59813L4.37015 7.59747C4.5925 7.43371 4.90559 7.48115 5.06934 7.70349C5.22905 7.92035 5.18782 8.22343 4.97941 8.39019L4.88216 8.4633C4.82927 8.50325 4.75325 8.56124 4.66186 8.63256C4.47855 8.77562 4.23582 8.97043 3.99455 9.17991C3.8715 9.28675 3.75173 9.39491 3.64193 9.5H10.3334C11.7141 9.5 12.8334 8.38071 12.8334 7C12.8334 5.61929 11.7141 4.5 10.3334 4.5H7.33341C7.05727 4.5 6.83341 4.27614 6.83341 4Z" fill="#212529"/>
</svg>
