<svg width="21" height="20" viewBox="0 0 21 20" fill="none" xmlns="http://www.w3.org/2000/svg">
<path fill-rule="evenodd" clip-rule="evenodd" d="M6.14645 5.64657C6.34171 5.45131 6.65829 5.45131 6.85355 5.64657L10.5 9.29302L14.1464 5.64657C14.3417 5.45131 14.6583 5.45131 14.8536 5.64657C15.0488 5.84183 15.0488 6.15841 14.8536 6.35368L11.2071 10.0001L14.8536 13.6466C15.0488 13.8418 15.0488 14.1584 14.8536 14.3537C14.6583 14.5489 14.3417 14.5489 14.1464 14.3537L10.5 10.7072L6.85355 14.3537C6.65829 14.5489 6.34171 14.5489 6.14645 14.3537C5.95118 14.1584 5.95118 13.8418 6.14645 13.6466L9.79289 10.0001L6.14645 6.35368C5.95118 6.15841 5.95118 5.84183 6.14645 5.64657Z" fill="#161616"/>
</svg>
