<svg width="16" height="16" viewBox="0 0 16 16" fill="none" xmlns="http://www.w3.org/2000/svg">
<path d="M7.33335 8.16536C7.05721 8.16536 6.83335 8.38922 6.83335 8.66536C6.83335 8.94151 7.05721 9.16536 7.33335 9.16536H10.6667C10.9428 9.16536 11.1667 8.94151 11.1667 8.66536C11.1667 8.38922 10.9428 8.16536 10.6667 8.16536H7.33335Z" fill="#161616"/>
<path d="M5.33335 8.16536C5.05721 8.16536 4.83335 8.38922 4.83335 8.66536C4.83335 8.94151 5.05721 9.16536 5.33335 9.16536H5.33934C5.61548 9.16536 5.83934 8.94151 5.83934 8.66536C5.83934 8.38922 5.61548 8.16536 5.33934 8.16536H5.33335Z" fill="#161616"/>
<path d="M5.33335 10.832C5.05721 10.832 4.83335 11.0559 4.83335 11.332C4.83335 11.6082 5.05721 11.832 5.33335 11.832H8.66669C8.94283 11.832 9.16669 11.6082 9.16669 11.332C9.16669 11.0559 8.94283 10.832 8.66669 10.832H5.33335Z" fill="#161616"/>
<path d="M10.6607 10.832C10.3846 10.832 10.1607 11.0559 10.1607 11.332C10.1607 11.6082 10.3846 11.832 10.6607 11.832H10.6667C10.9428 11.832 11.1667 11.6082 11.1667 11.332C11.1667 11.0559 10.9428 10.832 10.6667 10.832H10.6607Z" fill="#161616"/>
<path fill-rule="evenodd" clip-rule="evenodd" d="M4.50002 1.33203C4.50002 1.05589 4.27616 0.832031 4.00002 0.832031C3.72388 0.832031 3.50002 1.05589 3.50002 1.33203V1.75522C2.96352 1.90729 2.51102 2.15443 2.13438 2.56161C1.61578 3.12226 1.38525 3.83065 1.27485 4.71837C1.16667 5.58823 1.16668 6.70301 1.16669 8.12539V8.53867C1.16668 9.96106 1.16667 11.0758 1.27485 11.9457C1.38525 12.8334 1.61578 13.5418 2.13438 14.1025C2.65812 14.6687 3.32853 14.9254 4.16754 15.0474C4.97957 15.1654 6.01705 15.1654 7.32618 15.1654H8.67386C9.98299 15.1654 11.0205 15.1654 11.8325 15.0474C12.6715 14.9254 13.3419 14.6687 13.8657 14.1025C14.3843 13.5418 14.6148 12.8334 14.7252 11.9457C14.8334 11.0758 14.8334 9.96104 14.8334 8.53865V8.12541C14.8334 6.70302 14.8334 5.58824 14.7252 4.71837C14.6148 3.83065 14.3843 3.12226 13.8657 2.56161C13.489 2.15443 13.0365 1.90729 12.5 1.75522V1.33203C12.5 1.05589 12.2762 0.832031 12 0.832031C11.7239 0.832031 11.5 1.05589 11.5 1.33203V1.57596C10.7426 1.49868 9.81067 1.49869 8.67386 1.4987H7.32618C6.18937 1.49869 5.25739 1.49868 4.50002 1.57596V1.33203ZM2.86848 3.24065C3.04138 3.05374 3.24755 2.91064 3.51909 2.80259C3.57873 3.01202 3.77147 3.16536 4.00002 3.16536C4.27616 3.16536 4.50002 2.94151 4.50002 2.66536V2.58176C5.20736 2.49974 6.1216 2.4987 7.36669 2.4987H8.63335C9.87844 2.4987 10.7927 2.49974 11.5 2.58176V2.66536C11.5 2.94151 11.7239 3.16536 12 3.16536C12.2286 3.16536 12.4213 3.01202 12.481 2.8026C12.7525 2.91064 12.9587 3.05374 13.1316 3.24065C13.4464 3.58101 13.633 4.0476 13.7316 4.83203H2.26843C2.36704 4.0476 2.55365 3.58101 2.86848 3.24065ZM2.19264 5.83203C2.16705 6.46996 2.16669 7.23257 2.16669 8.16086V8.5032C2.16669 9.96874 2.1676 11.0213 2.26721 11.8223C2.36549 12.6126 2.55234 13.0816 2.86848 13.4234C3.1795 13.7596 3.59821 13.9541 4.31138 14.0578C5.04319 14.1641 6.00794 14.1654 7.36669 14.1654H8.63335C9.9921 14.1654 10.9568 14.1641 11.6887 14.0578C12.4018 13.9541 12.8205 13.7596 13.1316 13.4234C13.4477 13.0816 13.6345 12.6126 13.7328 11.8223C13.8324 11.0213 13.8334 9.96874 13.8334 8.5032V8.16086C13.8334 7.23257 13.833 6.46996 13.8074 5.83203H2.19264Z" fill="#161616"/>
</svg>
