<svg width="18" height="18" viewBox="0 0 18 18" fill="none" xmlns="http://www.w3.org/2000/svg">
<g id="elements">
<g id="Icon">
<path d="M9.62498 9.0013C9.62498 8.65612 9.34516 8.3763 8.99998 8.3763C8.6548 8.3763 8.37498 8.65612 8.37498 9.0013V10.8763H6.49998C6.1548 10.8763 5.87498 11.1561 5.87498 11.5013C5.87498 11.8465 6.1548 12.1263 6.49998 12.1263H8.37498V14.0013C8.37498 14.3465 8.6548 14.6263 8.99998 14.6263C9.34516 14.6263 9.62498 14.3465 9.62498 14.0013V12.1263H11.5C11.8452 12.1263 12.125 11.8465 12.125 11.5013C12.125 11.1561 11.8452 10.8763 11.5 10.8763H9.62498V9.0013Z" fill="#067647"/>
<path fill-rule="evenodd" clip-rule="evenodd" d="M4.62498 0.667969C4.62498 0.322791 4.34516 0.0429688 3.99998 0.0429688C3.6548 0.0429688 3.37498 0.322791 3.37498 0.667969V1.19696C2.70435 1.38704 2.13873 1.69597 1.66793 2.20494C1.01967 2.90576 0.731521 3.79124 0.59352 4.90089C0.458297 5.98822 0.458304 7.38169 0.458313 9.15967V9.67627C0.458304 11.4542 0.458297 12.8477 0.59352 13.935C0.731521 15.0447 1.01967 15.9302 1.66793 16.631C2.3226 17.3387 3.16062 17.6597 4.20938 17.8121C5.22441 17.9597 6.52127 17.9597 8.15768 17.9596H9.84228C11.4787 17.9597 12.7755 17.9597 13.7906 17.8121C14.8393 17.6597 15.6774 17.3387 16.332 16.631C16.9803 15.9302 17.2684 15.0447 17.4064 13.935C17.5417 12.8477 17.5417 11.4542 17.5416 9.67625V9.15969C17.5417 7.3817 17.5417 5.98823 17.4064 4.90089C17.2684 3.79124 16.9803 2.90576 16.332 2.20494C15.8612 1.69597 15.2956 1.38704 14.625 1.19696V0.667969C14.625 0.322791 14.3452 0.0429688 14 0.0429688C13.6548 0.0429688 13.375 0.322791 13.375 0.667969V0.972881C12.4283 0.876278 11.2633 0.876289 9.84228 0.876302H8.15768C6.73667 0.876289 5.5717 0.876278 4.62498 0.972881V0.667969ZM2.58556 3.05374C2.80167 2.8201 3.05939 2.64123 3.39881 2.50617C3.47337 2.76795 3.71429 2.95964 3.99998 2.95964C4.34516 2.95964 4.62498 2.67981 4.62498 2.33464V2.23012C5.50915 2.1276 6.65196 2.1263 8.20831 2.1263H9.79165C11.348 2.1263 12.4908 2.1276 13.375 2.23012V2.33464C13.375 2.67981 13.6548 2.95964 14 2.95964C14.2857 2.95964 14.5266 2.76795 14.6011 2.50617C14.9406 2.64123 15.1983 2.8201 15.4144 3.05374C15.8079 3.47919 16.0412 4.06243 16.1645 5.04297H1.83549C1.95875 4.06243 2.19201 3.47919 2.58556 3.05374ZM1.74075 6.29297H16.2592C16.2912 7.09038 16.2916 8.04364 16.2916 9.20401V9.63193C16.2916 11.4639 16.2905 12.7796 16.166 13.7808C16.0431 14.7687 15.8096 15.355 15.4144 15.7822C15.0256 16.2025 14.5022 16.4456 13.6108 16.5751C12.696 16.7081 11.4901 16.7096 9.79165 16.7096H8.20831C6.50988 16.7096 5.30395 16.7081 4.38918 16.5751C3.49771 16.4456 2.97432 16.2025 2.58556 15.7822C2.19038 15.355 1.95682 14.7687 1.83396 13.7808C1.70945 12.7796 1.70831 11.4639 1.70831 9.63193V9.20401C1.70831 8.04364 1.70877 7.09038 1.74075 6.29297Z" fill="#067647"/>
</g>
</g>
</svg>
