<svg width="14" height="14" viewBox="0 0 14 14" fill="none" xmlns="http://www.w3.org/2000/svg">
<g id="elements">
<g id="Icon">
<path d="M9.65519 5.54559C9.81846 5.36748 9.80643 5.09073 9.62831 4.92746C9.4502 4.76419 9.17345 4.77622 9.01018 4.95433L6.11061 8.1175L4.97537 6.98227C4.80452 6.81141 4.52751 6.81141 4.35666 6.98227C4.1858 7.15312 4.1858 7.43013 4.35666 7.60099L5.81499 9.05932C5.89937 9.1437 6.01455 9.18995 6.13385 9.18736C6.25315 9.18477 6.36622 9.13356 6.44685 9.04559L9.65519 5.54559Z" fill="#085D3A"/>
<path fill-rule="evenodd" clip-rule="evenodd" d="M6.99935 13.2708C3.53606 13.2708 0.728516 10.4632 0.728516 6.99996C0.728516 3.53667 3.53606 0.729126 6.99935 0.729126C10.4626 0.729126 13.2702 3.53667 13.2702 6.99996C13.2702 10.4632 10.4626 13.2708 6.99935 13.2708ZM1.60352 6.99996C1.60352 9.98 4.01931 12.3958 6.99935 12.3958C9.97939 12.3958 12.3952 9.98 12.3952 6.99996C12.3952 4.01992 9.97939 1.60413 6.99935 1.60413C4.01931 1.60413 1.60352 4.01992 1.60352 6.99996Z" fill="#085D3A"/>
</g>
</g>
</svg>
