<svg width="14" height="14" viewBox="0 0 14 14" fill="none" xmlns="http://www.w3.org/2000/svg">
<path fill-rule="evenodd" clip-rule="evenodd" d="M5.39591 5.2513C5.39591 6.13726 6.11412 6.85547 7.00008 6.85547C7.88604 6.85547 8.60425 6.13726 8.60425 5.2513C8.60425 4.36535 7.88604 3.64714 7.00008 3.64714C6.11412 3.64714 5.39591 4.36535 5.39591 5.2513ZM7.00008 5.98047C6.59737 5.98047 6.27091 5.65401 6.27091 5.2513C6.27091 4.84859 6.59737 4.52214 7.00008 4.52214C7.40279 4.52214 7.72925 4.84859 7.72925 5.2513C7.72925 5.65401 7.40279 5.98047 7.00008 5.98047Z" fill="#067647"/>
<path fill-rule="evenodd" clip-rule="evenodd" d="M6.87479 0.748789C6.95652 0.724362 7.04361 0.724362 7.12535 0.748789C8.13598 1.05083 9.47573 1.88483 10.2703 3.41346C10.6547 4.1531 10.9038 5.04012 10.9344 6.08613C12.204 6.50379 12.8002 7.43533 13.0638 8.26895C13.2046 8.71402 13.2526 9.13323 13.2663 9.43904C13.2731 9.59278 13.2713 9.72014 13.2677 9.81071C13.2659 9.85605 13.2636 9.89235 13.2616 9.91832L13.2605 9.93311L13.2591 9.94942L13.2582 9.9589L13.2579 9.96207L13.2577 9.96326C13.2577 9.96348 13.2576 9.96418 12.8226 9.91808L13.2576 9.96418C13.2412 10.1193 13.1435 10.2539 13.0011 10.3175C12.8588 10.3811 12.6933 10.3642 12.5668 10.273C11.9662 9.84016 11.1185 9.62112 10.3507 9.53139C10.29 9.70984 10.2241 9.89122 10.153 10.0755C10.1075 10.1933 10.0134 10.2857 9.89479 10.329C9.77619 10.3722 9.64469 10.3622 9.53406 10.3014C9.27393 10.1583 8.33464 9.80859 7.00007 9.80859C5.66549 9.80859 4.72621 10.1583 4.46607 10.3014C4.35545 10.3622 4.22394 10.3722 4.10535 10.329C3.98676 10.2857 3.89263 10.1933 3.84717 10.0755C3.776 9.89122 3.71015 9.70984 3.64943 9.5314C2.88169 9.62112 2.03398 9.84016 1.43338 10.273C1.30687 10.3642 1.1414 10.3811 0.99904 10.3175C0.856679 10.2539 0.758952 10.1193 0.74252 9.96418L1.17758 9.91808C0.74252 9.96418 0.742543 9.9644 0.74252 9.96418L0.742423 9.96326L0.742301 9.96207L0.741983 9.9589L0.741087 9.94942C0.740387 9.94173 0.739499 9.93131 0.738525 9.91832C0.736577 9.89235 0.73428 9.85605 0.732459 9.81071C0.728822 9.72014 0.727055 9.59278 0.733902 9.43904C0.747521 9.13323 0.795594 8.71402 0.936347 8.26895C1.19997 7.43533 1.79613 6.5038 3.06577 6.08614C3.09636 5.04012 3.34543 4.1531 3.72987 3.41346C4.5244 1.88483 5.86416 1.05083 6.87479 0.748789ZM3.09404 7.0112C3.13977 7.53348 3.23656 8.09002 3.3925 8.68194C2.83355 8.75791 2.20846 8.90132 1.63544 9.15746C1.65972 8.96594 1.70134 8.75186 1.77062 8.53278C1.9532 7.95547 2.32146 7.35014 3.09404 7.0112ZM10.6076 8.68193C11.1666 8.75791 11.7917 8.90132 12.3647 9.15746C12.3404 8.96594 12.2988 8.75186 12.2295 8.53278C12.047 7.95546 11.6787 7.35013 10.9061 7.01119C10.8604 7.53348 10.7636 8.09001 10.6076 8.68193ZM4.50681 9.33395C3.6268 6.80669 3.87939 5.02308 4.50626 3.817C5.1421 2.5937 6.1941 1.90327 7.00007 1.62734C7.80604 1.90327 8.85804 2.5937 9.49387 3.817C10.1207 5.02308 10.3733 6.80669 9.49333 9.33395C8.9462 9.13771 8.07491 8.93359 7.00007 8.93359C5.92523 8.93359 5.05394 9.13771 4.50681 9.33395Z" fill="#067647"/>
<path d="M5.46989 10.6532C5.70812 10.6135 5.93343 10.7743 5.97331 11.0124L5.9744 11.0182C5.97573 11.0251 5.97809 11.0368 5.98164 11.0527C5.98876 11.0846 6.00058 11.133 6.01832 11.1931C6.05412 11.3141 6.11246 11.4769 6.20177 11.6454C6.36837 11.9595 6.61935 12.2532 7.00015 12.3801C7.38095 12.2532 7.63193 11.9595 7.79853 11.6454C7.88784 11.4769 7.94617 11.3141 7.98197 11.1931C7.99972 11.133 8.01153 11.0846 8.01865 11.0527C8.02221 11.0368 8.02457 11.0251 8.0259 11.0182L8.027 11.0124L8.0271 11.0118C8.06732 10.774 8.29242 10.6135 8.53041 10.6532C8.76874 10.6929 8.92975 10.9183 8.89003 11.1566L8.88991 11.1574L8.88976 11.1582L8.8894 11.1603L8.88836 11.1662L8.88502 11.1841C8.88219 11.1987 8.87814 11.2186 8.87268 11.2432C8.86176 11.2921 8.84508 11.3599 8.82106 11.4412C8.77331 11.6027 8.69492 11.8227 8.57156 12.0553C8.32727 12.516 7.87882 13.0737 7.10225 13.2601C7.03514 13.2762 6.96516 13.2762 6.89805 13.2601C6.12148 13.0737 5.67303 12.516 5.42874 12.0553C5.30538 11.8227 5.22699 11.6027 5.17924 11.4412C5.15521 11.3599 5.13854 11.2921 5.12762 11.2432C5.12215 11.2186 5.11811 11.1987 5.11528 11.1841L5.11193 11.1662L5.11091 11.1603L5.11054 11.1582L5.11039 11.1574L5.11027 11.1566C5.07055 10.9183 5.23155 10.6929 5.46989 10.6532Z" fill="#067647"/>
</svg>
