<svg width="25" height="24" viewBox="0 0 25 24" fill="none" xmlns="http://www.w3.org/2000/svg">
<path fill-rule="evenodd" clip-rule="evenodd" d="M13.4998 1.25085C16.6608 1.25085 18.403 1.25085 19.73 2.18585C20.111 2.45385 20.45 2.77385 20.74 3.13685C21.751 4.40785 21.751 6.03485 21.751 9.27385V11.8189C21.751 14.8738 21.751 16.4069 21.229 17.7229C20.395 19.8279 18.639 21.4849 16.411 22.2669C15.2097 22.6876 13.8248 22.7418 11.3533 22.7488C11.341 22.7499 11.3287 22.7509 11.3163 22.7518C11.3019 22.753 11.2878 22.7518 11.2741 22.749C10.9315 22.7499 10.5683 22.7499 10.1821 22.7499C8.30016 22.7499 7.35498 22.7499 6.51699 22.4559C5.15599 21.9779 4.082 20.9639 3.571 19.6749C3.25 18.8659 3.25 17.9689 3.25 16.1829V11.6703C3.25 11.2563 3.586 10.9203 4 10.9203C4.414 10.9203 4.75 11.2563 4.75 11.6703V16.1828C4.75 17.7787 4.75 18.5799 4.96499 19.1229C5.31599 20.0079 6.06301 20.7079 7.01301 21.0419C7.61001 21.2519 8.46899 21.2519 10.181 21.2519C10.5634 21.2519 10.9221 21.2519 11.2591 21.2511C12.5619 21.1207 13.583 20.0176 13.583 18.681C13.583 18.5211 13.575 18.3488 13.5666 18.1666L13.5647 18.1261C13.5398 17.5815 13.5115 16.9649 13.665 16.389C13.888 15.557 14.543 14.902 15.375 14.679C15.9506 14.5256 16.5659 14.5537 17.1112 14.5787L17.1511 14.5805C17.3339 14.589 17.5067 14.597 17.667 14.597C19.0666 14.597 20.2102 13.4773 20.249 12.0869C20.249 11.9993 20.249 11.9104 20.249 11.82V9.27485C20.249 6.38385 20.249 4.93285 19.564 4.07185C19.364 3.82085 19.129 3.59885 18.864 3.41385C17.965 2.78085 16.4868 2.75286 13.4978 2.75286C13.0838 2.75286 12.7478 2.41686 12.7478 2.00286C12.7478 1.58886 13.0838 1.25286 13.4978 1.25286L13.4998 1.25085ZM20.1944 15.2184C19.4986 15.7683 18.6204 16.097 17.667 16.097C17.4762 16.097 17.2811 16.0883 17.0905 16.0799C17.0763 16.0792 17.0621 16.0786 17.048 16.078L17.0321 16.0772C16.5781 16.0565 16.1109 16.0351 15.763 16.129C15.448 16.213 15.199 16.462 15.115 16.777C15.0212 17.1291 15.0429 17.6017 15.0638 18.0587L15.064 18.062C15.074 18.266 15.083 18.476 15.083 18.681C15.083 19.617 14.7663 20.4805 14.2344 21.17C14.9126 21.1131 15.4462 21.0165 15.913 20.8529C17.73 20.2149 19.159 18.8729 19.833 17.1719C20.0375 16.6556 20.1415 16.0456 20.1944 15.2184Z" fill="#161616"/>
<path d="M6.08933 4.36016C5.89711 4.60489 5.69487 4.86201 5.53781 5.0236C5.24911 5.32062 4.77428 5.32737 4.47726 5.03867C4.18023 4.74996 4.17349 4.27514 4.46219 3.97811C4.55089 3.88685 4.69651 3.70504 4.90971 3.43362L4.95675 3.37369C5.14683 3.13155 5.3698 2.84749 5.59954 2.57636C5.84574 2.28581 6.12131 1.98401 6.39679 1.74939C6.53484 1.63182 6.69043 1.51585 6.85782 1.42627C7.01926 1.33987 7.24172 1.25085 7.5 1.25085C7.75829 1.25085 7.98074 1.33987 8.14218 1.42627C8.30957 1.51585 8.46517 1.63182 8.60321 1.74939C8.87869 1.98401 9.15426 2.28581 9.40047 2.57636C9.6302 2.84748 9.85317 3.13154 10.0432 3.37368L10.0903 3.43362C10.3035 3.70504 10.4491 3.88685 10.5378 3.97811C10.8265 4.27514 10.8198 4.74996 10.5227 5.03867C10.2257 5.32737 9.75089 5.32062 9.46219 5.0236C9.30513 4.86201 9.1029 4.60489 8.91067 4.36016L8.86595 4.30321C8.67304 4.05748 8.46675 3.79471 8.25606 3.54607L8.25 3.53893V10.0009C8.25 10.4151 7.91421 10.7509 7.5 10.7509C7.08579 10.7509 6.75 10.4151 6.75 10.0009V3.53893L6.74394 3.54607C6.53326 3.7947 6.32698 4.05746 6.13408 4.30318L6.08933 4.36016Z" fill="#161616"/>
</svg>
