<svg width="14" height="14" viewBox="0 0 14 14" fill="none" xmlns="http://www.w3.org/2000/svg">
<path d="M0.497437 6.99902C0.497437 10.5837 3.4141 13.4997 6.99877 13.4997C10.5834 13.4997 13.4994 10.5837 13.4994 6.99902C13.4994 6.72302 13.2754 6.49902 12.9994 6.49902C12.7234 6.49902 12.4994 6.72302 12.4994 6.99902C12.4994 10.0324 10.0321 12.4997 6.99877 12.4997C3.96544 12.4997 1.49744 10.0317 1.49744 6.99902C1.49744 3.96636 3.96544 1.49902 6.99877 1.49902C7.27477 1.49902 7.49877 1.27502 7.49877 0.999023C7.49877 0.723023 7.27477 0.499023 6.99877 0.499023C3.4141 0.499023 0.497437 3.41436 0.497437 6.99902Z" fill="#384250"/>
<path d="M8.6378 5.35835C8.73513 5.45635 8.86383 5.5057 8.99183 5.5057C9.11917 5.5057 9.24717 5.45702 9.3445 5.35968L12.4371 2.28035C12.4771 2.68435 12.5078 3.32435 12.4938 4.32835C12.4898 4.60502 12.7105 4.83169 12.9865 4.83569H12.9938C13.2665 4.83569 13.4898 4.61635 13.4938 4.34302C13.5351 1.43902 13.2225 1.12635 13.0545 0.958348C12.8864 0.790267 12.5738 0.477719 9.66911 0.519025C9.39311 0.522358 9.17247 0.749682 9.17647 1.02568C9.18047 1.29902 9.4038 1.51836 9.67647 1.51836H9.68382C10.6838 1.50436 11.3238 1.53501 11.7278 1.57501L8.63916 4.65102C8.44383 4.84636 8.44313 5.16235 8.6378 5.35835Z" fill="#384250"/>
</svg>
