<svg width="16" height="16" viewBox="0 0 16 16" fill="none" xmlns="http://www.w3.org/2000/svg">
<g id="elements">
<g id="Icon">
<path d="M14.2228 1.83145C12.7842 0.334177 10.4409 0.334179 9.00229 1.83145L8.40768 2.45029C8.16853 2.69919 8.17643 3.09484 8.42533 3.33399C8.67423 3.57315 9.06988 3.56525 9.30904 3.31635L9.90364 2.69751C10.8504 1.71216 12.3747 1.71216 13.3215 2.69751C14.2817 3.69692 14.2817 5.32724 13.3215 6.32665L10.622 9.13615C10.4722 9.292 10.3091 9.42228 10.1374 9.52784C9.21398 10.0954 8.00459 9.9692 7.20415 9.13615C7.07395 9.00063 6.96153 8.8538 6.86676 8.6986C6.68687 8.404 6.30222 8.31101 6.00762 8.4909C5.71303 8.67079 5.62004 9.05543 5.79993 9.35003C5.9412 9.58139 6.10887 9.80038 6.3028 10.0022C7.51489 11.2637 9.37299 11.4649 10.7919 10.5928C11.0542 10.4316 11.3002 10.2344 11.5233 10.0022L14.2228 7.19271C15.648 5.70949 15.648 3.31467 14.2228 1.83145Z" fill="#1B8354"/>
<path d="M9.69721 5.99812C8.25855 4.50084 5.91529 4.50085 4.47663 5.99812L1.77712 8.80762C0.351963 10.2908 0.351964 12.6857 1.77712 14.1689C3.21578 15.6661 5.55904 15.6661 6.9977 14.1689L7.59251 13.5498C7.83167 13.3009 7.82377 12.9053 7.57487 12.6661C7.32597 12.427 6.93032 12.4349 6.69116 12.6838L6.09635 13.3028C5.14956 14.2882 3.62525 14.2882 2.67847 13.3028C1.71818 12.3034 1.71818 10.6731 2.67847 9.67368L5.37798 6.86418C6.32477 5.87882 7.84908 5.87882 8.79586 6.86418C8.92604 6.99966 9.03843 7.14645 9.13319 7.30161C9.3131 7.5962 9.69775 7.68917 9.99234 7.50926C10.2869 7.32935 10.3799 6.9447 10.2 6.65012C10.0587 6.41882 9.89109 6.19989 9.69721 5.99812Z" fill="#1B8354"/>
</g>
</g>
</svg>
