<svg width="24" height="24" viewBox="0 0 24 24" fill="none" xmlns="http://www.w3.org/2000/svg">
<path d="M7.5 8.25C7.08579 8.25 6.75 8.58579 6.75 9C6.75 9.41421 7.08579 9.75 7.5 9.75H9.5C9.91421 9.75 10.25 9.41421 10.25 9C10.25 8.58579 9.91421 8.25 9.5 8.25H7.5Z" fill="#067647"/>
<path d="M7.5 12.25C7.08579 12.25 6.75 12.5858 6.75 13C6.75 13.4142 7.08579 13.75 7.5 13.75H9.5C9.91421 13.75 10.25 13.4142 10.25 13C10.25 12.5858 9.91421 12.25 9.5 12.25H7.5Z" fill="#067647"/>
<path d="M7.5 16.25C7.08579 16.25 6.75 16.5858 6.75 17C6.75 17.4142 7.08579 17.75 7.5 17.75L9.5 17.75C9.91421 17.75 10.25 17.4142 10.25 17C10.25 16.5858 9.91421 16.25 9.5 16.25H7.5Z" fill="#067647"/>
<path fill-rule="evenodd" clip-rule="evenodd" d="M2 21.25C1.58579 21.25 1.25 21.5858 1.25 22C1.25 22.4142 1.58579 22.75 2 22.75L22 22.75C22.4142 22.75 22.75 22.4142 22.75 22C22.75 21.5858 22.4142 21.25 22 21.25H20.7502L20.7502 11.2016C20.7502 10.9307 20.7503 10.6655 20.723 10.4394C20.6917 10.1801 20.6192 9.90999 20.4343 9.65361C20.255 9.40496 20.0247 9.24556 19.7973 9.12151C19.587 9.00686 19.3236 8.89397 19.0342 8.76997L13.75 6.50532L13.75 4.6142C13.7501 3.91389 13.7501 3.29874 13.6738 2.82438C13.5914 2.31266 13.3916 1.77693 12.838 1.46126C12.3032 1.15634 11.7372 1.22959 11.2355 1.38104C10.7535 1.52658 10.1665 1.79739 9.47962 2.11433L4.90106 4.22655C4.62304 4.35477 4.36693 4.4729 4.16227 4.59305C3.93804 4.72469 3.71565 4.8917 3.5449 5.1466C3.37155 5.4054 3.30471 5.67496 3.27567 5.93405C3.24993 6.16381 3.24996 6.43455 3.25 6.71798L3.25001 21.25H2ZM13.75 21.25H19.2502V11.236C19.2502 10.9174 19.2489 10.7445 19.2338 10.619C19.2272 10.5645 19.22 10.5396 19.2171 10.5313L19.2166 10.5297L19.2151 10.5281C19.213 10.5259 19.2081 10.5211 19.1989 10.5138C19.1795 10.4983 19.1439 10.4737 19.079 10.4384C18.9388 10.3619 18.7419 10.2767 18.4149 10.1365L13.75 8.13727L13.75 21.25ZM12.25 21.25L12.25 4.67524C12.25 3.89537 12.2477 3.40342 12.1928 3.06272C12.167 2.90211 12.136 2.82445 12.1172 2.79032C12.1065 2.77064 12.1025 2.76847 12.0967 2.76526L12.0949 2.7643C12.0865 2.75949 12.0703 2.75022 12.018 2.75C11.954 2.74973 11.8461 2.76358 11.6691 2.81703C11.2997 2.92854 10.8089 3.15303 10.058 3.49946L5.55795 5.57543C5.24184 5.72126 5.05459 5.80858 4.92168 5.88661C4.86077 5.92237 4.82794 5.94685 4.81026 5.96202C4.79552 5.97467 4.79179 5.98041 4.7912 5.98131C4.79087 5.98174 4.78901 5.98418 4.78561 5.99485C4.781 6.00935 4.77313 6.0405 4.76634 6.10109C4.75109 6.23721 4.75001 6.42242 4.75001 6.75121L4.75001 21.25L12.25 21.25Z" fill="#067647"/>
</svg>
