<svg width="20" height="20" viewBox="0 0 20 20" fill="none" xmlns="http://www.w3.org/2000/svg">
<path d="M9.99996 9.37505C9.65478 9.37505 9.37496 9.65487 9.37496 10.0001C9.37496 10.3452 9.65478 10.6251 9.99996 10.6251L17.2702 10.6251C17.1452 10.7535 16.9914 10.904 16.8017 11.089L15.4159 12.4749C15.1718 12.719 15.1718 13.1147 15.4159 13.3588C15.66 13.6029 16.0557 13.6028 16.2998 13.3588L17.6772 11.9812L17.7039 11.9552C18.0437 11.6239 18.3445 11.3306 18.5543 11.0587C18.7839 10.7611 18.9583 10.423 18.9583 10.0001C18.9583 9.57706 18.7839 9.239 18.5543 8.94138C18.3445 8.66951 18.0437 8.37622 17.7039 8.04491L17.6772 8.01888L16.2999 6.64155C16.0558 6.39748 15.6601 6.39748 15.416 6.64155C15.1719 6.88563 15.1719 7.28136 15.416 7.52544L16.7961 8.90559L16.8017 8.91107C16.9914 9.09609 17.1452 9.24659 17.2702 9.37505H9.99996Z" fill="#161616"/>
<path fill-rule="evenodd" clip-rule="evenodd" d="M4.16663 6.87506C2.44074 6.87506 1.04163 8.27417 1.04163 10.0001C1.04163 11.726 2.44074 13.1251 4.16663 13.1251C5.89252 13.1251 7.29163 11.726 7.29163 10.0001C7.29163 8.27417 5.89252 6.87506 4.16663 6.87506ZM2.29163 10.0001C2.29163 8.96453 3.13109 8.12506 4.16663 8.12506C5.20216 8.12506 6.04163 8.96453 6.04163 10.0001C6.04163 11.0356 5.20216 11.8751 4.16663 11.8751C3.13109 11.8751 2.29163 11.0356 2.29163 10.0001Z" fill="#161616"/>
</svg>
