<svg width="20" height="20" viewBox="0 0 20 20" fill="none" xmlns="http://www.w3.org/2000/svg">
<path d="M13.3333 10.625C13.6785 10.625 13.9583 10.3452 13.9583 9.99999C13.9583 9.65481 13.6785 9.37499 13.3333 9.37499H6.66663C6.32145 9.37499 6.04163 9.65481 6.04163 9.99999C6.04163 10.3452 6.32145 10.625 6.66663 10.625H13.3333Z" fill="white"/>
<path fill-rule="evenodd" clip-rule="evenodd" d="M9.99996 18.9583C5.05241 18.9583 1.04163 14.9475 1.04163 9.99999C1.04163 5.05244 5.05241 1.04166 9.99996 1.04166C14.9475 1.04166 18.9583 5.05244 18.9583 9.99999C18.9583 14.9475 14.9475 18.9583 9.99996 18.9583ZM2.29163 9.99999C2.29163 14.2572 5.74276 17.7083 9.99996 17.7083C14.2572 17.7083 17.7083 14.2572 17.7083 9.99999C17.7083 5.7428 14.2572 2.29166 9.99996 2.29166C5.74276 2.29166 2.29163 5.7428 2.29163 9.99999Z" fill="white"/>
</svg>
