<svg width="24" height="25" viewBox="0 0 24 25" fill="none" xmlns="http://www.w3.org/2000/svg">
<path d="M19.875 3.5H18V2.5C18 2.23478 17.8946 1.98043 17.7071 1.79289C17.5196 1.60536 17.2652 1.5 17 1.5C16.7348 1.5 16.4804 1.60536 16.2929 1.79289C16.1054 1.98043 16 2.23478 16 2.5V3.5H13V2.5C13 2.23478 12.8946 1.98043 12.7071 1.79289C12.5196 1.60536 12.2652 1.5 12 1.5C11.7348 1.5 11.4804 1.60536 11.2929 1.79289C11.1054 1.98043 11 2.23478 11 2.5V3.5H8V2.5C8 2.23478 7.89464 1.98043 7.70711 1.79289C7.51957 1.60536 7.26522 1.5 7 1.5C6.73478 1.5 6.48043 1.60536 6.29289 1.79289C6.10536 1.98043 6 2.23478 6 2.5V3.5H4.125C3.29652 3.50106 2.50228 3.83064 1.91646 4.41646C1.33064 5.00228 1.00106 5.79652 1 6.625V9.5H23V6.625C22.9989 5.79652 22.6694 5.00228 22.0835 4.41646C21.4977 3.83064 20.7035 3.50106 19.875 3.5Z" fill="#737B8B"/>
<path d="M1 20.375C1.00106 21.2035 1.33064 21.9977 1.91646 22.5835C2.50228 23.1694 3.29652 23.4989 4.125 23.5H19.875C20.7035 23.4989 21.4977 23.1694 22.0835 22.5835C22.6694 21.9977 22.9989 21.2035 23 20.375V11.5H1V20.375ZM8.293 16.357C8.48053 16.1695 8.73484 16.0642 9 16.0642C9.26517 16.0642 9.51947 16.1695 9.707 16.357L11 17.649L14.293 14.357C14.4816 14.1748 14.7342 14.074 14.9964 14.0763C15.2586 14.0786 15.5094 14.1838 15.6948 14.3692C15.8802 14.5546 15.9854 14.8054 15.9877 15.0676C15.99 15.3298 15.8892 15.5824 15.707 15.771L11.707 19.771C11.5195 19.9585 11.2652 20.0638 11 20.0638C10.7348 20.0638 10.4805 19.9585 10.293 19.771L8.293 17.771C8.10553 17.5835 8.00021 17.3292 8.00021 17.064C8.00021 16.7988 8.10553 16.5445 8.293 16.357Z" fill="#737B8B"/>
</svg>
