<svg width="16" height="16" viewBox="0 0 16 16" fill="none" xmlns="http://www.w3.org/2000/svg">
<path fill-rule="evenodd" clip-rule="evenodd" d="M7.89063 1.16797C7.45359 1.16795 7.07745 1.16793 6.76871 1.20905C6.43444 1.25357 6.1302 1.35131 5.85953 1.57891C5.59543 1.80099 5.43285 2.08855 5.30135 2.41833C5.18637 2.70668 5.08016 3.06811 4.95613 3.5013H3.09869C2.13268 3.5013 1.55928 4.21659 1.32121 4.9405C1.08505 5.65864 1.11194 6.54253 1.45561 7.19606C1.47104 7.2254 1.48669 7.25451 1.50258 7.2834C1.49998 7.3089 1.49931 7.33492 1.50072 7.36131L1.60254 9.26817L1.60411 9.30279C1.65744 10.4763 1.69973 11.4069 1.82954 12.134C1.96323 12.8829 2.20045 13.486 2.69381 13.9574C3.18717 14.4289 3.80042 14.6385 4.5546 14.738C5.28685 14.8347 6.21836 14.8347 7.39309 14.8346H8.60691C9.78163 14.8347 10.7132 14.8347 11.4454 14.738C12.1996 14.6385 12.8129 14.4289 13.3062 13.9574C13.7996 13.486 14.0368 12.8829 14.1705 12.134C14.3003 11.4069 14.3426 10.4763 14.3959 9.30277L14.3974 9.27015L14.3976 9.26619L14.4993 7.36131C14.5007 7.33493 14.5 7.30892 14.4975 7.28344C14.5133 7.25454 14.529 7.22541 14.5444 7.19606C14.8881 6.54253 14.915 5.65864 14.6788 4.9405C14.4408 4.21659 13.8674 3.5013 12.9014 3.5013H11.0437C10.9197 3.06811 10.8135 2.70668 10.6985 2.41833C10.567 2.08855 10.4044 1.80099 10.1403 1.57891C9.86965 1.35131 9.56541 1.25357 9.23115 1.20905C8.92241 1.16793 8.54629 1.16795 8.10925 1.16797H7.89063ZM10.0028 3.5013C9.91518 3.20207 9.84313 2.97306 9.76963 2.78872C9.66716 2.53175 9.58182 2.41583 9.49673 2.34428C9.41822 2.27826 9.31596 2.22918 9.09912 2.2003C8.86411 2.169 8.5551 2.16797 8.0779 2.16797H7.92195C7.44475 2.16797 7.13575 2.169 6.90074 2.2003C6.68389 2.22918 6.58163 2.27826 6.50312 2.34428C6.41803 2.41583 6.33269 2.53175 6.23023 2.78872C6.15672 2.97306 6.08468 3.20207 5.99709 3.5013H10.0028ZM2.27117 5.2529C2.10483 5.75869 2.14359 6.35582 2.34069 6.73062C3.34862 8.64731 5.67122 9.5013 8.00003 9.5013C10.3288 9.5013 12.6514 8.64731 13.6594 6.73062C13.8565 6.35582 13.8952 5.75869 13.7289 5.2529C13.5644 4.75287 13.2672 4.5013 12.9014 4.5013H3.09869C2.73286 4.5013 2.4356 4.75287 2.27117 5.2529ZM8.50004 10.4891C10.268 10.4028 12.1182 9.85179 13.4294 8.64323L13.3988 9.21683L13.3986 9.22078C13.3432 10.4391 13.3029 11.3037 13.1861 11.9583C13.0717 12.5986 12.895 12.9672 12.6153 13.2344C12.3357 13.5017 11.9595 13.6615 11.3146 13.7466C10.6553 13.8336 9.78988 13.8346 8.57026 13.8346H7.42976C6.21015 13.8346 5.34469 13.8336 4.68546 13.7466C4.04056 13.6615 3.66437 13.5017 3.38468 13.2344C3.10498 12.9672 2.9283 12.5986 2.81397 11.9583C2.69711 11.3037 2.65681 10.4391 2.60143 9.22078L2.57059 8.64319C3.88182 9.85179 5.73204 10.4028 7.50004 10.4891V11.0013C7.50004 11.2774 7.7239 11.5013 8.00004 11.5013C8.27618 11.5013 8.50004 11.2774 8.50004 11.0013V10.4891Z" fill="#384250"/>
</svg>
