<svg width="25" height="24" viewBox="0 0 25 24" fill="none" xmlns="http://www.w3.org/2000/svg">
<path d="M10.75 19C10.75 18.5858 11.0858 18.25 11.5 18.25H13.5C13.9142 18.25 14.25 18.5858 14.25 19C14.25 19.4142 13.9142 19.75 13.5 19.75H11.5C11.0858 19.75 10.75 19.4142 10.75 19Z" fill="#067647"/>
<path fill-rule="evenodd" clip-rule="evenodd" d="M12.4443 1.25H12.5557C14.1583 1.24998 15.4373 1.24997 16.4404 1.38483C17.4767 1.52415 18.3301 1.81966 19.0052 2.4948C19.6803 3.16994 19.9759 4.02335 20.1152 5.05961C20.25 6.0627 20.25 7.34166 20.25 8.94426V15.0557C20.25 16.6583 20.25 17.9373 20.1152 18.9404C19.9759 19.9767 19.6803 20.8301 19.0052 21.5052C18.3301 22.1803 17.4767 22.4759 16.4404 22.6152C15.4373 22.75 14.1583 22.75 12.5557 22.75H12.4443C10.8417 22.75 9.5627 22.75 8.55961 22.6152C7.52335 22.4759 6.66994 22.1803 5.9948 21.5052C5.31966 20.8301 5.02415 19.9767 4.88483 18.9404C4.74997 17.9373 4.74998 16.6583 4.75 15.0558V8.94426C4.74998 7.34167 4.74997 6.0627 4.88483 5.05961C5.02415 4.02335 5.31966 3.16994 5.9948 2.4948C6.66994 1.81966 7.52335 1.52415 8.55961 1.38483C9.5627 1.24997 10.8417 1.24998 12.4443 1.25ZM8.75949 2.87145C7.88955 2.98841 7.40544 3.20547 7.05546 3.55546C6.70547 3.90544 6.48841 4.38955 6.37145 5.25949C6.25159 6.15099 6.25 7.32888 6.25 9V15C6.25 16.6711 6.25159 17.849 6.37145 18.7405C6.48841 19.6105 6.70547 20.0946 7.05546 20.4445C7.40544 20.7945 7.88955 21.0116 8.75949 21.1285C9.65099 21.2484 10.8289 21.25 12.5 21.25C14.1711 21.25 15.349 21.2484 16.2405 21.1285C17.1104 21.0116 17.5946 20.7945 17.9445 20.4445C18.2945 20.0946 18.5116 19.6105 18.6285 18.7405C18.7484 17.849 18.75 16.6711 18.75 15V9C18.75 7.32888 18.7484 6.15099 18.6285 5.25949C18.5116 4.38955 18.2945 3.90544 17.9445 3.55546C17.5946 3.20547 17.1104 2.98841 16.2405 2.87145C16.2002 2.86603 16.1592 2.86085 16.1177 2.8559C16.0378 3.33304 15.964 3.75073 15.8641 4.09118C15.745 4.497 15.5664 4.87807 15.2226 5.18307C14.867 5.49855 14.4575 5.63108 14.0188 5.6917C13.6053 5.74887 13.0948 5.75001 12.5001 5.75001C11.9052 5.75001 11.3948 5.74887 10.9813 5.6917C10.5426 5.63108 10.1331 5.49855 9.77749 5.18307C9.43371 4.87807 9.25511 4.497 9.136 4.09118C9.03609 3.75073 8.96229 3.33304 8.88238 2.85589C8.84082 2.86084 8.79986 2.86603 8.75949 2.87145ZM10.3883 2.76455C10.4568 3.16581 10.5107 3.4487 10.5753 3.66877C10.6519 3.92961 10.7199 4.01392 10.773 4.06103C10.8314 4.11285 10.9224 4.1693 11.1866 4.20583C11.476 4.24582 11.871 4.25001 12.5001 4.25001C13.1291 4.25001 13.5241 4.24582 13.8135 4.20583C14.0777 4.1693 14.1687 4.11285 14.2271 4.06103C14.2802 4.01392 14.3482 3.92961 14.4248 3.66877C14.4894 3.4487 14.5433 3.16581 14.6118 2.76455C14.0086 2.75038 13.3126 2.75 12.5 2.75C11.6874 2.75 10.9914 2.75038 10.3883 2.76455Z" fill="#067647"/>
</svg>
