<svg width="20" height="20" viewBox="0 0 20 20" fill="none" xmlns="http://www.w3.org/2000/svg">
<g id="Feedback Icon">
<path id="bg" fill-rule="evenodd" clip-rule="evenodd" d="M9.99998 19.1654C15.0626 19.1654 19.1666 15.0613 19.1666 9.9987C19.1666 4.93609 15.0626 0.832031 9.99998 0.832031C4.93737 0.832031 0.833313 4.93609 0.833313 9.9987C0.833313 15.0613 4.93737 19.1654 9.99998 19.1654Z" fill="white"/>
<path id="Icon" fill-rule="evenodd" clip-rule="evenodd" d="M9.99998 19.1654C15.0626 19.1654 19.1666 15.0613 19.1666 9.9987C19.1666 4.93609 15.0626 0.832031 9.99998 0.832031C4.93737 0.832031 0.833313 4.93609 0.833313 9.9987C0.833313 15.0613 4.93737 19.1654 9.99998 19.1654ZM5.87516 9.26646C5.54972 9.5919 5.54972 10.1195 5.87516 10.445L8.23218 12.802C8.55762 13.1274 9.08526 13.1274 9.41069 12.802L14.1247 8.08795C14.4502 7.76252 14.4502 7.23488 14.1247 6.90944C13.7993 6.584 13.2717 6.584 12.9462 6.90944L8.82144 11.0342L7.05367 9.26646C6.72823 8.94103 6.2006 8.94103 5.87516 9.26646Z" fill="#067647"/>
</g>
</svg>
