<svg width="16" height="16" viewBox="0 0 16 16" fill="none" xmlns="http://www.w3.org/2000/svg">
<path d="M4.00008 4.00008C4.00008 3.63189 4.29856 3.33341 4.66675 3.33341H4.67274C5.04093 3.33341 5.3394 3.63189 5.3394 4.00008C5.3394 4.36827 5.04093 4.66675 4.67274 4.66675H4.66675C4.29856 4.66675 4.00008 4.36827 4.00008 4.00008Z" fill="#161616"/>
<path d="M7.33341 3.33341C6.96522 3.33341 6.66675 3.63189 6.66675 4.00008C6.66675 4.36827 6.96522 4.66675 7.33341 4.66675H7.3394C7.70759 4.66675 8.00607 4.36827 8.00607 4.00008C8.00607 3.63189 7.70759 3.33341 7.3394 3.33341H7.33341Z" fill="#161616"/>
<path fill-rule="evenodd" clip-rule="evenodd" d="M8.0382 1.16675H7.96197C6.5015 1.16674 5.35438 1.16673 4.45876 1.28714C3.54099 1.41054 2.81282 1.66856 2.24069 2.24069C1.66856 2.81282 1.41054 3.54099 1.28714 4.45876C1.16673 5.35438 1.16674 6.50149 1.16675 7.96197V8.0382C1.16674 9.49867 1.16673 10.6458 1.28714 11.5414C1.41054 12.4592 1.66856 13.1873 2.24069 13.7595C2.81282 14.3316 3.54099 14.5896 4.45876 14.713C5.35437 14.8334 6.50148 14.8334 7.96195 14.8334H8.03819C9.49866 14.8334 10.6458 14.8334 11.5414 14.713C12.4592 14.5896 13.1873 14.3316 13.7595 13.7595C14.3316 13.1873 14.5896 12.4592 14.713 11.5414C14.8334 10.6458 14.8334 9.49868 14.8334 8.03822V7.96197C14.8334 6.50151 14.8334 5.35437 14.713 4.45876C14.5896 3.54099 14.3316 2.81282 13.7595 2.24069C13.1873 1.66856 12.4592 1.41054 11.5414 1.28714C10.6458 1.16673 9.49867 1.16674 8.0382 1.16675ZM2.9478 2.9478C3.30316 2.59243 3.78513 2.38671 4.59201 2.27823C5.41328 2.16781 6.49317 2.16675 8.00008 2.16675C9.507 2.16675 10.5869 2.16781 11.4082 2.27823C12.215 2.38671 12.697 2.59243 13.0524 2.9478C13.4077 3.30316 13.6135 3.78513 13.7219 4.59201C13.7585 4.86424 13.7831 5.16489 13.7996 5.50008H2.20053C2.21704 5.16489 2.24163 4.86424 2.27823 4.59201C2.38671 3.78513 2.59243 3.30316 2.9478 2.9478ZM2.1726 6.50008C2.16689 6.94774 2.16675 7.44493 2.16675 8.00008C2.16675 9.507 2.16781 10.5869 2.27823 11.4082C2.38671 12.215 2.59243 12.697 2.9478 13.0524C3.30316 13.4077 3.78513 13.6135 4.59201 13.7219C5.41328 13.8324 6.49317 13.8334 8.00008 13.8334C9.507 13.8334 10.5869 13.8324 11.4082 13.7219C12.215 13.6135 12.697 13.4077 13.0524 13.0524C13.4077 12.697 13.6135 12.215 13.7219 11.4082C13.8324 10.5869 13.8334 9.507 13.8334 8.00008C13.8334 7.44493 13.8333 6.94774 13.8276 6.50008H2.1726Z" fill="#161616"/>
</svg>
