<svg width="16" height="16" viewBox="0 0 16 16" fill="none" xmlns="http://www.w3.org/2000/svg">
<path fill-rule="evenodd" clip-rule="evenodd" d="M7.99982 0.832031C6.06682 0.832031 4.49982 2.39903 4.49982 4.33203C4.49982 6.26503 6.06682 7.83203 7.99982 7.83203C9.93281 7.83203 11.4998 6.26503 11.4998 4.33203C11.4998 2.39903 9.93281 0.832031 7.99982 0.832031ZM5.49982 4.33203C5.49982 2.95132 6.6191 1.83203 7.99982 1.83203C9.38053 1.83203 10.4998 2.95132 10.4998 4.33203C10.4998 5.71274 9.38053 6.83203 7.99982 6.83203C6.6191 6.83203 5.49982 5.71274 5.49982 4.33203Z" fill="#384250"/>
<path fill-rule="evenodd" clip-rule="evenodd" d="M12.1524 10.0515C12.044 9.99033 11.9482 9.93631 11.8707 9.89015C9.50132 8.47933 6.49854 8.47933 4.12918 9.89015C4.05163 9.93632 3.95585 9.99036 3.84741 10.0515C3.3722 10.3196 2.65386 10.7249 2.16175 11.2066C1.85397 11.5078 1.56153 11.9048 1.50837 12.3912C1.45183 12.9084 1.67747 13.3938 2.13015 13.8251C2.91112 14.5691 3.84831 15.1654 5.06051 15.1654H10.9394C12.1516 15.1654 13.0887 14.5691 13.8697 13.8251C14.3224 13.3938 14.548 12.9084 14.4915 12.3912C14.4383 11.9048 14.1459 11.5078 13.8381 11.2066C13.346 10.7249 12.6276 10.3196 12.1524 10.0515ZM4.64079 10.7494C6.69491 9.52625 9.30496 9.52625 11.3591 10.7494C11.471 10.816 11.5936 10.8856 11.7221 10.9585C12.1972 11.228 12.7519 11.5427 13.1386 11.9212C13.3787 12.1562 13.481 12.3501 13.4974 12.4999C13.5104 12.6188 13.4804 12.8149 13.1799 13.1011C12.4894 13.759 11.7877 14.1654 10.9394 14.1654H5.06051C4.21221 14.1654 3.5105 13.759 2.81993 13.1011C2.51951 12.8149 2.48945 12.6188 2.50245 12.4999C2.51882 12.3501 2.62116 12.1562 2.86125 11.9212C3.24797 11.5427 3.80265 11.228 4.27772 10.9585C4.40617 10.8856 4.52888 10.816 4.64079 10.7494Z" fill="#384250"/>
</svg>
