<svg width="25" height="18" viewBox="0 0 25 18" fill="none" xmlns="http://www.w3.org/2000/svg">
<path d="M14.1964 12.5628L12.8731 15.4164C12.3597 16.0591 11.6928 16.5785 10.9359 16.923C10.179 17.2829 9.35329 17.4783 8.51171 17.4988C5.01834 17.5657 3.3934 14.5115 3.3934 14.5115C1.41912 11.3493 0.831599 7.17934 0.693981 5.83735C0.65693 5.68309 0.630466 5.5237 0.625173 5.3643C0.61988 4.95296 0.736325 4.54162 0.974509 4.19199C1.17564 3.83206 1.48263 3.53898 1.85314 3.33846C2.25012 3.15335 2.68943 3.0608 3.13404 3.07109C3.5469 3.08651 3.95445 3.19963 4.30908 3.4053C4.57903 3.56469 4.81192 3.77036 5.00246 4.01202C5.28829 4.47992 5.43649 5.01467 5.44178 5.55969C5.5794 6.75258 5.82288 7.93004 6.16692 9.08693C6.43157 10.0073 6.80208 10.8968 7.27315 11.7401C7.44782 12.1257 7.72305 12.4599 8.0671 12.7119L8.27882 12.8147C8.83458 12.9175 9.14157 12.4753 9.35329 12.1103C9.62853 11.4727 9.872 10.8248 10.0784 10.1616C10.1102 10.0279 10.1472 9.92504 10.1843 9.79135C10.2531 9.55997 10.3113 9.32345 10.3537 9.08693L11.4652 6.19213L14.1964 12.5628Z" fill="url(#paint0_linear_395_18179)"/>
<path d="M17.169 0.5C16.32 0.505656 15.4822 0.689216 14.7131 1.03783C13.9483 1.40906 13.2845 1.94997 12.7753 2.61686L11.2197 6.68038L14.2648 12.3615L15.3017 9.13454L15.4028 8.63065C15.6071 7.7802 15.885 6.94775 16.2332 6.14204C16.3433 5.80988 16.5476 5.51372 16.8218 5.28851L16.8567 5.25457C17.1071 5.13477 17.4072 5.17385 17.6168 5.35278C17.7465 5.44019 17.8534 5.55537 17.9286 5.69008C18.0339 5.82222 18.1001 5.95899 18.2054 6.09114C18.3732 6.36468 18.5198 6.65004 18.6447 6.94467C18.7601 7.18376 18.8967 7.41205 19.0533 7.62749C19.0729 7.62749 19.0883 7.64292 19.0883 7.66143C19.3249 7.90977 19.6064 8.11339 19.9187 8.26301C20.2257 8.42446 20.5714 8.5057 20.9207 8.49799C21.2404 8.49542 21.5569 8.43937 21.8565 8.3314C22.1561 8.22188 22.4276 8.05014 22.652 7.82751C22.8553 7.59047 23.0294 7.33133 23.1707 7.0547C23.2761 6.76214 23.3338 6.45517 23.3422 6.14564C23.3428 5.81091 23.2724 5.47978 23.1358 5.17231C23.1358 5.17231 22.2 2.82047 20.574 1.6425C19.6027 0.903627 18.4039 0.501028 17.169 0.5Z" fill="url(#paint1_radial_395_18179)"/>
<path d="M8.06893 0.5C7.86092 0.510283 7.65449 0.532907 7.44965 0.568385C5.87287 0.878433 4.49723 1.80446 3.64453 3.12949C3.87636 3.18348 4.09761 3.27449 4.29927 3.3984C4.56974 3.5542 4.80528 3.75987 4.99371 4.00462C5.27953 4.47251 5.43091 5.00571 5.43303 5.54971C5.57806 6.71689 5.81042 7.87224 6.12747 9.00702C6.45828 7.76066 7.00822 6.5796 7.75294 5.51577C7.83974 5.38929 7.95778 5.28491 8.0954 5.21293C8.16897 5.17076 8.25207 5.14711 8.33728 5.14454C8.48337 5.14197 8.62734 5.17745 8.7549 5.24686C8.78983 5.24686 8.78983 5.2808 8.8253 5.2808C8.93645 5.38415 9.03913 5.49521 9.13282 5.61347C9.31648 5.94048 9.47951 6.2783 9.6203 6.62485C9.89712 7.3632 10.139 8.30209 10.139 8.30209L10.8287 10.9912C11.07 11.9203 11.3829 12.8304 11.7645 13.7143C12.8368 16.1001 14.4623 16.7705 14.4623 16.7705C15.2653 17.1762 16.1502 17.405 17.0548 17.4405C17.916 17.4801 18.7729 17.3068 19.5462 16.9366C20.3947 16.5248 21.1431 15.9427 21.7433 15.2296C22.1048 14.7504 22.4277 14.2454 22.7098 13.7184C23.3582 12.4777 23.8579 11.1686 24.1993 9.81736C24.4364 8.97514 24.6211 8.12007 24.7529 7.25626C24.8233 6.82949 24.889 6.40273 24.9244 5.97596C25.0006 5.57542 24.9885 5.16357 24.8895 4.76817C24.8588 4.69978 24.8588 4.63139 24.8233 4.56352C24.6127 4.0658 24.2347 3.65241 23.751 3.38966C23.4032 3.16291 22.9919 3.04568 22.5733 3.05236C22.3753 3.05596 22.1779 3.0791 21.9847 3.12075C22.432 3.75473 22.8141 4.42932 23.1269 5.13529C23.2635 5.44276 23.3339 5.77389 23.3333 6.10862C23.3249 6.41867 23.2672 6.72511 23.1619 7.01768C23.0205 7.29379 22.8469 7.55345 22.6431 7.79048C22.4293 8.02495 22.1546 8.19874 21.8476 8.29438C21.548 8.40338 21.2315 8.46097 20.9118 8.46508C20.4836 8.47279 20.0623 8.35505 19.7034 8.12778L19.4573 9.03273C19.2726 9.72841 19.018 10.4045 18.6972 11.0514C18.5257 11.4483 18.3188 11.8298 18.0779 12.1908C17.9202 12.4397 17.6916 12.6386 17.419 12.7626C17.3179 12.7908 17.212 12.8021 17.1072 12.7965C16.995 12.7939 16.886 12.7579 16.7955 12.6942C16.6129 12.5456 16.4636 12.3625 16.3561 12.1563C16.2164 11.9347 16.0904 11.7054 15.9782 11.4694C15.7718 10.9655 15.4246 9.72378 15.4246 9.72378L15.0996 8.39618L14.7524 7.08607L14.5105 6.21094C14.2194 5.00931 13.7028 3.87093 12.9856 2.85184C12.288 1.88673 11.2971 1.15866 10.1517 0.768913C9.70128 0.611062 9.22862 0.520053 8.75014 0.5H8.06893Z" fill="url(#paint2_linear_395_18179)"/>
<defs>
<linearGradient id="paint0_linear_395_18179" x1="13.5946" y1="10.285" x2="0.447858" y2="10.285" gradientUnits="userSpaceOnUse">
<stop stop-color="#0C63AD"/>
<stop offset="1" stop-color="#50E6FF"/>
</linearGradient>
<radialGradient id="paint1_radial_395_18179" cx="0" cy="0" r="1" gradientUnits="userSpaceOnUse" gradientTransform="translate(14.0716 8.26612) scale(11.5461 12.6238)">
<stop stop-color="#185C37"/>
<stop offset="0.661" stop-color="#30DC80"/>
<stop offset="1" stop-color="#5EEE5C"/>
</radialGradient>
<linearGradient id="paint2_linear_395_18179" x1="0.938232" y1="11.0041" x2="28.006" y2="6.09115" gradientUnits="userSpaceOnUse">
<stop stop-color="#103F8D"/>
<stop offset="0.494" stop-color="#2F64F7"/>
<stop offset="1" stop-color="#11408B"/>
</linearGradient>
</defs>
</svg>
