<svg width="25" height="18" viewBox="0 0 25 18" fill="none" xmlns="http://www.w3.org/2000/svg">
<g id="Group 427319169">
<path id="Vector" d="M13.8966 12.5628L12.5733 15.4164C12.0599 16.0591 11.393 16.5785 10.6361 16.923C9.87919 17.2829 9.05349 17.4783 8.2119 17.4988C4.71854 17.5657 3.09359 14.5115 3.09359 14.5115C1.11931 11.3493 0.531794 7.17934 0.394177 5.83735C0.357126 5.68309 0.330661 5.5237 0.325368 5.3643C0.320075 4.95296 0.43652 4.54162 0.674704 4.19199C0.875837 3.83206 1.18283 3.53898 1.55334 3.33846C1.95031 3.15335 2.38963 3.0608 2.83424 3.07109C3.24709 3.08651 3.65465 3.19963 4.00928 3.4053C4.27922 3.56469 4.51211 3.77036 4.70266 4.01202C4.98848 4.47992 5.13668 5.01467 5.14198 5.55969C5.27959 6.75258 5.52307 7.93004 5.86711 9.08693C6.13176 10.0073 6.50227 10.8968 6.97335 11.7401C7.14802 12.1257 7.42325 12.4599 7.76729 12.7119L7.97901 12.8147C8.53477 12.9175 8.84177 12.4753 9.05349 12.1103C9.32872 11.4727 9.5722 10.8248 9.77862 10.1616C9.81038 10.0279 9.84743 9.92504 9.88448 9.79135C9.95329 9.55997 10.0115 9.32345 10.0539 9.08693L11.1654 6.19213L13.8966 12.5628Z" fill="url(#paint0_linear_848_15671)"/>
<path id="Vector_2" d="M16.8692 0.5C16.0202 0.505656 15.1824 0.689216 14.4133 1.03783C13.6485 1.40906 12.9847 1.94997 12.4755 2.61686L10.9199 6.68038L13.965 12.3615L15.0019 9.13454L15.103 8.63065C15.3073 7.7802 15.5852 6.94775 15.9334 6.14204C16.0435 5.80988 16.2478 5.51372 16.522 5.28851L16.5569 5.25457C16.8073 5.13477 17.1074 5.17385 17.317 5.35278C17.4467 5.44019 17.5536 5.55537 17.6288 5.69008C17.7341 5.82222 17.8003 5.95899 17.9056 6.09114C18.0734 6.36468 18.22 6.65004 18.3449 6.94467C18.4603 7.18376 18.5969 7.41205 18.7535 7.62749C18.7731 7.62749 18.7885 7.64292 18.7885 7.66143C19.0251 7.90977 19.3066 8.11339 19.6189 8.26301C19.9259 8.42446 20.2716 8.5057 20.6209 8.49799C20.9406 8.49542 21.2571 8.43937 21.5567 8.3314C21.8563 8.22188 22.1278 8.05014 22.3522 7.82751C22.5555 7.59047 22.7296 7.33133 22.8709 7.0547C22.9763 6.76214 23.034 6.45517 23.0424 6.14564C23.043 5.81091 22.9726 5.47978 22.836 5.17231C22.836 5.17231 21.9002 2.82047 20.2742 1.6425C19.3029 0.903627 18.1041 0.501028 16.8692 0.5Z" fill="url(#paint1_radial_848_15671)"/>
<path id="Vector_3" d="M7.76912 0.5C7.56111 0.510283 7.35469 0.532907 7.14985 0.568385C5.57307 0.878433 4.19743 1.80446 3.34473 3.12949C3.57656 3.18348 3.79781 3.27449 3.99947 3.3984C4.26994 3.5542 4.50548 3.75987 4.69391 4.00462C4.97973 4.47251 5.13111 5.00571 5.13322 5.54971C5.27825 6.71689 5.51061 7.87224 5.82766 9.00702C6.15847 7.76066 6.70841 6.5796 7.45313 5.51577C7.53994 5.38929 7.65797 5.28491 7.79559 5.21293C7.86916 5.17076 7.95226 5.14711 8.03748 5.14454C8.18357 5.14197 8.32753 5.17745 8.45509 5.24686C8.49003 5.24686 8.49003 5.2808 8.52549 5.2808C8.63664 5.38415 8.73933 5.49521 8.83301 5.61347C9.01668 5.94048 9.1797 6.2783 9.3205 6.62485C9.59732 7.3632 9.83921 8.30209 9.83921 8.30209L10.5289 10.9912C10.7702 11.9203 11.0831 12.8304 11.4647 13.7143C12.537 16.1001 14.1625 16.7705 14.1625 16.7705C14.9655 17.1762 15.8504 17.405 16.755 17.4405C17.6162 17.4801 18.4731 17.3068 19.2464 16.9366C20.0949 16.5248 20.8433 15.9427 21.4435 15.2296C21.805 14.7504 22.1279 14.2454 22.41 13.7184C23.0584 12.4777 23.5581 11.1686 23.8995 9.81736C24.1366 8.97514 24.3213 8.12007 24.4531 7.25626C24.5235 6.82949 24.5891 6.40273 24.6246 5.97596C24.7008 5.57542 24.6887 5.16357 24.5897 4.76817C24.559 4.69978 24.559 4.63139 24.5235 4.56352C24.3129 4.0658 23.9349 3.65241 23.4512 3.38966C23.1034 3.16291 22.6921 3.04568 22.2735 3.05236C22.0755 3.05596 21.8781 3.0791 21.6849 3.12075C22.1321 3.75473 22.5143 4.42932 22.8271 5.13529C22.9637 5.44276 23.0341 5.77389 23.0335 6.10862C23.0251 6.41867 22.9674 6.72511 22.862 7.01768C22.7207 7.29379 22.5471 7.55345 22.3433 7.79048C22.1295 8.02495 21.8548 8.19874 21.5478 8.29438C21.2482 8.40338 20.9317 8.46097 20.612 8.46508C20.1838 8.47279 19.7625 8.35505 19.4036 8.12778L19.1575 9.03273C18.9728 9.72841 18.7182 10.4045 18.3974 11.0514C18.2259 11.4483 18.019 11.8298 17.7781 12.1908C17.6204 12.4397 17.3918 12.6386 17.1192 12.7626C17.0181 12.7908 16.9122 12.8021 16.8074 12.7965C16.6952 12.7939 16.5862 12.7579 16.4957 12.6942C16.313 12.5456 16.1638 12.3625 16.0563 12.1563C15.9166 11.9347 15.7906 11.7054 15.6784 11.4694C15.472 10.9655 15.1248 9.72378 15.1248 9.72378L14.7998 8.39618L14.4526 7.08607L14.2107 6.21094C13.9196 5.00931 13.403 3.87093 12.6858 2.85184C11.9882 1.88673 10.9973 1.15866 9.85191 0.768913C9.40148 0.611062 8.92882 0.520053 8.45033 0.5H7.76912Z" fill="url(#paint2_linear_848_15671)"/>
</g>
<defs>
<linearGradient id="paint0_linear_848_15671" x1="13.2947" y1="10.285" x2="0.148053" y2="10.285" gradientUnits="userSpaceOnUse">
<stop stop-color="#0C63AD"/>
<stop offset="1" stop-color="#50E6FF"/>
</linearGradient>
<radialGradient id="paint1_radial_848_15671" cx="0" cy="0" r="1" gradientUnits="userSpaceOnUse" gradientTransform="translate(13.7718 8.26612) scale(11.5461 12.6238)">
<stop stop-color="#185C37"/>
<stop offset="0.661" stop-color="#30DC80"/>
<stop offset="1" stop-color="#5EEE5C"/>
</radialGradient>
<linearGradient id="paint2_linear_848_15671" x1="0.638428" y1="11.0041" x2="27.7062" y2="6.09115" gradientUnits="userSpaceOnUse">
<stop stop-color="#103F8D"/>
<stop offset="0.494" stop-color="#2F64F7"/>
<stop offset="1" stop-color="#11408B"/>
</linearGradient>
</defs>
</svg>
