<svg width="16" height="16" viewBox="0 0 16 16" fill="none" xmlns="http://www.w3.org/2000/svg">
<path fill-rule="evenodd" clip-rule="evenodd" d="M8 1.5C6.98748 1.5 6.16667 2.32081 6.16667 3.33333C6.16667 4.34586 6.98748 5.16667 8 5.16667C9.01252 5.16667 9.83333 4.34586 9.83333 3.33333C9.83333 2.32081 9.01252 1.5 8 1.5ZM7.16667 3.33333C7.16667 2.8731 7.53976 2.5 8 2.5C8.46024 2.5 8.83333 2.8731 8.83333 3.33333C8.83333 3.79357 8.46024 4.16667 8 4.16667C7.53976 4.16667 7.16667 3.79357 7.16667 3.33333Z" fill="#161616"/>
<path d="M10.2547 7.61662C9.20965 6.09624 6.77863 6.15813 5.74138 7.62242C5.58176 7.84775 5.26969 7.90102 5.04436 7.74141C4.81902 7.58178 4.76575 7.26972 4.92537 7.04438C6.3394 5.0482 9.61543 4.92117 11.0788 7.05018C11.2352 7.27775 11.1775 7.58904 10.9499 7.74545C10.7224 7.90187 10.4111 7.84419 10.2547 7.61662Z" fill="#161616"/>
<path d="M7.33333 10.1667C7.05719 10.1667 6.83333 10.3905 6.83333 10.6667C6.83333 10.9428 7.05719 11.1667 7.33333 11.1667H8.66667C8.94281 11.1667 9.16667 10.9428 9.16667 10.6667C9.16667 10.3905 8.94281 10.1667 8.66667 10.1667H7.33333Z" fill="#161616"/>
<path fill-rule="evenodd" clip-rule="evenodd" d="M5.77534 8.16667H10.2247C10.7263 8.16666 11.1395 8.16665 11.4691 8.19905C11.8092 8.23247 12.1255 8.30498 12.4007 8.49533C12.6966 8.70002 12.926 8.98669 13.0601 9.32033C13.185 9.63141 13.1839 9.95547 13.139 10.2925C13.0955 10.6187 13.0011 11.018 12.8868 11.5017L12.8759 11.5476C12.7623 12.0281 12.6701 12.4183 12.568 12.7317C12.4737 13.0216 12.3624 13.2746 12.1963 13.5H14C14.2761 13.5 14.5 13.7239 14.5 14C14.5 14.2761 14.2761 14.5 14 14.5H2C1.72386 14.5 1.5 14.2761 1.5 14C1.5 13.7239 1.72386 13.5 2 13.5H3.80377C3.63768 13.2746 3.52637 13.0216 3.43199 12.7317C3.32997 12.4183 3.23772 12.0281 3.12416 11.5477L3.11332 11.5018C2.99895 11.018 2.90455 10.6187 2.86106 10.2925C2.81612 9.95547 2.81503 9.63141 2.93998 9.32033C3.074 8.98669 3.30348 8.70002 3.59937 8.49533C3.87454 8.30498 4.19082 8.23247 4.53094 8.19905C4.86058 8.16665 5.27374 8.16666 5.77534 8.16667ZM10.2735 13.4764C9.98833 13.4996 9.62524 13.5 9.10142 13.5H6.89862C6.3748 13.5 6.01171 13.4996 5.72652 13.4764C5.44861 13.4537 5.2829 13.4116 5.1506 13.3477C4.95241 13.2519 4.77797 13.1147 4.6392 12.9458C4.54696 12.8336 4.46824 12.6844 4.38288 12.4222C4.29517 12.1527 4.21206 11.8029 4.09249 11.2971C3.97063 10.7816 3.88839 10.4311 3.85229 10.1604C3.81687 9.89474 3.83645 9.77142 3.86792 9.69306C3.92854 9.54214 4.03274 9.41149 4.16828 9.31773C4.23984 9.26822 4.35868 9.22079 4.62874 9.19425C4.90365 9.16724 5.2673 9.16667 5.80105 9.16667H10.199C10.7327 9.16667 11.0964 9.16724 11.3713 9.19425C11.6414 9.22079 11.7602 9.26822 11.8318 9.31773C11.9673 9.41149 12.0715 9.54214 12.1321 9.69306C12.1636 9.77142 12.1832 9.89474 12.1478 10.1604C12.1117 10.4311 12.0294 10.7816 11.9076 11.2971C11.788 11.8029 11.7049 12.1527 11.6172 12.4222C11.5318 12.6844 11.4531 12.8336 11.3608 12.9458C11.2221 13.1147 11.0476 13.2519 10.8494 13.3477C10.7171 13.4116 10.5514 13.4537 10.2735 13.4764Z" fill="#161616"/>
</svg>
