<svg width="16" height="16" viewBox="0 0 16 16" fill="none" xmlns="http://www.w3.org/2000/svg">
<g id="elements">
<g id="Icon">
<path d="M8.50016 5.3335C8.50016 5.05735 8.27631 4.8335 8.00016 4.8335C7.72402 4.8335 7.50016 5.05735 7.50016 5.3335V7.50016H5.3335C5.05735 7.50016 4.8335 7.72402 4.8335 8.00016C4.8335 8.27631 5.05735 8.50016 5.3335 8.50016H7.50016V10.6668C7.50016 10.943 7.72402 11.1668 8.00016 11.1668C8.27631 11.1668 8.50016 10.943 8.50016 10.6668V8.50016H10.6668C10.943 8.50016 11.1668 8.27631 11.1668 8.00016C11.1668 7.72402 10.943 7.50016 10.6668 7.50016H8.50016V5.3335Z" fill="white"/>
<path fill-rule="evenodd" clip-rule="evenodd" d="M8.00016 15.1668C4.04212 15.1668 0.833496 11.9582 0.833496 8.00016C0.833496 4.04212 4.04212 0.833496 8.00016 0.833496C11.9582 0.833496 15.1668 4.04212 15.1668 8.00016C15.1668 11.9582 11.9582 15.1668 8.00016 15.1668ZM1.8335 8.00016C1.8335 11.4059 4.59441 14.1668 8.00016 14.1668C11.4059 14.1668 14.1668 11.4059 14.1668 8.00016C14.1668 4.59441 11.4059 1.8335 8.00016 1.8335C4.59441 1.8335 1.8335 4.59441 1.8335 8.00016Z" fill="white"/>
</g>
</g>
</svg>
