<svg width="18" height="18" viewBox="0 0 18 18" fill="none" xmlns="http://www.w3.org/2000/svg">
<g id="elements">
<g id="Icon">
<path d="M9.62484 5.6665C9.62484 5.32133 9.34502 5.0415 8.99984 5.0415C8.65466 5.0415 8.37484 5.32133 8.37484 5.6665V8.37484H5.6665C5.32133 8.37484 5.0415 8.65466 5.0415 8.99984C5.0415 9.34502 5.32133 9.62484 5.6665 9.62484H8.37484V12.3332C8.37484 12.6783 8.65466 12.9582 8.99984 12.9582C9.34502 12.9582 9.62484 12.6783 9.62484 12.3332V9.62484H12.3332C12.6783 9.62484 12.9582 9.34502 12.9582 8.99984C12.9582 8.65466 12.6783 8.37484 12.3332 8.37484H9.62484V5.6665Z" fill="#161616"/>
<path fill-rule="evenodd" clip-rule="evenodd" d="M8.99984 17.9582C4.05229 17.9582 0.0415039 13.9474 0.0415039 8.99984C0.0415039 4.05229 4.05229 0.0415039 8.99984 0.0415039C13.9474 0.0415039 17.9582 4.05229 17.9582 8.99984C17.9582 13.9474 13.9474 17.9582 8.99984 17.9582ZM1.2915 8.99984C1.2915 13.257 4.74264 16.7082 8.99984 16.7082C13.257 16.7082 16.7082 13.257 16.7082 8.99984C16.7082 4.74264 13.257 1.2915 8.99984 1.2915C4.74264 1.2915 1.2915 4.74264 1.2915 8.99984Z" fill="#161616"/>
</g>
</g>
</svg>
