<svg width="40" height="40" viewBox="0 0 40 40" fill="none" xmlns="http://www.w3.org/2000/svg">
<path d="M0 20C0 8.95431 8.95431 0 20 0C31.0457 0 40 8.95431 40 20C40 31.0457 31.0457 40 20 40C8.95431 40 0 31.0457 0 20Z" fill="#F9FAFB"/>
<path d="M19.3753 11.6667C19.3753 11.3215 19.6551 11.0417 20.0003 11.0417C24.9479 11.0417 28.9587 15.0524 28.9587 20C28.9587 24.9475 24.9479 28.9583 20.0003 28.9583C15.0528 28.9583 11.042 24.9475 11.042 20C11.042 19.6548 11.3218 19.375 11.667 19.375C12.0122 19.375 12.292 19.6548 12.292 20C12.292 24.2572 15.7431 27.7083 20.0003 27.7083C24.2575 27.7083 27.7087 24.2572 27.7087 20C27.7087 15.7428 24.2575 12.2917 20.0003 12.2917C19.6551 12.2917 19.3753 12.0118 19.3753 11.6667Z" fill="#161616"/>
<path d="M20.0003 16.0417C20.3455 16.0417 20.6253 16.3215 20.6253 16.6667V19.375H23.3337C23.6788 19.375 23.9587 19.6548 23.9587 20C23.9587 20.3452 23.6788 20.625 23.3337 20.625H20.6253V23.3333C20.6253 23.6785 20.3455 23.9583 20.0003 23.9583C19.6551 23.9583 19.3753 23.6785 19.3753 23.3333V20.625H16.667C16.3218 20.625 16.042 20.3452 16.042 20C16.042 19.6548 16.3218 19.375 16.667 19.375H19.3753V16.6667C19.3753 16.3215 19.6551 16.0417 20.0003 16.0417Z" fill="#161616"/>
<path d="M17.334 12.6562C17.6504 12.518 17.7947 12.1496 17.6565 11.8333C17.5183 11.517 17.1499 11.3726 16.8336 11.5108C16.0975 11.8324 15.4065 12.2374 14.7724 12.7138C14.4964 12.9211 14.4408 13.3129 14.6481 13.5889C14.8555 13.8649 15.2473 13.9205 15.5232 13.7132C16.0807 13.2944 16.6878 12.9386 17.334 12.6562Z" fill="#161616"/>
<path d="M13.7135 15.5229C13.9208 15.2469 13.8652 14.8551 13.5892 14.6478C13.3133 14.4404 12.9215 14.4961 12.7141 14.772C12.2378 15.4061 11.8327 16.0971 11.5111 16.8333C11.3729 17.1496 11.5173 17.518 11.8336 17.6562C12.1499 17.7944 12.5183 17.65 12.6565 17.3337C12.9389 16.6874 13.2947 16.0803 13.7135 15.5229Z" fill="#161616"/>
</svg>
