<svg width="16" height="16" viewBox="0 0 16 16" fill="none" xmlns="http://www.w3.org/2000/svg">
<path fill-rule="evenodd" clip-rule="evenodd" d="M9.35838 1.98476C9.55085 2.18277 9.54635 2.49932 9.34833 2.69179C9.2406 2.7965 9.0692 2.93132 8.90604 3.05947L8.86807 3.08929C8.70425 3.2179 8.52907 3.35542 8.36332 3.49588L8.3584 3.50005C9.12301 3.50103 9.75269 3.50926 10.261 3.5776C10.8611 3.65828 11.3663 3.83087 11.7676 4.23215C12.1689 4.63343 12.3415 5.13868 12.4222 5.73875C12.4999 6.31672 12.4999 7.0516 12.4998 7.96331L12.4998 10.2356C13.2693 10.4532 13.8332 11.1607 13.8332 11.9999C13.8332 13.0124 13.0124 13.8333 11.9998 13.8333C10.9873 13.8333 10.1665 13.0124 10.1665 11.9999C10.1665 11.1607 10.7303 10.4532 11.4998 10.2356V7.99992C11.4998 7.04297 11.4988 6.37556 11.4311 5.872C11.3653 5.38281 11.245 5.12377 11.0605 4.93926C10.876 4.75475 10.6169 4.63445 10.1278 4.56868C9.68968 4.50978 9.12761 4.50132 8.35878 4.50012L8.36332 4.50396C8.52908 4.64441 8.70425 4.78194 8.86807 4.91055L8.90604 4.94036C9.0692 5.06852 9.2406 5.20334 9.34833 5.30805C9.54635 5.50051 9.55085 5.81706 9.35838 6.01508C9.16591 6.2131 8.84936 6.21759 8.65134 6.02513C8.5905 5.96599 8.46929 5.86891 8.28834 5.72678L8.24838 5.69541C8.08696 5.5687 7.89758 5.42004 7.71684 5.2669C7.52314 5.10276 7.32194 4.91904 7.16553 4.73539C7.08714 4.64336 7.00983 4.53963 6.95011 4.42804C6.89252 4.32041 6.83317 4.17211 6.83317 3.99992C6.83317 3.82773 6.89252 3.67943 6.95011 3.5718C7.00983 3.46021 7.08714 3.35648 7.16553 3.26444C7.32194 3.08079 7.52314 2.89708 7.71684 2.73294C7.89759 2.57979 8.08696 2.43114 8.24839 2.30442L8.28834 2.27306C8.46929 2.13093 8.5905 2.03385 8.65134 1.97471C8.84936 1.78224 9.16591 1.78674 9.35838 1.98476ZM11.1665 11.9999C11.1665 11.5397 11.5396 11.1666 11.9998 11.1666C12.4601 11.1666 12.8332 11.5397 12.8332 11.9999C12.8332 12.4602 12.4601 12.8333 11.9998 12.8333C11.5396 12.8333 11.1665 12.4602 11.1665 11.9999Z" fill="#161616"/>
<path fill-rule="evenodd" clip-rule="evenodd" d="M4.49984 5.76424L4.49984 10.2356C5.26934 10.4532 5.83317 11.1607 5.83317 11.9999C5.83317 13.0124 5.01236 13.8333 3.99984 13.8333C2.98732 13.8333 2.1665 13.0124 2.1665 11.9999C2.1665 11.1607 2.73034 10.4532 3.49984 10.2356L3.49984 5.76424C2.73034 5.5466 2.1665 4.8391 2.1665 3.99992C2.1665 2.9874 2.98732 2.16659 3.99984 2.16659C5.01236 2.16659 5.83317 2.9874 5.83317 3.99992C5.83317 4.8391 5.26934 5.5466 4.49984 5.76424ZM4.83317 3.99992C4.83317 4.46016 4.46007 4.83325 3.99984 4.83325C3.5396 4.83325 3.1665 4.46016 3.1665 3.99992C3.1665 3.53968 3.5396 3.16659 3.99984 3.16659C4.46007 3.16659 4.83317 3.53968 4.83317 3.99992ZM3.1665 11.9999C3.1665 11.5397 3.5396 11.1666 3.99984 11.1666C4.46007 11.1666 4.83317 11.5397 4.83317 11.9999C4.83317 12.4602 4.46007 12.8333 3.99984 12.8333C3.5396 12.8333 3.1665 12.4602 3.1665 11.9999Z" fill="#161616"/>
</svg>
