<svg width="16" height="16" viewBox="0 0 16 16" fill="none" xmlns="http://www.w3.org/2000/svg">
<path d="M8.38886 0.833313H7.61115C6.31057 0.833305 5.28627 0.833298 4.4859 0.934927C3.66658 1.03896 3.00643 1.25715 2.48368 1.75086C1.9569 2.24837 1.7204 2.8831 1.60837 3.67012C1.49998 4.43151 1.49999 5.40358 1.5 6.62709V9.37286C1.49999 10.5964 1.49998 11.5685 1.60837 12.3298C1.7204 13.1169 1.9569 13.7516 2.48368 14.2491C3.00643 14.7428 3.66658 14.961 4.4859 15.065C5.28627 15.1667 6.31057 15.1667 7.61116 15.1666H7.64706L7.65686 15.1666L7.66667 15.1666H8.66667C8.94281 15.1666 9.16667 14.9428 9.16667 14.6666C9.16667 14.3905 8.94281 14.1666 8.66667 14.1666H7.66667L7.65686 14.1667L7.64706 14.1666C6.30267 14.1666 5.34191 14.1657 4.61186 14.073C3.89341 13.9818 3.47455 13.8094 3.17031 13.5221C2.8701 13.2386 2.6931 12.8542 2.59838 12.1889C2.50119 11.5061 2.5 10.6053 2.5 9.33331L2.5 6.66665C2.5 5.39462 2.50119 4.49382 2.59838 3.81106C2.6931 3.14574 2.8701 2.7614 3.17031 2.47787C3.47455 2.19053 3.89341 2.01819 4.61186 1.92696C5.34191 1.83426 6.30267 1.83331 7.64706 1.83331H8.35294C9.69734 1.83331 10.6581 1.83426 11.3881 1.92696C12.1066 2.01819 12.5255 2.19053 12.8297 2.47787C13.1299 2.7614 13.3069 3.14574 13.4016 3.81106C13.4988 4.49383 13.5 5.39463 13.5 6.66665C13.5 6.94279 13.7239 7.16665 14 7.16665C14.2761 7.16665 14.5 6.94279 14.5 6.66665V6.62711C14.5 5.40359 14.5 4.43151 14.3916 3.67012C14.2796 2.8831 14.0431 2.24838 13.5163 1.75086C12.9936 1.25715 12.3334 1.03896 11.5141 0.934927C10.7137 0.833298 9.68943 0.833305 8.38886 0.833313Z" fill="#161616"/>
<path d="M5.33333 4.16665C5.05719 4.16665 4.83333 4.3905 4.83333 4.66665C4.83333 4.94279 5.05719 5.16665 5.33333 5.16665H10.6667C10.9428 5.16665 11.1667 4.94279 11.1667 4.66665C11.1667 4.3905 10.9428 4.16665 10.6667 4.16665H5.33333Z" fill="#161616"/>
<path d="M4.83333 7.99998C4.83333 7.72384 5.05719 7.49998 5.33333 7.49998H8.66667C8.94281 7.49998 9.16667 7.72384 9.16667 7.99998C9.16667 8.27612 8.94281 8.49998 8.66667 8.49998H5.33333C5.05719 8.49998 4.83333 8.27612 4.83333 7.99998Z" fill="#161616"/>
<path fill-rule="evenodd" clip-rule="evenodd" d="M12.6667 8.16665C11.2867 8.16665 10.1667 9.28371 10.1667 10.6634C10.1667 11.4445 10.5257 12.1415 11.0876 12.5992L10.5845 14.3577L10.5809 14.3709C10.4516 14.8746 10.9497 15.3077 11.4293 15.1162L12.6667 14.6221L13.9166 15.1212C14.3846 15.3081 14.8759 14.8993 14.7713 14.4029L14.7689 14.392L14.3324 12.5252C14.8443 12.0682 15.1667 11.4036 15.1667 10.6634C15.1667 9.28371 14.0466 8.16665 12.6667 8.16665ZM11.1667 10.6634C11.1667 9.83753 11.8375 9.16665 12.6667 9.16665C13.4959 9.16665 14.1667 9.83753 14.1667 10.6634C14.1667 11.4893 13.4959 12.1601 12.6667 12.1601C11.8375 12.1601 11.1667 11.4893 11.1667 10.6634ZM11.7526 13.9103L11.9935 13.0686C12.2077 13.1282 12.4335 13.1601 12.6667 13.1601C12.9315 13.1601 13.1868 13.119 13.4264 13.0427L13.6343 13.9317L12.9511 13.6589C12.7685 13.5859 12.5648 13.5859 12.3822 13.6589L11.7526 13.9103Z" fill="#161616"/>
</svg>
