<svg width="16" height="16" viewBox="0 0 16 16" fill="none" xmlns="http://www.w3.org/2000/svg">
<path d="M8.0001 2.16604L8.66676 2.16602C8.94291 2.16601 9.16676 1.94214 9.16675 1.666C9.16674 1.38986 8.94288 1.16601 8.66673 1.16602L7.96197 1.16604C6.5015 1.16603 5.35438 1.16602 4.45876 1.28643C3.54099 1.40982 2.81282 1.66785 2.24069 2.23998C1.66856 2.81211 1.41054 3.54028 1.28714 4.45805C1.16673 5.35366 1.16674 6.50078 1.16675 7.96125V8.03749C1.16674 9.49796 1.16673 10.6451 1.28714 11.5407C1.41054 12.4585 1.66856 13.1866 2.24069 13.7588C2.81282 14.3309 3.54099 14.5889 4.45876 14.7123C5.35437 14.8327 6.50148 14.8327 7.96195 14.8327H8.03819C9.49866 14.8327 10.6458 14.8327 11.5414 14.7123C12.4592 14.5889 13.1873 14.3309 13.7595 13.7588C14.3316 13.1866 14.5896 12.4585 14.713 11.5407C14.8334 10.6451 14.8334 9.49797 14.8334 8.0375V7.99937C14.8334 7.77808 14.8327 7.6103 14.8319 7.49757C14.8315 7.44121 14.8312 7.39861 14.8309 7.36997L14.8305 7.3375L14.8304 7.32611C14.8268 7.04999 14.6 6.8291 14.3239 6.83273C14.0477 6.83636 13.8269 7.0636 13.8305 7.33972L13.8306 7.34904L13.8309 7.37989C13.8312 7.40745 13.8316 7.44897 13.8319 7.50423C13.8327 7.61477 13.8334 7.78033 13.8334 7.99937C13.8334 9.50629 13.8324 10.5862 13.7219 11.4074C13.6135 12.2143 13.4077 12.6963 13.0524 13.0517C12.697 13.407 12.215 13.6127 11.4082 13.7212C10.5869 13.8316 9.507 13.8327 8.00008 13.8327C6.49317 13.8327 5.41328 13.8316 4.59201 13.7212C3.78513 13.6127 3.30316 13.407 2.9478 13.0517C2.59243 12.6963 2.38671 12.2143 2.27823 11.4074C2.16781 10.5862 2.16675 9.50629 2.16675 7.99937C2.16675 6.49245 2.16781 5.41257 2.27823 4.5913C2.38671 3.78442 2.59243 3.30245 2.9478 2.94708C3.30316 2.59172 3.78513 2.386 4.59201 2.27751C5.41328 2.1671 6.49318 2.16604 8.0001 2.16604Z" fill="#161616"/>
<path fill-rule="evenodd" clip-rule="evenodd" d="M9.83341 3.66602C9.83341 2.2853 10.9527 1.16602 12.3334 1.16602C13.7141 1.16602 14.8334 2.2853 14.8334 3.66602C14.8334 5.04673 13.7141 6.16602 12.3334 6.16602C10.9527 6.16602 9.83341 5.04673 9.83341 3.66602ZM12.3334 2.16602C11.505 2.16602 10.8334 2.83759 10.8334 3.66602C10.8334 4.49444 11.505 5.16602 12.3334 5.16602C13.1618 5.16602 13.8334 4.49444 13.8334 3.66602C13.8334 2.83759 13.1618 2.16602 12.3334 2.16602Z" fill="#161616"/>
<path d="M7.66675 5.16602C7.94289 5.16602 8.16675 5.38987 8.16675 5.66602V11.666C8.16675 11.9422 7.94289 12.166 7.66675 12.166C7.39061 12.166 7.16675 11.9422 7.16675 11.666V5.66602C7.16675 5.38987 7.39061 5.16602 7.66675 5.16602Z" fill="#161616"/>
<path d="M11.0001 8.49935C11.2762 8.49935 11.5001 8.72321 11.5001 8.99935V11.666C11.5001 11.9422 11.2762 12.166 11.0001 12.166C10.7239 12.166 10.5001 11.9422 10.5001 11.666V8.99935C10.5001 8.72321 10.7239 8.49935 11.0001 8.49935Z" fill="#161616"/>
<path d="M4.33341 9.16602C4.60956 9.16602 4.83341 9.38987 4.83341 9.66602V11.666C4.83341 11.9422 4.60956 12.166 4.33341 12.166C4.05727 12.166 3.83341 11.9422 3.83341 11.666V9.66602C3.83341 9.38987 4.05727 9.16602 4.33341 9.16602Z" fill="#161616"/>
</svg>
