<svg width="40" height="40" viewBox="0 0 40 40" fill="none" xmlns="http://www.w3.org/2000/svg">
<path d="M28.7496 19.9996C28.7496 19.6261 28.5839 19.2795 28.4271 19.0193C28.2578 18.7384 28.0301 18.4485 27.7804 18.1658C27.2794 17.5988 26.6257 16.9898 25.9914 16.4389C25.3533 15.8848 24.7174 15.3746 24.2423 15.0038C24.0044 14.8181 23.806 14.6667 23.6665 14.5614C23.5968 14.5087 23.5418 14.4675 23.504 14.4393L23.4604 14.407L23.4489 14.3984L23.4449 14.3954C23.1114 14.1498 22.6414 14.2207 22.3958 14.5542C22.1501 14.8877 22.2213 15.3571 22.5548 15.6028L22.5675 15.6122L22.6076 15.642C22.643 15.6684 22.6954 15.7076 22.7624 15.7583C22.8964 15.8595 23.0886 16.0061 23.3194 16.1863C23.7819 16.5472 24.396 17.0401 25.0079 17.5715C25.6235 18.1061 26.2198 18.6649 26.6563 19.159C26.6839 19.1902 26.7106 19.2209 26.7364 19.2511L11.9996 19.2511C11.5854 19.2511 11.2496 19.5869 11.2496 20.0011C11.2496 20.4153 11.5854 20.7511 11.9996 20.7511L26.7339 20.7511C26.7089 20.7803 26.683 20.81 26.6563 20.8403C26.2198 21.3343 25.6235 21.8932 25.0079 22.4277C24.396 22.9591 23.7819 23.452 23.3194 23.813C23.0886 23.9931 22.8964 24.1397 22.7624 24.241C22.6954 24.2916 22.643 24.3308 22.6076 24.3572L22.5675 24.387L22.5548 24.3964C22.2213 24.6421 22.1501 25.1116 22.3958 25.4451C22.6414 25.7786 23.1114 25.8495 23.4449 25.6038L23.4489 25.6008L23.4604 25.5923L23.504 25.5599C23.5418 25.5317 23.5968 25.4905 23.6666 25.4379C23.806 25.3325 24.0044 25.1811 24.2423 24.9954C24.7174 24.6246 25.3533 24.1144 25.9914 23.5603C26.6257 23.0095 27.2794 22.4005 27.7804 21.8334C28.0301 21.5507 28.2578 21.2608 28.4271 20.98C28.583 20.7213 28.7476 20.3773 28.7496 20.0063" fill="#161616"/>
</svg>
