<svg width="40" height="40" viewBox="0 0 40 40" fill="none" xmlns="http://www.w3.org/2000/svg">
<path d="M11.2504 19.9997C11.2504 20.3732 11.4161 20.7198 11.5729 20.98C11.7422 21.2609 11.9699 21.5508 12.2196 21.8335C12.7206 22.4005 13.3743 23.0095 14.0087 23.5604C14.6468 24.1145 15.2827 24.6247 15.7577 24.9955C15.9956 25.1812 16.1941 25.3326 16.3335 25.4379C16.4032 25.4906 16.4582 25.5318 16.496 25.56L16.5396 25.5923L16.5511 25.6009L16.5551 25.6039C16.8886 25.8495 17.3586 25.7786 17.6042 25.4451C17.8499 25.1116 17.7787 24.6422 17.4452 24.3965L17.4325 24.3871L17.3925 24.3573C17.357 24.3309 17.3046 24.2917 17.2376 24.241C17.1036 24.1398 16.9115 23.9932 16.6806 23.813C16.2182 23.4521 15.6041 22.9592 14.9922 22.4278C14.3765 21.8932 13.7802 21.3344 13.3437 20.8403C13.3161 20.8091 13.2894 20.7784 13.2636 20.7482L28.0004 20.7482C28.4147 20.7482 28.7504 20.4124 28.7504 19.9982C28.7504 19.584 28.4147 19.2482 28.0004 19.2482L13.2661 19.2482C13.2912 19.219 13.317 19.1893 13.3437 19.159C13.7802 18.665 14.3765 18.1061 14.9922 17.5716C15.6041 17.0402 16.2181 16.5473 16.6806 16.1863C16.9114 16.0062 17.1036 15.8596 17.2376 15.7583C17.3046 15.7077 17.357 15.6685 17.3925 15.6421L17.4325 15.6123L17.4452 15.6029C17.7787 15.3572 17.8499 14.8877 17.6042 14.5542C17.3586 14.2207 16.8886 14.1498 16.5551 14.3955L16.5511 14.3985L16.5396 14.407L16.496 14.4394C16.4582 14.4676 16.4032 14.5088 16.3335 14.5614C16.1941 14.6668 15.9956 14.8182 15.7577 15.0039C15.2826 15.3747 14.6468 15.8849 14.0087 16.439C13.3743 16.9898 12.7206 17.5988 12.2196 18.1659C11.9699 18.4486 11.7422 18.7385 11.5729 19.0193C11.417 19.278 11.2524 19.622 11.2504 19.993" fill="#161616"/>
</svg>
