<svg width="24" height="24" viewBox="0 0 24 24" fill="none" xmlns="http://www.w3.org/2000/svg">
<path fill-rule="evenodd" clip-rule="evenodd" d="M11.8358 1.75C11.1803 1.74997 10.6161 1.74994 10.1529 1.81162C9.65154 1.87841 9.19518 2.02501 8.78917 2.36641C8.39303 2.69952 8.14915 3.13087 7.9519 3.62555C7.77944 4.05806 7.62012 4.60022 7.43408 5.25H4.64792C3.1989 5.25 2.3388 6.32293 1.9817 7.40879C1.62745 8.486 1.66778 9.81185 2.18329 10.7921C2.20643 10.8361 2.22992 10.8798 2.25374 10.9231C2.24985 10.9614 2.24885 11.0004 2.25096 11.04L2.40368 13.9003L2.40604 13.9522C2.48604 15.7125 2.54947 17.1084 2.74419 18.199C2.94473 19.3224 3.30056 20.227 4.04059 20.9342C4.78063 21.6413 5.70051 21.9557 6.83178 22.1051C7.93015 22.25 9.32742 22.25 11.0895 22.25H12.9102C14.6723 22.25 16.0696 22.25 17.168 22.1051C18.2993 21.9557 19.2192 21.6413 19.9592 20.9342C20.6992 20.227 21.0551 19.3224 21.2556 18.199C21.4503 17.1084 21.5138 15.7125 21.5938 13.9522L21.596 13.9033L21.5962 13.8973L21.7488 11.04C21.7509 11.0004 21.7499 10.9614 21.7461 10.9232C21.7699 10.8799 21.7934 10.8362 21.8165 10.7921C22.332 9.81185 22.3724 8.486 22.0181 7.40879C21.661 6.32293 20.8009 5.25 19.3519 5.25H16.5655C16.3794 4.60022 16.2201 4.05806 16.0476 3.62555C15.8504 3.13087 15.6065 2.69952 15.2104 2.36641C14.8044 2.02501 14.348 1.87841 13.8466 1.81162C13.3835 1.74994 12.8193 1.74997 12.1638 1.75H11.8358ZM15.004 5.25C14.8726 4.80116 14.7646 4.45763 14.6543 4.18113C14.5006 3.79567 14.3726 3.62179 14.245 3.51447C14.1272 3.41544 13.9738 3.34182 13.6486 3.29849C13.296 3.25154 12.8325 3.25 12.1167 3.25H11.8828C11.167 3.25 10.7035 3.25154 10.351 3.29849C10.0257 3.34182 9.87233 3.41544 9.75456 3.51447C9.62693 3.62179 9.49892 3.79567 9.34522 4.18113C9.23496 4.45763 9.1269 4.80116 8.99552 5.25H15.004ZM3.40663 7.8774C3.15712 8.63609 3.21526 9.53177 3.51091 10.094C5.02281 12.969 8.50671 14.25 11.9999 14.25C15.4931 14.25 18.977 12.969 20.4889 10.094C20.7846 9.53177 20.8427 8.63609 20.5932 7.87739C20.3466 7.12736 19.9007 6.75 19.3519 6.75H4.64792C4.09917 6.75 3.65328 7.12736 3.40663 7.8774ZM12.7499 15.7317C15.4019 15.6022 18.1772 14.7757 20.144 12.9629L20.0981 13.8233L20.0978 13.8292C20.0147 15.6568 19.9542 16.9535 19.779 17.9354C19.6075 18.896 19.3424 19.4488 18.9229 19.8497C18.5034 20.2506 17.9391 20.4903 16.9717 20.618C15.9829 20.7485 14.6847 20.75 12.8553 20.75H11.1445C9.3151 20.75 8.01692 20.7485 7.02807 20.618C6.06071 20.4903 5.49644 20.2506 5.07689 19.8497C4.65735 19.4488 4.39233 18.896 4.22084 17.9354C4.04555 16.9535 3.98509 15.6568 3.90202 13.8292L3.85576 12.9628C5.8226 14.7757 8.59794 15.6022 11.2499 15.7317V16.5C11.2499 16.9142 11.5857 17.25 11.9999 17.25C12.4142 17.25 12.7499 16.9142 12.7499 16.5V15.7317Z" fill="#067647"/>
</svg>
