<svg width="24" height="24" viewBox="0 0 24 24" fill="none" xmlns="http://www.w3.org/2000/svg">
<path d="M14.508 7.55175C14.8127 7.2712 14.8323 6.79676 14.5518 6.49203C14.2712 6.18728 13.7964 6.16801 13.4917 6.44856L13.4883 6.4516L13.479 6.46027L13.4439 6.4929C13.4134 6.52126 13.3692 6.5626 13.3132 6.61545C13.2013 6.72111 13.0421 6.87295 12.8513 7.05908C12.4703 7.43069 11.9603 7.94212 11.4484 8.49766C10.9395 9.05005 10.4147 9.66106 10.0125 10.2299C9.81178 10.514 9.63031 10.8032 9.49633 11.081C9.36934 11.3443 9.24999 11.6675 9.25 12C9.25 12.3325 9.36935 12.6556 9.49633 12.9189C9.63031 13.1967 9.81178 13.486 10.0125 13.77C10.4147 14.3389 10.9394 14.9499 11.4484 15.5023C11.9603 16.0578 12.4703 16.5693 12.8513 16.9409C13.0421 17.127 13.2013 17.2789 13.3132 17.3845C13.3692 17.4374 13.4134 17.4787 13.4438 17.5071L13.4789 17.5397L13.4883 17.5484L13.492 17.5518C13.7967 17.8323 14.2712 17.8127 14.5517 17.508C14.8323 17.2032 14.8123 16.7285 14.5076 16.4479L14.498 16.4391L14.4663 16.4096C14.4381 16.3833 14.3964 16.3443 14.343 16.2939C14.2361 16.193 14.0829 16.0468 13.8987 15.8672C13.5296 15.5071 13.0397 15.0156 12.5515 14.4859C12.0605 13.953 11.5853 13.3963 11.2374 12.9042C11.0632 12.6577 10.9322 12.4431 10.8474 12.2673C10.7625 12.0912 10.7513 12.0094 10.7501 12.0006V11.9993C10.7513 11.9905 10.7625 11.9088 10.8474 11.7326C10.9322 11.5568 11.0632 11.3422 11.2374 11.0958C11.5853 10.6036 12.0605 10.047 12.5516 9.51409C13.0397 8.98435 13.5296 8.49284 13.8987 8.13282C14.0829 7.95315 14.2362 7.80701 14.343 7.70615C14.3964 7.65573 14.4381 7.61667 14.4663 7.59045L14.4981 7.56093L14.5058 7.55374L14.508 7.55175Z" fill="#161616"/>
<path fill-rule="evenodd" clip-rule="evenodd" d="M12.0572 1.75H11.9428C9.75212 1.74999 8.03144 1.74998 6.68802 1.93059C5.31137 2.11568 4.21911 2.50272 3.36091 3.36091C2.50272 4.21911 2.11568 5.31137 1.93059 6.68802C1.74998 8.03144 1.74999 9.75212 1.75 11.9428V12.0572C1.74999 14.2479 1.74998 15.9686 1.93059 17.312C2.11568 18.6886 2.50272 19.7809 3.36091 20.6391C4.21911 21.4973 5.31137 21.8843 6.68802 22.0694C8.03144 22.25 9.7521 22.25 11.9428 22.25H12.0572C14.2479 22.25 15.9686 22.25 17.312 22.0694C18.6886 21.8843 19.7809 21.4973 20.6391 20.6391C21.4973 19.7809 21.8843 18.6886 22.0694 17.312C22.25 15.9686 22.25 14.2479 22.25 12.0572V11.9428C22.25 9.75214 22.25 8.03144 22.0694 6.68802C21.8843 5.31137 21.4973 4.21911 20.6391 3.36091C19.7809 2.50272 18.6886 2.11568 17.312 1.93059C15.9686 1.74998 14.2479 1.74999 12.0572 1.75ZM4.42157 4.42157C4.95462 3.88853 5.67757 3.57994 6.8879 3.41722C8.11979 3.25159 9.73963 3.25 12 3.25C14.2604 3.25 15.8802 3.25159 17.1121 3.41722C18.3224 3.57994 19.0454 3.88853 19.5784 4.42157C20.1115 4.95462 20.4201 5.67757 20.5828 6.8879C20.7484 8.11979 20.75 9.73963 20.75 12C20.75 14.2604 20.7484 15.8802 20.5828 17.1121C20.4201 18.3224 20.1115 19.0454 19.5784 19.5784C19.0454 20.1115 18.3224 20.4201 17.1121 20.5828C15.8802 20.7484 14.2604 20.75 12 20.75C9.73963 20.75 8.11979 20.7484 6.8879 20.5828C5.67757 20.4201 4.95462 20.1115 4.42157 19.5784C3.88853 19.0454 3.57994 18.3224 3.41722 17.1121C3.25159 15.8802 3.25 14.2604 3.25 12C3.25 9.73963 3.25159 8.11979 3.41722 6.8879C3.57994 5.67757 3.88853 4.95462 4.42157 4.42157Z" fill="#161616"/>
</svg>
