<svg width="18" height="18" viewBox="0 0 18 18" fill="none" xmlns="http://www.w3.org/2000/svg">
<g id="elements">
<g id="Icon">
<path d="M9.62467 8.99984C9.62467 8.65466 9.34485 8.37484 8.99967 8.37484C8.6545 8.37484 8.37467 8.65466 8.37467 8.99984V10.8748H6.49967C6.1545 10.8748 5.87467 11.1547 5.87467 11.4998C5.87467 11.845 6.1545 12.1248 6.49967 12.1248H8.37467V13.9998C8.37467 14.345 8.6545 14.6248 8.99967 14.6248C9.34485 14.6248 9.62467 14.345 9.62467 13.9998V12.1248H11.4997C11.8449 12.1248 12.1247 11.845 12.1247 11.4998C12.1247 11.1547 11.8449 10.8748 11.4997 10.8748H9.62467V8.99984Z" fill="#067647"/>
<path fill-rule="evenodd" clip-rule="evenodd" d="M4.62467 0.666504C4.62467 0.321326 4.34485 0.0415039 3.99967 0.0415039C3.6545 0.0415039 3.37467 0.321326 3.37467 0.666504V1.19549C2.70404 1.38557 2.13842 1.6945 1.66763 2.20347C1.01937 2.90429 0.731215 3.78977 0.593215 4.89943C0.457992 5.98676 0.457999 7.38023 0.458008 9.1582V9.67481C0.457999 11.4528 0.457992 12.8463 0.593215 13.9336C0.731215 15.0432 1.01937 15.9287 1.66763 16.6295C2.32229 17.3373 3.16031 17.6582 4.20908 17.8107C5.22411 17.9582 6.52096 17.9582 8.15738 17.9582H9.84197C11.4784 17.9582 12.7752 17.9582 13.7903 17.8107C14.839 17.6582 15.6771 17.3373 16.3317 16.6295C16.98 15.9287 17.2681 15.0432 17.4061 13.9336C17.5414 12.8462 17.5414 11.4528 17.5413 9.67478V9.15823C17.5414 7.38024 17.5414 5.98676 17.4061 4.89943C17.2681 3.78977 16.98 2.90429 16.3317 2.20347C15.8609 1.6945 15.2953 1.38557 14.6247 1.19549V0.666504C14.6247 0.321326 14.3449 0.0415039 13.9997 0.0415039C13.6545 0.0415039 13.3747 0.321326 13.3747 0.666504V0.971416C12.428 0.874813 11.263 0.874824 9.84197 0.874838H8.15738C6.73636 0.874824 5.57139 0.874813 4.62467 0.971416V0.666504ZM2.58525 3.05227C2.80137 2.81864 3.05908 2.63976 3.39851 2.50471C3.47306 2.76648 3.71398 2.95817 3.99967 2.95817C4.34485 2.95817 4.62467 2.67835 4.62467 2.33317V2.22866C5.50885 2.12614 6.65165 2.12484 8.20801 2.12484H9.79134C11.3477 2.12484 12.4905 2.12614 13.3747 2.22866V2.33317C13.3747 2.67835 13.6545 2.95817 13.9997 2.95817C14.2854 2.95817 14.5263 2.76648 14.6008 2.50471C14.9403 2.63976 15.198 2.81864 15.4141 3.05227C15.8076 3.47773 16.0409 4.06097 16.1642 5.0415H1.83518C1.95844 4.06097 2.19171 3.47773 2.58525 3.05227ZM1.74044 6.2915H16.2589C16.2909 7.08891 16.2913 8.04217 16.2913 9.20254V9.63047C16.2913 11.4624 16.2902 12.7781 16.1657 13.7793C16.0428 14.7672 15.8093 15.3535 15.4141 15.7807C15.0253 16.201 14.5019 16.4441 13.6105 16.5737C12.6957 16.7066 11.4898 16.7082 9.79134 16.7082H8.20801C6.50957 16.7082 5.30364 16.7066 4.38888 16.5737C3.49741 16.4441 2.97402 16.201 2.58525 15.7807C2.19008 15.3535 1.95652 14.7672 1.83366 13.7793C1.70915 12.7781 1.70801 11.4624 1.70801 9.63047V9.20254C1.70801 8.04217 1.70847 7.08891 1.74044 6.2915Z" fill="#067647"/>
</g>
</g>
</svg>
