<svg width="14" height="15" viewBox="0 0 14 15" fill="none" xmlns="http://www.w3.org/2000/svg">
<path d="M4.66671 7.49996C4.34454 7.49996 4.08337 7.76113 4.08337 8.08329C4.08337 8.40546 4.34454 8.66663 4.66671 8.66663H4.67194C4.99411 8.66663 5.25527 8.40546 5.25527 8.08329C5.25527 7.76113 4.99411 7.49996 4.67194 7.49996H4.66671Z" fill="#161616"/>
<path d="M6.99742 7.49996C6.67526 7.49996 6.41409 7.76113 6.41409 8.08329C6.41409 8.40546 6.67526 8.66663 6.99742 8.66663H7.00266C7.32482 8.66663 7.58599 8.40546 7.58599 8.08329C7.58599 7.76113 7.32482 7.49996 7.00266 7.49996H6.99742Z" fill="#161616"/>
<path d="M9.32814 7.49996C9.00597 7.49996 8.74481 7.76113 8.74481 8.08329C8.74481 8.40546 9.00597 8.66663 9.32814 8.66663H9.33337C9.65554 8.66663 9.91671 8.40546 9.91671 8.08329C9.91671 7.76113 9.65554 7.49996 9.33337 7.49996H9.32814Z" fill="#161616"/>
<path d="M4.66671 9.83329C4.34454 9.83329 4.08337 10.0945 4.08337 10.4166C4.08337 10.7388 4.34454 11 4.66671 11H4.67194C4.99411 11 5.25527 10.7388 5.25527 10.4166C5.25527 10.0945 4.99411 9.83329 4.67194 9.83329H4.66671Z" fill="#161616"/>
<path d="M6.99742 9.83329C6.67526 9.83329 6.41409 10.0945 6.41409 10.4166C6.41409 10.7388 6.67526 11 6.99742 11H7.00266C7.32482 11 7.58599 10.7388 7.58599 10.4166C7.58599 10.0945 7.32482 9.83329 7.00266 9.83329H6.99742Z" fill="#161616"/>
<path fill-rule="evenodd" clip-rule="evenodd" d="M3.93754 1.66663C3.93754 1.425 3.74167 1.22913 3.50004 1.22913C3.25842 1.22913 3.06254 1.425 3.06254 1.66663V2.03692C2.5931 2.16997 2.19717 2.38622 1.86761 2.7425C1.41383 3.23308 1.21212 3.85291 1.11552 4.62967C1.02086 5.3908 1.02087 6.36623 1.02087 7.61081V7.97244C1.02087 9.21702 1.02086 10.1924 1.11552 10.9536C1.21212 11.7303 1.41383 12.3502 1.86761 12.8407C2.32587 13.3362 2.91249 13.5608 3.64662 13.6675C4.35714 13.7708 5.26494 13.7708 6.41043 13.7708H7.58965C8.73514 13.7708 9.64294 13.7708 10.3535 13.6675C11.0876 13.5608 11.6742 13.3362 12.1325 12.8407C12.5863 12.3502 12.788 11.7303 12.8846 10.9536C12.9792 10.1924 12.9792 9.21701 12.9792 7.97242V7.61083C12.9792 6.36624 12.9792 5.39081 12.8846 4.62967C12.788 3.85291 12.5863 3.23308 12.1325 2.7425C11.8029 2.38622 11.407 2.16997 10.9375 2.03692V1.66663C10.9375 1.425 10.7417 1.22913 10.5 1.22913C10.2584 1.22913 10.0625 1.425 10.0625 1.66663V1.88006C9.39984 1.81244 8.58436 1.81245 7.58965 1.81246H6.41043C5.41572 1.81245 4.60024 1.81244 3.93754 1.88006V1.66663ZM3.07922 2.95337C3.13141 3.13661 3.30006 3.27079 3.50004 3.27079C3.74167 3.27079 3.93754 3.07492 3.93754 2.83329V2.76013C4.55646 2.68837 5.35642 2.68746 6.44587 2.68746H7.55421C8.64366 2.68746 9.44362 2.68837 10.0625 2.76013V2.83329C10.0625 3.07492 10.2584 3.27079 10.5 3.27079C10.7 3.27079 10.8687 3.13661 10.9209 2.95337C11.1585 3.04791 11.3389 3.17312 11.4901 3.33666C11.7661 3.63502 11.9295 4.04422 12.0157 4.73284C11.9969 4.73039 11.9778 4.72913 11.9584 4.72913H2.04171C2.02229 4.72913 2.00318 4.73039 1.98443 4.73284C2.07059 4.04422 2.23397 3.63502 2.50995 3.33666C2.66123 3.17312 2.84163 3.04791 3.07922 2.95337ZM1.91928 5.58677C1.8962 6.14846 1.89587 6.82116 1.89587 7.64185V7.9414C1.89587 9.22374 1.89667 10.1448 1.98383 10.8456C2.06983 11.5371 2.23332 11.9475 2.50995 12.2466C2.78208 12.5408 3.14845 12.7109 3.77248 12.8016C4.41282 12.8947 5.25697 12.8958 6.44587 12.8958H7.55421C8.74311 12.8958 9.58726 12.8947 10.2276 12.8016C10.8516 12.7109 11.218 12.5408 11.4901 12.2466C11.7668 11.9475 11.9302 11.5371 12.0163 10.8456C12.1034 10.1448 12.1042 9.22374 12.1042 7.9414V7.64185C12.1042 6.82116 12.1039 6.14846 12.0808 5.58677C12.0419 5.59807 12.0009 5.60413 11.9584 5.60413H2.04171C1.99921 5.60413 1.95813 5.59807 1.91928 5.58677Z" fill="#161616"/>
</svg>
