<svg width="18" height="18" viewBox="0 0 18 18" fill="none" xmlns="http://www.w3.org/2000/svg">
<path d="M5.49999 9.00008C5.03975 9.00008 4.66666 9.37318 4.66666 9.83342C4.66666 10.2937 5.03975 10.6667 5.49999 10.6667H5.50747C5.9677 10.6667 6.3408 10.2937 6.3408 9.83342C6.3408 9.37318 5.9677 9.00008 5.50747 9.00008H5.49999Z" fill="#161616"/>
<path d="M8.82959 9.00008C8.36935 9.00008 7.99625 9.37318 7.99625 9.83342C7.99625 10.2937 8.36935 10.6667 8.82959 10.6667H8.83706C9.2973 10.6667 9.6704 10.2937 9.6704 9.83342C9.6704 9.37318 9.2973 9.00008 8.83706 9.00008H8.82959Z" fill="#161616"/>
<path d="M12.1592 9.00008C11.6989 9.00008 11.3258 9.37318 11.3258 9.83342C11.3258 10.2937 11.6989 10.6667 12.1592 10.6667H12.1667C12.6269 10.6667 13 10.2937 13 9.83342C13 9.37318 12.6269 9.00008 12.1667 9.00008H12.1592Z" fill="#161616"/>
<path d="M5.49999 12.3334C5.03975 12.3334 4.66666 12.7065 4.66666 13.1667C4.66666 13.627 5.03975 14.0001 5.49999 14.0001H5.50747C5.9677 14.0001 6.3408 13.627 6.3408 13.1667C6.3408 12.7065 5.9677 12.3334 5.50747 12.3334H5.49999Z" fill="#161616"/>
<path d="M8.82959 12.3334C8.36935 12.3334 7.99625 12.7065 7.99625 13.1667C7.99625 13.627 8.36935 14.0001 8.82959 14.0001H8.83706C9.2973 14.0001 9.6704 13.627 9.6704 13.1667C9.6704 12.7065 9.2973 12.3334 8.83706 12.3334H8.82959Z" fill="#161616"/>
<path fill-rule="evenodd" clip-rule="evenodd" d="M4.45832 0.666748C4.45832 0.32157 4.1785 0.041748 3.83332 0.041748C3.48815 0.041748 3.20832 0.32157 3.20832 0.666748V1.19574C2.53769 1.38582 1.97207 1.69475 1.50128 2.20372C0.853018 2.90454 0.564864 3.79002 0.426864 4.89967C0.29164 5.987 0.291648 7.38047 0.291657 9.15845V9.67505C0.291648 11.453 0.29164 12.8465 0.426864 13.9338C0.564864 15.0435 0.853018 15.929 1.50128 16.6298C2.15594 17.3375 2.99396 17.6585 4.04273 17.8109C5.05775 17.9584 6.35461 17.9584 7.99102 17.9584H9.67562C11.312 17.9584 12.6089 17.9584 13.6239 17.8109C14.6727 17.6585 15.5107 17.3375 16.1654 16.6298C16.8136 15.929 17.1018 15.0435 17.2398 13.9338C17.375 12.8465 17.375 11.453 17.375 9.67503V9.15847C17.375 7.38048 17.375 5.98701 17.2398 4.89967C17.1018 3.79002 16.8136 2.90454 16.1654 2.20372C15.6946 1.69475 15.129 1.38582 14.4583 1.19574V0.666748C14.4583 0.32157 14.1785 0.041748 13.8333 0.041748C13.4881 0.041748 13.2083 0.32157 13.2083 0.666748V0.97166C12.2616 0.875057 11.0966 0.875068 9.67562 0.875082H7.99103C6.57001 0.875068 5.40504 0.875057 4.45832 0.97166V0.666748ZM3.23216 2.50495C3.30671 2.76673 3.54763 2.95841 3.83332 2.95841C4.1785 2.95841 4.45832 2.67859 4.45832 2.33341V2.2289C5.3425 2.12638 6.4853 2.12508 8.04166 2.12508H9.62499C11.1813 2.12508 12.3242 2.12638 13.2083 2.2289V2.33341C13.2083 2.67859 13.4881 2.95841 13.8333 2.95841C14.119 2.95841 14.3599 2.76673 14.4345 2.50495C14.7739 2.64001 15.0316 2.81888 15.2477 3.05252C15.642 3.47874 15.8754 4.06331 15.9985 5.04706C15.9717 5.04355 15.9444 5.04175 15.9167 5.04175H1.74999C1.72226 5.04175 1.69495 5.04355 1.66817 5.04706C1.79125 4.06332 2.02465 3.47874 2.4189 3.05252C2.63502 2.81888 2.89273 2.64001 3.23216 2.50495ZM1.5751 6.26695C1.54212 7.06938 1.54166 8.03037 1.54166 9.20279V9.63071C1.54166 11.4626 1.5428 12.7784 1.66731 13.7796C1.79017 14.7675 2.02373 15.3538 2.4189 15.781C2.80767 16.2013 3.33106 16.4443 4.22252 16.5739C5.13729 16.7069 6.34322 16.7084 8.04166 16.7084H9.62499C11.3234 16.7084 12.5294 16.7069 13.4441 16.5739C14.3356 16.4443 14.859 16.2013 15.2477 15.781C15.6429 15.3538 15.8765 14.7675 15.9993 13.7796C16.1239 12.7784 16.125 11.4626 16.125 9.63071V9.20279C16.125 8.03037 16.1245 7.06938 16.0915 6.26695C16.0361 6.28309 15.9774 6.29175 15.9167 6.29175H1.74999C1.68928 6.29175 1.6306 6.28309 1.5751 6.26695Z" fill="#161616"/>
</svg>
