<svg width="40" height="40" viewBox="0 0 40 40" fill="none" xmlns="http://www.w3.org/2000/svg">
<path d="M0 20C0 8.95431 8.95431 0 20 0C31.0457 0 40 8.95431 40 20C40 31.0457 31.0457 40 20 40C8.95431 40 0 31.0457 0 20Z" fill="#F9FAFB"/>
<path d="M17.9413 17.0579C17.6972 16.8138 17.3015 16.8138 17.0574 17.0579C16.8133 17.3019 16.8133 17.6977 17.0574 17.9418L19.1155 20.0001L17.0579 22.0579C16.8139 22.302 16.8139 22.6977 17.058 22.9418C17.3021 23.1859 17.6978 23.1858 17.9418 22.9418L19.9993 20.884L22.0568 22.9418C22.3009 23.1858 22.6966 23.1859 22.9407 22.9418C23.1848 22.6977 23.1848 22.302 22.9408 22.0579L20.8832 20.0001L22.9413 17.9418C23.1854 17.6977 23.1854 17.3019 22.9413 17.0579C22.6972 16.8138 22.3014 16.8138 22.0574 17.0579L19.9993 19.1162L17.9413 17.0579Z" fill="#161616"/>
<path fill-rule="evenodd" clip-rule="evenodd" d="M19.9993 28.9582C15.0518 28.9582 11.041 24.9474 11.041 19.9998C11.041 15.0523 15.0518 11.0415 19.9993 11.0415C24.9469 11.0415 28.9577 15.0523 28.9577 19.9998C28.9577 24.9474 24.9469 28.9582 19.9993 28.9582ZM12.291 19.9998C12.291 24.257 15.7422 27.7082 19.9993 27.7082C24.2565 27.7082 27.7077 24.257 27.7077 19.9998C27.7077 15.7426 24.2565 12.2915 19.9993 12.2915C15.7422 12.2915 12.291 15.7426 12.291 19.9998Z" fill="#161616"/>
</svg>
