<svg width="18" height="18" viewBox="0 0 18 18" fill="none" xmlns="http://www.w3.org/2000/svg">
<path d="M6.94131 6.05792C6.69725 5.81383 6.30152 5.81381 6.05743 6.05787C5.81334 6.30194 5.81332 6.69766 6.05738 6.94176L8.11551 9.0001L6.05792 11.0579C5.81385 11.302 5.81387 11.6977 6.05796 11.9418C6.30206 12.1859 6.69778 12.1858 6.94185 11.9418L8.99935 9.88404L11.0568 11.9418C11.3009 12.1858 11.6966 12.1859 11.9407 11.9418C12.1848 11.6977 12.1848 11.302 11.9408 11.0579L9.88319 9.0001L11.9413 6.94176C12.1854 6.69766 12.1854 6.30194 11.9413 6.05787C11.6972 5.81381 11.3014 5.81383 11.0574 6.05792L8.99935 8.11617L6.94131 6.05792Z" fill="#161616"/>
<path fill-rule="evenodd" clip-rule="evenodd" d="M8.99935 17.9582C4.0518 17.9582 0.0410156 13.9474 0.0410156 8.99984C0.0410156 4.05229 4.0518 0.0415039 8.99935 0.0415039C13.9469 0.0415039 17.9577 4.05229 17.9577 8.99984C17.9577 13.9474 13.9469 17.9582 8.99935 17.9582ZM1.29102 8.99984C1.29102 13.257 4.74215 16.7082 8.99935 16.7082C13.2565 16.7082 16.7077 13.257 16.7077 8.99984C16.7077 4.74264 13.2565 1.2915 8.99935 1.2915C4.74215 1.2915 1.29102 4.74264 1.29102 8.99984Z" fill="#161616"/>
</svg>
