<svg width="25" height="24" viewBox="0 0 25 24" fill="none" xmlns="http://www.w3.org/2000/svg">
<path fill-rule="evenodd" clip-rule="evenodd" d="M12.5572 1.75H12.4428C10.2521 1.74999 8.53144 1.74998 7.18802 1.93059C5.81137 2.11568 4.71911 2.50271 3.86091 3.36091C3.00271 4.21911 2.61568 5.31137 2.43059 6.68802C2.24998 8.03144 2.24999 9.75212 2.25 11.9428V12.0572C2.24999 14.2479 2.24998 15.9686 2.43059 17.312C2.61568 18.6886 3.00271 19.7809 3.86091 20.6391C4.71911 21.4973 5.81137 21.8843 7.18802 22.0694C8.53144 22.25 10.2521 22.25 12.4428 22.25H12.4428H12.5572H12.5572C14.7479 22.25 16.4686 22.25 17.812 22.0694C19.1886 21.8843 20.2809 21.4973 21.1391 20.6391C21.9973 19.7809 22.3843 18.6886 22.5694 17.312C22.75 15.9686 22.75 14.2479 22.75 12.0572V12.0572V11.9428V11.9428C22.75 9.7521 22.75 8.03144 22.5694 6.68802C22.3843 5.31137 21.9973 4.21911 21.1391 3.36091C20.2809 2.50271 19.1886 2.11568 17.812 1.93059C16.4686 1.74998 14.7479 1.74999 12.5572 1.75ZM4.92157 4.42157C5.45462 3.88853 6.17757 3.57994 7.3879 3.41722C8.6198 3.25159 10.2396 3.25 12.5 3.25C14.7604 3.25 16.3802 3.25159 17.6121 3.41722C18.8224 3.57994 19.5454 3.88853 20.0784 4.42157C20.6115 4.95462 20.9201 5.67757 21.0828 6.8879C21.2484 8.1198 21.25 9.73963 21.25 12C21.25 14.2604 21.2484 15.8802 21.0828 17.1121C20.9201 18.3224 20.6115 19.0454 20.0784 19.5784C19.5454 20.1115 18.8224 20.4201 17.6121 20.5828C16.3802 20.7484 14.7604 20.75 12.5 20.75C10.2396 20.75 8.6198 20.7484 7.3879 20.5828C6.17757 20.4201 5.45462 20.1115 4.92157 19.5784C4.38853 19.0454 4.07994 18.3224 3.91722 17.1121C3.75159 15.8802 3.75 14.2604 3.75 12C3.75 9.73963 3.75159 8.1198 3.91722 6.8879C4.07994 5.67757 4.38853 4.95462 4.92157 4.42157ZM13.25 7C13.25 6.58579 12.9142 6.25 12.5 6.25C12.0858 6.25 11.75 6.58579 11.75 7V17C11.75 17.4142 12.0858 17.75 12.5 17.75C12.9142 17.75 13.25 17.4142 13.25 17V7ZM8.25 13C8.25 12.5858 7.91421 12.25 7.5 12.25C7.08579 12.25 6.75 12.5858 6.75 13V17C6.75 17.4142 7.08579 17.75 7.5 17.75C7.91421 17.75 8.25 17.4142 8.25 17V13ZM17.5 10.25C17.9142 10.25 18.25 10.5858 18.25 11V17C18.25 17.4142 17.9142 17.75 17.5 17.75C17.0858 17.75 16.75 17.4142 16.75 17V11C16.75 10.5858 17.0858 10.25 17.5 10.25Z" fill="#161616"/>
</svg>
