<svg width="24" height="25" viewBox="0 0 24 25" fill="none" xmlns="http://www.w3.org/2000/svg">
<path d="M11.25 15.9456H12.75V18.9456H11.25V15.9456ZM15 14.4456H16.5V18.9456H15V14.4456ZM7.5 11.4456H9V18.9456H7.5V11.4456Z" fill="#161616"/>
<path d="M18.75 4.69556H16.5V3.94556C16.5 3.54773 16.342 3.1662 16.0607 2.8849C15.7794 2.60359 15.3978 2.44556 15 2.44556H9C8.60218 2.44556 8.22064 2.60359 7.93934 2.8849C7.65804 3.1662 7.5 3.54773 7.5 3.94556V4.69556H5.25C4.85218 4.69556 4.47064 4.85359 4.18934 5.1349C3.90804 5.4162 3.75 5.79773 3.75 6.19556V21.9456C3.75 22.3434 3.90804 22.7249 4.18934 23.0062C4.47064 23.2875 4.85218 23.4456 5.25 23.4456H18.75C19.1478 23.4456 19.5294 23.2875 19.8107 23.0062C20.092 22.7249 20.25 22.3434 20.25 21.9456V6.19556C20.25 5.79773 20.092 5.4162 19.8107 5.1349C19.5294 4.85359 19.1478 4.69556 18.75 4.69556ZM9 3.94556H15V6.94556H9V3.94556ZM18.75 21.9456H5.25V6.19556H7.5V8.44556H16.5V6.19556H18.75V21.9456Z" fill="#161616"/>
</svg>
