<svg width="24" height="25" viewBox="0 0 24 25" fill="none" xmlns="http://www.w3.org/2000/svg">
<path d="M18 12.9456C17.5362 12.9469 17.0841 13.0919 16.706 13.3604C16.3278 13.629 16.0421 14.0081 15.888 14.4456H9V12.9456H4.5V17.4456H9V15.9456H15.888C16.0421 16.383 16.3278 16.7621 16.706 17.0307C17.0841 17.2993 17.5362 17.4442 18 17.4456C19.2405 17.4456 20.25 16.4361 20.25 15.1956C20.25 13.9551 19.2405 12.9456 18 12.9456ZM7.5 15.9456H6V14.4456H7.5V15.9456ZM18 15.9456C17.801 15.9455 17.6102 15.8663 17.4695 15.7255C17.3289 15.5847 17.2499 15.3938 17.25 15.1948C17.2501 14.9958 17.3293 14.805 17.47 14.6643C17.6108 14.5237 17.8017 14.4447 18.0007 14.4448C18.0993 14.4449 18.1969 14.4643 18.2879 14.5021C18.3789 14.5398 18.4616 14.5951 18.5312 14.6649C18.6009 14.7346 18.6561 14.8173 18.6938 14.9084C18.7314 14.9994 18.7508 15.097 18.7507 15.1956C18.7507 15.2941 18.7312 15.3917 18.6935 15.4827C18.6557 15.5737 18.6004 15.6564 18.5307 15.726C18.461 15.7957 18.3782 15.8509 18.2872 15.8886C18.1961 15.9262 18.0985 15.9456 18 15.9456Z" fill="#575656"/>
<path d="M19.374 9.36056C18.7425 5.86106 15.6788 3.19556 12 3.19556C8.32125 3.19556 5.2575 5.86031 4.626 9.36056C1.9785 9.98456 0 12.3606 0 15.1956C0 18.5038 2.69175 21.1956 6 21.1956H9V19.6956H6C3.51825 19.6956 1.5 17.6773 1.5 15.1956C1.5 12.7138 3.51825 10.6956 6 10.6956C6 7.38731 8.69175 4.69556 12 4.69556C15.3082 4.69556 18 7.38731 18 10.6956C20.4818 10.6956 22.5 12.7138 22.5 15.1956C22.5 17.6773 20.4818 19.6956 18 19.6956H12V21.1956H18C21.3083 21.1956 24 18.5038 24 15.1956C24 12.3606 22.0215 9.98456 19.374 9.36056Z" fill="#575656"/>
</svg>
