<svg width="24" height="24" viewBox="0 0 24 24" fill="none" xmlns="http://www.w3.org/2000/svg">
<g id="carbon:ibm-private-path-services">
<path id="Vector" d="M18 12C17.5362 12.0014 17.0841 12.1463 16.706 12.4149C16.3278 12.6835 16.0421 13.0625 15.888 13.5H9V12H4.5V16.5H9V15H15.888C16.0421 15.4375 16.3278 15.8165 16.706 16.0851C17.0841 16.3537 17.5362 16.4986 18 16.5C19.2405 16.5 20.25 15.4905 20.25 14.25C20.25 13.0095 19.2405 12 18 12ZM7.5 15H6V13.5H7.5V15ZM18 15C17.801 14.9999 17.6102 14.9207 17.4695 14.78C17.3289 14.6392 17.2499 14.4483 17.25 14.2493C17.2501 14.0502 17.3293 13.8594 17.47 13.7188C17.6108 13.5781 17.8017 13.4992 18.0007 13.4993C18.0993 13.4993 18.1969 13.5188 18.2879 13.5565C18.3789 13.5943 18.4616 13.6496 18.5312 13.7193C18.6009 13.789 18.6561 13.8718 18.6938 13.9628C18.7314 14.0539 18.7508 14.1515 18.7507 14.25C18.7507 14.3485 18.7312 14.4461 18.6935 14.5371C18.6557 14.6281 18.6004 14.7108 18.5307 14.7805C18.461 14.8501 18.3782 14.9054 18.2872 14.943C18.1961 14.9807 18.0985 15 18 15Z" fill="#161616"/>
<path id="Vector_2" d="M19.374 8.415C18.7425 4.9155 15.6788 2.25 12 2.25C8.32125 2.25 5.2575 4.91475 4.626 8.415C1.9785 9.039 0 11.415 0 14.25C0 17.5582 2.69175 20.25 6 20.25H9V18.75H6C3.51825 18.75 1.5 16.7318 1.5 14.25C1.5 11.7682 3.51825 9.75 6 9.75C6 6.44175 8.69175 3.75 12 3.75C15.3082 3.75 18 6.44175 18 9.75C20.4818 9.75 22.5 11.7682 22.5 14.25C22.5 16.7318 20.4818 18.75 18 18.75H12V20.25H18C21.3083 20.25 24 17.5582 24 14.25C24 11.415 22.0215 9.039 19.374 8.415Z" fill="#161616"/>
</g>
</svg>
