<svg width="22" height="22" viewBox="0 0 22 22" fill="none" xmlns="http://www.w3.org/2000/svg">
<path d="M13.508 6.55175C13.8127 6.2712 13.8323 5.79676 13.5518 5.49203C13.2712 5.18728 12.7964 5.16801 12.4917 5.44856L12.4883 5.4516L12.479 5.46027L12.4439 5.4929C12.4134 5.52126 12.3692 5.5626 12.3132 5.61545C12.2013 5.72111 12.0421 5.87295 11.8513 6.05908C11.4703 6.43069 10.9603 6.94212 10.4484 7.49766C9.93946 8.05005 9.41467 8.66106 9.01255 9.22994C8.81178 9.51397 8.63031 9.80322 8.49633 10.081C8.36934 10.3443 8.24999 10.6675 8.25 11C8.25 11.3325 8.36935 11.6556 8.49633 11.9189C8.63031 12.1967 8.81178 12.486 9.01255 12.77C9.41467 13.3389 9.93945 13.9499 10.4484 14.5023C10.9603 15.0578 11.4703 15.5693 11.8513 15.9409C12.0421 16.127 12.2013 16.2789 12.3132 16.3845C12.3692 16.4374 12.4134 16.4787 12.4438 16.5071L12.4789 16.5397L12.4883 16.5484L12.492 16.5518C12.7967 16.8323 13.2712 16.8127 13.5517 16.508C13.8323 16.2032 13.8123 15.7285 13.5076 15.4479L13.498 15.4391L13.4663 15.4096C13.4381 15.3833 13.3964 15.3443 13.343 15.2939C13.2361 15.193 13.0829 15.0468 12.8987 14.8672C12.5296 14.5071 12.0397 14.0156 11.5515 13.4859C11.0605 12.953 10.5853 12.3963 10.2374 11.9042C10.0632 11.6577 9.93218 11.4431 9.84741 11.2673C9.76246 11.0912 9.75131 11.0094 9.75012 11.0006V10.9993C9.75131 10.9905 9.76246 10.9088 9.84741 10.7326C9.93218 10.5568 10.0632 10.3422 10.2374 10.0958C10.5853 9.60363 11.0605 9.047 11.5516 8.51409C12.0397 7.98435 12.5296 7.49284 12.8987 7.13282C13.0829 6.95315 13.2362 6.80701 13.343 6.70615C13.3964 6.65573 13.4381 6.61667 13.4663 6.59045L13.4981 6.56093L13.5058 6.55374L13.508 6.55175Z" fill="#161616"/>
<path fill-rule="evenodd" clip-rule="evenodd" d="M11.0572 0.75H10.9428C8.75212 0.749987 7.03144 0.749976 5.68802 0.930594C4.31137 1.11568 3.21911 1.50272 2.36091 2.36091C1.50272 3.21911 1.11568 4.31137 0.930594 5.68802C0.749976 7.03144 0.749987 8.75212 0.75 10.9428V11.0572C0.749987 13.2479 0.749976 14.9686 0.930594 16.312C1.11568 17.6886 1.50272 18.7809 2.36091 19.6391C3.21911 20.4973 4.31137 20.8843 5.68802 21.0694C7.03144 21.25 8.7521 21.25 10.9428 21.25H11.0572C13.2479 21.25 14.9686 21.25 16.312 21.0694C17.6886 20.8843 18.7809 20.4973 19.6391 19.6391C20.4973 18.7809 20.8843 17.6886 21.0694 16.312C21.25 14.9686 21.25 13.2479 21.25 11.0572V10.9428C21.25 8.75214 21.25 7.03144 21.0694 5.68802C20.8843 4.31137 20.4973 3.21911 19.6391 2.36091C18.7809 1.50272 17.6886 1.11568 16.312 0.930594C14.9686 0.749976 13.2479 0.749987 11.0572 0.75ZM3.42157 3.42157C3.95462 2.88853 4.67757 2.57994 5.8879 2.41722C7.11979 2.25159 8.73963 2.25 11 2.25C13.2604 2.25 14.8802 2.25159 16.1121 2.41722C17.3224 2.57994 18.0454 2.88853 18.5784 3.42157C19.1115 3.95462 19.4201 4.67757 19.5828 5.8879C19.7484 7.11979 19.75 8.73963 19.75 11C19.75 13.2604 19.7484 14.8802 19.5828 16.1121C19.4201 17.3224 19.1115 18.0454 18.5784 18.5784C18.0454 19.1115 17.3224 19.4201 16.1121 19.5828C14.8802 19.7484 13.2604 19.75 11 19.75C8.73963 19.75 7.11979 19.7484 5.8879 19.5828C4.67757 19.4201 3.95462 19.1115 3.42157 18.5784C2.88853 18.0454 2.57994 17.3224 2.41722 16.1121C2.25159 14.8802 2.25 13.2604 2.25 11C2.25 8.73963 2.25159 7.11979 2.41722 5.8879C2.57994 4.67757 2.88853 3.95462 3.42157 3.42157Z" fill="#161616"/>
</svg>
