<svg width="16" height="16" viewBox="0 0 16 16" fill="none" xmlns="http://www.w3.org/2000/svg">
<path d="M6.99982 8.16652H6.97315C6.79982 8.15985 6.64648 8.05985 6.56648 7.91318C6.26847 7.38405 6.01484 7.29324 5.96758 7.27632C5.96304 7.2747 5.9604 7.27375 5.95982 7.27317C5.68649 7.27317 5.47982 7.05317 5.47982 6.77317C5.47982 6.49317 5.72648 6.27317 5.99982 6.27317C6.09982 6.27317 6.53981 6.30651 7.01315 6.82651C7.61315 6.09985 8.74648 4.86654 9.84648 4.51987C10.1131 4.43987 10.3931 4.58653 10.4731 4.84653C10.5531 5.1132 10.4065 5.3932 10.1465 5.4732C9.11982 5.7932 7.81982 7.37318 7.39982 7.95318C7.30648 8.08651 7.15315 8.15985 6.99315 8.15985L6.99982 8.16652Z" fill="#161616"/>
<path fill-rule="evenodd" clip-rule="evenodd" d="M4.17379 10.2812C3.14203 9.2809 2.5 7.88085 2.5 6.33331C2.5 3.29998 4.96667 0.833313 8 0.833313C11.0333 0.833313 13.5 3.29998 13.5 6.33331C13.5 7.88091 12.8579 9.28101 11.8261 10.2813L12.1931 12.0398C12.5131 13.5798 12.6731 14.3531 12.2065 14.8665C12.0131 15.0798 11.7931 15.1731 11.5465 15.1731C11.0798 15.1731 10.5065 14.8598 9.76648 14.4531L8.25314 13.6265C8.13327 13.5599 8.0131 13.4931 7.97314 13.4865C7.98358 13.4969 7.91223 13.536 7.82956 13.5812C7.80668 13.5938 7.78293 13.6068 7.75981 13.6198L6.21548 14.4628C5.09204 15.0774 4.35023 15.4832 3.79314 14.8665C3.32648 14.3531 3.48647 13.5798 3.80647 12.0465L4.17379 10.2812ZM5.05185 10.975L4.78647 12.2465C4.60647 13.0998 4.40648 14.0598 4.53314 14.1931C4.64648 14.1798 5.23314 13.8598 5.75314 13.5731L7.26648 12.7465C7.55981 12.5865 7.74647 12.4865 7.99981 12.4865C8.25314 12.4865 8.43981 12.5865 8.71981 12.7398L10.2465 13.5731C10.7665 13.8598 11.3598 14.1798 11.5198 14.1665C11.5931 14.0531 11.3931 13.0998 11.2131 12.2531L10.9473 10.9755C10.0949 11.5185 9.08363 11.8333 8 11.8333C6.91602 11.8333 5.9044 11.5183 5.05185 10.975ZM8 1.83331C5.52 1.83331 3.5 3.85331 3.5 6.33331C3.5 8.81331 5.52 10.8333 8 10.8333C10.48 10.8333 12.5 8.81331 12.5 6.33331C12.5 3.85331 10.48 1.83331 8 1.83331Z" fill="#161616"/>
</svg>
