<svg width="16" height="16" viewBox="0 0 16 16" fill="none" xmlns="http://www.w3.org/2000/svg">
<path d="M7.60543 15.168C6.1321 15.168 4.58676 15.1307 3.50009 15.0673C2.59209 15.014 1.85409 14.5453 1.36676 13.7107C0.979427 13.0467 0.840751 12.304 0.840751 11.8293C0.830238 10.9942 0.833321 9.32945 0.836603 7.55703L0.836747 7.47932C0.838747 6.53132 0.840751 5.55065 0.840751 4.64332C0.840751 1.53532 2.79408 1.03866 3.65608 0.971327C3.83008 0.946661 5.08008 0.780654 6.68408 0.847988C6.96008 0.859321 7.17409 1.09266 7.16276 1.36866C7.15142 1.64466 6.91875 1.85865 6.64209 1.84732C5.04809 1.78065 3.79609 1.96199 3.78343 1.96399C3.77143 1.96599 3.75876 1.96732 3.74609 1.96799C2.87676 2.03066 1.8401 2.54598 1.8401 4.64398C1.8401 5.55198 1.8381 6.53332 1.8361 7.48199L1.83551 7.7955C1.83235 9.47454 1.82943 11.0261 1.8401 11.8233C1.8401 12.2813 2.13142 13.986 3.55742 14.0693C5.60208 14.188 9.28541 14.2147 10.9701 14.07C10.9723 14.07 10.9745 14.0698 10.9767 14.0696L10.9841 14.0687C10.9994 14.068 12.5114 13.9647 12.6848 12.4727C12.8588 10.976 12.8468 9.884 12.8421 9.47266C12.8421 9.44215 12.8417 9.41525 12.8413 9.39185C12.841 9.37384 12.8408 9.3579 12.8408 9.34398C12.8408 9.06798 13.0648 8.84398 13.3408 8.84398C13.6168 8.84398 13.8408 9.06798 13.8408 9.34398C13.8408 9.37332 13.8408 9.41265 13.8421 9.46132L13.8422 9.46734C13.8469 9.90057 13.8592 11.0359 13.6781 12.588C13.4634 14.4367 11.8688 15.0167 11.0488 15.066C10.2261 15.136 8.94475 15.1667 7.60475 15.1667L7.60543 15.168Z" fill="#384250"/>
<path d="M10.6536 6.17798H10.6277C10.4477 6.16865 10.2863 6.06332 10.2063 5.90199C9.91763 5.32399 9.63632 5.03465 9.63299 5.03199C9.43766 4.83665 9.43766 4.51999 9.63299 4.32466C9.82832 4.12933 10.145 4.12933 10.3403 4.32466C10.3643 4.34866 10.505 4.49331 10.6917 4.76065C11.1257 4.19865 11.805 3.44866 12.487 3.20666C12.747 3.11466 13.033 3.25065 13.125 3.51065C13.217 3.77065 13.081 4.05665 12.821 4.14865C12.2543 4.34932 11.4496 5.35732 11.0756 5.94532C10.9836 6.08998 10.8243 6.17731 10.6536 6.17731V6.17798Z" fill="#384250"/>
<path fill-rule="evenodd" clip-rule="evenodd" d="M7.49365 4.67806C7.49365 6.79206 9.21501 8.51139 11.3303 8.51139C13.4457 8.51139 15.167 6.79206 15.167 4.67806C15.167 2.56406 13.4457 0.844727 11.3303 0.844727C9.21501 0.844727 7.49365 2.56406 7.49365 4.67806ZM8.49365 4.67806C8.49365 3.11606 9.76634 1.84473 11.3303 1.84473C12.8943 1.84473 14.167 3.11606 14.167 4.67806C14.167 6.24006 12.8943 7.51139 11.3303 7.51139C9.76634 7.51139 8.49365 6.24006 8.49365 4.67806Z" fill="#384250"/>
<path d="M7.32015 9.17806H4.65348C4.37748 9.17806 4.15348 8.95406 4.15348 8.67806C4.15348 8.40206 4.37748 8.17806 4.65348 8.17806H7.32015C7.59615 8.17806 7.82015 8.40206 7.82015 8.67806C7.82015 8.95406 7.59615 9.17806 7.32015 9.17806Z" fill="#384250"/>
<path d="M4.65348 11.8447H9.98682C10.2628 11.8447 10.4868 11.6207 10.4868 11.3447C10.4868 11.0687 10.2628 10.8447 9.98682 10.8447H4.65348C4.37748 10.8447 4.15348 11.0687 4.15348 11.3447C4.15348 11.6207 4.37748 11.8447 4.65348 11.8447Z" fill="#384250"/>
</svg>
