<svg width="32" height="32" viewBox="0 0 32 32" fill="none" xmlns="http://www.w3.org/2000/svg">
<path d="M0 16C0 7.16344 7.16344 0 16 0C24.8366 0 32 7.16344 32 16C32 24.8366 24.8366 32 16 32C7.16344 32 0 24.8366 0 16Z" fill="#F3FCF6"/>
<path d="M15.3333 12.8333C15.0571 12.8333 14.8333 13.0572 14.8333 13.3333C14.8333 13.6095 15.0571 13.8333 15.3333 13.8333H16.6666C16.9427 13.8333 17.1666 13.6095 17.1666 13.3333C17.1666 13.0572 16.9427 12.8333 16.6666 12.8333H15.3333Z" fill="#067647"/>
<path d="M15.3333 15.1666C15.0571 15.1666 14.8333 15.3905 14.8333 15.6666C14.8333 15.9428 15.0571 16.1666 15.3333 16.1666H16.6666C16.9427 16.1666 17.1666 15.9428 17.1666 15.6666C17.1666 15.3905 16.9427 15.1666 16.6666 15.1666H15.3333Z" fill="#067647"/>
<path d="M15.3333 17.5C15.0571 17.5 14.8333 17.7238 14.8333 18C14.8333 18.2761 15.0571 18.5 15.3333 18.5H16.6666C16.9427 18.5 17.1666 18.2761 17.1666 18C17.1666 17.7238 16.9427 17.5 16.6666 17.5H15.3333Z" fill="#067647"/>
<path fill-rule="evenodd" clip-rule="evenodd" d="M8.83325 22.6666C8.83325 22.3905 9.05711 22.1666 9.33325 22.1666H9.49992L9.49992 18C9.49992 17.7134 9.51421 17.4491 9.56477 17.219C9.61657 16.9832 9.71302 16.7524 9.89937 16.5661C10.0857 16.3798 10.3165 16.2833 10.5523 16.2315C10.7824 16.1809 11.0467 16.1666 11.3333 16.1666H12.8333L12.8333 12C12.8333 11.7134 12.8475 11.4491 12.8981 11.219C12.9499 10.9832 13.0464 10.7524 13.2327 10.5661C13.419 10.3798 13.6498 10.2833 13.8856 10.2315C14.1157 10.1809 14.38 10.1666 14.6666 10.1666H15.4999V9.33331C15.4999 9.05717 15.7238 8.83331 15.9999 8.83331C16.2761 8.83331 16.4999 9.05717 16.4999 9.33331V10.1666H17.3333C17.6199 10.1666 17.8841 10.1809 18.1142 10.2315C18.3501 10.2833 18.5808 10.3798 18.7671 10.5661C18.9535 10.7524 19.0499 10.9832 19.1017 11.219C19.1523 11.4491 19.1666 11.7134 19.1666 12V16.1666H20.6666C20.9532 16.1666 21.2174 16.1809 21.4476 16.2315C21.6834 16.2833 21.9141 16.3798 22.1005 16.5661C22.2868 16.7524 22.3833 16.9832 22.4351 17.219C22.4856 17.4491 22.4999 17.7134 22.4999 18L22.4999 22.1666H22.6666C22.9427 22.1666 23.1666 22.3905 23.1666 22.6666C23.1666 22.9428 22.9427 23.1666 22.6666 23.1666L9.33325 23.1666C9.05711 23.1666 8.83325 22.9428 8.83325 22.6666ZM15.4999 21.3333V22.1666H13.8333L13.8333 12C13.8333 11.735 13.8477 11.5568 13.8748 11.4336C13.9007 11.3159 13.9307 11.2823 13.9398 11.2732C13.9489 11.2641 13.9826 11.234 14.1002 11.2082C14.2234 11.1811 14.4016 11.1666 14.6666 11.1666H17.3333C17.5982 11.1666 17.7764 11.1811 17.8997 11.2082C18.0173 11.234 18.0509 11.2641 18.06 11.2732C18.0691 11.2823 18.0992 11.3159 18.125 11.4336C18.1521 11.5568 18.1666 11.735 18.1666 12L18.1666 22.1666H16.4999V21.3333C16.4999 21.0572 16.2761 20.8333 15.9999 20.8333C15.7238 20.8333 15.4999 21.0572 15.4999 21.3333ZM20.6666 17.1666L19.1666 17.1666L19.1666 22.1666L21.4999 22.1666L21.4999 18C21.4999 17.735 21.4854 17.5568 21.4584 17.4336C21.4325 17.3159 21.4025 17.2823 21.3934 17.2732C21.3843 17.2641 21.3506 17.234 21.233 17.2082C21.1097 17.1811 20.9315 17.1666 20.6666 17.1666ZM12.8333 17.1666L12.8333 22.1666H10.4999L10.4999 18C10.4999 17.735 10.5144 17.5568 10.5415 17.4336C10.5673 17.3159 10.5974 17.2823 10.6065 17.2732C10.6156 17.2641 10.6492 17.234 10.7668 17.2082C10.8901 17.1811 11.0683 17.1666 11.3333 17.1666H12.8333Z" fill="#067647"/>
</svg>
