<svg width="16" height="16" viewBox="0 0 16 16" fill="none" xmlns="http://www.w3.org/2000/svg">
<path d="M7.6231 0.833313H7.71023C9.00887 0.833298 10.0432 0.833285 10.8537 0.961492C11.6971 1.0949 12.3664 1.37638 12.8844 1.9858C13.2932 2.46673 13.5189 3.04766 13.6481 3.75101C13.7757 4.44587 13.8144 5.2926 13.8271 6.32717C13.8305 6.60329 13.6094 6.82988 13.3333 6.83328C13.0572 6.83667 12.8306 6.61558 12.8272 6.33946C12.8145 5.30772 12.7754 4.53556 12.6645 3.93162C12.5552 3.33619 12.3817 2.93843 12.1225 2.63345C11.8106 2.26656 11.3972 2.05989 10.6975 1.94921C9.97397 1.83477 9.01886 1.83331 7.66667 1.83331C6.31448 1.83331 5.35936 1.83477 4.63584 1.94921C3.93614 2.05989 3.52269 2.26656 3.21083 2.63345C2.889 3.01207 2.69941 3.53367 2.6005 4.39918C2.50077 5.27185 2.5 6.41657 2.5 7.99998C2.5 9.58339 2.50077 10.7281 2.6005 11.6008C2.69941 12.4663 2.88901 12.9879 3.21083 13.3665C3.52269 13.7334 3.93614 13.9401 4.63584 14.0507C5.35936 14.1652 6.31448 14.1666 7.66667 14.1666C7.94281 14.1666 8.16667 14.3905 8.16667 14.6666C8.16667 14.9428 7.94281 15.1666 7.66667 15.1666H7.62309C6.32445 15.1667 5.29017 15.1667 4.47962 15.0385C3.63621 14.9051 2.9669 14.6236 2.4489 14.0142C1.94086 13.4165 1.71552 12.6642 1.60697 11.7143C1.49999 10.7782 1.49999 9.57639 1.5 8.03299V7.96697C1.49999 6.42357 1.49999 5.22173 1.60697 4.28564C1.71552 3.33572 1.94086 2.58349 2.44889 1.9858C2.9669 1.37638 3.63621 1.0949 4.47961 0.961493C5.29017 0.833285 6.32446 0.833298 7.6231 0.833313Z" fill="#384250"/>
<path d="M4.83333 5.33331C4.83333 5.05717 5.05719 4.83331 5.33333 4.83331H10C10.2761 4.83331 10.5 5.05717 10.5 5.33331C10.5 5.60946 10.2761 5.83331 10 5.83331H5.33333C5.05719 5.83331 4.83333 5.60946 4.83333 5.33331Z" fill="#384250"/>
<path d="M4.83333 8.66665C4.83333 8.39051 5.05719 8.16665 5.33333 8.16665H7.33333C7.60948 8.16665 7.83333 8.39051 7.83333 8.66665C7.83333 8.94279 7.60948 9.16665 7.33333 9.16665H5.33333C5.05719 9.16665 4.83333 8.94279 4.83333 8.66665Z" fill="#384250"/>
<path fill-rule="evenodd" clip-rule="evenodd" d="M11.5833 7.49998C10.0646 7.49998 8.83333 8.7312 8.83333 10.25C8.83333 11.0318 9.15993 11.7373 9.68277 12.2375L9.39088 13.1566C9.32066 13.3777 9.26149 13.5639 9.22341 13.7127C9.18723 13.854 9.15008 14.031 9.17475 14.2079C9.24876 14.7384 9.69023 15.1646 10.248 15.1666C10.4338 15.1673 10.6064 15.0982 10.7343 15.0407C10.8707 14.9795 11.0392 14.891 11.2367 14.7874L11.2508 14.78C11.4481 14.6764 11.4889 14.6574 11.5244 14.6467C11.6176 14.6186 11.7158 14.6186 11.8089 14.6467C11.8444 14.6574 11.8852 14.6764 12.0825 14.78L12.0966 14.7873C12.2941 14.891 12.4626 14.9795 12.599 15.0407C12.7269 15.0982 12.8995 15.1673 13.0853 15.1666C13.6431 15.1646 14.0846 14.7384 14.1586 14.2079C14.1833 14.031 14.1461 13.854 14.1099 13.7127C14.0719 13.564 14.0127 13.3777 13.9425 13.1567L13.6506 12.2375C14.1734 11.7373 14.5 11.0318 14.5 10.25C14.5 8.7312 13.2688 7.49998 11.75 7.49998H11.5833ZM10.3485 13.4449L10.5532 12.8004C10.8716 12.9291 11.2194 13 11.5833 13H11.75C12.1139 13 12.4618 12.9291 12.7801 12.8004L12.9848 13.4449C13.0608 13.6842 13.111 13.843 13.1412 13.9607C13.1603 14.0356 13.1648 14.071 13.1661 14.0811C13.1549 14.1337 13.1217 14.1572 13.0972 14.1642C13.0826 14.1593 13.0545 14.149 13.0088 14.1285C12.9038 14.0814 12.7627 14.0076 12.5472 13.8945L12.5164 13.8783C12.3672 13.7999 12.2366 13.7312 12.0977 13.6893C11.8162 13.6044 11.5171 13.6044 11.2357 13.6893C11.0967 13.7312 10.9661 13.7999 10.817 13.8783L10.7861 13.8945C10.5706 14.0076 10.4295 14.0814 10.3246 14.1285C10.2789 14.149 10.2507 14.1593 10.2362 14.1642C10.2116 14.1572 10.1784 14.1339 10.1672 14.0813C10.1685 14.0711 10.173 14.0356 10.1922 13.9607C10.2223 13.843 10.2725 13.6842 10.3485 13.4449ZM9.83333 10.25C9.83333 9.28348 10.6168 8.49998 11.5833 8.49998H11.75C12.7165 8.49998 13.5 9.28348 13.5 10.25C13.5 10.8316 13.2168 11.347 12.7786 11.666C12.4899 11.8761 12.1351 12 11.75 12H11.5833C11.1982 12 10.8434 11.8761 10.5548 11.666C10.1166 11.347 9.83333 10.8316 9.83333 10.25Z" fill="#384250"/>
</svg>
