<svg width="20" height="20" viewBox="0 0 20 20" fill="none" xmlns="http://www.w3.org/2000/svg">
<path d="M8.74977 10.2082H8.71644C8.49977 10.1999 8.3081 10.0749 8.2081 9.89152C7.83558 9.23011 7.51855 9.1166 7.45948 9.09545C7.4538 9.09342 7.4505 9.09224 7.44977 9.09151C7.10811 9.09151 6.84977 8.8165 6.84977 8.46651C6.84977 8.11651 7.1581 7.84151 7.49977 7.84151C7.62477 7.84151 8.17477 7.88319 8.76643 8.53319C9.51643 7.62485 10.9331 6.08322 12.3081 5.64989C12.6414 5.54989 12.9914 5.73321 13.0914 6.05821C13.1914 6.39154 13.0081 6.74155 12.6831 6.84155C11.3998 7.24155 9.77477 9.21652 9.24977 9.94152C9.1331 10.1082 8.94144 10.1999 8.74144 10.1999L8.74977 10.2082Z" fill="#F9FAFB"/>
<path fill-rule="evenodd" clip-rule="evenodd" d="M5.21723 12.8515C3.92754 11.6012 3.125 9.85111 3.125 7.91669C3.125 4.12502 6.20833 1.04169 10 1.04169C13.7917 1.04169 16.875 4.12502 16.875 7.91669C16.875 9.85118 16.0724 11.6013 14.7826 12.8516L15.2414 15.0498C15.6414 16.9748 15.8414 17.9415 15.2581 18.5831C15.0164 18.8498 14.7414 18.9665 14.4331 18.9665C13.8498 18.9665 13.1331 18.5748 12.2081 18.0665L10.3164 17.0331C10.1666 16.9499 10.0164 16.8664 9.96642 16.8581C9.97948 16.8712 9.89029 16.92 9.78695 16.9766C9.75835 16.9923 9.72866 17.0085 9.69976 17.0248L7.76936 18.0785C6.36505 18.8468 5.43779 19.3541 4.74143 18.5831C4.15809 17.9415 4.35809 16.9748 4.75809 15.0581L5.21723 12.8515ZM6.31482 13.7188L5.98309 15.3081C5.75809 16.3748 5.5081 17.5748 5.66643 17.7414C5.8081 17.7248 6.54142 17.3248 7.19142 16.9664L9.08309 15.9331C9.44976 15.7331 9.68309 15.6081 9.99976 15.6081C10.3164 15.6081 10.5498 15.7331 10.8998 15.9248L12.8081 16.9664C13.4581 17.3248 14.1998 17.7248 14.3998 17.7081C14.4914 17.5665 14.2414 16.3748 14.0164 15.3165L13.6841 13.7195C12.6187 14.3982 11.3545 14.7917 10 14.7917C8.64502 14.7917 7.3805 14.3979 6.31482 13.7188ZM10 2.29169C6.9 2.29169 4.375 4.81669 4.375 7.91669C4.375 11.0167 6.9 13.5417 10 13.5417C13.1 13.5417 15.625 11.0167 15.625 7.91669C15.625 4.81669 13.1 2.29169 10 2.29169Z" fill="#F9FAFB"/>
</svg>
