<svg width="48" height="48" viewBox="0 0 48 48" fill="none" xmlns="http://www.w3.org/2000/svg">
<path d="M0 24C0 10.7452 10.7452 0 24 0C37.2548 0 48 10.7452 48 24C48 37.2548 37.2548 48 24 48C10.7452 48 0 37.2548 0 24Z" fill="#F3FCF6"/>
<path fill-rule="evenodd" clip-rule="evenodd" d="M20.4871 14.3914C21.9853 13.6983 22.9543 13.25 24 13.25C25.0457 13.25 26.0147 13.6983 27.5129 14.3914L29.4361 15.2804C30.6983 15.8637 31.7228 16.3373 32.425 16.7951C33.1276 17.2531 33.75 17.8494 33.75 18.75C33.75 19.6506 33.1276 20.2469 32.425 20.7049C31.7228 21.1627 30.6983 21.6363 29.4361 22.2196L27.5129 23.1086C26.0147 23.8017 25.0457 24.25 24 24.25C22.9543 24.25 21.9852 23.8017 20.4871 23.1086L18.5639 22.2196C17.3017 21.6363 16.2772 21.1627 15.575 20.7049C14.8724 20.2469 14.25 19.6506 14.25 18.75C14.25 17.8494 14.8724 17.2531 15.575 16.7951C16.2772 16.3373 17.3017 15.8637 18.5639 15.2804L20.4871 14.3914ZM24 14.75C23.3249 14.75 22.6728 15.0336 20.9577 15.8264L19.2528 16.6144C17.9169 17.2319 16.9936 17.6609 16.3941 18.0517C15.784 18.4494 15.75 18.6546 15.75 18.75C15.75 18.8454 15.784 19.0506 16.3941 19.4483C16.9936 19.8391 17.9169 20.2681 19.2528 20.8856L20.9577 21.6736C22.6728 22.4664 23.3249 22.75 24 22.75C24.6751 22.75 25.3272 22.4664 27.0423 21.6736L28.7472 20.8856C30.0831 20.2681 31.0064 19.8391 31.6059 19.4483C32.216 19.0506 32.25 18.8454 32.25 18.75C32.25 18.6546 32.216 18.4494 31.6059 18.0517C31.0064 17.6609 30.0831 17.2319 28.7472 16.6144L27.0423 15.8264C25.3272 15.0336 24.6751 14.75 24 14.75Z" fill="#067647"/>
<path d="M15.6466 22.486C15.9842 22.726 16.0633 23.1943 15.8232 23.5319C15.7627 23.617 15.75 23.6745 15.75 23.7309C15.75 23.8142 15.777 24.0137 16.39 24.4077C16.9897 24.7931 17.9133 25.216 19.2491 25.8247L20.954 26.6015C22.6681 27.3826 23.3222 27.6633 24 27.6633C24.6778 27.6633 25.3319 27.3826 27.046 26.6015L28.7509 25.8247C30.0867 25.216 31.0103 24.7931 31.61 24.4077C32.223 24.0137 32.25 23.8142 32.25 23.7309C32.25 23.6745 32.2373 23.617 32.1768 23.5319C31.9367 23.1943 32.0158 22.726 32.3534 22.486C32.6909 22.246 33.1592 22.325 33.3992 22.6626C33.6213 22.975 33.75 23.3318 33.75 23.7309C33.75 24.6296 33.1206 25.22 32.4209 25.6696C31.7189 26.1208 30.6946 26.5875 29.4323 27.1626L27.5109 28.0381C26.011 28.7221 25.0435 29.1633 24 29.1633C22.9565 29.1633 21.989 28.7221 20.489 28.0381L18.5677 27.1626C17.3055 26.5875 16.2811 26.1208 15.5791 25.6696C14.8794 25.22 14.25 24.6296 14.25 23.7309C14.25 23.3318 14.3787 22.975 14.6008 22.6626C14.8408 22.325 15.3091 22.246 15.6466 22.486Z" fill="#067647"/>
<path d="M16.0906 28.8528C16.4146 28.5947 16.4681 28.1229 16.21 27.7989C15.9519 27.4749 15.4801 27.4214 15.1561 27.6795C14.6498 28.0827 14.25 28.6059 14.25 29.3176C14.25 30.2163 14.8794 30.8067 15.5791 31.2563C16.2811 31.7075 17.3055 32.1742 18.5677 32.7493L20.489 33.6248C21.989 34.3088 22.9565 34.75 24 34.75C25.0435 34.75 26.011 34.3088 27.5109 33.6248L29.4323 32.7493C30.6945 32.1742 31.7189 31.7075 32.4209 31.2563C33.1206 30.8067 33.75 30.2163 33.75 29.3176C33.75 28.6059 33.3502 28.0827 32.8439 27.6795C32.5199 27.4214 32.0481 27.4749 31.79 27.7989C31.5319 28.1229 31.5854 28.5947 31.9094 28.8528C32.2342 29.1115 32.25 29.2481 32.25 29.3176C32.25 29.4009 32.223 29.6004 31.61 29.9944C31.0103 30.3798 30.0867 30.8027 28.7509 31.4114L27.046 32.1882C25.3319 32.9693 24.6778 33.25 24 33.25C23.3222 33.25 22.6681 32.9693 20.954 32.1882L19.2491 31.4114C17.9133 30.8027 16.9897 30.3798 16.39 29.9944C15.777 29.6004 15.75 29.4009 15.75 29.3176C15.75 29.2481 15.7658 29.1115 16.0906 28.8528Z" fill="#067647"/>
</svg>
