<svg width="16" height="16" viewBox="0 0 16 16" fill="none" xmlns="http://www.w3.org/2000/svg">
<path d="M10.6668 8.49998C10.943 8.49998 11.1668 8.27612 11.1668 7.99998C11.1668 7.72384 10.943 7.49998 10.6668 7.49998H5.3335C5.05735 7.49998 4.8335 7.72384 4.8335 7.99998C4.8335 8.27612 5.05735 8.49998 5.3335 8.49998H10.6668Z" fill="#161616"/>
<path fill-rule="evenodd" clip-rule="evenodd" d="M8.00016 15.1666C4.04212 15.1666 0.833496 11.958 0.833496 7.99998C0.833496 4.04194 4.04212 0.833313 8.00016 0.833313C11.9582 0.833313 15.1668 4.04194 15.1668 7.99998C15.1668 11.958 11.9582 15.1666 8.00016 15.1666ZM1.8335 7.99998C1.8335 11.4057 4.59441 14.1666 8.00016 14.1666C11.4059 14.1666 14.1668 11.4057 14.1668 7.99998C14.1668 4.59422 11.4059 1.83331 8.00016 1.83331C4.59441 1.83331 1.8335 4.59422 1.8335 7.99998Z" fill="#161616"/>
</svg>
