<svg width="24" height="24" viewBox="0 0 24 24" fill="none" xmlns="http://www.w3.org/2000/svg">
<path d="M0 4C0 1.79086 1.79086 0 4 0H20C22.2091 0 24 1.79086 24 4V20C24 22.2091 22.2091 24 20 24H4C1.79086 24 0 22.2091 0 20V4Z" fill="#F3F4F6"/>
<g clip-path="url(#clip0_2801_13491)">
<path fill-rule="evenodd" clip-rule="evenodd" d="M7.64645 7.64657C7.84171 7.45131 8.15829 7.45131 8.35355 7.64657L12 11.293L15.6464 7.64657C15.8417 7.45131 16.1583 7.45131 16.3536 7.64657C16.5488 7.84183 16.5488 8.15841 16.3536 8.35368L12.7071 12.0001L16.3536 15.6466C16.5488 15.8418 16.5488 16.1584 16.3536 16.3537C16.1583 16.5489 15.8417 16.5489 15.6464 16.3537L12 12.7072L8.35355 16.3537C8.15829 16.5489 7.84171 16.5489 7.64645 16.3537C7.45118 16.1584 7.45118 15.8418 7.64645 15.6466L11.2929 12.0001L7.64645 8.35368C7.45118 8.15841 7.45118 7.84183 7.64645 7.64657Z" fill="#161616"/>
</g>
<defs>
<clipPath id="clip0_2801_13491">
<path d="M4 8C4 5.79086 5.79086 4 8 4H16C18.2091 4 20 5.79086 20 8V16C20 18.2091 18.2091 20 16 20H8C5.79086 20 4 18.2091 4 16V8Z" fill="white"/>
</clipPath>
</defs>
</svg>
