<svg width="32" height="32" viewBox="0 0 32 32" fill="none" xmlns="http://www.w3.org/2000/svg">
<path d="M0 16C0 7.16344 7.16344 0 16 0C24.8366 0 32 7.16344 32 16C32 24.8366 24.8366 32 16 32C7.16344 32 0 24.8366 0 16Z" fill="#F3FCF6"/>
<path fill-rule="evenodd" clip-rule="evenodd" d="M14.637 10.1666C14.3484 10.1665 14.0839 10.1665 13.8687 10.1954C13.6317 10.2273 13.3812 10.3023 13.1752 10.5083C12.9692 10.7143 12.8942 10.9648 12.8623 11.2018C12.8334 11.417 12.8334 11.6815 12.8335 11.9701L12.8335 20.0297C12.8334 20.3183 12.8334 20.5828 12.8623 20.798C12.8942 21.035 12.9692 21.2855 13.1752 21.4915C13.3812 21.6975 13.6317 21.7725 13.8687 21.8044C14.0839 21.8333 14.3484 21.8333 14.637 21.8332L14.6966 21.8332C14.9852 21.8333 15.2497 21.8333 15.465 21.8044C15.7019 21.7725 15.9524 21.6975 16.1584 21.4915C16.3645 21.2855 16.4394 21.035 16.4713 20.798C16.5002 20.5828 16.5002 20.3183 16.5002 20.0298L16.5002 11.9701C16.5002 11.6816 16.5002 11.417 16.4713 11.2018C16.4394 10.9648 16.3645 10.7143 16.1584 10.5083C15.9524 10.3023 15.7019 10.2273 15.465 10.1954C15.2497 10.1665 14.9852 10.1665 14.6966 10.1666L14.637 10.1666ZM13.8839 11.2145L13.8823 11.2154L13.8814 11.217L13.8798 11.2203L13.8783 11.2239C13.8723 11.2384 13.8621 11.2706 13.8534 11.335C13.8345 11.4755 13.8335 11.6715 13.8335 11.9999L13.8335 19.9999C13.8335 20.3283 13.8345 20.5243 13.8534 20.6648C13.8621 20.7292 13.8723 20.7614 13.8783 20.7759C13.8796 20.7793 13.8807 20.7815 13.8814 20.7828L13.8823 20.7844L13.8839 20.7853C13.8852 20.786 13.8874 20.7871 13.8908 20.7885C13.9053 20.7944 13.9376 20.8046 14.0019 20.8133C14.1424 20.8322 14.3384 20.8332 14.6668 20.8332C14.9952 20.8332 15.1912 20.8322 15.3317 20.8133C15.3961 20.8046 15.4283 20.7944 15.4428 20.7885C15.4462 20.7871 15.4484 20.786 15.4497 20.7853L15.4513 20.7844L15.4522 20.7828C15.4529 20.7815 15.454 20.7793 15.4554 20.7759C15.4613 20.7614 15.4715 20.7292 15.4802 20.6648C15.4991 20.5243 15.5001 20.3283 15.5001 19.9999L15.5001 11.9999C15.5001 11.6715 15.4991 11.4755 15.4802 11.335C15.4715 11.2706 15.4614 11.2384 15.4554 11.2239L15.453 11.2186L15.4522 11.217L15.4513 11.2154L15.4497 11.2145L15.4457 11.2126L15.4428 11.2113C15.4283 11.2054 15.3961 11.1952 15.3317 11.1865C15.1912 11.1676 14.9952 11.1666 14.6668 11.1666C14.3384 11.1666 14.1424 11.1676 14.0019 11.1865C13.9376 11.1952 13.9053 11.2054 13.8908 11.2113C13.8874 11.2127 13.8852 11.2138 13.8839 11.2145Z" fill="#067647"/>
<path d="M9.33348 10.1666C9.60962 10.1666 9.83348 10.3904 9.83348 10.6666L9.83348 21.3332C9.83348 21.6094 9.60962 21.8332 9.33348 21.8332C9.05734 21.8332 8.83348 21.6094 8.83348 21.3332L8.83348 10.6666C8.83348 10.3904 9.05734 10.1666 9.33348 10.1666Z" fill="#067647"/>
<path d="M11.3335 10.1666C11.6096 10.1666 11.8335 10.3904 11.8335 10.6666L11.8335 21.3332C11.8335 21.6094 11.6096 21.8332 11.3335 21.8332C11.0573 21.8332 10.8335 21.6094 10.8335 21.3332L10.8335 10.6666C10.8335 10.3904 11.0573 10.1666 11.3335 10.1666Z" fill="#067647"/>
<path d="M18.0001 10.1666C18.2763 10.1666 18.5001 10.3904 18.5001 10.6666L18.5001 21.3332C18.5001 21.6094 18.2763 21.8332 18.0001 21.8332C17.724 21.8332 17.5001 21.6094 17.5001 21.3332L17.5001 10.6666C17.5001 10.3904 17.724 10.1666 18.0001 10.1666Z" fill="#067647"/>
<path fill-rule="evenodd" clip-rule="evenodd" d="M21.3037 10.1666C21.0151 10.1665 20.7506 10.1665 20.5353 10.1954C20.2984 10.2273 20.0479 10.3023 19.8419 10.5083C19.6358 10.7143 19.5609 10.9648 19.529 11.2018C19.5001 11.417 19.5001 11.6815 19.5001 11.9701L19.5001 20.0297C19.5001 20.3183 19.5001 20.5828 19.529 20.798C19.5609 21.035 19.6358 21.2855 19.8419 21.4915C20.0479 21.6975 20.2984 21.7725 20.5353 21.8044C20.7506 21.8333 21.0151 21.8333 21.3037 21.8332L21.3633 21.8332C21.6519 21.8333 21.9164 21.8333 22.1316 21.8044C22.3686 21.7725 22.6191 21.6975 22.8251 21.4915C23.0311 21.2855 23.1061 21.035 23.1379 20.798C23.1669 20.5828 23.1669 20.3183 23.1668 20.0298L23.1668 11.9701C23.1669 11.6815 23.1669 11.417 23.1379 11.2018C23.1061 10.9648 23.0311 10.7143 22.8251 10.5083C22.6191 10.3023 22.3686 10.2273 22.1316 10.1954C21.9164 10.1665 21.6519 10.1665 21.3633 10.1666L21.3037 10.1666ZM20.5506 11.2145L20.549 11.2154L20.5481 11.217C20.5474 11.2183 20.5463 11.2205 20.5449 11.2239C20.5389 11.2384 20.5288 11.2706 20.5201 11.335C20.5012 11.4755 20.5002 11.6715 20.5001 11.9999L20.5001 19.9999C20.5001 20.3283 20.5012 20.5243 20.5201 20.6648C20.5288 20.7292 20.5389 20.7614 20.5449 20.7759C20.5463 20.7793 20.5474 20.7815 20.5481 20.7828L20.549 20.7844L20.5506 20.7853C20.5519 20.786 20.5541 20.7871 20.5575 20.7885C20.572 20.7944 20.6042 20.8046 20.6686 20.8133C20.8091 20.8322 21.0051 20.8332 21.3335 20.8332C21.6619 20.8332 21.8579 20.8322 21.9984 20.8133C22.0627 20.8046 22.095 20.7944 22.1095 20.7885C22.1129 20.7871 22.1151 20.786 22.1164 20.7853L22.118 20.7844L22.1189 20.7828C22.1196 20.7815 22.1207 20.7793 22.122 20.7759C22.128 20.7614 22.1382 20.7292 22.1469 20.6648C22.1658 20.5243 22.1668 20.3283 22.1668 19.9999L22.1668 11.9999C22.1668 11.6715 22.1658 11.4755 22.1469 11.335C22.1382 11.2706 22.128 11.2384 22.122 11.2239C22.1207 11.2205 22.1196 11.2183 22.1189 11.217L22.118 11.2154L22.1164 11.2145C22.1151 11.2138 22.1129 11.2127 22.1095 11.2113C22.095 11.2054 22.0627 11.1952 21.9984 11.1865C21.8579 11.1676 21.6619 11.1666 21.3335 11.1666C21.0051 11.1666 20.8091 11.1676 20.6686 11.1865C20.6042 11.1952 20.572 11.2054 20.5575 11.2113C20.5541 11.2127 20.5519 11.2138 20.5506 11.2145Z" fill="#067647"/>
</svg>
