<svg width="40" height="40" viewBox="0 0 40 40" fill="none" xmlns="http://www.w3.org/2000/svg">
<path d="M0 20C0 8.95431 8.95431 0 20 0C31.0457 0 40 8.95431 40 20C40 31.0457 31.0457 40 20 40C8.95431 40 0 31.0457 0 20Z" fill="#F3FCF6"/>
<path fill-rule="evenodd" clip-rule="evenodd" d="M23.7753 19.2513C24.0194 19.0072 24.0194 18.6115 23.7753 18.3674C23.6124 18.2045 23.3819 18.1503 23.1741 18.2049C23.118 18.1364 23.0571 18.0626 22.9921 17.9846C22.6537 17.5791 22.1969 17.0536 21.7382 16.5949C21.2796 16.1363 20.7541 15.6795 20.3485 15.3411C20.2706 15.2761 20.1968 15.2151 20.1283 15.1591C20.1828 14.9513 20.1287 14.7208 19.9658 14.5579C19.7217 14.3138 19.3259 14.3138 19.0819 14.5579L16.9655 16.6743C16.7214 16.9184 16.7214 17.3141 16.9655 17.5582C17.1284 17.7211 17.3588 17.7753 17.5667 17.7207C17.6227 17.7892 17.6836 17.863 17.7486 17.941C17.9796 18.2177 18.2657 18.5503 18.5698 18.8795L16.2247 21.2246C15.9806 21.4686 15.9806 21.8644 16.2247 22.1084C16.4688 22.3525 16.8645 22.3525 17.1086 22.1084L19.4537 19.7633C19.7828 20.0675 20.1154 20.3536 20.3922 20.5845C20.4701 20.6495 20.544 20.7105 20.6125 20.7665C20.5579 20.9744 20.6121 21.2048 20.775 21.3677C21.0191 21.6118 21.4148 21.6118 21.6589 21.3677L23.7753 19.2513ZM19.3061 16.1015L18.509 16.8985C18.5694 16.9725 18.6363 17.0537 18.7084 17.1401C19.0365 17.5333 19.4659 18.0263 19.8864 18.4468C20.3068 18.8672 20.7999 19.2967 21.193 19.6248C21.2795 19.6969 21.3607 19.7638 21.4347 19.8241L22.2317 19.0271C22.1713 18.9531 22.1045 18.8719 22.0323 18.7855C21.7043 18.3923 21.2748 17.8993 20.8544 17.4788C20.4339 17.0584 19.9408 16.6289 19.5477 16.3008C19.4612 16.2287 19.3801 16.1618 19.3061 16.1015Z" fill="#067647"/>
<path d="M16.6667 24.3748C16.3215 24.3748 16.0417 24.6547 16.0417 24.9998C16.0417 25.345 16.3215 25.6248 16.6667 25.6248L23.3333 25.6248C23.6785 25.6248 23.9583 25.345 23.9583 24.9998C23.9583 24.6547 23.6785 24.3748 23.3333 24.3748L16.6667 24.3748Z" fill="#067647"/>
<path fill-rule="evenodd" clip-rule="evenodd" d="M19.1197 11.0415H20.8803C22.4118 11.0415 23.6248 11.0415 24.5742 11.1691C25.5512 11.3005 26.342 11.5772 26.9656 12.2009C27.5893 12.8245 27.866 13.6153 27.9974 14.5923C28.125 15.5417 28.125 16.7547 28.125 18.2861L28.125 21.7135C28.125 23.245 28.125 24.458 27.9974 25.4074C27.866 26.3844 27.5893 27.1752 26.9656 27.7988C26.342 28.4224 25.5512 28.6992 24.5742 28.8306C23.6248 28.9582 22.4118 28.9582 20.8804 28.9582L19.1197 28.9582C17.5882 28.9582 16.3752 28.9582 15.4258 28.8306C14.4488 28.6992 13.658 28.4224 13.0344 27.7988C12.4107 27.1752 12.134 26.3844 12.0026 25.4074C11.875 24.458 11.875 23.245 11.875 21.7135V18.2862C11.875 16.7547 11.875 15.5417 12.0026 14.5923C12.134 13.6153 12.4107 12.8245 13.0344 12.2009C13.658 11.5772 14.4488 11.3005 15.4258 11.1691C16.3752 11.0415 17.5882 11.0415 19.1197 11.0415ZM15.5924 12.408C14.754 12.5207 14.2709 12.7321 13.9183 13.0848C13.5656 13.4374 13.3542 13.9205 13.2415 14.7589C13.1263 15.6153 13.125 16.7442 13.125 18.3332L13.125 21.6665C13.125 23.2555 13.1263 24.3844 13.2415 25.2408C13.3542 26.0792 13.5656 26.5622 13.9183 26.9149C14.2709 27.2676 14.754 27.479 15.5924 27.5917C16.4488 27.7068 17.5777 27.7082 19.1667 27.7082H20.8333C22.4224 27.7082 23.5512 27.7068 24.4076 27.5917C25.246 27.479 25.7291 27.2676 26.0817 26.9149C26.4344 26.5622 26.6458 26.0792 26.7585 25.2408C26.8737 24.3844 26.875 23.2555 26.875 21.6665V18.3332C26.875 16.7442 26.8737 15.6153 26.7585 14.7589C26.6458 13.9205 26.4344 13.4374 26.0817 13.0848C25.7291 12.7321 25.246 12.5207 24.4076 12.408C23.5512 12.2928 22.4224 12.2915 20.8333 12.2915H19.1667C17.5777 12.2915 16.4488 12.2928 15.5924 12.408Z" fill="#067647"/>
</svg>
