<svg width="24" height="24" viewBox="0 0 24 24" fill="none" xmlns="http://www.w3.org/2000/svg">
<path d="M0 4C0 1.79086 1.79086 0 4 0H20C22.2091 0 24 1.79086 24 4V20C24 22.2091 22.2091 24 20 24H4C1.79086 24 0 22.2091 0 20V4Z" fill="#F3F4F6"/>
<path fill-rule="evenodd" clip-rule="evenodd" d="M10.3656 4.83331H10.3004C9.23222 4.83331 8.38599 4.8333 7.71651 4.91243C7.02919 4.99368 6.46339 5.16423 5.99076 5.55211C5.83042 5.6837 5.6834 5.83073 5.55181 5.99107C5.16393 6.4637 4.99337 7.0295 4.91213 7.71681C4.83299 8.38629 4.833 9.23253 4.83301 10.3007V10.3659C4.833 11.4341 4.83299 12.2803 4.91213 12.9498C4.99337 13.6371 5.16393 14.2029 5.55181 14.6756C5.6834 14.8359 5.83042 14.9829 5.99076 15.1145C6.43868 15.4821 6.97027 15.6545 7.60997 15.7407C8.12921 15.8107 8.75424 15.8277 9.50681 15.8319C9.5155 16.2466 9.53474 16.6108 9.57736 16.9278C9.65803 17.5279 9.83063 18.0331 10.2319 18.4344C10.6332 18.8357 11.1384 19.0083 11.7385 19.089C12.3165 19.1667 13.0514 19.1667 13.9631 19.1666H14.7029C15.6146 19.1667 16.3495 19.1667 16.9275 19.089C17.5276 19.0083 18.0328 18.8357 18.4341 18.4344C18.8354 18.0331 19.008 17.5279 19.0887 16.9278C19.1664 16.3498 19.1664 15.615 19.1663 14.7032V13.9634C19.1664 13.0517 19.1664 12.3168 19.0887 11.7388C19.008 11.1387 18.8354 10.6335 18.4341 10.2322C18.0328 9.83094 17.5276 9.65834 16.9275 9.57766C16.6105 9.53504 16.2463 9.5158 15.8316 9.50712C15.8274 8.75454 15.8104 8.12951 15.7404 7.61027C15.6542 6.97057 15.4818 6.43898 15.1142 5.99107C14.9826 5.83073 14.8356 5.6837 14.6753 5.55211C14.2026 5.16424 13.6368 4.99368 12.9495 4.91243C12.28 4.8333 11.4338 4.83331 10.3656 4.83331ZM14.8315 9.49999C14.827 8.75986 14.8104 8.19654 14.7494 7.74382C14.6768 7.2053 14.5474 6.87674 14.3412 6.62546C14.2512 6.51575 14.1506 6.41516 14.0409 6.32512C13.7759 6.1077 13.425 5.9756 12.8321 5.90552C12.2282 5.83413 11.4411 5.83331 10.333 5.83331C9.22493 5.83331 8.43784 5.83413 7.83389 5.90552C7.24099 5.9756 6.89009 6.1077 6.62516 6.32512C6.51545 6.41516 6.41485 6.51575 6.32482 6.62546C6.10739 6.8904 5.9753 7.24129 5.90521 7.8342C5.83383 8.43814 5.83301 9.22524 5.83301 10.3333C5.83301 11.4414 5.83383 12.2285 5.90521 12.8324C5.9753 13.4253 6.10739 13.7762 6.32482 14.0412C6.41485 14.1509 6.51545 14.2515 6.62516 14.3415C6.87643 14.5477 7.205 14.6771 7.74351 14.7497C8.19623 14.8107 8.75956 14.8273 9.49968 14.8318C9.49967 14.7893 9.49967 14.7465 9.49967 14.7032V13.9634C9.49966 13.0517 9.49965 12.3168 9.57736 11.7388C9.65803 11.1387 9.83063 10.6335 10.2319 10.2322C10.6332 9.83094 11.1384 9.65834 11.7385 9.57766C12.3165 9.49996 13.0514 9.49997 13.9631 9.49998H14.7029C14.7462 9.49998 14.789 9.49998 14.8315 9.49999ZM10.939 10.9393C11.1235 10.7548 11.3826 10.6345 11.8718 10.5687C12.3753 10.501 13.0427 10.5 13.9997 10.5H14.6663C15.6233 10.5 16.2907 10.501 16.7943 10.5687C17.2834 10.6345 17.5425 10.7548 17.727 10.9393C17.9115 11.1238 18.0318 11.3829 18.0976 11.8721C18.1653 12.3756 18.1663 13.043 18.1663 14V14.6666C18.1663 15.6236 18.1653 16.291 18.0976 16.7946C18.0318 17.2837 17.9115 17.5428 17.727 17.7273C17.5425 17.9118 17.2834 18.0321 16.7943 18.0979C16.2907 18.1656 15.6233 18.1666 14.6663 18.1666H13.9997C13.0427 18.1666 12.3753 18.1656 11.8718 18.0979C11.3826 18.0321 11.1235 17.9118 10.939 17.7273C10.7545 17.5428 10.6342 17.2837 10.5684 16.7946C10.5007 16.291 10.4997 15.6236 10.4997 14.6666V14C10.4997 13.043 10.5007 12.3756 10.5684 11.8721C10.6342 11.3829 10.7545 11.1238 10.939 10.9393Z" fill="#384250"/>
</svg>
