<svg width="16" height="16" viewBox="0 0 16 16" fill="none" xmlns="http://www.w3.org/2000/svg">
<path d="M4.62968 2.16656C5.44486 2.16656 5.72303 2.17416 5.95744 2.26206C6.50906 2.46891 6.75109 2.95302 7.12022 3.69137L7.19115 3.83322H4.66683C4.39069 3.83322 4.16683 4.05708 4.16683 4.33322C4.16683 4.60937 4.39069 4.83322 4.66683 4.83322H7.9901C7.99706 4.83337 8.00402 4.83337 8.01099 4.83322H11.1668C11.8795 4.83322 12.3763 4.83383 12.7593 4.87279C13.1339 4.9109 13.3438 4.98153 13.5002 5.08602C13.664 5.19546 13.8046 5.33608 13.914 5.49987C14.0119 5.64631 14.0869 5.88751 14.1268 6.3195C14.1663 6.74715 14.1668 7.28896 14.1668 7.99989C14.1668 8.27603 14.3907 8.49989 14.6668 8.49989C14.943 8.49989 15.1668 8.27603 15.1668 7.99989V7.97789C15.1668 7.29377 15.1668 6.70636 15.1226 6.22746C15.0782 5.74777 14.9847 5.30231 14.7455 4.9443C14.5631 4.67132 14.3287 4.43695 14.0558 4.25455C13.7077 4.02198 13.3142 3.92408 12.8605 3.87792C12.421 3.83321 11.8731 3.83322 11.1938 3.83322L8.30918 3.83322L8.02508 3.26503C8.00433 3.22354 7.98329 3.18094 7.9618 3.13746C7.64712 2.5007 7.23887 1.67459 6.30856 1.32573C5.88265 1.16602 5.40819 1.16623 4.72192 1.16653L4.6065 1.16656C4.02068 1.16655 3.54819 1.16655 3.16663 1.20018C2.77347 1.23484 2.42942 1.30814 2.11522 1.48349C1.71038 1.70941 1.37635 2.04344 1.15043 2.44828C0.975084 2.76248 0.901778 3.10653 0.867121 3.49969C0.833486 3.88125 0.833491 4.35374 0.833496 4.93956V7.03814C0.833488 8.57707 0.833481 9.7831 0.959994 10.7241C1.08949 11.6872 1.35971 12.4473 1.95625 13.0438C2.48502 13.5726 3.14313 13.8457 3.95948 13.9909C4.76142 14.1336 5.75912 14.1597 6.99797 14.1652C7.27411 14.1664 7.49895 13.9435 7.50016 13.6674C7.50137 13.3912 7.2785 13.1664 7.00236 13.1652C5.75334 13.1597 4.83924 13.1317 4.13466 13.0064C3.44448 12.8836 3.00135 12.6747 2.66336 12.3367C2.28359 11.9569 2.06566 11.4431 1.95108 10.5908C1.83456 9.72419 1.8335 8.58537 1.8335 6.99989V4.96274C1.8335 4.34831 1.83395 3.91998 1.86326 3.5875C1.89199 3.26158 1.94545 3.07572 2.02365 2.93559C2.15921 2.69269 2.35963 2.49227 2.60253 2.35672C2.74266 2.27851 2.92852 2.22505 3.25444 2.19632C3.58692 2.16701 4.01525 2.16656 4.62968 2.16656Z" fill="#161616"/>
<path d="M9.3335 9.83317C9.05735 9.83317 8.8335 10.057 8.8335 10.3332C8.8335 10.6093 9.05735 10.8332 9.3335 10.8332H14.6668C14.943 10.8332 15.1668 10.6093 15.1668 10.3332C15.1668 10.057 14.943 9.83317 14.6668 9.83317H9.3335Z" fill="#161616"/>
<path d="M9.3335 11.8332C9.05735 11.8332 8.8335 12.057 8.8335 12.3332C8.8335 12.6093 9.05735 12.8332 9.3335 12.8332H14.6668C14.943 12.8332 15.1668 12.6093 15.1668 12.3332C15.1668 12.057 14.943 11.8332 14.6668 11.8332H9.3335Z" fill="#161616"/>
<path d="M9.3336 13.833C9.05746 13.833 8.83359 14.0569 8.83357 14.333C8.83356 14.6092 9.0574 14.833 9.33355 14.833L12.0001 14.8332C12.2763 14.8332 12.5001 14.6093 12.5002 14.3332C12.5002 14.0571 12.2763 13.8332 12.0002 13.8332L9.3336 13.833Z" fill="#161616"/>
</svg>
