<svg width="40" height="40" viewBox="0 0 40 40" fill="none" xmlns="http://www.w3.org/2000/svg">
<path d="M0 20C0 8.95431 8.95431 0 20 0C31.0457 0 40 8.95431 40 20C40 31.0457 31.0457 40 20 40C8.95431 40 0 31.0457 0 20Z" fill="#F3FCF6"/>
<path d="M19.5069 28.96C17.6652 28.96 15.7336 28.9133 14.3752 28.8342C13.2402 28.7675 12.3177 28.1816 11.7086 27.1383C11.2244 26.3083 11.0511 25.38 11.0511 24.7866C11.0379 23.7427 11.0418 21.6618 11.0459 19.4463L11.0461 19.3491C11.0486 18.1641 11.0511 16.9383 11.0511 15.8041C11.0511 11.9191 13.4927 11.2983 14.5702 11.2142C14.7877 11.1833 16.3502 10.9758 18.3552 11.06C18.7002 11.0742 18.9677 11.3658 18.9536 11.7108C18.9394 12.0558 18.6486 12.3233 18.3027 12.3092C16.3102 12.2258 14.7452 12.4525 14.7294 12.455C14.7144 12.4575 14.6986 12.4592 14.6827 12.46C13.5961 12.5383 12.3002 13.1825 12.3002 15.805C12.3002 16.94 12.2977 18.1667 12.2952 19.3525L12.2945 19.7444C12.2906 21.8432 12.2869 23.7826 12.3002 24.7792C12.3002 25.3517 12.6644 27.4825 14.4469 27.5867C17.0027 27.735 21.6069 27.7683 23.7127 27.5875C23.7155 27.5875 23.7183 27.5873 23.721 27.587L23.7302 27.5858C23.7494 27.585 25.6394 27.4558 25.8561 25.5908C26.0736 23.72 26.0586 22.355 26.0527 21.8408C26.0527 21.8027 26.0522 21.7691 26.0517 21.7398C26.0514 21.7173 26.0511 21.6974 26.0511 21.68C26.0511 21.335 26.3311 21.055 26.6761 21.055C27.0211 21.055 27.3011 21.335 27.3011 21.68C27.3011 21.7166 27.3011 21.7658 27.3027 21.8266L27.3028 21.8342C27.3087 22.3757 27.3242 23.7949 27.0977 25.735C26.8294 28.0458 24.8361 28.7708 23.8111 28.8325C22.7827 28.92 21.1811 28.9583 19.5061 28.9583L19.5069 28.96Z" fill="#067647"/>
<path d="M23.3172 17.7225H23.2847C23.0597 17.7108 22.858 17.5792 22.758 17.3775C22.3972 16.655 22.0455 16.2933 22.0414 16.29C21.7972 16.0458 21.7972 15.65 22.0414 15.4058C22.2855 15.1617 22.6813 15.1617 22.9255 15.4058C22.9555 15.4358 23.1314 15.6166 23.3647 15.9508C23.9072 15.2483 24.7563 14.3108 25.6088 14.0083C25.9338 13.8933 26.2914 14.0633 26.4064 14.3883C26.5213 14.7133 26.3513 15.0708 26.0263 15.1858C25.318 15.4366 24.3122 16.6966 23.8447 17.4316C23.7297 17.6125 23.5305 17.7216 23.3172 17.7216V17.7225Z" fill="#067647"/>
<path fill-rule="evenodd" clip-rule="evenodd" d="M19.3672 15.8476C19.3672 18.4901 21.5189 20.6392 24.163 20.6392C26.8072 20.6392 28.9589 18.4901 28.9589 15.8476C28.9589 13.2051 26.8072 11.0559 24.163 11.0559C21.5189 11.0559 19.3672 13.2051 19.3672 15.8476ZM20.6172 15.8476C20.6172 13.8951 22.208 12.3059 24.163 12.3059C26.118 12.3059 27.7089 13.8951 27.7089 15.8476C27.7089 17.8001 26.118 19.3892 24.163 19.3892C22.208 19.3892 20.6172 17.8001 20.6172 15.8476Z" fill="#067647"/>
<path d="M19.1503 21.4726H15.817C15.472 21.4726 15.192 21.1926 15.192 20.8476C15.192 20.5026 15.472 20.2226 15.817 20.2226H19.1503C19.4953 20.2226 19.7753 20.5026 19.7753 20.8476C19.7753 21.1926 19.4953 21.4726 19.1503 21.4726Z" fill="#067647"/>
<path d="M15.817 24.8059H22.4836C22.8286 24.8059 23.1086 24.5259 23.1086 24.1809C23.1086 23.8359 22.8286 23.5559 22.4836 23.5559H15.817C15.472 23.5559 15.192 23.8359 15.192 24.1809C15.192 24.5259 15.472 24.8059 15.817 24.8059Z" fill="#067647"/>
</svg>
