<svg width="20" height="20" viewBox="0 0 20 20" fill="none" xmlns="http://www.w3.org/2000/svg">
<path d="M7.91667 14.375C7.57149 14.375 7.29167 14.0951 7.29167 13.75L7.29167 8.74996C7.29167 8.40478 7.57149 8.12496 7.91667 8.12496C8.26184 8.12496 8.54167 8.40478 8.54167 8.74996L8.54167 13.75C8.54167 14.0951 8.26184 14.375 7.91667 14.375Z" fill="#161616"/>
<path d="M12.7083 8.74996C12.7083 8.40478 12.4285 8.12496 12.0833 8.12496C11.7382 8.12496 11.4583 8.40478 11.4583 8.74996V13.75C11.4583 14.0951 11.7382 14.375 12.0833 14.375C12.4285 14.375 12.7083 14.0951 12.7083 13.75V8.74996Z" fill="#161616"/>
<path fill-rule="evenodd" clip-rule="evenodd" d="M10.0552 1.04163H10.0018C9.58075 1.04161 9.22356 1.04161 8.92715 1.06859C8.61261 1.09722 8.31962 1.15924 8.03631 1.30989C7.92449 1.36934 7.8178 1.43797 7.71732 1.51505C7.46273 1.71036 7.28477 1.95124 7.12826 2.22557C6.98076 2.48408 6.83263 2.80908 6.65799 3.19223L6.30879 3.95829H2.5C2.15482 3.95829 1.875 4.23812 1.875 4.58329C1.875 4.92847 2.15482 5.20829 2.5 5.20829H3.16161L3.63194 12.9992C3.6948 14.0406 3.74469 14.8669 3.84847 15.5271C3.95489 16.204 4.12601 16.7678 4.46926 17.261C4.78326 17.7122 5.18781 18.0931 5.65712 18.3793C6.17013 18.6922 6.74321 18.8291 7.42534 18.8945C8.09048 18.9583 8.91832 18.9583 9.96154 18.9583H10.0263C11.0681 18.9583 11.895 18.9583 12.5593 18.8946C13.2407 18.8293 13.8131 18.6927 14.3258 18.3804C14.7948 18.0947 15.1992 17.7145 15.5133 17.264C15.8567 16.7716 16.0283 16.2087 16.1355 15.5327C16.2401 14.8735 16.2911 14.0483 16.3554 13.0084L16.8376 5.20829H17.5C17.8452 5.20829 18.125 4.92847 18.125 4.58329C18.125 4.23812 17.8452 3.95829 17.5 3.95829H13.7714L13.3618 3.11338C13.1826 2.74382 13.0306 2.43011 12.8809 2.18069C12.722 1.91594 12.5433 1.68392 12.2918 1.4963C12.1924 1.42216 12.0871 1.35621 11.977 1.2991C11.6985 1.15458 11.4117 1.09503 11.1042 1.06752C10.8145 1.04161 10.4658 1.04162 10.0552 1.04163ZM15.5852 5.20829H13.3935C13.3847 5.20848 13.3758 5.20848 13.3669 5.20829H6.72416C6.715 5.2085 6.70582 5.2085 6.69663 5.20829H4.41389L4.87772 12.8916C4.94298 13.9725 4.98992 14.739 5.0833 15.3329C5.1751 15.9169 5.30366 16.2717 5.49526 16.547C5.71011 16.8557 5.9869 17.1163 6.30801 17.3122C6.59437 17.4868 6.95632 17.5938 7.54471 17.6502C8.14321 17.7076 8.91114 17.7083 9.99397 17.7083C11.0754 17.7083 11.8423 17.7076 12.44 17.6503C13.0277 17.594 13.3893 17.4873 13.6754 17.3129C13.9963 17.1174 14.2731 16.8573 14.488 16.5491C14.6796 16.2742 14.8085 15.9199 14.901 15.3368C14.9951 14.7437 15.043 13.9784 15.1098 12.899L15.5852 5.20829ZM12.3822 3.95829H7.68253L7.78421 3.73524C7.97304 3.32098 8.098 3.04828 8.21397 2.84502C8.32406 2.65207 8.40305 2.56445 8.47817 2.50682C8.52384 2.47178 8.57234 2.44059 8.62316 2.41356C8.70676 2.36911 8.81925 2.33358 9.04048 2.31344C9.27353 2.29222 9.5735 2.29163 10.0288 2.29163C10.4729 2.29163 10.7654 2.2922 10.9928 2.31255C11.2087 2.33185 11.319 2.36592 11.4014 2.40866C11.4514 2.43462 11.4992 2.4646 11.5444 2.4983C11.6188 2.55378 11.6976 2.63819 11.8091 2.82399C11.9267 3.01981 12.0547 3.28268 12.2485 3.68236L12.3822 3.95829Z" fill="#161616"/>
</svg>
