<svg width="24" height="25" viewBox="0 0 24 25" fill="none" xmlns="http://www.w3.org/2000/svg">
<path d="M9.5 17.5508C9.08579 17.5508 8.75 17.215 8.75 16.8008L8.75 10.8008C8.75 10.3866 9.08579 10.0508 9.5 10.0508C9.91421 10.0508 10.25 10.3866 10.25 10.8008L10.25 16.8008C10.25 17.215 9.91421 17.5508 9.5 17.5508Z" fill="white"/>
<path d="M15.25 10.8008C15.25 10.3866 14.9142 10.0508 14.5 10.0508C14.0858 10.0508 13.75 10.3866 13.75 10.8008V16.8008C13.75 17.215 14.0858 17.5508 14.5 17.5508C14.9142 17.5508 15.25 17.215 15.25 16.8008V10.8008Z" fill="white"/>
<path fill-rule="evenodd" clip-rule="evenodd" d="M12.0662 1.55078H12.0022C11.4969 1.55077 11.0683 1.55076 10.7126 1.58314C10.3351 1.6175 9.98355 1.69192 9.64357 1.8727C9.50939 1.94404 9.38136 2.02639 9.26078 2.11889C8.95528 2.35326 8.74173 2.64231 8.55391 2.97151C8.37691 3.28173 8.19915 3.67173 7.98959 4.13151L7.57055 5.05078H3C2.58579 5.05078 2.25 5.38657 2.25 5.80078C2.25 6.215 2.58579 6.55078 3 6.55078H3.79393L4.35833 15.8999C4.43377 17.1495 4.49362 18.1412 4.61816 18.9333C4.74587 19.7456 4.95121 20.4222 5.36311 21.0141C5.73991 21.5555 6.22537 22.0125 6.78854 22.356C7.40416 22.7315 8.09186 22.8957 8.91041 22.9742C9.70858 23.0508 10.702 23.0508 11.9539 23.0508H12.0315C13.2818 23.0508 14.274 23.0508 15.0712 22.9744C15.8888 22.896 16.5758 22.7321 17.1909 22.3573C17.7537 22.0145 18.239 21.5582 18.616 21.0176C19.028 20.4268 19.234 19.7512 19.3627 18.94C19.4881 18.149 19.5493 17.1588 19.6265 15.9109L20.2051 6.55078H21C21.4142 6.55078 21.75 6.215 21.75 5.80078C21.75 5.38657 21.4142 5.05078 21 5.05078H16.5256L16.0341 4.03689C15.8192 3.59341 15.6367 3.21696 15.4571 2.91766C15.2664 2.59995 15.052 2.32153 14.7501 2.09639C14.6308 2.00742 14.5045 1.92828 14.3724 1.85975C14.0382 1.68633 13.6941 1.61486 13.325 1.58185C12.9774 1.55076 12.559 1.55077 12.0662 1.55078ZM18.7022 6.55078H16.0723C16.0616 6.55101 16.0509 6.55101 16.0403 6.55078H8.06899C8.058 6.55103 8.04698 6.55103 8.03595 6.55078H5.29666L5.85327 15.7708C5.93157 17.0678 5.9879 17.9876 6.09996 18.7003C6.21012 19.4011 6.36439 19.8269 6.59431 20.1572C6.85213 20.5277 7.18428 20.8404 7.56961 21.0754C7.91325 21.285 8.34758 21.4134 9.05365 21.4811C9.77186 21.55 10.6934 21.5508 11.9928 21.5508C13.2905 21.5508 14.2107 21.55 14.928 21.4812C15.6332 21.4136 16.0671 21.2855 16.4105 21.0763C16.7956 20.8417 17.1277 20.5296 17.3856 20.1597C17.6156 19.8298 17.7702 19.4047 17.8812 18.705C17.9941 17.9933 18.0517 17.0749 18.1317 15.7796L18.7022 6.55078ZM14.8587 5.05078H9.21904L9.34105 4.78312C9.56765 4.28601 9.7176 3.95876 9.85677 3.71485C9.98887 3.48331 10.0837 3.37817 10.1738 3.30901C10.2286 3.26697 10.2868 3.22954 10.3478 3.19711C10.4481 3.14377 10.5831 3.10113 10.8486 3.07696C11.1282 3.0515 11.4882 3.05078 12.0345 3.05078C12.5675 3.05078 12.9184 3.05147 13.1914 3.07589C13.4504 3.09905 13.5828 3.13994 13.6816 3.19122C13.7417 3.22237 13.7991 3.25834 13.8533 3.29879C13.9426 3.36536 14.0371 3.46666 14.1709 3.68962C14.312 3.9246 14.4657 4.24005 14.6982 4.71967L14.8587 5.05078Z" fill="white"/>
</svg>
