<svg width="18" height="18" viewBox="0 0 18 18" fill="none" xmlns="http://www.w3.org/2000/svg">
<path d="M12.4146 7.1301C12.6246 6.90109 12.6091 6.54527 12.3801 6.33535C12.1511 6.12543 11.7953 6.1409 11.5854 6.36991L7.85733 10.4368L6.39775 8.97726C6.17808 8.75759 5.82192 8.75759 5.60225 8.97726C5.38258 9.19693 5.38258 9.55308 5.60225 9.77275L7.47725 11.6478C7.58574 11.7562 7.73383 11.8157 7.88722 11.8124C8.04061 11.809 8.18598 11.7432 8.28965 11.6301L12.4146 7.1301Z" fill="#085D3A"/>
<path fill-rule="evenodd" clip-rule="evenodd" d="M9 17.0625C4.5472 17.0625 0.9375 13.4528 0.9375 9C0.9375 4.5472 4.5472 0.9375 9 0.9375C13.4528 0.9375 17.0625 4.5472 17.0625 9C17.0625 13.4528 13.4528 17.0625 9 17.0625ZM2.0625 9C2.0625 12.8315 5.16852 15.9375 9 15.9375C12.8315 15.9375 15.9375 12.8315 15.9375 9C15.9375 5.16852 12.8315 2.0625 9 2.0625C5.16852 2.0625 2.0625 5.16852 2.0625 9Z" fill="#085D3A"/>
</svg>
