<svg width="24" height="25" viewBox="0 0 24 25" fill="none" xmlns="http://www.w3.org/2000/svg">
<path fill-rule="evenodd" clip-rule="evenodd" d="M15.2039 2.09509C16.3885 1.39058 17.8495 1.3685 19.0543 2.03738C19.5541 2.31484 20.0099 2.78083 20.6879 3.47385L20.872 3.66192C21.5523 4.35645 22.0076 4.82129 22.278 5.32945C22.9265 6.54855 22.9054 8.02334 22.2218 9.22285C21.9369 9.72283 21.4682 10.1739 20.7683 10.8476L11.1497 20.1119C9.76885 21.4424 8.91774 22.2625 7.84081 22.6831C6.76232 23.1044 5.58966 23.0735 3.69246 23.0235L3.2055 23.0107C2.92746 23.0035 2.64638 22.9963 2.41431 22.9576C2.14778 22.9131 1.83121 22.8109 1.58076 22.5267C1.33255 22.245 1.26886 21.9199 1.25396 21.6524C1.24078 21.416 1.26291 21.1327 1.28516 20.8481L1.32607 20.3228C1.45536 18.6602 1.53439 17.6439 1.93571 16.7201C2.33756 15.7952 3.02405 15.0517 4.14411 13.8385L13.6126 3.57988C14.2704 2.86668 14.7125 2.38734 15.2039 2.09509ZM18.3262 3.34883C17.5884 2.93924 16.6967 2.9525 15.9707 3.38432C15.6923 3.54987 15.4068 3.84755 14.6247 4.69491L14.5432 4.78328L19.6255 9.86566L19.6339 9.85761C20.4625 9.05955 20.7551 8.76702 20.9186 8.48012C21.3474 7.72781 21.3609 6.79925 20.9537 6.03397C20.7984 5.74208 20.5142 5.44072 19.709 4.61819C18.9028 3.79461 18.609 3.50582 18.3262 3.34883ZM5.34044 14.754L13.525 5.88643L18.545 10.9064L10.2302 18.9149C8.68769 20.4006 8.05888 20.9876 7.29508 21.2859C6.53295 21.5836 5.68457 21.5751 3.56486 21.5196L3.28487 21.5123C3.12535 21.5081 2.99901 21.5048 2.89052 21.4991C2.8343 21.4961 2.78808 21.4928 2.74977 21.4891C2.75017 21.3689 2.76238 21.1989 2.7837 20.9252L2.8107 20.5787C2.95456 18.7322 3.02243 17.9832 3.31148 17.3179C3.59996 16.6539 4.09635 16.1019 5.34044 14.754Z" fill="white"/>
<path d="M14 21.5508C13.5858 21.5508 13.25 21.8866 13.25 22.3008C13.25 22.715 13.5858 23.0508 14 23.0508H22C22.4142 23.0508 22.75 22.715 22.75 22.3008C22.75 21.8866 22.4142 21.5508 22 21.5508H14Z" fill="white"/>
</svg>
