<svg width="40" height="40" viewBox="0 0 40 40" fill="none" xmlns="http://www.w3.org/2000/svg">
<path d="M0 20C0 8.95431 8.95431 0 20 0C31.0457 0 40 8.95431 40 20C40 31.0457 31.0457 40 20 40C8.95431 40 0 31.0457 0 20Z" fill="#F3FCF6"/>
<path d="M20 11.875H19.9525C18.225 11.875 16.8647 11.875 15.802 12.0179C14.7115 12.1645 13.8411 12.4718 13.1564 13.1564C12.4718 13.8411 12.1645 14.7115 12.0179 15.802C11.875 16.8647 11.875 18.225 11.875 19.9525V20.0475C11.875 21.775 11.875 23.1353 12.0179 24.198C12.1645 25.2885 12.4718 26.1589 13.1564 26.8436C13.8411 27.5282 14.7115 27.8355 15.802 27.9821C16.8647 28.125 18.225 28.125 19.9525 28.125H20.0475C21.775 28.125 23.1353 28.125 24.198 27.9821C25.2885 27.8355 26.1589 27.5282 26.8436 26.8436C27.5282 26.1589 27.8355 25.2885 27.9821 24.198C28.125 23.1353 28.125 21.775 28.125 20.0475V20C28.125 19.6548 27.8452 19.375 27.5 19.375C27.1548 19.375 26.875 19.6548 26.875 20C26.875 21.7854 26.8737 23.0616 26.7433 24.0315C26.6153 24.9834 26.3734 25.546 25.9597 25.9597C25.546 26.3734 24.9834 26.6153 24.0315 26.7433C23.0616 26.8737 21.7854 26.875 20 26.875C18.2146 26.875 16.9384 26.8737 15.9685 26.7433C15.0166 26.6153 14.454 26.3734 14.0403 25.9597C13.6266 25.546 13.3847 24.9834 13.2567 24.0315C13.1263 23.0616 13.125 21.7854 13.125 20C13.125 18.2146 13.1263 16.9384 13.2567 15.9685C13.3847 15.0166 13.6266 14.454 14.0403 14.0403C14.454 13.6266 15.0166 13.3847 15.9685 13.2567C16.9384 13.1263 18.2146 13.125 20 13.125C20.3452 13.125 20.625 12.8452 20.625 12.5C20.625 12.1548 20.3452 11.875 20 11.875Z" fill="#067647"/>
<path fill-rule="evenodd" clip-rule="evenodd" d="M27.4581 12.5419C26.5689 11.6527 25.1272 11.6527 24.2379 12.5419L18.6412 18.1386C17.834 18.9456 17.3407 19.4388 17.0014 20.046C16.8121 20.3847 16.6468 20.8985 16.5005 21.4242C16.35 21.965 16.2018 22.5873 16.0604 23.1813L16.0587 23.1886C16.0084 23.3997 16.0713 23.6218 16.2247 23.7753C16.3782 23.9287 16.6003 23.9916 16.8114 23.9413L16.8187 23.9396C17.4127 23.7982 18.035 23.65 18.5758 23.4995C19.1015 23.3532 19.6153 23.1879 19.954 22.9986C20.5612 22.6593 21.0544 22.166 21.8614 21.3588L27.4581 15.7621C28.3473 14.8728 28.3473 13.4311 27.4581 12.5419ZM25.1218 13.4258C25.5229 13.0247 26.1731 13.0247 26.5742 13.4258C26.9753 13.8269 26.9753 14.4771 26.5742 14.8782L25.848 15.6044L24.3956 14.152L25.1218 13.4258ZM23.5118 15.0359L24.9641 16.4883L21.0445 20.4079C20.1494 21.303 19.7819 21.6629 19.3442 21.9074C19.1522 22.0147 18.7739 22.1469 18.2407 22.2953C18.0129 22.3587 17.7685 22.422 17.5147 22.4853C17.578 22.2315 17.6413 21.9872 17.7047 21.7593C17.8531 21.2261 17.9853 20.8479 18.0926 20.6558C18.3371 20.2182 18.6971 19.8506 19.5921 18.9555L23.5118 15.0359Z" fill="#067647"/>
</svg>
