<svg width="18" height="18" viewBox="0 0 18 18" fill="none" xmlns="http://www.w3.org/2000/svg">
<path d="M9 1.6875H8.95729C7.40251 1.68749 6.17827 1.68748 5.22176 1.81608C4.24032 1.94803 3.45696 2.22458 2.84077 2.84077C2.22458 3.45696 1.94803 4.24032 1.81608 5.22176C1.68748 6.17827 1.68749 7.40251 1.6875 8.95729V9.04271C1.68749 10.5975 1.68748 11.8217 1.81608 12.7782C1.94803 13.7597 2.22458 14.543 2.84077 15.1592C3.45696 15.7754 4.24032 16.052 5.22176 16.1839C6.17827 16.3125 7.40252 16.3125 8.95729 16.3125H9.04271C10.5975 16.3125 11.8217 16.3125 12.7782 16.1839C13.7597 16.052 14.543 15.7754 15.1592 15.1592C15.7754 14.543 16.052 13.7597 16.1839 12.7782C16.3125 11.8217 16.3125 10.5975 16.3125 9.04271V9C16.3125 8.68934 16.0607 8.4375 15.75 8.4375C15.4393 8.4375 15.1875 8.68934 15.1875 9C15.1875 10.6069 15.1863 11.7555 15.069 12.6283C14.9538 13.485 14.7361 13.9914 14.3637 14.3637C13.9914 14.7361 13.485 14.9538 12.6283 15.069C11.7555 15.1863 10.6069 15.1875 9 15.1875C7.39311 15.1875 6.24453 15.1863 5.37166 15.069C4.51498 14.9538 4.00859 14.7361 3.63626 14.3637C3.26394 13.9914 3.04623 13.485 2.93105 12.6283C2.8137 11.7555 2.8125 10.6069 2.8125 9C2.8125 7.39311 2.8137 6.24453 2.93105 5.37166C3.04623 4.51498 3.26394 4.00859 3.63626 3.63626C4.00859 3.26394 4.51498 3.04623 5.37166 2.93105C6.24453 2.8137 7.39311 2.8125 9 2.8125C9.31066 2.8125 9.5625 2.56066 9.5625 2.25C9.5625 1.93934 9.31066 1.6875 9 1.6875Z" fill="#1849A9"/>
<path fill-rule="evenodd" clip-rule="evenodd" d="M15.7123 2.28772C14.912 1.48742 13.6144 1.48743 12.8142 2.28772L7.77709 7.32478C7.05063 8.05105 6.60663 8.49495 6.30125 9.04144C6.13092 9.34627 5.98211 9.80864 5.85045 10.2818C5.715 10.7685 5.58166 11.3286 5.45437 11.8632L5.45281 11.8697C5.40757 12.0597 5.46414 12.2596 5.60226 12.3977C5.74039 12.5359 5.94028 12.5924 6.1303 12.5472L6.13681 12.5457C6.67143 12.4184 7.23148 12.285 7.71823 12.1496C8.19137 12.0179 8.65374 11.8691 8.95857 11.6988C9.50507 11.3934 9.94895 10.9494 10.6752 10.2229L15.7123 5.18586C16.5126 4.38556 16.5126 3.08802 15.7123 2.28772ZM13.6096 3.08322C13.9706 2.72226 14.5558 2.72226 14.9168 3.08322C15.2778 3.44418 15.2778 4.02941 14.9168 4.39037L14.2632 5.04394L12.9561 3.73679L13.6096 3.08322ZM12.1606 4.53229L13.4677 5.83943L9.94007 9.36708C9.13449 10.1727 8.80367 10.4966 8.40979 10.7167C8.23695 10.8133 7.89651 10.9322 7.41663 11.0657C7.21157 11.1228 6.99163 11.1798 6.76326 11.2368C6.82022 11.0084 6.8772 10.7884 6.93426 10.5834C7.06781 10.1035 7.18674 9.76307 7.28333 9.59022C7.50342 9.19635 7.82735 8.86551 8.63293 8.05994L12.1606 4.53229Z" fill="#1849A9"/>
</svg>
