<svg width="26" height="27" viewBox="0 0 26 27" fill="none" xmlns="http://www.w3.org/2000/svg">
<g id="elements">
<g id="Icon">
<path d="M2.20801 13.4586C2.20801 7.52432 7.03667 2.70831 12.9997 2.70831C18.9627 2.70831 23.7913 7.52432 23.7913 13.4586C23.7913 15.0094 23.4622 16.4814 22.8706 17.8109C22.6741 18.2524 22.8727 18.7696 23.3142 18.9661C23.7557 19.1625 24.2729 18.9639 24.4694 18.5224C25.1588 16.9734 25.5413 15.2594 25.5413 13.4586C25.5413 6.55197 19.9233 0.958313 12.9997 0.958313C6.07603 0.958313 0.458008 6.55197 0.458008 13.4586C0.458008 15.2594 0.840593 16.9734 1.52993 18.5224C1.72641 18.9639 2.2436 19.1625 2.68511 18.9661C3.12661 18.7696 3.32524 18.2524 3.12876 17.8109C2.5371 16.4814 2.20801 15.0094 2.20801 13.4586Z" fill="#161616"/>
<path fill-rule="evenodd" clip-rule="evenodd" d="M8.04134 11.1666C8.04134 8.42823 10.2613 6.20831 12.9997 6.20831C15.7381 6.20831 17.958 8.42823 17.958 11.1666C17.958 13.9051 15.7381 16.125 12.9997 16.125C10.2613 16.125 8.04134 13.9051 8.04134 11.1666ZM12.9997 7.95831C11.2278 7.95831 9.79134 9.39473 9.79134 11.1666C9.79134 12.9386 11.2278 14.375 12.9997 14.375C14.7716 14.375 16.208 12.9386 16.208 11.1666C16.208 9.39473 14.7716 7.95831 12.9997 7.95831Z" fill="#161616"/>
<path fill-rule="evenodd" clip-rule="evenodd" d="M18.356 18.7042C18.4555 18.7614 18.5809 18.8295 18.7243 18.9075C19.3687 19.2577 20.3794 19.807 21.0709 20.4597C21.5014 20.866 21.9468 21.4332 22.0286 22.1546C22.117 22.9351 21.7576 23.6398 21.1119 24.233C20.028 25.2287 18.7101 26.0416 17.0008 26.0416H8.99904C7.28971 26.0416 5.97183 25.2287 4.88797 24.233C4.24224 23.6398 3.8828 22.9351 3.97128 22.1546C4.05304 21.4332 4.49841 20.866 4.92895 20.4597C5.62041 19.807 6.63114 19.2577 7.27551 18.9075C7.41898 18.8295 7.5443 18.7614 7.64388 18.7042C10.9241 16.8208 15.0757 16.8208 18.356 18.7042ZM17.4846 20.2218C14.744 18.6482 11.2559 18.6482 8.51527 20.2218C8.35524 20.3137 8.1827 20.4082 8.00402 20.506C7.35986 20.8586 6.63585 21.255 6.13015 21.7323C5.81498 22.0298 5.72302 22.238 5.71014 22.3517C5.70397 22.4061 5.69257 22.5958 6.07189 22.9443C6.99094 23.7886 7.9038 24.2916 8.99904 24.2916H17.0008C18.096 24.2916 19.0089 23.7886 19.9279 22.9443C20.3073 22.5958 20.2959 22.4061 20.2897 22.3517C20.2768 22.238 20.1849 22.0298 19.8697 21.7323C19.364 21.255 18.64 20.8586 17.9959 20.506C17.8172 20.4082 17.6446 20.3137 17.4846 20.2218Z" fill="#161616"/>
</g>
</g>
</svg>
