<svg width="14" height="14" viewBox="0 0 14 14" fill="none" xmlns="http://www.w3.org/2000/svg">
<g id="elements">
<g id="Icon">
<path d="M7.43783 4.66675C7.43783 4.42512 7.24195 4.22925 7.00033 4.22925C6.7587 4.22925 6.56283 4.42512 6.56283 4.66675V7.00008C6.56283 7.11611 6.60892 7.22739 6.69097 7.30944L7.85763 8.47611C8.02849 8.64696 8.3055 8.64696 8.47635 8.47611C8.64721 8.30525 8.64721 8.02824 8.47635 7.85739L7.43783 6.81886V4.66675Z" fill="#161616"/>
<path fill-rule="evenodd" clip-rule="evenodd" d="M7.00033 0.729248C3.53704 0.729248 0.729492 3.5368 0.729492 7.00008C0.729492 10.4634 3.53704 13.2709 7.00033 13.2709C10.4636 13.2709 13.2712 10.4634 13.2712 7.00008C13.2712 3.5368 10.4636 0.729248 7.00033 0.729248ZM1.60449 7.00008C1.60449 4.02004 4.02029 1.60425 7.00033 1.60425C9.98036 1.60425 12.3962 4.02004 12.3962 7.00008C12.3962 9.98012 9.98036 12.3959 7.00033 12.3959C4.02029 12.3959 1.60449 9.98012 1.60449 7.00008Z" fill="#161616"/>
</g>
</g>
</svg>
