<svg width="26" height="23" viewBox="0 0 26 23" fill="none" xmlns="http://www.w3.org/2000/svg">
<g id="elements">
<g id="Icon">
<path fill-rule="evenodd" clip-rule="evenodd" d="M4.54134 5.66667C4.54134 2.60609 7.02243 0.125 10.083 0.125C13.1436 0.125 15.6247 2.60609 15.6247 5.66667C15.6247 8.72724 13.1436 11.2083 10.083 11.2083C7.02243 11.2083 4.54134 8.72724 4.54134 5.66667ZM10.083 1.875C7.98893 1.875 6.29134 3.57259 6.29134 5.66667C6.29134 7.76075 7.98893 9.45833 10.083 9.45833C12.1771 9.45833 13.8747 7.76075 13.8747 5.66667C13.8747 3.57259 12.1771 1.875 10.083 1.875Z" fill="#161616"/>
<path fill-rule="evenodd" clip-rule="evenodd" d="M4.47438 14.5971C8.08582 12.4121 12.6639 12.4121 16.2754 14.5971C16.3885 14.6656 16.5297 14.7465 16.6906 14.8387C17.4054 15.2483 18.5083 15.8802 19.2627 16.6305C19.7353 17.1005 20.1946 17.7298 20.2783 18.5073C20.3675 19.3367 20.0096 20.1096 19.3092 20.7877C18.1229 21.9361 16.6805 22.875 14.8044 22.875H5.94532C4.06926 22.875 2.62685 21.9361 1.44056 20.7877C0.740087 20.1096 0.38225 19.3367 0.471467 18.5073C0.555105 17.7298 1.01447 17.1005 1.48705 16.6305C2.2414 15.8802 3.34429 15.2483 4.05906 14.8387C4.21978 14.7467 4.36132 14.6656 4.47438 14.5971ZM15.3694 16.0944C12.3149 14.2463 8.4348 14.2463 5.38029 16.0944C5.20695 16.1993 5.01874 16.3078 4.82283 16.4208C4.1084 16.8328 3.29171 17.3038 2.72114 17.8713C2.36812 18.2224 2.23258 18.4979 2.21143 18.6945C2.19586 18.8392 2.22335 19.1098 2.65776 19.5303C3.68898 20.5286 4.71632 21.125 5.94532 21.125H14.8044C16.0334 21.125 17.0607 20.5286 18.092 19.5303C18.5264 19.1098 18.5539 18.8392 18.5383 18.6945C18.5172 18.4979 18.3816 18.2224 18.0286 17.8713C17.458 17.3038 16.6413 16.8328 15.9269 16.4208C15.7311 16.3079 15.5427 16.1992 15.3694 16.0944Z" fill="#161616"/>
<path d="M18.833 2.45833C18.3498 2.45833 17.958 2.85008 17.958 3.33333C17.958 3.81658 18.3498 4.20833 18.833 4.20833L24.6663 4.20833C25.1496 4.20833 25.5413 3.81658 25.5413 3.33333C25.5413 2.85008 25.1496 2.45833 24.6663 2.45833L18.833 2.45833Z" fill="#161616"/>
<path d="M17.958 6.83333C17.958 6.35008 18.3498 5.95833 18.833 5.95833L24.6663 5.95833C25.1496 5.95833 25.5413 6.35008 25.5413 6.83333C25.5413 7.31658 25.1496 7.70833 24.6663 7.70833L18.833 7.70833C18.3498 7.70833 17.958 7.31658 17.958 6.83333Z" fill="#161616"/>
<path d="M22.333 9.45833C21.8498 9.45833 21.458 9.85008 21.458 10.3333C21.458 10.8166 21.8498 11.2083 22.333 11.2083H24.6663C25.1496 11.2083 25.5413 10.8166 25.5413 10.3333C25.5413 9.85008 25.1496 9.45833 24.6663 9.45833H22.333Z" fill="#161616"/>
</g>
</g>
</svg>
