<svg width="26" height="25" viewBox="0 0 26 25" fill="none" xmlns="http://www.w3.org/2000/svg">
<g id="elements">
<path id="Icon" fill-rule="evenodd" clip-rule="evenodd" d="M13 2.87471C9.13323 2.87471 6.15296 5.35092 5.75384 8.32012C5.92149 8.38611 6.09031 8.46337 6.26331 8.54254L6.36136 8.58735L6.43765 8.62199C6.75579 8.76624 7.06744 8.90754 7.31603 9.12373C8.04272 9.75572 8.04203 10.5899 8.04162 11.0722L8.04162 16.261C8.04203 16.7434 8.04272 17.5775 7.31603 18.2095C7.06744 18.4257 6.7558 18.567 6.43766 18.7112L6.36136 18.7459L6.2633 18.7907C5.83991 18.9844 5.44148 19.1668 5.02416 19.2005C3.8049 19.2991 3.12196 18.4675 2.72073 17.9789L2.688 17.9391C2.58631 17.8155 2.4611 17.6704 2.32589 17.5137C2.0787 17.2273 1.79809 16.9021 1.56667 16.5993C1.1844 16.099 0.801355 15.4996 0.611077 14.803C0.407336 14.0573 0.407336 13.276 0.611077 12.5302C0.749149 12.0248 0.998963 11.5787 1.32873 11.1106C1.64807 10.6573 2.07829 10.1347 2.61028 9.48857L2.63191 9.4623C2.65372 9.43581 2.67656 9.4077 2.70048 9.37826C2.96992 9.04665 3.37641 8.54635 3.99387 8.28959C4.4088 4.17328 8.3987 1.12471 13 1.12471C17.6013 1.12471 21.5912 4.17328 22.0061 8.28959C22.6235 8.54636 23.03 9.04665 23.2995 9.37826L23.3006 9.37967C23.3241 9.4086 23.3466 9.43623 23.368 9.4623L23.3896 9.4885C23.9216 10.1347 24.3519 10.6572 24.6712 11.1106C25.001 11.5787 25.2508 12.0248 25.3889 12.5302C25.5926 13.276 25.5926 14.0573 25.3889 14.803C25.1986 15.4996 24.8155 16.099 24.4333 16.5993C24.2019 16.9021 23.9213 17.2272 23.6742 17.5136C23.539 17.6703 23.4136 17.8155 23.3119 17.9391L23.2792 17.9789C23.0141 18.3017 22.6261 18.7742 22.0416 19.0293L22.0416 19.2664C22.0416 21.9836 19.3683 23.8747 16.5 23.8747L14.1666 23.8747C13.6834 23.8747 13.2916 23.483 13.2916 22.9997C13.2916 22.5165 13.6834 22.1247 14.1666 22.1247L16.5 22.1247C18.7864 22.1247 20.2916 20.6729 20.2916 19.2664L20.2916 19.0308C20.109 18.9611 19.9253 18.877 19.7367 18.7907L19.6386 18.7459L19.5623 18.7112C19.2442 18.567 18.9325 18.4257 18.6839 18.2095C17.9572 17.5775 17.9579 16.7434 17.9583 16.261L17.9583 11.0722C17.9579 10.5899 17.9572 9.75572 18.6839 9.12373C18.9325 8.90754 19.2442 8.76624 19.5623 8.62199L19.6386 8.58735L19.7366 8.54254C19.9096 8.46338 20.0785 8.38611 20.2461 8.32012C19.847 5.35092 16.8667 2.87471 13 2.87471ZM21.1875 17.4583C21.1806 17.4581 21.1736 17.458 21.1666 17.458C21.1614 17.458 21.1561 17.4581 21.1509 17.4582C21.1399 17.4578 21.1285 17.4572 21.1169 17.4562C21.0473 17.4506 20.9511 17.4207 20.364 17.1533C19.9164 16.9494 19.8625 16.9152 19.8323 16.889C19.7801 16.8436 19.7587 16.806 19.7413 16.7354C19.7156 16.6313 19.7083 16.493 19.7083 16.2281L19.7083 11.1051C19.7083 10.8403 19.7156 10.7019 19.7413 10.5978C19.7587 10.5272 19.7801 10.4897 19.8323 10.4442C19.8625 10.418 19.9164 10.3838 20.364 10.1799C20.9511 9.91251 21.0473 9.88262 21.1169 9.87699C21.1345 9.87556 21.1514 9.8748 21.1677 9.87471L21.1737 9.87471C21.2873 9.87532 21.3696 9.90991 21.4688 9.98419C21.6247 10.1008 21.771 10.2758 22.017 10.5746C22.5757 11.2531 22.9636 11.7252 23.2405 12.1184C23.5114 12.5029 23.6374 12.7597 23.7007 12.9913C23.822 13.4352 23.822 13.898 23.7007 14.3419C23.5973 14.7204 23.3696 15.1091 23.0428 15.5367C22.8327 15.8117 22.6296 16.0459 22.4147 16.2936C22.2706 16.4598 22.1212 16.6321 21.9609 16.8267C21.7334 17.103 21.5916 17.2621 21.4507 17.3624C21.3649 17.4234 21.2901 17.4553 21.1875 17.4583ZM4.8323 9.87471L4.82624 9.87471C4.71269 9.87531 4.6304 9.90991 4.53111 9.98419C4.37523 10.1008 4.22893 10.2758 3.98293 10.5746C3.42429 11.2531 3.03639 11.7252 2.7594 12.1184C2.48853 12.5029 2.36251 12.7597 2.29922 12.9913C2.17796 13.4352 2.17796 13.898 2.29922 14.3419C2.40264 14.7204 2.63037 15.1091 2.95716 15.5367C3.16726 15.8117 3.3704 16.0459 3.58522 16.2936C3.72933 16.4598 3.87877 16.6321 4.03903 16.8267C4.26651 17.103 4.40835 17.2621 4.54924 17.3624C4.65358 17.4366 4.74167 17.4677 4.88309 17.4562C4.95263 17.4506 5.04887 17.4207 5.63597 17.1533C6.08351 16.9494 6.13745 16.9152 6.16764 16.889C6.21988 16.8436 6.24125 16.806 6.25869 16.7354C6.2844 16.6313 6.29161 16.493 6.29161 16.2281L6.29161 11.1051C6.29161 10.8403 6.2844 10.7019 6.25869 10.5978C6.24125 10.5272 6.21988 10.4897 6.16764 10.4442C6.13745 10.418 6.08351 10.3838 5.63597 10.1799C5.04887 9.91251 4.95263 9.88262 4.88309 9.87699C4.86542 9.87556 4.84854 9.8748 4.8323 9.87471Z" fill="#175CD3"/>
</g>
</svg>
