<svg width="22" height="22" viewBox="0 0 22 22" fill="none" xmlns="http://www.w3.org/2000/svg">
<g id="elements">
<g id="Icon">
<path d="M12.0067 0.749787H9.99328C8.02613 0.749772 6.47332 0.74976 5.25923 0.91299C4.01192 1.08069 3.01043 1.43294 2.22179 2.22158C1.43315 3.01021 1.0809 4.01171 0.913204 5.25901C0.749974 6.4731 0.749986 8.02591 0.75 9.99306V12.0065C0.749986 13.9737 0.749974 15.5265 0.913204 16.7406C1.0809 17.9879 1.43315 18.9894 2.22179 19.778C3.01043 20.5666 4.01192 20.9189 5.25923 21.0866C6.47332 21.2498 8.02613 21.2498 9.99328 21.2498H12.0098C14.0085 21.2498 15.5802 21.2498 16.8043 21.0778C17.2145 21.0202 17.5003 20.641 17.4427 20.2308C17.3851 19.8206 17.0058 19.5348 16.5957 19.5924C15.488 19.748 14.0219 19.7498 11.95 19.7498H10.05C8.01354 19.7498 6.56165 19.7482 5.4591 19.6C4.37812 19.4546 3.74593 19.1808 3.28245 18.7173C2.81897 18.2539 2.54516 17.6217 2.39983 16.5407C2.25159 15.4381 2.25 13.9862 2.25 11.9498V10.0498C2.25 8.01333 2.25159 6.56144 2.39983 5.45889C2.54516 4.37791 2.81897 3.74572 3.28245 3.28224C3.74593 2.81875 4.37812 2.54495 5.4591 2.39961C6.56165 2.25138 8.01354 2.24979 10.05 2.24979H11.95C13.9865 2.24979 15.4384 2.25138 16.5409 2.39961C17.6219 2.54495 18.2541 2.81875 18.7176 3.28224C19.181 3.74572 19.4548 4.37791 19.6002 5.45889C19.7484 6.56144 19.75 8.01333 19.75 10.0498V11.9498C19.75 13.1626 19.7499 14.1738 19.7168 15.0361C19.7125 15.1486 19.7087 15.2463 19.7045 15.3331C19.6241 15.2778 19.534 15.214 19.429 15.1397L18.0832 14.1875C17.7451 13.9483 17.277 14.0285 17.0378 14.3666C16.7985 14.7047 16.8787 15.1728 17.2168 15.412L18.6026 16.3925C18.8659 16.579 19.1335 16.7685 19.3721 16.8849C19.6448 17.0181 20.0538 17.1423 20.4906 16.9268C20.9196 16.7151 21.0742 16.3275 21.1367 16.0274C21.19 15.7717 21.2021 15.4518 21.2139 15.1425L21.2157 15.0936C21.25 14.1994 21.25 13.1604 21.25 11.9619V9.99307C21.25 8.02592 21.25 6.4731 21.0868 5.25901C20.9191 4.01171 20.5668 3.01021 19.7782 2.22158C18.9896 1.43294 17.9881 1.08069 16.7408 0.91299C15.5267 0.74976 13.9739 0.749772 12.0067 0.749787Z" fill="#1B8354"/>
<path fill-rule="evenodd" clip-rule="evenodd" d="M11.6554 8.00905L11.5744 7.96612C10.8009 7.55591 10.1651 7.21881 9.64156 7.01096C9.10922 6.79963 8.55872 6.66419 7.99815 6.81245C7.61157 6.9147 7.25485 7.11001 6.96396 7.38392C6.5326 7.79012 6.38215 8.33654 6.31522 8.88857C6.24996 9.42684 6.24998 10.1195 6.25 10.9512V11.0488C6.24998 11.8805 6.24996 12.5731 6.31522 13.1114C6.38215 13.6634 6.5326 14.2099 6.96396 14.6161C7.25484 14.89 7.61157 15.0853 7.99815 15.1875C8.55872 15.3358 9.10922 15.2004 9.64156 14.989C10.1651 14.7812 10.8009 14.4441 11.5745 14.0339L11.6554 13.9909C12.4556 13.5666 13.1124 13.2184 13.5867 12.895C14.0613 12.5715 14.5041 12.1764 14.6671 11.5983C14.7776 11.2065 14.7776 10.7935 14.6671 10.4017C14.5041 9.82359 14.0613 9.42852 13.5867 9.10496C13.1124 8.78157 12.4556 8.43333 11.6554 8.00905ZM8.38169 8.26259C8.4718 8.23876 8.65035 8.23134 9.08811 8.40512C9.52567 8.57882 10.0883 8.87591 10.9115 9.31244C11.7631 9.76398 12.3448 10.0737 12.7417 10.3443C13.1466 10.6203 13.2097 10.7601 13.2234 10.8087C13.2589 10.9343 13.2589 11.0656 13.2234 11.1912C13.2097 11.2399 13.1466 11.3797 12.7417 11.6557C12.3448 11.9263 11.7631 12.236 10.9115 12.6875C10.0883 13.1241 9.52567 13.4212 9.08811 13.5949C8.65035 13.7686 8.4718 13.7612 8.38169 13.7374C8.23024 13.6973 8.09675 13.6224 7.99229 13.524C7.94553 13.48 7.85691 13.3647 7.80431 12.9309C7.75132 12.4938 7.75 11.8931 7.75 11C7.75 10.1069 7.75132 9.50619 7.80431 9.06912C7.85691 8.63532 7.94553 8.51999 7.99229 8.47596C8.09675 8.37759 8.23024 8.30265 8.38169 8.26259Z" fill="#1B8354"/>
</g>
</g>
</svg>
