<svg width="22" height="22" viewBox="0 0 22 22" fill="none" xmlns="http://www.w3.org/2000/svg">
<g id="elements">
<g id="Icon">
<path fill-rule="evenodd" clip-rule="evenodd" d="M15.0457 0.250001H14.4543C13.6683 0.249979 13.0127 0.249961 12.4922 0.311201C11.9491 0.375087 11.4394 0.515937 11.0187 0.884063C10.5836 1.2648 10.4027 1.74838 10.3228 2.2684C10.2499 2.74266 10.25 3.33284 10.25 4.00765V4.99233C10.25 5.66714 10.2499 6.25735 10.3228 6.7316C10.4027 7.25163 10.5836 7.73521 11.0187 8.11594C11.4394 8.48407 11.9491 8.62492 12.4922 8.6888C13.0127 8.75004 13.6683 8.75003 14.4543 8.75H15.0457C15.8317 8.75003 16.4873 8.75004 17.0079 8.6888C17.5509 8.62492 18.0606 8.48407 18.4813 8.11594C18.7899 7.84598 18.9706 7.52431 19.0781 7.1746C19.211 7.26012 19.3369 7.3356 19.4557 7.39839C19.8266 7.59441 20.3357 7.78168 20.8733 7.54846C21.4417 7.30195 21.6202 6.77503 21.6873 6.36027C21.7502 5.97114 21.7501 5.46152 21.75 4.90181V4.0982C21.7501 3.53849 21.7502 3.02886 21.6873 2.63974C21.6202 2.22497 21.4417 1.69806 20.8733 1.45155C20.3357 1.21833 19.8266 1.40559 19.4557 1.60162C19.3369 1.6644 19.211 1.73989 19.0781 1.8254C18.9706 1.4757 18.7899 1.15403 18.4813 0.884063C18.0606 0.515937 17.5509 0.375087 17.0079 0.311201C16.4873 0.249961 15.8317 0.249979 15.0457 0.250001ZM20.1567 6.07226C19.9381 5.95668 19.6585 5.7631 19.249 5.46905C19.25 5.3155 19.25 5.15651 19.25 4.99252V4.00768C19.25 3.84369 19.25 3.6845 19.249 3.53096C19.6585 3.23691 19.9381 3.04332 20.1567 2.92774C20.176 2.91757 20.1936 2.90861 20.2098 2.90071C20.2477 3.15526 20.25 3.53627 20.25 4.15791V4.84209C20.25 5.46373 20.2478 5.84475 20.2098 6.09929C20.1936 6.0914 20.176 6.08244 20.1567 6.07226ZM12.0064 2.01293C12.0983 1.93256 12.2574 1.84916 12.6674 1.80093C13.0899 1.75123 13.6564 1.75 14.5 1.75H15C15.8436 1.75 16.4101 1.75123 16.8326 1.80093C17.2426 1.84916 17.4017 1.93256 17.4936 2.01293C17.571 2.08068 17.6464 2.18227 17.6946 2.49621C17.7479 2.84311 17.75 3.31653 17.75 4.0625V4.9375C17.75 5.68347 17.7479 6.1569 17.6946 6.5038C17.6464 6.81774 17.571 6.91932 17.4936 6.98708C17.4017 7.06744 17.2426 7.15084 16.8326 7.19908C16.4101 7.24878 15.8436 7.25 15 7.25H14.5C13.6564 7.25 13.0899 7.24878 12.6674 7.19908C12.2574 7.15084 12.0983 7.06744 12.0064 6.98708C11.929 6.91932 11.8536 6.81774 11.8054 6.5038C11.7521 6.1569 11.75 5.68347 11.75 4.9375V4.0625C11.75 3.31653 11.7521 2.84311 11.8054 2.49621C11.8536 2.18227 11.929 2.08068 12.0064 2.01293Z" fill="#067647"/>
<path d="M8.75 0.99859C8.75131 1.4128 8.4166 1.74966 8.00239 1.75097C6.68397 1.75517 5.72142 1.77757 4.96584 1.88112C4.22335 1.98289 3.73692 2.15659 3.34909 2.42815C2.99076 2.67906 2.67909 2.99073 2.42818 3.34906C2.1241 3.78333 1.94281 4.34088 1.8476 5.24418C1.75097 6.16083 1.75 7.34414 1.75 8.99997C1.75 10.6558 1.75097 11.8391 1.8476 12.7558C1.94281 13.6591 2.1241 14.2166 2.42818 14.6509C2.67909 15.0092 2.99076 15.3209 3.34909 15.5718C3.78335 15.8759 4.34091 16.0572 5.24421 16.1524C6.16085 16.249 7.34417 16.25 9 16.25H13C14.6558 16.25 15.8391 16.249 16.7558 16.1524C17.6591 16.0572 18.2166 15.8759 18.6509 15.5718C19.0092 15.3209 19.3209 15.0092 19.5718 14.6509C19.8434 14.2631 20.0171 13.7766 20.1189 13.0341C20.2224 12.2786 20.2448 11.316 20.249 9.99759C20.2503 9.58337 20.5872 9.24866 21.0014 9.24998C21.4156 9.2513 21.7503 9.58815 21.749 10.0024C21.7448 11.3094 21.7241 12.3686 21.605 13.2378C21.484 14.1201 21.2555 14.8615 20.8005 15.5112C20.4493 16.0129 20.0129 16.4492 19.5113 16.8005C18.7833 17.3103 17.9399 17.5359 16.913 17.6441C15.9086 17.75 14.6462 17.75 13.0436 17.75H11.75V20.25H15C15.4142 20.25 15.75 20.5858 15.75 21C15.75 21.4142 15.4142 21.75 15 21.75H7C6.58579 21.75 6.25 21.4142 6.25 21C6.25 20.5858 6.58579 20.25 7 20.25H10.25V17.75H8.95645C7.35376 17.75 6.09141 17.75 5.08697 17.6441C4.06008 17.5359 3.21671 17.3103 2.48872 16.8005C1.98706 16.4493 1.55072 16.0129 1.19945 15.5112C0.689712 14.7833 0.4641 13.9399 0.355859 12.913C0.249985 11.9086 0.249992 10.6462 0.25 9.04358V8.95637C0.249992 7.3537 0.249985 6.09138 0.355859 5.08694C0.4641 4.06006 0.689712 3.21668 1.19945 2.4887C1.55072 1.98703 1.98706 1.5507 2.48872 1.19943C3.13849 0.744457 3.87988 0.515937 4.76217 0.395015C5.63137 0.275887 6.69058 0.255142 7.99761 0.250981C8.41182 0.249663 8.74868 0.584378 8.75 0.99859Z" fill="#067647"/>
<path d="M9.25 14C9.25 13.5858 9.58579 13.25 10 13.25H12C12.4142 13.25 12.75 13.5858 12.75 14C12.75 14.4142 12.4142 14.75 12 14.75H10C9.58579 14.75 9.25 14.4142 9.25 14Z" fill="#067647"/>
</g>
</g>
</svg>
