<svg width="26" height="27" viewBox="0 0 26 27" fill="none" xmlns="http://www.w3.org/2000/svg">
<g id="elements">
<g id="Icon">
<path d="M7.74967 9.12504C7.26642 9.12504 6.87467 9.51679 6.87467 10C6.87467 10.4833 7.26642 10.875 7.74967 10.875H10.083C10.5663 10.875 10.958 10.4833 10.958 10C10.958 9.51679 10.5663 9.12504 10.083 9.12504H7.74967Z" fill="#161616"/>
<path d="M7.74967 13.7917C7.26642 13.7917 6.87467 14.1835 6.87467 14.6667C6.87467 15.15 7.26642 15.5417 7.74967 15.5417H10.083C10.5663 15.5417 10.958 15.15 10.958 14.6667C10.958 14.1835 10.5663 13.7917 10.083 13.7917H7.74967Z" fill="#161616"/>
<path d="M7.74967 18.4584C7.26642 18.4584 6.87467 18.8501 6.87467 19.3334C6.87467 19.8166 7.26642 20.2084 7.74967 20.2084H10.083C10.5663 20.2084 10.958 19.8166 10.958 19.3334C10.958 18.8501 10.5663 18.4584 10.083 18.4584H7.74967Z" fill="#161616"/>
<path fill-rule="evenodd" clip-rule="evenodd" d="M1.33301 24.2917C0.849759 24.2917 0.458008 24.6835 0.458008 25.1667C0.458008 25.65 0.849759 26.0417 1.33301 26.0417L24.6663 26.0417C25.1496 26.0417 25.5413 25.65 25.5413 25.1667C25.5413 24.6835 25.1496 24.2917 24.6663 24.2917H23.2082L23.2082 12.5686C23.2083 12.2526 23.2083 11.9432 23.1765 11.6793C23.14 11.3768 23.0554 11.0617 22.8397 10.7626C22.6305 10.4725 22.3618 10.2865 22.0965 10.1418C21.8512 10.008 21.5439 9.87634 21.2062 9.73167L15.0413 7.08958L15.0414 4.88327C15.0414 4.06625 15.0415 3.34857 14.9524 2.79514C14.8563 2.19814 14.6231 1.57313 13.9773 1.20484C13.3534 0.849099 12.6931 0.934562 12.1078 1.11126C11.5454 1.28106 10.8606 1.597 10.0592 1.96676L4.71757 4.43101C4.39323 4.58061 4.09443 4.71842 3.85565 4.8586C3.59406 5.01217 3.3346 5.20702 3.13539 5.50441C2.93314 5.80634 2.85517 6.12083 2.82129 6.4231C2.79126 6.69115 2.7913 7.00702 2.79134 7.33768L2.79135 24.2917H1.33301ZM15.0413 24.2917H21.4582L21.4582 12.6087C21.4582 12.237 21.4568 12.0352 21.4391 11.8889C21.4314 11.8253 21.423 11.7963 21.4196 11.7865L21.419 11.7847L21.4173 11.7828C21.4148 11.7802 21.4091 11.7747 21.3984 11.7662C21.3757 11.7481 21.3342 11.7194 21.2586 11.6782C21.0949 11.5889 20.8653 11.4895 20.4837 11.326L15.0413 8.99353L15.0413 24.2917ZM13.2913 24.2917L13.2913 4.95448C13.2913 4.04464 13.2886 3.4707 13.2247 3.07322C13.1945 2.88583 13.1583 2.79524 13.1365 2.75542C13.1239 2.73246 13.1193 2.72992 13.1125 2.72618L13.1104 2.72505C13.1006 2.71944 13.0816 2.70863 13.0207 2.70837C12.946 2.70805 12.8201 2.72422 12.6136 2.78657C12.1827 2.91667 11.61 3.17857 10.734 3.58274L5.48395 6.00471C5.11515 6.17484 4.8967 6.27672 4.74163 6.36775C4.67058 6.40947 4.63227 6.43803 4.61164 6.45574C4.59445 6.47049 4.5901 6.47718 4.58941 6.47823C4.58903 6.47873 4.58685 6.48158 4.58289 6.49403C4.57751 6.51095 4.56833 6.54729 4.56041 6.61798C4.54261 6.77678 4.54135 6.99286 4.54135 7.37645L4.54135 24.2917L13.2913 24.2917Z" fill="#161616"/>
</g>
</g>
</svg>
