<svg width="12" height="14" viewBox="0 0 12 14" fill="none" xmlns="http://www.w3.org/2000/svg">
<g id="elements">
<g id="Icon">
<path d="M3.22917 3.50002C3.22917 3.2584 3.42504 3.06252 3.66667 3.06252H4.83333C5.07496 3.06252 5.27083 3.2584 5.27083 3.50002C5.27083 3.74165 5.07496 3.93752 4.83333 3.93752H3.66667C3.42504 3.93752 3.22917 3.74164 3.22917 3.50002Z" fill="#161616"/>
<path d="M3.22917 5.25002C3.22917 5.0084 3.42504 4.81252 3.66667 4.81252H4.83333C5.07496 4.81252 5.27083 5.0084 5.27083 5.25002C5.27083 5.49164 5.07496 5.68752 4.83333 5.68752H3.66667C3.42504 5.68752 3.22917 5.49164 3.22917 5.25002Z" fill="#161616"/>
<path d="M3.22917 7.00002C3.22917 6.7584 3.42504 6.56252 3.66667 6.56252H4.83333C5.07496 6.56252 5.27083 6.7584 5.27083 7.00002C5.27083 7.24164 5.07496 7.43752 4.83333 7.43752H3.66667C3.42504 7.43752 3.22917 7.24164 3.22917 7.00002Z" fill="#161616"/>
<path fill-rule="evenodd" clip-rule="evenodd" d="M2.5 0.729187C2.12857 0.729187 1.80057 0.74799 1.52189 0.809212C1.23824 0.871523 0.978505 0.983588 0.772703 1.18939C0.566901 1.39519 0.454836 1.65493 0.392525 1.93857C0.331303 2.21726 0.3125 2.54526 0.3125 2.91669L0.3125 12.8334C0.3125 13.075 0.508375 13.2709 0.75 13.2709L11.25 13.2709C11.4916 13.2709 11.6875 13.075 11.6875 12.8334L11.6875 6.41669C11.6875 6.04526 11.6687 5.71726 11.6075 5.43857C11.5452 5.15493 11.4331 4.89519 11.2273 4.68939C11.0215 4.48359 10.7618 4.37152 10.4781 4.30921C10.1994 4.24799 9.87143 4.22919 9.5 4.22919H8.1875V2.91669C8.1875 2.54526 8.1687 2.21726 8.10747 1.93857C8.04516 1.65493 7.9331 1.39519 7.7273 1.18939C7.52149 0.983589 7.26176 0.871523 6.97811 0.809212C6.69943 0.74799 6.37143 0.729187 6 0.729187L2.5 0.729187ZM7.3125 12.3959H6.14584L6.14584 10.4739C6.14587 10.2215 6.1459 9.98995 6.12058 9.80165C6.0927 9.59429 6.02711 9.37512 5.84684 9.19485C5.66658 9.01459 5.4474 8.94899 5.24004 8.92112C5.05173 8.8958 4.82025 8.89583 4.56777 8.89586L3.93223 8.89586C3.67976 8.89583 3.44827 8.8958 3.25997 8.92112C3.0526 8.94899 2.83343 9.01459 2.65317 9.19485C2.4729 9.37512 2.40731 9.59429 2.37943 9.80165C2.35411 9.98996 2.35414 10.2214 2.35417 10.4739L2.35417 12.3959H1.1875L1.1875 2.91669C1.1875 2.5642 1.20647 2.31149 1.24715 2.12632C1.28674 1.9461 1.3407 1.85883 1.39142 1.80811C1.44214 1.75739 1.52941 1.70342 1.70963 1.66383C1.8948 1.62315 2.14751 1.60419 2.5 1.60419L6 1.60419C6.35249 1.60419 6.6052 1.62315 6.79037 1.66383C6.97059 1.70342 7.05786 1.75739 7.10858 1.80811C7.1593 1.85883 7.21326 1.9461 7.25285 2.12632C7.29353 2.31149 7.3125 2.5642 7.3125 2.91669L7.3125 12.3959ZM3.22917 12.3959L3.22917 10.5C3.22917 10.2127 3.2301 10.0412 3.24663 9.91824C3.2542 9.86192 3.26312 9.83371 3.26835 9.821C3.26956 9.81806 3.2705 9.81613 3.27109 9.815L3.27189 9.81358L3.27331 9.81278C3.27444 9.81219 3.27637 9.81124 3.27932 9.81003C3.29202 9.80481 3.32023 9.79589 3.37656 9.78831C3.49948 9.77179 3.67098 9.77086 3.95834 9.77086H4.54167C4.82902 9.77086 5.00053 9.77179 5.12345 9.78831C5.17978 9.79589 5.20799 9.80481 5.22069 9.81003C5.22363 9.81124 5.22557 9.81219 5.2267 9.81278L5.22812 9.81358L5.22892 9.815C5.22951 9.81613 5.23045 9.81806 5.23166 9.821C5.23689 9.83371 5.24581 9.86192 5.25338 9.91824C5.26991 10.0412 5.27084 10.2127 5.27084 10.5V12.3959L3.22917 12.3959ZM8.1875 5.10419L9.5 5.10419C9.85249 5.10419 10.1052 5.12315 10.2904 5.16383C10.4706 5.20342 10.5579 5.25739 10.6086 5.30811C10.6593 5.35883 10.7133 5.4461 10.7529 5.62632C10.7935 5.81149 10.8125 6.0642 10.8125 6.41669L10.8125 12.3959H8.1875L8.1875 5.10419Z" fill="#161616"/>
</g>
</g>
</svg>
