<svg width="10" height="10" viewBox="0 0 10 10" fill="none" xmlns="http://www.w3.org/2000/svg">
<g id="elements">
<path id="Icon" fill-rule="evenodd" clip-rule="evenodd" d="M0.770508 1.5C0.770508 1.09729 1.09697 0.770836 1.49967 0.770836H1.50337C1.90608 0.770836 2.23254 1.09729 2.23254 1.5C2.23254 1.90271 1.90608 2.22917 1.50337 2.22917H1.49967C1.09697 2.22917 0.770508 1.90271 0.770508 1.5ZM4.26866 1.5C4.26866 1.09729 4.59512 0.770836 4.99782 0.770836H5.00152C5.40423 0.770836 5.73069 1.09729 5.73069 1.5C5.73069 1.90271 5.40423 2.22917 5.00152 2.22917H4.99782C4.59512 2.22917 4.26866 1.90271 4.26866 1.5ZM7.76681 1.5C7.76681 1.09729 8.09327 0.770836 8.49597 0.770836H8.49968C8.90238 0.770836 9.22884 1.09729 9.22884 1.5C9.22884 1.90271 8.90238 2.22917 8.49968 2.22917H8.49597C8.09327 2.22917 7.76681 1.90271 7.76681 1.5ZM0.770508 5C0.770508 4.5973 1.09697 4.27084 1.49967 4.27084H1.50337C1.90608 4.27084 2.23254 4.5973 2.23254 5C2.23254 5.40271 1.90608 5.72917 1.50337 5.72917H1.49967C1.09697 5.72917 0.770508 5.40271 0.770508 5ZM4.26866 5C4.26866 4.5973 4.59512 4.27084 4.99782 4.27084H5.00152C5.40423 4.27084 5.73069 4.5973 5.73069 5C5.73069 5.40271 5.40423 5.72917 5.00152 5.72917H4.99782C4.59512 5.72917 4.26866 5.40271 4.26866 5ZM7.76681 5C7.76681 4.5973 8.09327 4.27084 8.49597 4.27084H8.49968C8.90238 4.27084 9.22884 4.5973 9.22884 5C9.22884 5.40271 8.90238 5.72917 8.49968 5.72917H8.49597C8.09327 5.72917 7.76681 5.40271 7.76681 5ZM0.770508 8.5C0.770508 8.0973 1.09697 7.77084 1.49967 7.77084H1.50337C1.90608 7.77084 2.23254 8.0973 2.23254 8.5C2.23254 8.90271 1.90608 9.22917 1.50337 9.22917H1.49967C1.09697 9.22917 0.770508 8.90271 0.770508 8.5ZM4.26866 8.5C4.26866 8.0973 4.59512 7.77084 4.99782 7.77084H5.00152C5.40423 7.77084 5.73069 8.0973 5.73069 8.5C5.73069 8.90271 5.40423 9.22917 5.00152 9.22917H4.99782C4.59512 9.22917 4.26866 8.90271 4.26866 8.5ZM7.76681 8.5C7.76681 8.0973 8.09327 7.77084 8.49597 7.77084H8.49968C8.90238 7.77084 9.22884 8.0973 9.22884 8.5C9.22884 8.90271 8.90238 9.22917 8.49968 9.22917H8.49597C8.09327 9.22917 7.76681 8.90271 7.76681 8.5Z" fill="#161616"/>
</g>
</svg>
