<svg width="22" height="22" viewBox="0 0 22 22" fill="none" xmlns="http://www.w3.org/2000/svg">
<g id="elements">
<g id="Icon">
<path fill-rule="evenodd" clip-rule="evenodd" d="M15.0459 0.250001H14.4546C13.6686 0.249979 13.013 0.249961 12.4924 0.311201C11.9493 0.375087 11.4396 0.515937 11.0189 0.884063C10.5838 1.2648 10.4029 1.74838 10.323 2.2684C10.2501 2.74266 10.2502 3.33284 10.2502 4.00765V4.99233C10.2502 5.66714 10.2501 6.25735 10.323 6.7316C10.4029 7.25163 10.5838 7.73521 11.0189 8.11594C11.4396 8.48407 11.9493 8.62492 12.4924 8.6888C13.013 8.75004 13.6685 8.75003 14.4546 8.75H15.0459C15.832 8.75003 16.4875 8.75004 17.0081 8.6888C17.5512 8.62492 18.0609 8.48407 18.4816 8.11594C18.7901 7.84598 18.9708 7.52431 19.0783 7.1746C19.2112 7.26012 19.3372 7.3356 19.456 7.39839C19.8268 7.59441 20.3359 7.78168 20.8736 7.54846C21.4419 7.30195 21.6204 6.77503 21.6875 6.36027C21.7504 5.97114 21.7503 5.46152 21.7503 4.90181V4.0982C21.7503 3.53849 21.7504 3.02886 21.6875 2.63974C21.6204 2.22497 21.4419 1.69806 20.8736 1.45155C20.3359 1.21833 19.8268 1.40559 19.456 1.60162C19.3372 1.6644 19.2112 1.73989 19.0783 1.8254C18.9708 1.4757 18.7901 1.15403 18.4816 0.884063C18.0609 0.515937 17.5512 0.375087 17.0081 0.311201C16.4875 0.249961 15.8319 0.249979 15.0459 0.250001ZM20.157 6.07226C19.9383 5.95668 19.6587 5.7631 19.2492 5.46905C19.2503 5.3155 19.2503 5.15651 19.2503 4.99252V4.00768C19.2503 3.84369 19.2503 3.6845 19.2492 3.53096C19.6587 3.23691 19.9383 3.04332 20.157 2.92774C20.1762 2.91757 20.1939 2.90861 20.2101 2.90071C20.248 3.15526 20.2502 3.53627 20.2502 4.15791V4.84209C20.2502 5.46373 20.248 5.84475 20.2101 6.09929C20.1939 6.0914 20.1762 6.08244 20.157 6.07226ZM12.0067 2.01293C12.0985 1.93256 12.2576 1.84916 12.6677 1.80093C13.0901 1.75123 13.6567 1.75 14.5002 1.75H15.0002C15.8438 1.75 16.4104 1.75123 16.8328 1.80093C17.2429 1.84916 17.402 1.93256 17.4938 2.01293C17.5712 2.08068 17.6466 2.18227 17.6949 2.49621C17.7482 2.84311 17.7502 3.31653 17.7502 4.0625V4.9375C17.7502 5.68347 17.7482 6.1569 17.6949 6.5038C17.6466 6.81774 17.5712 6.91932 17.4938 6.98708C17.402 7.06744 17.2429 7.15084 16.8328 7.19908C16.4104 7.24878 15.8438 7.25 15.0002 7.25H14.5002C13.6567 7.25 13.0901 7.24878 12.6677 7.19908C12.2576 7.15084 12.0985 7.06744 12.0067 6.98708C11.9293 6.91932 11.8539 6.81774 11.8056 6.5038C11.7523 6.1569 11.7502 5.68347 11.7502 4.9375V4.0625C11.7502 3.31653 11.7523 2.84311 11.8056 2.49621C11.8539 2.18227 11.9293 2.08068 12.0067 2.01293Z" fill="#1B8354"/>
<path fill-rule="evenodd" clip-rule="evenodd" d="M6.94825 1.25L8.00025 1.25C8.41446 1.25 8.75025 1.58579 8.75025 2C8.75025 2.41422 8.41446 2.75 8.00025 2.75H7.00025C6.03623 2.75 5.38867 2.7516 4.90564 2.81654C4.44418 2.87858 4.24668 2.9858 4.11636 3.11612C3.98605 3.24644 3.87882 3.44393 3.81678 3.9054C3.75184 4.38843 3.75025 5.03599 3.75025 6V13.25H18.2502V10.5C18.2502 10.0858 18.586 9.75 19.0002 9.75C19.4145 9.75 19.7502 10.0858 19.7502 10.5V13.8989L20.1618 14.658C20.8879 15.9975 21.3769 17.0637 21.6028 17.9486C21.8348 18.8576 21.8075 19.6495 21.4133 20.3656C20.9725 21.1661 20.1851 21.4782 19.3018 21.6165C18.4481 21.7501 17.3098 21.75 15.9133 21.75H6.08702C4.69054 21.75 3.55214 21.7501 2.6985 21.6165C1.81521 21.4782 1.02774 21.1661 0.586997 20.3656C0.192747 19.6495 0.165399 18.8577 0.397434 17.9487C0.622918 17.0653 1.11046 16.0014 1.83446 14.6653L2.25025 13.8563L2.25025 5.948C2.25022 5.04952 2.25019 4.3003 2.33016 3.70552C2.41456 3.07773 2.60023 2.51093 3.0557 2.05546C3.51117 1.59999 4.07797 1.41432 4.70577 1.32991C5.30055 1.24995 6.04977 1.24997 6.94825 1.25ZM3.47745 14.75L3.1648 15.3583L3.15709 15.3729C2.44039 16.6949 2.0282 17.6248 1.85083 18.3197C1.6796 18.9905 1.74681 19.3621 1.90101 19.6421C2.00871 19.8377 2.22251 20.0237 2.93044 20.1345C3.65424 20.2478 4.67401 20.25 6.15475 20.25H15.8455C17.3263 20.25 18.346 20.2478 19.0698 20.1345C19.7778 20.0237 19.9916 19.8377 20.0993 19.6421C20.2534 19.3621 20.3207 18.9905 20.1494 18.3197C19.972 17.6248 19.5598 16.6949 18.8431 15.3729L18.5054 14.75H3.47745Z" fill="#1B8354"/>
</g>
</g>
</svg>
