<svg width="28" height="21" viewBox="0 0 28 21" fill="none" xmlns="http://www.w3.org/2000/svg">
<g id="elements">
<g id="Icon">
<path fill-rule="evenodd" clip-rule="evenodd" d="M14.0003 0.291687C11.2619 0.291687 9.04199 2.51161 9.04199 5.25002C9.04199 7.98843 11.2619 10.2084 14.0003 10.2084C16.7387 10.2084 18.9587 7.98843 18.9587 5.25002C18.9587 2.51161 16.7387 0.291687 14.0003 0.291687ZM10.792 5.25002C10.792 3.47811 12.2284 2.04169 14.0003 2.04169C15.7722 2.04169 17.2087 3.47811 17.2087 5.25002C17.2087 7.02193 15.7722 8.45835 14.0003 8.45835C12.2284 8.45835 10.792 7.02193 10.792 5.25002Z" fill="#161616"/>
<path d="M6.41704 2.62502C4.32296 2.62502 2.62538 4.32261 2.62538 6.41669C2.62538 8.51077 4.32296 10.2084 6.41704 10.2084C6.90029 10.2084 7.29204 9.8166 7.29204 9.33335C7.29204 8.8501 6.90029 8.45835 6.41704 8.45835C5.28946 8.45835 4.37538 7.54427 4.37538 6.41669C4.37538 5.28911 5.28946 4.37502 6.41704 4.37502C6.90029 4.37502 7.29204 3.98327 7.29204 3.50002C7.29204 3.01677 6.90029 2.62502 6.41704 2.62502Z" fill="#161616"/>
<path d="M6.70515 11.5878C6.66161 11.1066 6.23615 10.7517 5.75487 10.7952C4.65992 10.8943 3.59528 11.3155 2.65694 12.0381C2.60287 12.0798 2.53166 12.1316 2.44797 12.1924C2.0505 12.4816 1.37185 12.9753 0.914507 13.5543C0.622278 13.9242 0.348998 14.4083 0.299797 14.9904C0.248269 15.6 0.452641 16.1923 0.89079 16.7321C1.56145 17.5584 2.48172 18.375 3.76399 18.375C4.24724 18.375 4.63899 17.9833 4.63899 17.5C4.63899 17.0168 4.24724 16.625 3.76399 16.625C3.2979 16.625 2.82752 16.3414 2.24957 15.6293C2.0487 15.3818 2.0361 15.2262 2.04358 15.1378C2.05338 15.0218 2.11507 14.8576 2.28772 14.6391C2.5785 14.271 2.98612 13.9714 3.38232 13.6802C3.49849 13.5948 3.61368 13.5101 3.72465 13.4247C4.41341 12.8943 5.16552 12.6057 5.91255 12.5381C6.39383 12.4946 6.74869 12.0691 6.70515 11.5878Z" fill="#161616"/>
<path d="M21.0003 2.62502C20.5171 2.62502 20.1253 3.01677 20.1253 3.50002C20.1253 3.98327 20.5171 4.37502 21.0003 4.37502C22.1279 4.37502 23.042 5.28911 23.042 6.41669C23.042 7.54427 22.1279 8.45835 21.0003 8.45835C20.5171 8.45835 20.1253 8.8501 20.1253 9.33335C20.1253 9.8166 20.5171 10.2084 21.0003 10.2084C23.0944 10.2084 24.792 8.51077 24.792 6.41669C24.792 4.32261 23.0944 2.62502 21.0003 2.62502Z" fill="#161616"/>
<path d="M22.2458 10.7952C21.7645 10.7517 21.3391 11.1066 21.2955 11.5878C21.252 12.0691 21.6069 12.4946 22.0882 12.5381C22.8352 12.6057 23.5873 12.8943 24.276 13.4247C24.387 13.5101 24.5022 13.5947 24.6183 13.6801C25.0145 13.9713 25.4222 14.271 25.713 14.6391C25.8856 14.8576 25.9473 15.0218 25.9571 15.1378C25.9646 15.2262 25.952 15.3818 25.7511 15.6293C25.1732 16.3414 24.7028 16.625 24.2367 16.625C23.7535 16.625 23.3617 17.0168 23.3617 17.5C23.3617 17.9833 23.7535 18.375 24.2367 18.375C25.519 18.375 26.4392 17.5584 27.1099 16.7321C27.5481 16.1923 27.7524 15.6 27.7009 14.9904C27.6517 14.4083 27.3784 13.9242 27.0862 13.5543C26.6288 12.9753 25.9503 12.4817 25.5528 12.1925C25.4692 12.1317 25.3978 12.0797 25.3438 12.0381C24.4054 11.3155 23.3408 10.8943 22.2458 10.7952Z" fill="#161616"/>
<path fill-rule="evenodd" clip-rule="evenodd" d="M8.97142 13.3855C12.0488 11.4826 15.9522 11.4826 19.0296 13.3855C19.1203 13.4416 19.2351 13.5088 19.3671 13.5861C19.9648 13.9358 20.9136 14.491 21.561 15.149C21.9676 15.5624 22.3732 16.1258 22.4471 16.8282C22.5262 17.5797 22.2072 18.2754 21.5987 18.8774C20.5935 19.8719 19.3483 20.7084 17.7156 20.7084H10.2854C8.65269 20.7084 7.40748 19.8719 6.40225 18.8774C5.79376 18.2754 5.47479 17.5797 5.55389 16.8282C5.62783 16.1258 6.03336 15.5624 6.43997 15.149C7.08736 14.491 8.03608 13.9359 8.63373 13.5861C8.76578 13.5089 8.88069 13.4416 8.97142 13.3855ZM18.1092 14.874C15.5958 13.3198 12.4052 13.3198 9.89178 14.874C9.74091 14.9672 9.57914 15.0626 9.41222 15.1611C8.81504 15.5132 8.15206 15.9041 7.68747 16.3763C7.40165 16.6669 7.30822 16.8789 7.29428 17.0114C7.28549 17.0949 7.2897 17.2936 7.63304 17.6333C8.48767 18.4789 9.31385 18.9584 10.2854 18.9584H17.7156C18.6871 18.9584 19.5133 18.4789 20.3679 17.6333C20.7113 17.2936 20.7155 17.0949 20.7067 17.0114C20.6928 16.8789 20.5993 16.6669 20.3135 16.3763C19.8489 15.9041 19.186 15.5132 18.5888 15.1611C18.4219 15.0627 18.2601 14.9673 18.1092 14.874Z" fill="#161616"/>
</g>
</g>
</svg>
