<svg width="12" height="12" viewBox="0 0 12 12" fill="none" xmlns="http://www.w3.org/2000/svg">
<g id="elements">
<g id="Icon">
<path d="M6.58742 0.0206911H5.41291C4.2654 0.0206825 3.3596 0.0206756 2.65138 0.115893C1.92378 0.213716 1.33958 0.419197 0.87954 0.879235C0.419502 1.33927 0.214021 1.92348 0.116198 2.65107C0.0209808 3.35929 0.0209877 4.2651 0.0209963 5.4126V6.58711C0.0209877 7.73462 0.0209808 8.64043 0.116198 9.34864C0.214021 10.0762 0.419502 10.6604 0.87954 11.1205C1.33958 11.5805 1.92378 11.786 2.65138 11.8838C3.3596 11.979 4.26541 11.979 5.41291 11.979H6.58924C7.75515 11.979 8.67196 11.979 9.38603 11.8787C9.6253 11.8451 9.79202 11.6239 9.75841 11.3846C9.72479 11.1453 9.50357 10.9786 9.2643 11.0122C8.61817 11.103 7.76296 11.104 6.55433 11.104H5.446C4.25806 11.104 3.41113 11.1031 2.76797 11.0166C2.1374 10.9318 1.76862 10.7721 1.49826 10.5018C1.22789 10.2314 1.06817 9.86262 0.983395 9.23205C0.896926 8.5889 0.895996 7.74196 0.895996 6.55403V5.44569C0.895996 4.25776 0.896926 3.41082 0.983395 2.76767C1.06817 2.1371 1.22789 1.76832 1.49826 1.49795C1.76862 1.22759 2.1374 1.06787 2.76797 0.98309C3.41113 0.896621 4.25806 0.895691 5.446 0.895691H6.55433C7.74226 0.895691 8.5892 0.896621 9.23236 0.98309C9.86293 1.06787 10.2317 1.22759 10.5021 1.49795C10.7724 1.76832 10.9322 2.1371 11.0169 2.76767C11.1034 3.41082 11.1043 4.25776 11.1043 5.44569V6.55403C11.1043 7.2615 11.1043 7.85137 11.085 8.3544C11.0825 8.42002 11.0803 8.47697 11.0778 8.52763C11.0309 8.49536 10.9783 8.45817 10.9171 8.41483L10.132 7.85938C9.93478 7.71982 9.66174 7.76659 9.52219 7.96383C9.38263 8.16108 9.42939 8.43411 9.62664 8.57367L10.435 9.14563C10.5886 9.25439 10.7447 9.36493 10.8839 9.43287C11.043 9.51051 11.2815 9.58298 11.5363 9.45726C11.7866 9.3338 11.8768 9.10772 11.9133 8.93264C11.9443 8.78348 11.9514 8.59684 11.9582 8.41645L11.9593 8.38792C11.9793 7.86633 11.9793 7.26022 11.9793 6.5611V5.41261C11.9793 4.2651 11.9793 3.35929 11.8841 2.65107C11.7863 1.92348 11.5808 1.33927 11.1208 0.879235C10.6607 0.419197 10.0765 0.213716 9.34895 0.115893C8.64073 0.0206756 7.73492 0.0206825 6.58742 0.0206911Z" fill="#1849A9"/>
<path fill-rule="evenodd" clip-rule="evenodd" d="M6.38248 4.25526L6.33526 4.23022C5.884 3.99093 5.51317 3.79429 5.20774 3.67304C4.89721 3.54977 4.57608 3.47076 4.24908 3.55725C4.02358 3.61689 3.81549 3.73082 3.64581 3.8906C3.39418 4.12755 3.30642 4.4463 3.26737 4.76832C3.2293 5.08231 3.22932 5.48636 3.22933 5.9715V6.02846C3.22932 6.5136 3.2293 6.91765 3.26737 7.23164C3.30642 7.55366 3.39418 7.8724 3.64581 8.10935C3.81549 8.26913 4.02358 8.38307 4.24908 8.44271C4.57608 8.52919 4.89721 8.45019 5.20774 8.32691C5.51317 8.20567 5.88401 8.00902 6.33526 7.76973L6.38248 7.7447C6.84927 7.49719 7.23238 7.29406 7.50908 7.10541C7.78593 6.91667 8.04425 6.68621 8.13933 6.349C8.20377 6.12045 8.20377 5.8795 8.13933 5.65095C8.04425 5.31374 7.78592 5.08329 7.50908 4.89454C7.23239 4.7059 6.84927 4.50276 6.38248 4.25526ZM4.47281 4.40316C4.52538 4.38926 4.62954 4.38493 4.88489 4.4863C5.14014 4.58763 5.46832 4.76093 5.94855 5.01557C6.44531 5.27897 6.78462 5.45963 7.01618 5.6175C7.25233 5.77851 7.28916 5.86003 7.29717 5.88842C7.31783 5.96168 7.31783 6.03827 7.29717 6.11154C7.28916 6.13993 7.25233 6.22145 7.01618 6.38245C6.78462 6.54032 6.44531 6.72098 5.94855 6.98438C5.46832 7.23902 5.14014 7.41233 4.88489 7.51365C4.62954 7.61503 4.52538 7.6107 4.47281 7.59679C4.38447 7.57343 4.3066 7.52971 4.24566 7.47233C4.21839 7.44664 4.16669 7.37937 4.13601 7.12632C4.1051 6.87136 4.10433 6.52097 4.10433 5.99998C4.10433 5.47898 4.1051 5.12859 4.13601 4.87364C4.16669 4.62059 4.21839 4.55331 4.24566 4.52763C4.3066 4.47024 4.38447 4.42653 4.47281 4.40316Z" fill="#1849A9"/>
</g>
</g>
</svg>
