<svg width="22" height="22" viewBox="0 0 22 22" fill="none" xmlns="http://www.w3.org/2000/svg">
<g id="elements">
<path id="Icon" fill-rule="evenodd" clip-rule="evenodd" d="M10.836 0.750002C10.1804 0.749968 9.61622 0.74994 9.15311 0.811625C8.65171 0.878409 8.19535 1.02501 7.78934 1.36641C7.3932 1.69952 7.14932 2.13087 6.95207 2.62555C6.7796 3.05806 6.62029 3.60022 6.43425 4.25H3.64809C2.19907 4.25 1.33897 5.32293 0.981868 6.40879C0.627616 7.486 0.667952 8.81185 1.18346 9.79214C1.2066 9.83614 1.23008 9.87981 1.25391 9.92315C1.25002 9.96139 1.24902 10.0004 1.25113 10.04L1.40385 12.9003L1.40621 12.9522C1.48621 14.7125 1.54964 16.1084 1.74435 17.199C1.94489 18.3224 2.30073 19.227 3.04076 19.9342C3.7808 20.6413 4.70068 20.9557 5.83195 21.1051C6.93032 21.25 8.32759 21.25 10.0897 21.25H11.9104C13.6725 21.25 15.0698 21.25 16.1682 21.1051C17.2994 20.9557 18.2193 20.6413 18.9594 19.9342C19.6994 19.227 20.0552 18.3224 20.2558 17.199C20.4505 16.1084 20.5139 14.7125 20.5939 12.9522L20.5961 12.9033L20.5964 12.8973L20.749 10.04C20.7511 10.0004 20.7501 9.96143 20.7462 9.92321C20.7701 9.87985 20.7936 9.83616 20.8167 9.79214C21.3322 8.81185 21.3726 7.486 21.0183 6.40879C20.6612 5.32293 19.8011 4.25 18.3521 4.25H15.5656C15.3796 3.60022 15.2203 3.05806 15.0478 2.62555C14.8506 2.13087 14.6067 1.69952 14.2105 1.36641C13.8045 1.02501 13.3482 0.878409 12.8468 0.811625C12.3837 0.74994 11.8195 0.749968 11.1639 0.750002H10.836ZM14.0042 4.25C13.8728 3.80116 13.7647 3.45763 13.6545 3.18113C13.5008 2.79567 13.3728 2.62179 13.2451 2.51447C13.1274 2.41544 12.974 2.34182 12.6487 2.29849C12.2962 2.25154 11.8327 2.25 11.1169 2.25H10.883C10.1672 2.25 9.70367 2.25154 9.35115 2.29849C9.02588 2.34182 8.8725 2.41544 8.75473 2.51447C8.6271 2.62179 8.49908 2.79567 8.34538 3.18113C8.23513 3.45763 8.12706 3.80116 7.99568 4.25H14.0042ZM2.40679 6.8774C2.15729 7.63609 2.21543 8.53177 2.51108 9.09398C4.02298 11.969 7.50688 13.25 11.0001 13.25C14.4933 13.25 17.9772 11.969 19.4891 9.09398C19.7847 8.53177 19.8429 7.63609 19.5934 6.87739C19.3467 6.12736 18.9008 5.75 18.3521 5.75H3.64809C3.09934 5.75 2.65345 6.12736 2.40679 6.8774ZM11.7501 14.7317C14.4021 14.6022 17.1774 13.7757 19.1442 11.9629L19.0982 12.8233L19.098 12.8292C19.0149 14.6568 18.9544 15.9535 18.7791 16.9354C18.6076 17.896 18.3426 18.4488 17.9231 18.8497C17.5035 19.2506 16.9393 19.4903 15.9719 19.618C14.983 19.7485 13.6849 19.75 11.8554 19.75H10.1447C8.31527 19.75 7.01709 19.7485 6.02824 19.618C5.06088 19.4903 4.49661 19.2506 4.07706 18.8497C3.65752 18.4488 3.39249 17.896 3.22101 16.9354C3.04571 15.9535 2.98526 14.6568 2.90219 12.8292L2.85593 11.9628C4.82277 13.7757 7.59811 14.6022 10.2501 14.7317V15.5C10.2501 15.9142 10.5859 16.25 11.0001 16.25C11.4143 16.25 11.7501 15.9142 11.7501 15.5V14.7317Z" fill="#067647"/>
</g>
</svg>
