<svg width="23" height="25" viewBox="0 0 23 25" fill="none" xmlns="http://www.w3.org/2000/svg">
<g id="Group">
<path id="Vector" d="M14.0505 0.838257V5.37339C14.0505 5.98757 14.2952 6.57779 14.7316 7.01289C15.169 7.44846 15.7613 7.6929 16.3786 7.69266H21.5809" stroke="#067647" stroke-width="1.5" stroke-linecap="round" stroke-linejoin="round"/>
<path id="Vector_2" d="M21.6981 8.17195V18.9776C21.673 19.6844 21.5083 20.3792 21.2135 21.0221C20.9187 21.6649 20.4996 22.2431 19.9804 22.7232C19.4607 23.2056 18.851 23.5808 18.1862 23.8275C17.5215 24.0742 16.8146 24.1875 16.1061 24.1609H6.53387C5.82098 24.1935 5.10868 24.0851 4.43779 23.8418C3.7669 23.5986 3.15062 23.2253 2.62427 22.7434C2.09997 22.2619 1.67657 21.6811 1.37866 21.0346C1.08075 20.3882 0.914279 19.6889 0.888916 18.9776V6.02041C0.913955 5.31362 1.07862 4.61878 1.37343 3.97592C1.66823 3.33306 2.08735 2.7549 2.60662 2.27476C3.12632 1.7924 3.73596 1.41715 4.40072 1.17046C5.06548 0.923774 5.77234 0.810476 6.4809 0.837042H13.6872C14.7872 0.833156 15.8491 1.24019 16.6648 1.97839L20.3978 5.41127C20.7961 5.7544 21.1178 6.17755 21.3418 6.65319C21.5658 7.12883 21.6872 7.6463 21.6981 8.17195Z" stroke="#067647" stroke-width="1.5" stroke-linecap="round" stroke-linejoin="round"/>
<path id="Vector_3" d="M6 14.5921L9.04678 17.6405C9.15386 17.7489 9.28137 17.8349 9.42193 17.8936C9.56249 17.9523 9.71331 17.9825 9.86564 17.9825C10.018 17.9825 10.1688 17.9523 10.3093 17.8936C10.4499 17.8349 10.5774 17.7489 10.6845 17.6405L16.8251 11.4999" stroke="#067647" stroke-width="1.5" stroke-linecap="round" stroke-linejoin="round"/>
</g>
</svg>
