<svg width="10" height="10" viewBox="0 0 10 10" fill="none" xmlns="http://www.w3.org/2000/svg">
<g id="elements">
<g id="Icon">
<path d="M5.31217 3.33325C5.31217 3.16066 5.17226 3.02075 4.99967 3.02075C4.82709 3.02075 4.68717 3.16066 4.68717 3.33325V4.99992C4.68717 5.0828 4.7201 5.16228 4.7787 5.22089L5.61204 6.05422C5.73408 6.17626 5.93194 6.17626 6.05398 6.05422C6.17602 5.93218 6.17602 5.73432 6.05398 5.61228L5.31217 4.87048V3.33325Z" fill="#1849A9"/>
<path fill-rule="evenodd" clip-rule="evenodd" d="M4.99967 0.520752C2.5259 0.520752 0.520508 2.52614 0.520508 4.99992C0.520508 7.47369 2.5259 9.47909 4.99967 9.47909C7.47345 9.47909 9.47884 7.47369 9.47884 4.99992C9.47884 2.52614 7.47345 0.520752 4.99967 0.520752ZM1.14551 4.99992C1.14551 2.87132 2.87108 1.14575 4.99967 1.14575C7.12827 1.14575 8.85384 2.87132 8.85384 4.99992C8.85384 7.12852 7.12827 8.85409 4.99967 8.85409C2.87108 8.85409 1.14551 7.12852 1.14551 4.99992Z" fill="#1849A9"/>
</g>
</g>
</svg>
