<svg width="26" height="27" viewBox="0 0 26 27" fill="none" xmlns="http://www.w3.org/2000/svg">
<g id="elements">
<g id="Icon">
<path d="M2.20825 13.4587C2.20825 7.52438 7.03691 2.70837 12.9999 2.70837C18.9629 2.70837 23.7916 7.52438 23.7916 13.4587C23.7916 15.0095 23.4625 16.4815 22.8708 17.8109C22.6744 18.2524 22.873 18.7696 23.3145 18.9661C23.756 19.1626 24.2732 18.964 24.4697 18.5225C25.159 16.9735 25.5416 15.2595 25.5416 13.4587C25.5416 6.55203 19.9236 0.958374 12.9999 0.958374C6.07628 0.958374 0.458252 6.55203 0.458252 13.4587C0.458252 15.2595 0.840837 16.9735 1.53018 18.5225C1.72666 18.964 2.24385 19.1626 2.68535 18.9661C3.12685 18.7696 3.32548 18.2524 3.129 17.8109C2.53735 16.4815 2.20825 15.0095 2.20825 13.4587Z" fill="#384250"/>
<path fill-rule="evenodd" clip-rule="evenodd" d="M8.04159 11.1667C8.04159 8.4283 10.2615 6.20837 12.9999 6.20837C15.7383 6.20837 17.9583 8.4283 17.9583 11.1667C17.9583 13.9051 15.7383 16.125 12.9999 16.125C10.2615 16.125 8.04159 13.9051 8.04159 11.1667ZM12.9999 7.95837C11.228 7.95837 9.79158 9.39479 9.79158 11.1667C9.79158 12.9386 11.228 14.375 12.9999 14.375C14.7718 14.375 16.2083 12.9386 16.2083 11.1667C16.2083 9.39479 14.7718 7.95837 12.9999 7.95837Z" fill="#384250"/>
<path fill-rule="evenodd" clip-rule="evenodd" d="M18.3562 18.7043C18.4558 18.7615 18.5811 18.8296 18.7246 18.9075C19.3689 19.2577 20.3797 19.8071 21.0711 20.4597C21.5017 20.8661 21.947 21.4333 22.0288 22.1546C22.1173 22.9351 21.7578 23.6398 21.1121 24.2331C20.0283 25.2288 18.7104 26.0417 17.001 26.0417H8.99929C7.28996 26.0417 5.97208 25.2288 4.88821 24.2331C4.24249 23.6398 3.88304 22.9351 3.97152 22.1546C4.05329 21.4333 4.49865 20.8661 4.92919 20.4597C5.62066 19.8071 6.63138 19.2578 7.27576 18.9075C7.41923 18.8296 7.54455 18.7615 7.64413 18.7043C10.9244 16.8208 15.076 16.8208 18.3562 18.7043ZM17.4848 20.2219C14.7442 18.6483 11.2561 18.6483 8.51551 20.2219C8.35548 20.3138 8.18294 20.4082 8.00426 20.5061C7.36011 20.8587 6.6361 21.2551 6.13039 21.7324C5.81523 22.0298 5.72326 22.2381 5.71038 22.3517C5.70421 22.4062 5.69281 22.5959 6.07214 22.9443C6.99119 23.7887 7.90405 24.2917 8.99929 24.2917H17.001C18.0963 24.2917 19.0091 23.7887 19.9282 22.9443C20.3075 22.5959 20.2961 22.4062 20.2899 22.3517C20.2771 22.2381 20.1851 22.0298 19.8699 21.7324C19.3642 21.2551 18.6402 20.8587 17.9961 20.5061C17.8174 20.4083 17.6448 20.3138 17.4848 20.2219Z" fill="#384250"/>
</g>
</g>
</svg>
