<svg width="12" height="14" viewBox="0 0 12 14" fill="none" xmlns="http://www.w3.org/2000/svg">
<g id="elements">
<g id="Icon">
<path fill-rule="evenodd" clip-rule="evenodd" d="M3.9508 1.39498C4.82473 0.990689 5.39 0.729187 6 0.729187C6.61 0.729187 7.17527 0.990689 8.0492 1.39498L9.17108 1.91358C9.90732 2.25387 10.505 2.53012 10.9146 2.79716C11.3245 3.06435 11.6875 3.41218 11.6875 3.93752C11.6875 4.46286 11.3245 4.81069 10.9146 5.07788C10.505 5.34492 9.90732 5.62117 9.17106 5.96147L8.0492 6.48005C7.17527 6.88435 6.61 7.14585 6 7.14585C5.39 7.14585 4.82472 6.88435 3.95079 6.48005L2.82893 5.96147C2.09268 5.62117 1.49502 5.34492 1.08539 5.07788C0.675548 4.81069 0.3125 4.46286 0.3125 3.93752C0.3125 3.41218 0.675548 3.06435 1.08539 2.79716C1.49502 2.53012 2.09268 2.25387 2.82893 1.91357L3.9508 1.39498ZM6 1.60419C5.60622 1.60419 5.22578 1.76963 4.2253 2.23208L3.23083 2.69176C2.45153 3.05198 1.91294 3.30219 1.56324 3.53016C1.20733 3.76219 1.1875 3.88184 1.1875 3.93752C1.1875 3.9932 1.20733 4.11285 1.56324 4.34488C1.91294 4.57285 2.45153 4.82306 3.23083 5.18328L4.22531 5.64296C5.22577 6.10541 5.60622 6.27085 6 6.27085C6.39378 6.27085 6.77422 6.10541 7.7747 5.64296L8.76917 5.18328C9.54847 4.82306 10.0871 4.57285 10.4368 4.34488C10.7927 4.11285 10.8125 3.9932 10.8125 3.93752C10.8125 3.88184 10.7927 3.76219 10.4368 3.53016C10.0871 3.30219 9.54847 3.05198 8.76917 2.69176L7.77469 2.23208C6.77422 1.76963 6.39378 1.60419 6 1.60419Z" fill="#161616"/>
<path d="M1.1272 6.11685C1.32412 6.25688 1.37024 6.53002 1.23021 6.72694C1.1949 6.77661 1.1875 6.81015 1.1875 6.84307C1.1875 6.89162 1.20322 7.00804 1.56084 7.23786C1.91064 7.46266 2.44941 7.70938 3.22867 8.06445L4.22314 8.51759C5.22303 8.97319 5.60464 9.13695 6 9.13695C6.39536 9.13695 6.77696 8.97319 7.77686 8.51759L8.77133 8.06445C9.55059 7.70938 10.0894 7.46266 10.4392 7.23786C10.7968 7.00804 10.8125 6.89162 10.8125 6.84307C10.8125 6.81016 10.8051 6.77661 10.7698 6.72694C10.6298 6.53002 10.6759 6.25688 10.8728 6.11686C11.0697 5.97683 11.3429 6.02295 11.4829 6.21987C11.6124 6.40208 11.6875 6.61021 11.6875 6.84307C11.6875 7.36727 11.3203 7.71168 10.9122 7.97396C10.5027 8.23715 9.90516 8.50939 9.16884 8.84488L8.04805 9.35559C7.17307 9.7546 6.60872 10.012 6 10.012C5.39128 10.012 4.82693 9.7546 3.95194 9.35559L2.83117 8.84488C2.09485 8.5094 1.49733 8.23715 1.08779 7.97396C0.679655 7.71168 0.3125 7.36727 0.3125 6.84307C0.3125 6.61021 0.387549 6.40208 0.517118 6.21987C0.657141 6.02295 0.930285 5.97683 1.1272 6.11685Z" fill="#161616"/>
<path d="M1.38618 9.83082C1.57518 9.68028 1.60637 9.40503 1.45583 9.21603C1.30529 9.02703 1.03004 8.99585 0.841043 9.14639C0.545715 9.38161 0.3125 9.6868 0.3125 10.102C0.3125 10.6262 0.679655 10.9706 1.08779 11.2329C1.49733 11.4961 2.09485 11.7683 2.83117 12.1038L3.95194 12.6145C4.82693 13.0135 5.39128 13.2709 6 13.2709C6.60872 13.2709 7.17307 13.0135 8.04805 12.6145L9.16883 12.1038C9.90515 11.7683 10.5027 11.4961 10.9122 11.2329C11.3203 10.9706 11.6875 10.6262 11.6875 10.102C11.6875 9.6868 11.4543 9.38161 11.159 9.14639C10.97 8.99585 10.6947 9.02703 10.5442 9.21603C10.3936 9.40503 10.4248 9.68028 10.6138 9.83082C10.8033 9.98174 10.8125 10.0614 10.8125 10.102C10.8125 10.1505 10.7968 10.2669 10.4392 10.4968C10.0894 10.7216 9.55059 10.9683 8.77133 11.3234L7.77686 11.7765C6.77696 12.2321 6.39536 12.3959 6 12.3959C5.60464 12.3959 5.22303 12.2321 4.22314 11.7765L3.22867 11.3234C2.44941 10.9683 1.91064 10.7216 1.56084 10.4968C1.20322 10.2669 1.1875 10.1505 1.1875 10.102C1.1875 10.0614 1.19669 9.98174 1.38618 9.83082Z" fill="#161616"/>
</g>
</g>
</svg>
