<svg width="16" height="16" viewBox="0 0 16 16" fill="none" xmlns="http://www.w3.org/2000/svg">
<path d="M6.35374 5.64638C6.15848 5.45111 5.8419 5.45109 5.64663 5.64635C5.45136 5.8416 5.45134 6.15818 5.64659 6.35345L7.29309 8.00013L5.64702 9.64638C5.45177 9.84166 5.45178 10.1582 5.64706 10.3535C5.84233 10.5487 6.15891 10.5487 6.35416 10.3535L8.00016 8.70728L9.64616 10.3535C9.84142 10.5487 10.158 10.5487 10.3533 10.3535C10.5485 10.1582 10.5486 9.84166 10.3533 9.64638L8.70723 8.00013L10.3537 6.35345C10.549 6.15818 10.549 5.8416 10.3537 5.64635C10.1584 5.45109 9.84184 5.45111 9.64659 5.64638L8.00016 7.29299L6.35374 5.64638Z" fill="#384250"/>
<path fill-rule="evenodd" clip-rule="evenodd" d="M8.00016 15.1666C4.04212 15.1666 0.833496 11.958 0.833496 7.99992C0.833496 4.04188 4.04212 0.833252 8.00016 0.833252C11.9582 0.833252 15.1668 4.04188 15.1668 7.99992C15.1668 11.958 11.9582 15.1666 8.00016 15.1666ZM1.8335 7.99992C1.8335 11.4057 4.59441 14.1666 8.00016 14.1666C11.4059 14.1666 14.1668 11.4057 14.1668 7.99992C14.1668 4.59416 11.4059 1.83325 8.00016 1.83325C4.59441 1.83325 1.8335 4.59416 1.8335 7.99992Z" fill="#384250"/>
</svg>
