<svg width="14" height="14" viewBox="0 0 14 14" fill="none" xmlns="http://www.w3.org/2000/svg">
<g id="elements">
<g id="Icon">
<path d="M5.55946 4.94068C5.38861 4.76981 5.1116 4.7698 4.94074 4.94064C4.76987 5.11149 4.76986 5.3885 4.94071 5.55936L6.3814 7.00021L4.94108 8.44068C4.77023 8.61154 4.77025 8.88855 4.94111 9.0594C5.11198 9.23024 5.38899 9.23023 5.55983 9.05936L7.00008 7.61896L8.44033 9.05936C8.61118 9.23023 8.88819 9.23024 9.05905 9.0594C9.22991 8.88855 9.22993 8.61154 9.05908 8.44068L7.61877 7.00021L9.05946 5.55936C9.2303 5.3885 9.23029 5.11149 9.05942 4.94064C8.88856 4.7698 8.61155 4.76981 8.4407 4.94068L7.00008 6.38146L5.55946 4.94068Z" fill="#912018"/>
<path fill-rule="evenodd" clip-rule="evenodd" d="M7.00008 13.2709C3.5368 13.2709 0.729248 10.4633 0.729248 7.00002C0.729248 3.53673 3.5368 0.729187 7.00008 0.729187C10.4634 0.729187 13.2709 3.53673 13.2709 7.00002C13.2709 10.4633 10.4634 13.2709 7.00008 13.2709ZM1.60425 7.00002C1.60425 9.98006 4.02004 12.3959 7.00008 12.3959C9.98012 12.3959 12.3959 9.98006 12.3959 7.00002C12.3959 4.01998 9.98012 1.60419 7.00008 1.60419C4.02004 1.60419 1.60425 4.01998 1.60425 7.00002Z" fill="#912018"/>
</g>
</g>
</svg>
