<svg width="16" height="16" viewBox="0 0 16 16" fill="none" xmlns="http://www.w3.org/2000/svg">
<path d="M0.833008 8.00016C0.833008 4.04212 4.04163 0.833496 7.99967 0.833496C11.2119 0.833496 13.8977 2.94563 14.81 5.85034C14.8577 6.00221 14.8302 6.16772 14.736 6.29604C14.6418 6.42436 14.4922 6.50016 14.333 6.50016H12.6663C12.3902 6.50016 12.1663 6.27631 12.1663 6.00016C12.1663 5.72402 12.3902 5.50016 12.6663 5.50016H13.6112C12.6554 3.33787 10.5128 1.8335 7.99967 1.8335C4.59392 1.8335 1.83301 4.59441 1.83301 8.00016C1.83301 11.4059 4.5939 14.1668 7.99965 14.1668C8.27579 14.1668 8.49965 14.3907 8.49965 14.6668C8.49965 14.943 8.27579 15.1668 7.99965 15.1668C4.04161 15.1668 0.833008 11.9582 0.833008 8.00016Z" fill="#384250"/>
<path d="M7.99965 4.8335C8.27579 4.8335 8.49965 5.05735 8.49965 5.3335V7.79306L9.68654 8.97994C9.8818 9.17521 9.8818 9.49179 9.68654 9.68705C9.49127 9.88231 9.17469 9.88231 8.97943 9.68705L7.6461 8.35372C7.55233 8.25995 7.49965 8.13277 7.49965 8.00016V5.3335C7.49965 5.05735 7.72351 4.8335 7.99965 4.8335Z" fill="#384250"/>
<path d="M15.1663 8.00016C15.1663 7.72402 14.9425 7.50016 14.6663 7.50016C14.3902 7.50016 14.1663 7.72402 14.1663 8.00016C14.1663 8.20999 14.1569 8.41736 14.1384 8.62185C14.1135 8.89687 14.3164 9.13996 14.5914 9.1648C14.8664 9.18964 15.1095 8.98683 15.1343 8.71181C15.1555 8.47745 15.1663 8.24006 15.1663 8.00016Z" fill="#384250"/>
<path d="M14.6709 10.7406C14.7682 10.4821 14.6377 10.1937 14.3792 10.0964C14.1208 9.99907 13.8324 10.1296 13.7351 10.3881C13.6424 10.6342 13.5358 10.8729 13.4163 11.1032C13.2891 11.3483 13.3846 11.6501 13.6297 11.7773C13.8748 11.9045 14.1766 11.8089 14.3038 11.5638C14.4415 11.2986 14.5642 11.0238 14.6709 10.7406Z" fill="#384250"/>
<path d="M13.1453 13.2113C13.3332 13.0089 13.3214 12.6925 13.119 12.5047C12.9166 12.3168 12.6002 12.3286 12.4124 12.531C12.2234 12.7346 12.0218 12.9251 11.8092 13.1011C11.5964 13.2772 11.5667 13.5924 11.7427 13.8051C11.9188 14.0178 12.234 14.0476 12.4467 13.8715C12.6934 13.6674 12.9267 13.4468 13.1453 13.2113Z" fill="#384250"/>
<path d="M10.8745 14.8599C11.1255 14.745 11.2359 14.4483 11.1209 14.1972C11.006 13.9461 10.7092 13.8358 10.4582 13.9507C10.2584 14.0422 10.0532 14.1228 9.84332 14.1919C9.58103 14.2782 9.43838 14.5609 9.52471 14.8232C9.61105 15.0855 9.89367 15.2281 10.156 15.1418C10.4015 15.0609 10.6413 14.9667 10.8745 14.8599Z" fill="#384250"/>
</svg>
