<svg width="21" height="20" viewBox="0 0 21 20" fill="none" xmlns="http://www.w3.org/2000/svg">
<path fill-rule="evenodd" clip-rule="evenodd" d="M9.66545 18.9583H9.43878C6.59295 18.9583 5.16379 18.9583 4.05795 18.1774C3.74129 17.9533 3.45961 17.6891 3.21961 17.3933C2.37378 16.3258 2.37378 14.9724 2.37378 12.2749V10.1499C2.37378 7.60744 2.37379 6.33163 2.80795 5.22913C3.50379 3.47496 4.96711 2.09574 6.82295 1.44324C7.86344 1.07956 9.06926 1.04521 11.2854 1.04196C11.3015 1.04174 11.3176 1.04163 11.3337 1.04163C11.3397 1.04163 11.3457 1.04171 11.3516 1.04188C11.5626 1.04163 11.7828 1.04163 12.0127 1.04163H12.0138C13.5812 1.04163 14.3688 1.04163 15.0671 1.28495C16.2021 1.68745 17.0963 2.5316 17.523 3.6016C17.7904 4.28159 17.7904 5.02821 17.7904 6.51651V10.8333C17.7904 11.1783 17.5104 11.4583 17.1654 11.4583C16.8204 11.4583 16.5404 11.1783 16.5404 10.8333V6.51656C16.5404 5.18668 16.5404 4.51827 16.3605 4.06246C16.068 3.32913 15.4446 2.7449 14.6521 2.46407C14.1573 2.29163 13.4409 2.29163 12.0152 2.29163H12.0128C11.7621 2.29163 11.5236 2.29163 11.2966 2.29194C10.127 2.31183 9.18124 3.26818 9.18124 4.44161C9.18124 4.57603 9.18791 4.72079 9.19496 4.87386C9.19539 4.88307 9.19581 4.89231 9.19624 4.90157L9.19648 4.90678C9.21725 5.35966 9.24075 5.87176 9.11291 6.35242C8.92707 7.05158 8.37958 7.59907 7.68375 7.77991C7.20608 7.90513 6.69128 7.88352 6.23625 7.86442L6.20314 7.86303C6.05286 7.85675 5.91018 7.85079 5.77791 7.85079C4.59125 7.85079 3.62541 8.81494 3.62541 10.0008C3.62541 10.016 3.62486 10.0312 3.62378 10.0462C3.62378 10.0805 3.62378 10.1151 3.62378 10.1499V12.2749C3.62378 14.6824 3.62378 15.8908 4.19544 16.6116C4.35878 16.8133 4.55711 16.9983 4.77961 17.1566C5.56045 17.7083 6.85628 17.7083 9.43795 17.7083H9.66545C10.0104 17.7083 10.2904 17.9883 10.2904 18.3333C10.2904 18.6783 10.0104 18.9583 9.66545 18.9583ZM3.66845 7.334C4.24873 6.87453 4.98189 6.59989 5.77791 6.59989C5.94541 6.59989 6.11708 6.60745 6.28374 6.61495L6.28671 6.61508C6.67162 6.63171 7.06951 6.64889 7.36708 6.57076C7.62874 6.50243 7.83374 6.29662 7.90457 6.03162C7.98374 5.73578 7.96541 5.34159 7.94707 4.95992C7.93874 4.78992 7.93124 4.61328 7.93124 4.44161C7.93124 3.65746 8.19826 2.93453 8.64616 2.35877C8.07592 2.40597 7.62819 2.48635 7.23711 2.62325C5.72378 3.15492 4.53295 4.27242 3.97045 5.68909C3.79887 6.12463 3.71221 6.63774 3.66845 7.334Z" fill="white"/>
<path d="M15.9171 18.125C15.7537 18.125 15.5904 18.0616 15.4679 17.935C15.2279 17.6866 15.2337 17.2916 15.4821 17.0508C15.6179 16.9191 15.8212 16.7591 16.0787 16.5574L16.083 16.5541C16.239 16.4314 16.4817 16.2407 16.7171 16.0417H11.3337C10.9887 16.0417 10.7087 15.7617 10.7087 15.4167C10.7087 15.0717 10.9887 14.7917 11.3337 14.7917H16.7171C16.4796 14.5908 16.2346 14.3975 16.0787 14.2758C15.8212 14.0741 15.6179 13.9141 15.4821 13.7825C15.2337 13.5425 15.2279 13.1466 15.4679 12.8983C15.7079 12.6508 16.1037 12.6441 16.3521 12.8841C16.4373 12.9669 16.623 13.113 16.8234 13.2706L16.8512 13.2925C17.8904 14.1075 18.6254 14.7375 18.6262 15.4167C18.6262 16.0967 17.8904 16.7267 16.8512 17.5417C16.6404 17.7067 16.4412 17.8633 16.3521 17.9499C16.2304 18.0674 16.0737 18.125 15.9171 18.125Z" fill="white"/>
</svg>
