<svg xmlns="http://www.w3.org/2000/svg" version="1.1" xmlns:xlink="http://www.w3.org/1999/xlink" width="512" height="512" x="0" y="0" viewBox="0 0 24 24" style="enable-background:new 0 0 512 512" xml:space="preserve" class=""><g><path d="m20.53 8.47-6-6a.747.747 0 0 0-.53-.22H8A3.383 3.383 0 0 0 4.25 6v12A3.383 3.383 0 0 0 8 21.75h9A3.383 3.383 0 0 0 20.75 18V9a.747.747 0 0 0-.22-.53zm-5.78-3.659 3.439 3.439H17c-1.577 0-2.25-.673-2.25-2.25zM17 20.25H8c-1.577 0-2.25-.673-2.25-2.25V6c0-1.577.673-2.25 2.25-2.25h5.25V6A3.383 3.383 0 0 0 17 9.75h2.25V18c0 1.577-.673 2.25-2.25 2.25zm-2.308-4.963a.755.755 0 0 1-.162.243l-2 2a.75.75 0 0 1-1.06-1.06l.719-.72H9a.75.75 0 0 1 0-1.5h3.189l-.719-.72a.75.75 0 0 1 1.06-1.06l2 2a.771.771 0 0 1 .162.244.751.751 0 0 1 0 .573z" fill="#ffffff" opacity="1" data-original="#000000" class=""></path></g></svg>