<svg width="24" height="24" viewBox="0 0 24 24" fill="none" xmlns="http://www.w3.org/2000/svg">
<path fill-rule="evenodd" clip-rule="evenodd" d="M10.9985 22.75H10.7265C7.31154 22.75 5.59654 22.75 4.26954 21.813C3.88954 21.544 3.55154 21.227 3.26354 20.872C2.24854 19.591 2.24854 17.967 2.24854 14.73V12.18C2.24854 9.12898 2.24854 7.598 2.76954 6.275C3.60454 4.17 5.36054 2.51493 7.58754 1.73193C8.83613 1.29552 10.2831 1.2543 12.9424 1.25041C12.9618 1.25014 12.9811 1.25 13.0005 1.25C13.0077 1.25 13.0148 1.2501 13.0219 1.2503C13.2752 1.25 13.5393 1.25 13.8152 1.25H13.8165C15.6974 1.25 16.6426 1.25 17.4805 1.54199C18.8425 2.02499 19.9155 3.03797 20.4275 4.32197C20.7485 5.13796 20.7485 6.0339 20.7485 7.81986V13C20.7485 13.414 20.4125 13.75 19.9985 13.75C19.5845 13.75 19.2485 13.414 19.2485 13V7.81992C19.2485 6.22406 19.2485 5.42198 19.0325 4.875C18.6815 3.995 17.9335 3.29393 16.9825 2.95693C16.3887 2.75 15.5291 2.75 13.8182 2.75H13.8154C13.5145 2.75 13.2284 2.75 12.9559 2.75038C11.5524 2.77424 10.4175 3.92187 10.4175 5.32998C10.4175 5.49128 10.4255 5.66499 10.434 5.84869C10.4345 5.85973 10.435 5.87082 10.4355 5.88193L10.4358 5.88818C10.4607 6.43165 10.4889 7.04616 10.3355 7.62295C10.1125 8.46195 9.4555 9.11894 8.6205 9.33594C8.0473 9.4862 7.42954 9.46027 6.8835 9.43735L6.84377 9.43569C6.66343 9.42815 6.49222 9.421 6.3335 9.421C4.9095 9.421 3.75049 10.578 3.75049 12.001C3.75049 12.0193 3.74983 12.0375 3.74854 12.0555C3.74854 12.0967 3.74854 12.1382 3.74854 12.18V14.73C3.74854 17.619 3.74854 19.069 4.43453 19.934C4.63053 20.176 4.86853 20.398 5.13553 20.588C6.07253 21.25 7.62754 21.25 10.7255 21.25H10.9985C11.4125 21.25 11.7485 21.586 11.7485 22C11.7485 22.414 11.4125 22.75 10.9985 22.75ZM3.80213 8.80085C4.49848 8.24948 5.37826 7.91992 6.3335 7.91992C6.5345 7.91992 6.74049 7.92899 6.94049 7.93799L6.94405 7.93814C7.40594 7.9581 7.88341 7.97872 8.24049 7.88496C8.55449 7.80296 8.80049 7.55599 8.88549 7.23799C8.98049 6.88299 8.95849 6.40995 8.93649 5.95195C8.92649 5.74795 8.91749 5.53598 8.91749 5.32998C8.91749 4.389 9.23791 3.52149 9.77539 2.83057C9.09111 2.88721 8.55383 2.98367 8.08453 3.14795C6.26853 3.78595 4.83954 5.12695 4.16454 6.82695C3.95865 7.3496 3.85466 7.96534 3.80213 8.80085Z" fill="#161616"/>
<path d="M18.5005 21.75C18.3045 21.75 18.1085 21.674 17.9615 21.522C17.6735 21.224 17.6805 20.75 17.9785 20.461C18.1415 20.303 18.3855 20.111 18.6945 19.869L18.6996 19.8649C18.8869 19.7178 19.1781 19.4888 19.4605 19.25H13.0005C12.5865 19.25 12.2505 18.914 12.2505 18.5C12.2505 18.086 12.5865 17.75 13.0005 17.75H19.4605C19.1755 17.509 18.8815 17.277 18.6945 17.131C18.3855 16.889 18.1415 16.697 17.9785 16.539C17.6805 16.251 17.6735 15.776 17.9615 15.478C18.2495 15.181 18.7245 15.173 19.0225 15.461C19.1248 15.5604 19.3476 15.7357 19.5881 15.9247L19.6215 15.951C20.8685 16.929 21.7505 17.685 21.7515 18.5C21.7515 19.316 20.8685 20.072 19.6215 21.05C19.3685 21.248 19.1295 21.436 19.0225 21.54C18.8765 21.681 18.6885 21.75 18.5005 21.75Z" fill="#161616"/>
</svg>
