<svg width="24" height="25" viewBox="0 0 24 25" fill="none" xmlns="http://www.w3.org/2000/svg">
<path fill-rule="evenodd" clip-rule="evenodd" d="M12 16.0508C9.92893 16.0508 8.25 14.3718 8.25 12.3008C8.25 10.2297 9.92893 8.55078 12 8.55078C14.0711 8.55078 15.75 10.2297 15.75 12.3008C15.75 14.3718 14.0711 16.0508 12 16.0508ZM9.75 12.3008C9.75 13.5434 10.7574 14.5508 12 14.5508C13.2426 14.5508 14.25 13.5434 14.25 12.3008C14.25 11.0581 13.2426 10.0508 12 10.0508C10.7574 10.0508 9.75 11.0581 9.75 12.3008Z" fill="#161616"/>
<path fill-rule="evenodd" clip-rule="evenodd" d="M12 4.55078C9.42944 4.55078 7.22595 5.68219 5.52031 7.01377C3.81313 8.34654 2.55126 9.92052 1.84541 10.9103L1.79219 10.9845C1.53904 11.3366 1.25 11.7386 1.25 12.3008C1.25 12.863 1.53904 13.265 1.79219 13.617L1.84541 13.6913C2.55126 14.681 3.81313 16.255 5.52031 17.5878C7.22595 18.9194 9.42944 20.0508 12 20.0508C14.5706 20.0508 16.774 18.9194 18.4797 17.5878C20.1869 16.255 21.4487 14.681 22.1546 13.6913L22.2078 13.617C22.461 13.265 22.75 12.863 22.75 12.3008C22.75 11.7386 22.461 11.3366 22.2078 10.9845L22.1546 10.9103C21.4487 9.92052 20.1869 8.34654 18.4797 7.01376C16.774 5.68219 14.5706 4.55078 12 4.55078ZM3.06667 11.7812C3.72687 10.8555 4.89238 9.40696 6.44336 8.19612C7.99587 6.98409 9.88134 6.05078 12 6.05078C14.1187 6.05078 16.0041 6.98409 17.5566 8.19612C19.1076 9.40696 20.2731 10.8555 20.9333 11.7812C21.0967 12.0103 21.1744 12.1221 21.2207 12.2111C21.2502 12.2677 21.2501 12.2832 21.25 12.2984L21.25 12.3008L21.25 12.3032C21.2501 12.3184 21.2502 12.3339 21.2207 12.3905C21.1744 12.4795 21.0967 12.5913 20.9333 12.8203C20.2731 13.7461 19.1076 15.1946 17.5566 16.4054C16.0041 17.6175 14.1187 18.5508 12 18.5508C9.88134 18.5508 7.99588 17.6175 6.44336 16.4054C4.89238 15.1946 3.72687 13.7461 3.06667 12.8203C2.90335 12.5913 2.82562 12.4795 2.77928 12.3905C2.74983 12.3339 2.74991 12.3184 2.74999 12.3032L2.75 12.3008L2.74999 12.2984C2.74991 12.2832 2.74983 12.2677 2.77928 12.2111C2.82562 12.1221 2.90335 12.0103 3.06667 11.7812Z" fill="#161616"/>
</svg>
