<svg width="24" height="24" viewBox="0 0 24 24" fill="none" xmlns="http://www.w3.org/2000/svg">
<path fill-rule="evenodd" clip-rule="evenodd" d="M6.03142 2.25H5.96858H5.96857C5.2952 2.24999 4.74449 2.24998 4.29693 2.28655C3.83367 2.3244 3.41527 2.40514 3.02453 2.60423C2.413 2.91582 1.91582 3.413 1.60423 4.02453C1.40514 4.41527 1.3244 4.83367 1.28655 5.29693C1.24998 5.74449 1.24999 6.2952 1.25 6.96857V6.96858V7V17.0314V17.0314C1.24999 17.7048 1.24998 18.2555 1.28655 18.7031C1.3244 19.1663 1.40514 19.5847 1.60423 19.9755C1.91582 20.587 2.413 21.0842 3.02453 21.3958C3.41527 21.5949 3.83367 21.6756 4.29693 21.7134C4.74449 21.75 5.29519 21.75 5.96856 21.75H6.03144C6.70481 21.75 7.25551 21.75 7.70307 21.7134C8.16633 21.6756 8.58473 21.5949 8.97547 21.3958C9.587 21.0842 10.0842 20.587 10.3958 19.9755C10.5949 19.5847 10.6756 19.1663 10.7134 18.7031C10.75 18.2555 10.75 17.7048 10.75 17.0315V17.0314L10.75 8.55932L13.2668 17.9914L13.2668 17.9915C13.4374 18.6308 13.5771 19.1543 13.7253 19.5705C13.8787 20.0015 14.0617 20.38 14.3507 20.7023C14.8024 21.206 15.4017 21.5537 16.063 21.6948C16.4864 21.7852 16.9054 21.755 17.3544 21.6728C17.7877 21.5935 18.3093 21.4532 18.9457 21.2819L19.0065 21.2656L19.0066 21.2655L19.0066 21.2655L19.0067 21.2655C19.6431 21.0943 20.1646 20.954 20.5794 20.8051C21.0091 20.6508 21.3867 20.4667 21.7079 20.1763C22.2097 19.7226 22.5551 19.1215 22.6952 18.4593C22.7849 18.0357 22.755 17.6164 22.6733 17.1661C22.5944 16.7313 22.4547 16.2079 22.2841 15.5686L22.2841 15.5684L22.284 15.5683L19.7332 6.00857C19.5626 5.3692 19.4229 4.84571 19.2747 4.42946C19.1213 3.99851 18.9383 3.61998 18.6493 3.29771C18.1976 2.79397 17.5983 2.44631 16.937 2.30516C16.5135 2.21478 16.0946 2.24499 15.6456 2.32715C15.2122 2.40647 14.6906 2.54682 14.0542 2.71808L13.9935 2.73441C13.357 2.90566 12.8354 3.04599 12.4206 3.1949C11.9908 3.34917 11.6133 3.53327 11.2921 3.82372C11.0214 4.06848 10.7962 4.35616 10.6242 4.67319C10.5739 4.44744 10.5015 4.23209 10.3958 4.02453C10.0842 3.413 9.587 2.91582 8.97547 2.60423C8.58473 2.40514 8.16633 2.3244 7.70307 2.28655C7.25551 2.24998 6.7048 2.24999 6.03143 2.25H6.03142ZM2.75 17V7.75H9.25V17C9.25 17.7124 9.24942 18.2017 9.21843 18.5809C9.18816 18.9514 9.13265 19.1504 9.05926 19.2945C8.89148 19.6238 8.62377 19.8915 8.29448 20.0593C8.15044 20.1327 7.95142 20.1882 7.58092 20.2184C7.20167 20.2494 6.71244 20.25 6 20.25C5.28756 20.25 4.79833 20.2494 4.41908 20.2184C4.04858 20.1882 3.84956 20.1327 3.70552 20.0593C3.37623 19.8915 3.10852 19.6238 2.94074 19.2945C2.86735 19.1504 2.81184 18.9514 2.78157 18.5809C2.75058 18.2017 2.75 17.7124 2.75 17ZM2.75214 6.25H9.24786C9.24475 5.91648 9.23712 5.64778 9.21843 5.41908C9.18816 5.04858 9.13265 4.84956 9.05926 4.70552C8.89148 4.37623 8.62377 4.10852 8.29448 3.94074C8.15044 3.86735 7.95142 3.81184 7.58092 3.78157C7.20167 3.75058 6.71244 3.75 6 3.75C5.28756 3.75 4.79833 3.75058 4.41908 3.78157C4.04858 3.81184 3.84956 3.86735 3.70552 3.94074C3.37623 4.10852 3.10852 4.37623 2.94074 4.70552C2.86735 4.84956 2.81184 5.04858 2.78157 5.41908C2.76288 5.64778 2.75525 5.91648 2.75214 6.25ZM6 16C5.44772 16 5 16.4477 5 17C5 17.5523 5.44772 18 6 18H6.00898C6.56127 18 7.00898 17.5523 7.00898 17C7.00898 16.4477 6.56127 16 6.00898 16H6ZM14.4136 4.17473C15.0878 3.99331 15.5499 3.86958 15.9157 3.80265C16.2727 3.7373 16.4723 3.73977 16.6239 3.77212C16.9741 3.84686 17.2922 4.03112 17.5325 4.29909C17.6369 4.41547 17.7392 4.58878 17.8616 4.93252C17.9074 5.06132 17.9532 5.20516 18.0016 5.36896L11.9517 7.23059C11.8868 6.97246 11.8371 6.75628 11.8026 6.56601C11.7374 6.20693 11.7397 6.00509 11.7722 5.85129C11.8471 5.49772 12.0314 5.17752 12.2981 4.93635C12.4137 4.83183 12.5857 4.72935 12.9274 4.60669C13.2775 4.48102 13.7393 4.35615 14.4136 4.17473ZM12.3352 8.682L14.708 17.5745C14.8887 18.2514 15.0131 18.7156 15.1384 19.0675C15.2608 19.4112 15.3631 19.5845 15.4675 19.7009C15.7078 19.9689 16.0259 20.1531 16.3761 20.2279C16.5276 20.2602 16.7273 20.2627 17.0843 20.1973C17.45 20.1304 17.9122 20.0067 18.5864 19.8252C19.2607 19.6438 19.7225 19.519 20.0726 19.3933C20.4143 19.2706 20.5863 19.1681 20.7019 19.0636C20.9686 18.8225 21.1529 18.5023 21.2278 18.1487C21.2603 17.9949 21.2626 17.793 21.1974 17.434C21.1307 17.0663 21.0073 16.6019 20.8267 15.9249L18.3964 6.81689L12.3352 8.682ZM16.8135 16.9503C16.6706 16.4168 16.9871 15.8685 17.5206 15.7256L17.5293 15.7232C18.0628 15.5803 18.6111 15.8969 18.754 16.4303C18.897 16.9638 18.5804 17.5121 18.0469 17.6551L18.0383 17.6574C17.5048 17.8003 16.9564 17.4838 16.8135 16.9503Z" fill="#161616"/>
</svg>
