<svg width="24" height="25" viewBox="0 0 24 25" fill="none" xmlns="http://www.w3.org/2000/svg">
<path d="M4.93093 24.9456H14.1024C16.0571 24.9456 16.9828 23.9538 16.9828 21.9798V20.2326H18.8248C20.7705 20.2326 21.7434 19.2408 21.7434 17.2668V9.36098C21.7434 8.19956 21.5162 7.46241 20.8082 6.73556L16.0382 1.8807C15.3585 1.19113 14.5742 0.945557 13.5636 0.945557H9.70093C7.75522 0.945557 6.7725 1.93727 6.7725 3.91127V5.65856H4.93093C2.98522 5.65856 2.00293 6.65027 2.00293 8.62427V21.9798C2.00293 23.9633 2.98522 24.9456 4.93093 24.9456ZM16.9828 14.3671C16.9828 13.1581 16.8414 12.6293 16.0858 11.8544L10.8812 6.55641C10.1634 5.81927 9.5685 5.65899 8.50136 5.65899H8.2935V3.93013C8.2935 3.00441 8.8035 2.46613 9.77636 2.46613H13.7621V7.40584C13.7621 8.49227 14.3004 9.02113 15.3774 9.02113H20.2228V17.248C20.2228 18.1827 19.7218 18.712 18.7399 18.712H16.9828V14.3671ZM15.6041 7.65141C15.2638 7.65141 15.1318 7.50998 15.1318 7.17956V2.76827L19.9296 7.65141H15.6041ZM5.00593 23.425C4.03307 23.425 3.52307 22.8961 3.52307 21.9516V8.6427C3.52307 7.71698 4.03307 7.17913 5.01536 7.17913H8.29307V12.6571C8.29307 13.8473 8.89736 14.4327 10.0686 14.4327H15.4618V21.9511C15.4618 22.8957 14.9518 23.4246 13.9695 23.4246L5.00593 23.425ZM10.2482 13.0068C9.87022 13.0068 9.71936 12.856 9.71936 12.4874V7.4727L15.1691 13.0073L10.2482 13.0068Z" fill="#161616"/>
</svg>
