<svg width="20" height="20" viewBox="0 0 20 20" fill="none" xmlns="http://www.w3.org/2000/svg">
<path fill-rule="evenodd" clip-rule="evenodd" d="M7.70866 7.50002C7.70866 8.76567 8.73467 9.79169 10.0003 9.79169C11.266 9.79169 12.292 8.76567 12.292 7.50002C12.292 6.23437 11.266 5.20835 10.0003 5.20835C8.73467 5.20835 7.70866 6.23437 7.70866 7.50002ZM10.0003 8.54169C9.42503 8.54169 8.95866 8.07532 8.95866 7.50002C8.95866 6.92472 9.42503 6.45835 10.0003 6.45835C10.5756 6.45835 11.042 6.92472 11.042 7.50002C11.042 8.07532 10.5756 8.54169 10.0003 8.54169Z" fill="#F9FAFB"/>
<path fill-rule="evenodd" clip-rule="evenodd" d="M9.82134 1.06786C9.9381 1.03296 10.0625 1.03296 10.1793 1.06786C11.623 1.49935 13.537 2.69078 14.672 4.87454C15.2212 5.93116 15.577 7.19833 15.6207 8.69264C17.4345 9.28929 18.2862 10.6201 18.6628 11.8109C18.8639 12.4468 18.9326 13.0456 18.952 13.4825C18.9618 13.7021 18.9593 13.8841 18.9541 14.0135C18.9515 14.0782 18.9482 14.1301 18.9454 14.1672L18.9438 14.1883L18.9417 14.2116L18.9405 14.2252L18.94 14.2297L18.9398 14.2314C18.9398 14.2317 18.9397 14.2327 18.3182 14.1669L18.9397 14.2327C18.9162 14.4542 18.7766 14.6465 18.5732 14.7374C18.3699 14.8283 18.1335 14.8041 17.9528 14.6739C17.0947 14.0555 15.8837 13.7426 14.7869 13.6144C14.7002 13.8694 14.6061 14.1285 14.5045 14.3918C14.4395 14.56 14.305 14.692 14.1356 14.7538C13.9662 14.8156 13.7783 14.8013 13.6203 14.7144C13.2487 14.5101 11.9068 14.0104 10.0003 14.0104C8.09377 14.0104 6.75193 14.5101 6.38031 14.7144C6.22228 14.8013 6.03441 14.8156 5.865 14.7538C5.69558 14.692 5.56112 14.56 5.49616 14.3918C5.3945 14.1285 5.30043 13.8694 5.21368 13.6144C4.11691 13.7426 2.9059 14.0555 2.04789 14.6739C1.86717 14.8041 1.63078 14.8283 1.42741 14.7374C1.22404 14.6465 1.08443 14.4542 1.06095 14.2327L1.68247 14.1669C1.06095 14.2327 1.06099 14.233 1.06095 14.2327L1.06081 14.2314L1.06064 14.2297L1.06018 14.2252L1.0589 14.2116C1.05791 14.2006 1.05664 14.1857 1.05524 14.1672C1.05246 14.1301 1.04918 14.0782 1.04658 14.0135C1.04138 13.8841 1.03886 13.7021 1.04864 13.4825C1.0681 13.0456 1.13677 12.4468 1.33785 11.8109C1.71446 10.6201 2.56611 9.28931 4.37987 8.69265C4.42358 7.19833 4.7794 5.93116 5.3286 4.87454C6.46364 2.69078 8.37758 1.49935 9.82134 1.06786ZM4.42027 10.0142C4.48559 10.7603 4.62387 11.5553 4.84663 12.4009C4.04814 12.5095 3.15515 12.7143 2.33655 13.0802C2.37124 12.8066 2.4307 12.5008 2.52967 12.1879C2.79049 11.3631 3.31658 10.4984 4.42027 10.0142ZM15.154 12.4009C15.9525 12.5095 16.8455 12.7143 17.6641 13.0802C17.6294 12.8066 17.57 12.5008 17.471 12.1879C17.2102 11.3631 16.6841 10.4983 15.5803 10.0141C15.515 10.7603 15.3767 11.5553 15.154 12.4009ZM6.4385 13.3324C5.18135 9.72201 5.54219 7.17398 6.43773 5.45102C7.34606 3.70344 8.84892 2.71712 10.0003 2.32293C11.1517 2.71712 12.6546 3.70344 13.5629 5.45102C14.4584 7.17398 14.8193 9.72201 13.5621 13.3324C12.7805 13.052 11.5358 12.7604 10.0003 12.7604C8.46483 12.7604 7.22012 13.052 6.4385 13.3324Z" fill="#F9FAFB"/>
<path d="M7.81434 15.217C8.15466 15.1602 8.47654 15.39 8.53351 15.7302L8.53507 15.7384C8.53697 15.7483 8.54034 15.765 8.54542 15.7877C8.55559 15.8334 8.57246 15.9025 8.59782 15.9883C8.64896 16.1612 8.73229 16.3938 8.85988 16.6344C9.09788 17.0832 9.45642 17.5027 10.0004 17.684C10.5444 17.5027 10.903 17.0832 11.141 16.6344C11.2686 16.3938 11.3519 16.1612 11.403 15.9883C11.4284 15.9025 11.4453 15.8334 11.4554 15.7877C11.4605 15.765 11.4639 15.7483 11.4658 15.7384L11.4673 15.7302L11.4675 15.7293C11.5249 15.3896 11.8465 15.1603 12.1865 15.217C12.527 15.2737 12.757 15.5957 12.7003 15.9362L12.7001 15.9372L12.6999 15.9385L12.6993 15.9415L12.6979 15.9499L12.6931 15.9755C12.6891 15.9964 12.6833 16.0248 12.6755 16.0598C12.6599 16.1298 12.636 16.2266 12.6017 16.3427C12.5335 16.5734 12.4215 16.8877 12.2453 17.22C11.8963 17.8781 11.2557 18.6749 10.1463 18.9412C10.0504 18.9642 9.95044 18.9642 9.85457 18.9412C8.74518 18.6749 8.10454 17.8781 7.75555 17.22C7.57932 16.8877 7.46734 16.5734 7.39912 16.3427C7.3648 16.2266 7.34098 16.1298 7.32538 16.0598C7.31757 16.0248 7.31179 15.9964 7.30776 15.9755L7.30297 15.9499L7.30151 15.9415L7.30098 15.9385L7.30077 15.9372L7.30059 15.9362C7.24385 15.5957 7.47386 15.2737 7.81434 15.217Z" fill="#F9FAFB"/>
</svg>
