<svg width="24" height="24" viewBox="0 0 24 24" fill="none" xmlns="http://www.w3.org/2000/svg">
<g filter="url(#filter0_d_11443_10366)">
<path fill-rule="evenodd" clip-rule="evenodd" d="M12.75 21.75C17.7205 21.75 21.75 17.7205 21.75 12.75C21.75 7.77944 17.7205 3.75 12.75 3.75C7.77944 3.75 3.75 7.77944 3.75 12.75C3.75 17.7205 7.77944 21.75 12.75 21.75Z" fill="white"/>
</g>
<path fill-rule="evenodd" clip-rule="evenodd" d="M12.75 21.75C17.7205 21.75 21.75 17.7205 21.75 12.75C21.75 7.77944 17.7205 3.75 12.75 3.75C7.77944 3.75 3.75 7.77944 3.75 12.75C3.75 17.7205 7.77944 21.75 12.75 21.75ZM12.75 11.9318C12.2981 11.9318 11.9318 12.2981 11.9318 12.75V16.0227C11.9318 16.4746 12.2981 16.8409 12.75 16.8409C13.2019 16.8409 13.5682 16.4746 13.5682 16.0227V12.75C13.5682 12.2981 13.2019 11.9318 12.75 11.9318ZM12.75 8.65909C12.2981 8.65909 11.9318 9.02541 11.9318 9.47727C11.9318 9.92914 12.2981 10.2955 12.75 10.2955C13.2019 10.2955 13.5682 9.92914 13.5682 9.47727C13.5682 9.02541 13.2019 8.65909 12.75 8.65909Z" fill="#175CD3"/>
<defs>
<filter id="filter0_d_11443_10366" x="0.75" y="0.75" width="24" height="24" filterUnits="userSpaceOnUse" color-interpolation-filters="sRGB">
<feFlood flood-opacity="0" result="BackgroundImageFix"/>
<feColorMatrix in="SourceAlpha" type="matrix" values="0 0 0 0 0 0 0 0 0 0 0 0 0 0 0 0 0 0 127 0" result="hardAlpha"/>
<feOffset/>
<feGaussianBlur stdDeviation="1.5"/>
<feComposite in2="hardAlpha" operator="out"/>
<feColorMatrix type="matrix" values="0 0 0 0 0.121569 0 0 0 0 0.164706 0 0 0 0 0.215686 0 0 0 1 0"/>
<feBlend mode="normal" in2="BackgroundImageFix" result="effect1_dropShadow_11443_10366"/>
<feBlend mode="normal" in="SourceGraphic" in2="effect1_dropShadow_11443_10366" result="shape"/>
</filter>
</defs>
</svg>
