<svg width="20" height="20" viewBox="0 0 20 20" fill="none" xmlns="http://www.w3.org/2000/svg">
<path d="M13.3334 11.4582C13.6786 11.4582 13.9584 11.1783 13.9584 10.8332C13.9584 10.488 13.6786 10.2082 13.3334 10.2082H10.8334C10.4882 10.2082 10.2084 10.488 10.2084 10.8332C10.2084 11.1783 10.4882 11.4582 10.8334 11.4582H13.3334Z" fill="#1B8354"/>
<path d="M13.3334 14.7915C13.6786 14.7915 13.9584 14.5117 13.9584 14.1665C13.9584 13.8213 13.6786 13.5415 13.3334 13.5415L7.50008 13.5415C7.1549 13.5415 6.87508 13.8213 6.87508 14.1665C6.87508 14.5117 7.1549 14.7915 7.50008 14.7915H13.3334Z" fill="#1B8354"/>
<path fill-rule="evenodd" clip-rule="evenodd" d="M10.0448 18.9582H9.32001C7.99179 18.9582 6.94582 18.9582 6.11601 18.8717C5.26873 18.7834 4.57201 18.5992 3.976 18.1793C3.65783 17.9551 3.3741 17.6884 3.13402 17.3865C2.67995 16.8156 2.47966 16.1443 2.38433 15.3342C2.29173 14.5472 2.29174 13.5576 2.29175 12.3127V10.1286C2.29175 8.91332 2.29175 7.97016 2.34195 7.20902C2.39284 6.43752 2.4972 5.80966 2.72649 5.23107C3.42492 3.46866 4.89561 2.09267 6.7417 1.44462C7.89076 1.04125 9.3007 1.04135 11.7718 1.04154L12.0741 1.04152C13.4367 1.04124 14.2859 1.04106 14.9864 1.28699C16.1107 1.68164 17.012 2.52173 17.4411 3.60473C17.5867 3.97202 17.6492 4.36194 17.6791 4.81604C17.7084 5.25985 17.7084 5.80612 17.7084 6.49306V11.7161C17.7084 13.2454 17.7084 14.4606 17.5725 15.4125C17.4319 16.3967 17.1351 17.1903 16.4744 17.812C15.8192 18.4288 14.9918 18.7013 13.9647 18.8312C12.961 18.9582 11.6765 18.9582 10.0448 18.9582ZM13.8078 17.5911C14.7096 17.477 15.2357 17.2614 15.6177 16.9018C15.9944 16.5472 16.2163 16.067 16.335 15.2357C16.4569 14.3825 16.4584 13.2566 16.4584 11.6665V6.51503C16.4584 5.80127 16.4581 5.29617 16.4319 4.89831C16.406 4.50603 16.3568 4.26145 16.2791 4.06525C15.9903 3.33652 15.3732 2.74753 14.5724 2.46643C14.0996 2.30047 13.484 2.29154 11.9319 2.29154C11.6648 2.29154 11.4126 2.29163 11.1741 2.29211C10.0207 2.33245 9.09795 3.28025 9.09795 4.44355C9.09795 4.56616 9.10334 4.69798 9.11021 4.84598L9.11278 4.90082C9.11884 5.0299 9.12545 5.17043 9.12836 5.31052C9.13493 5.62727 9.12493 5.99688 9.02933 6.35367C8.84311 7.04865 8.30027 7.59149 7.60529 7.77771C7.2485 7.87331 6.87889 7.88331 6.56214 7.87674C6.42205 7.87383 6.28158 7.86723 6.1525 7.86116L6.0976 7.85859C5.9496 7.85172 5.81778 7.84633 5.69517 7.84633C4.50623 7.84633 3.5424 8.81016 3.5424 9.99911C3.5424 10.0087 3.54218 10.0182 3.54175 10.0277C3.54175 10.0686 3.54175 10.1098 3.54175 10.1514V12.2726C3.54175 13.5666 3.54276 14.4826 3.62577 15.1881C3.70705 15.8789 3.85996 16.2911 4.11231 16.6084C4.27703 16.8155 4.47336 17.0006 4.69595 17.1574C5.04359 17.4024 5.49813 17.5506 6.24559 17.6285C7.00303 17.7074 7.98387 17.7082 9.35614 17.7082H10.0001C11.6863 17.7082 12.8917 17.707 13.8078 17.5911ZM3.58687 7.32798C4.16656 6.86982 4.89893 6.59633 5.69517 6.59633C5.84997 6.59633 6.00798 6.60309 6.15552 6.60993L6.21208 6.61258C6.34265 6.6187 6.46556 6.62446 6.5881 6.62701C6.87197 6.6329 7.09912 6.61924 7.28177 6.5703C7.54538 6.49967 7.75129 6.29376 7.82192 6.03015C7.87086 5.8475 7.88452 5.62035 7.87863 5.33648C7.87608 5.21395 7.87032 5.09106 7.8642 4.96052L7.86155 4.9039C7.85471 4.75636 7.84795 4.59835 7.84795 4.44355C7.84795 3.65807 8.11409 2.93475 8.56112 2.35885C7.98347 2.40622 7.54659 2.48685 7.15573 2.62406C5.63311 3.15856 4.4466 4.28346 3.88857 5.6916C3.72708 6.0991 3.63605 6.58162 3.58924 7.29129C3.58844 7.30347 3.58765 7.3157 3.58687 7.32798Z" fill="#1B8354"/>
</svg>
