<svg width="16" height="16" viewBox="0 0 16 16" fill="none" xmlns="http://www.w3.org/2000/svg">
<path d="M5.33325 6.83334C5.05711 6.83334 4.83325 7.0572 4.83325 7.33334C4.83325 7.60949 5.05711 7.83334 5.33325 7.83334H7.33325C7.60939 7.83334 7.83325 7.60949 7.83325 7.33334C7.83325 7.0572 7.60939 6.83334 7.33325 6.83334H5.33325Z" fill="#384250"/>
<path d="M5.33325 4.16668C5.05711 4.16668 4.83325 4.39053 4.83325 4.66668C4.83325 4.94282 5.05711 5.16668 5.33325 5.16668L9.99992 5.16668C10.2761 5.16668 10.4999 4.94282 10.4999 4.66668C10.4999 4.39053 10.2761 4.16668 9.99992 4.16668H5.33325Z" fill="#384250"/>
<path fill-rule="evenodd" clip-rule="evenodd" d="M7.96411 0.833313H8.54397C9.60655 0.833308 10.4433 0.833304 11.1072 0.902494C11.785 0.973141 12.3424 1.12052 12.8192 1.45646C13.0737 1.6358 13.3007 1.84919 13.4928 2.09066C13.856 2.54737 14.0163 3.08441 14.0925 3.73253C14.1666 4.36215 14.1666 5.1538 14.1666 6.14973V7.89697C14.1666 8.86922 14.1666 9.62375 14.1264 10.2327C14.0857 10.8499 14.0022 11.3522 13.8188 11.815C13.26 13.2249 12.0835 14.3257 10.6066 14.8442C9.68738 15.1669 8.55942 15.1668 6.58251 15.1667L6.3407 15.1667C5.2506 15.1669 4.57127 15.167 4.01082 14.9703C3.11145 14.6546 2.39041 13.9825 2.04706 13.1161C1.93062 12.8223 1.88063 12.5103 1.85667 12.147C1.83325 11.792 1.83325 11.355 1.83325 10.8054V6.62698C1.83324 5.40357 1.83323 4.43139 1.94201 3.66988C2.05449 2.88252 2.29193 2.24768 2.82043 1.75026C3.34466 1.25688 4.00652 1.03888 4.82821 0.9349C5.63115 0.833298 6.65882 0.833304 7.96411 0.833313ZM4.95375 1.92699C4.23233 2.01828 3.81144 2.1908 3.5058 2.47846C3.20444 2.76209 3.02695 3.14632 2.93196 3.8113C2.83445 4.49392 2.83325 5.39457 2.83325 6.66665V10.7879C2.83325 11.3589 2.83351 11.7629 2.8545 12.0812C2.8752 12.3951 2.91452 12.5907 2.97673 12.7477C3.20776 13.3307 3.70145 13.8019 4.34205 14.0267C4.72027 14.1595 5.21277 14.1666 6.45446 14.1666C6.66815 14.1666 6.86989 14.1666 7.06068 14.1662C7.98346 14.1339 8.72162 13.3757 8.72162 12.445C8.72162 12.347 8.71731 12.2415 8.71181 12.1231L8.70976 12.0792C8.70491 11.976 8.69963 11.8635 8.6973 11.7515C8.69204 11.4981 8.70004 11.2024 8.77652 10.9169C8.9255 10.361 9.35977 9.92669 9.91575 9.77771C10.2012 9.70123 10.4969 9.69323 10.7503 9.69849C10.8623 9.70082 10.9747 9.7061 11.078 9.71095L11.1219 9.71301C11.2403 9.7185 11.3458 9.72282 11.4438 9.72282C12.395 9.72282 13.1661 8.95175 13.1661 8.00059C13.1661 7.99292 13.1662 7.98528 13.1666 7.97769C13.1666 7.94502 13.1666 7.91205 13.1666 7.87877V6.1818C13.1666 5.14657 13.1658 4.41378 13.0994 3.84938C13.0343 3.29674 12.912 2.96696 12.7101 2.71315C12.5784 2.54747 12.4213 2.3994 12.2432 2.27394C11.9651 2.07799 11.6015 1.95943 11.0035 1.89711C10.3976 1.83395 9.61288 1.83331 8.51507 1.83331H7.99992C6.65095 1.83331 5.6866 1.83426 4.95375 1.92699ZM13.1305 10.1375C12.6667 10.504 12.0808 10.7228 11.4438 10.7228C11.32 10.7228 11.1936 10.7174 11.0756 10.7119L11.0303 10.7098C10.9259 10.7049 10.8275 10.7003 10.7295 10.6983C10.5024 10.6936 10.3207 10.7045 10.1746 10.7436C9.96368 10.8001 9.79895 10.9649 9.74245 11.1758C9.70329 11.3219 9.69237 11.5036 9.69708 11.7307C9.69912 11.8287 9.70373 11.927 9.70862 12.0315L9.71074 12.0768C9.71622 12.1948 9.72162 12.3212 9.72162 12.445C9.72162 13.0734 9.50871 13.6521 9.15109 14.1128C9.6132 14.0749 9.96271 14.0104 10.2754 13.9006C11.4935 13.473 12.4427 12.5731 12.8891 11.4466C13.0183 11.1206 13.0911 10.7346 13.1286 10.1668C13.1292 10.1571 13.1299 10.1473 13.1305 10.1375Z" fill="#384250"/>
</svg>
