<svg width="18" height="18" viewBox="0 0 18 18" fill="none" xmlns="http://www.w3.org/2000/svg">
<path d="M8.55593 17.0635C6.89843 17.0635 5.15992 17.0215 3.93742 16.9503C2.91592 16.8903 2.08567 16.363 1.53742 15.424C1.10167 14.677 0.945662 13.8415 0.945662 13.3075C0.933835 12.368 0.937303 10.4951 0.940996 8.50117L0.941158 8.41375C0.943408 7.34725 0.945662 6.24399 0.945662 5.22324C0.945662 1.72674 3.14316 1.16801 4.11291 1.09226C4.30866 1.06451 5.7149 0.877748 7.5194 0.953498C7.8299 0.966248 8.07067 1.22875 8.05792 1.53925C8.04517 1.84975 7.78341 2.0905 7.47216 2.07775C5.67891 2.00275 4.27042 2.20675 4.25617 2.209C4.24267 2.21125 4.22842 2.21275 4.21417 2.2135C3.23617 2.284 2.06993 2.86374 2.06993 5.22399C2.06993 6.24549 2.06768 7.3495 2.06543 8.41675L2.06476 8.76945C2.06121 10.6584 2.05792 12.4038 2.06993 13.3008C2.06993 13.816 2.39766 15.7338 4.00191 15.8275C6.30216 15.961 10.4459 15.991 12.3412 15.8283C12.3437 15.8283 12.3461 15.8281 12.3486 15.8278L12.3569 15.8268C12.3742 15.826 14.0752 15.7098 14.2702 14.0313C14.4659 12.3475 14.4524 11.119 14.4472 10.6563C14.4472 10.6219 14.4467 10.5917 14.4463 10.5653C14.4459 10.5451 14.4457 10.5272 14.4457 10.5115C14.4457 10.201 14.6977 9.94899 15.0082 9.94899C15.3187 9.94899 15.5707 10.201 15.5707 10.5115C15.5707 10.5445 15.5707 10.5887 15.5722 10.6435L15.5722 10.6503C15.5775 11.1377 15.5915 12.4149 15.3877 14.161C15.1462 16.2408 13.3522 16.8933 12.4297 16.9488C11.5042 17.0275 10.0627 17.062 8.55516 17.062L8.55593 17.0635Z" fill="#1849A9"/>
<path d="M11.9851 6.94974H11.9559C11.7534 6.93924 11.5719 6.82075 11.4819 6.63925C11.1572 5.989 10.8407 5.6635 10.8369 5.6605C10.6172 5.44075 10.6172 5.08451 10.8369 4.86476C11.0567 4.64501 11.4129 4.64501 11.6327 4.86476C11.6597 4.89176 11.8179 5.05449 12.0279 5.35524C12.5162 4.72299 13.2804 3.87925 14.0476 3.607C14.3401 3.5035 14.6619 3.65649 14.7654 3.94899C14.8689 4.24149 14.7159 4.56325 14.4234 4.66675C13.7859 4.8925 12.8807 6.02649 12.4599 6.68799C12.3564 6.85074 12.1771 6.94899 11.9851 6.94899V6.94974Z" fill="#1849A9"/>
<path fill-rule="evenodd" clip-rule="evenodd" d="M8.43018 5.26233C8.43018 7.64058 10.3667 9.57483 12.7464 9.57483C15.1262 9.57483 17.0627 7.64058 17.0627 5.26233C17.0627 2.88408 15.1262 0.949829 12.7464 0.949829C10.3667 0.949829 8.43018 2.88408 8.43018 5.26233ZM9.55518 5.26233C9.55518 3.50508 10.9869 2.07483 12.7464 2.07483C14.5059 2.07483 15.9377 3.50508 15.9377 5.26233C15.9377 7.01958 14.5059 8.44983 12.7464 8.44983C10.9869 8.44983 9.55518 7.01958 9.55518 5.26233Z" fill="#1849A9"/>
<path d="M8.23499 10.3248H5.23499C4.92449 10.3248 4.67249 10.0728 4.67249 9.76233C4.67249 9.45183 4.92449 9.19983 5.23499 9.19983H8.23499C8.54549 9.19983 8.79749 9.45183 8.79749 9.76233C8.79749 10.0728 8.54549 10.3248 8.23499 10.3248Z" fill="#1849A9"/>
<path d="M5.23499 13.3248H11.235C11.5455 13.3248 11.7975 13.0728 11.7975 12.7623C11.7975 12.4518 11.5455 12.1998 11.235 12.1998H5.23499C4.92449 12.1998 4.67249 12.4518 4.67249 12.7623C4.67249 13.0728 4.92449 13.3248 5.23499 13.3248Z" fill="#1849A9"/>
</svg>
