<svg width="16" height="16" viewBox="0 0 16 16" fill="none" xmlns="http://www.w3.org/2000/svg">
<path fill-rule="evenodd" clip-rule="evenodd" d="M3.99981 2.5999C3.68342 2.5999 3.3875 2.85748 3.3875 3.27283V4.66698C3.3875 4.73424 3.41539 4.8748 3.49412 5.05043C3.57053 5.22088 3.66929 5.36701 3.7573 5.45502L3.76804 5.46604L6.07142 7.89065C6.08314 7.90298 6.09432 7.9158 6.10494 7.92908C6.26908 8.13425 6.418 8.39985 6.52689 8.67207C6.63449 8.94106 6.72135 9.26219 6.72135 9.57683V12.7894C6.72135 13.2529 7.26352 13.5645 7.68173 13.3115L8.52458 12.7697L8.54034 12.7599C8.56469 12.7453 8.6352 12.6812 8.70313 12.5505C8.76915 12.4236 8.79458 12.3064 8.79458 12.2439V9.63744C8.79458 9.3027 8.87634 8.95034 9.00892 8.63784C9.13921 8.33073 9.33763 8.01752 9.60922 7.78855L12.1939 5.50438C12.2819 5.41262 12.3904 5.25484 12.4777 5.06274C12.5694 4.86092 12.6133 4.67499 12.6133 4.54575V3.21221C12.6133 2.87681 12.3364 2.5999 12.001 2.5999H3.99981ZM2.1875 3.27283C2.1875 2.23341 2.98266 1.3999 3.99981 1.3999H12.001C12.9992 1.3999 13.8133 2.21407 13.8133 3.21221V4.54575C13.8133 4.90143 13.7057 5.26104 13.5701 5.5593C13.4338 5.85917 13.2448 6.15086 13.0315 6.36417C13.0227 6.37289 13.0138 6.38133 13.0045 6.3895L10.398 8.69288L10.3848 8.70422C10.2965 8.7778 10.1943 8.91632 10.1136 9.1065C10.034 9.29407 9.99458 9.48726 9.99458 9.63744V12.2439C9.99458 12.5451 9.89878 12.8522 9.76779 13.1041C9.64015 13.3496 9.44092 13.6157 9.16696 13.7833L8.31494 14.331C7.15772 15.0431 5.52135 14.2641 5.52135 12.7894V9.57683C5.52135 9.46715 5.48697 9.30336 5.41272 9.11774C5.344 8.94593 5.25703 8.79515 5.18169 8.69638L2.90283 6.29758C2.6905 6.08335 2.51859 5.80783 2.39911 5.5413C2.28084 5.27746 2.1875 4.96341 2.1875 4.66698V3.27283Z" fill="#6A7383"/>
</svg>
