<svg width="24" height="24" viewBox="0 0 24 24" fill="none" xmlns="http://www.w3.org/2000/svg">
<path fill-rule="evenodd" clip-rule="evenodd" d="M14.6611 1.25L9.33858 1.25H9.33856C8.64231 1.24999 8.06652 1.24998 7.59588 1.29547C7.10307 1.3431 6.65854 1.44526 6.24439 1.69068C5.82446 1.93953 5.53433 2.27709 5.28336 2.68244C5.04954 3.06009 4.82407 3.54115 4.55927 4.10612L3.82276 5.67735C3.81517 5.69324 3.80814 5.70945 3.80166 5.72593C3.79874 5.73336 3.79594 5.74081 3.79327 5.74827C3.76107 5.83833 3.74718 5.93124 3.75 6.02254V10.3203C3.74998 11.861 3.74997 13.0927 3.87859 14.0591C4.01152 15.0579 4.29392 15.8854 4.94329 16.5414C5.59372 17.1984 6.41588 17.4851 7.40816 17.6199C8.36637 17.75 9.58689 17.75 11.1107 17.75H12.8893C14.4131 17.75 15.6336 17.75 16.5918 17.6199C17.5841 17.4851 18.4063 17.1984 19.0567 16.5414C19.7061 15.8854 19.9885 15.0579 20.1214 14.0591C20.25 13.0927 20.25 11.861 20.25 10.3204V10.3204V6.00036V6C20.25 5.98479 20.2495 5.96968 20.2487 5.95469C20.2424 5.8498 20.2146 5.75072 20.1696 5.66182L19.4404 4.10612L19.4404 4.10611C19.1756 3.54115 18.9501 3.06009 18.7163 2.68244C18.4653 2.27709 18.1752 1.93953 17.7552 1.69068C17.3411 1.44526 16.8966 1.3431 16.4038 1.29547C15.9331 1.24998 15.3573 1.24999 14.6611 1.25H14.6611ZM18.3199 5.25L5.6797 5.25L5.90007 4.77987C6.18701 4.16773 6.37627 3.76672 6.55871 3.47205C6.7291 3.19685 6.8622 3.06817 7.0091 2.98112C7.16178 2.89064 7.36421 2.82485 7.74019 2.78851C8.13019 2.75081 8.63321 2.75 9.37482 2.75L14.6248 2.75C15.3664 2.75 15.8695 2.75081 16.2595 2.78851C16.6354 2.82485 16.8379 2.89064 16.9905 2.98112C17.1374 3.06817 17.2705 3.19685 17.4409 3.47205C17.6234 3.76672 17.8126 4.16773 18.0996 4.77987L18.3199 5.25ZM1.25 22C1.25 20.2051 2.70507 18.75 4.5 18.75L19.5 18.75C21.2949 18.75 22.75 20.2051 22.75 22C22.75 22.4142 22.4142 22.75 22 22.75C21.5858 22.75 21.25 22.4142 21.25 22C21.25 21.0335 20.4665 20.25 19.5 20.25H17.75V22C17.75 22.4142 17.4142 22.75 17 22.75C16.5858 22.75 16.25 22.4142 16.25 22V20.25H12.75V22C12.75 22.4142 12.4142 22.75 12 22.75C11.5858 22.75 11.25 22.4142 11.25 22V20.25L7.75 20.25V22C7.75 22.4142 7.41421 22.75 7 22.75C6.58579 22.75 6.25 22.4142 6.25 22V20.25H4.5C3.5335 20.25 2.75 21.0335 2.75 22C2.75 22.4142 2.41421 22.75 2 22.75C1.58579 22.75 1.25 22.4142 1.25 22ZM18.75 6.75V10.2653C18.75 11.8737 18.7484 13.0053 18.6345 13.8613C18.5234 14.6964 18.3176 15.1558 17.9907 15.4861C17.6648 15.8153 17.2131 16.0217 16.39 16.1335C15.5445 16.2484 14.4261 16.25 12.8333 16.25H11.1667C9.5739 16.25 8.45554 16.2484 7.61003 16.1335C6.78688 16.0217 6.33522 15.8153 6.00933 15.4861C5.68239 15.1558 5.47664 14.6964 5.36548 13.8613C5.25156 13.0053 5.25 11.8737 5.25 10.2653V6.75L18.75 6.75ZM14.25 9C14.25 8.58579 13.9142 8.25 13.5 8.25L10.5 8.25C10.0858 8.25 9.75 8.58579 9.75 9C9.75 9.41421 10.0858 9.75 10.5 9.75H13.5C13.9142 9.75 14.25 9.41421 14.25 9Z" fill="#161616"/>
</svg>
