<svg width="24" height="25" viewBox="0 0 24 25" fill="none" xmlns="http://www.w3.org/2000/svg">
<path d="M19.5 16.0206V9.19556C19.5 8.20099 19.1049 7.24717 18.4016 6.54391C17.6984 5.84064 16.7446 5.44556 15.75 5.44556H13.065L14.775 3.72056C15.075 3.43556 15.075 2.95556 14.775 2.67056C14.49 2.37056 14.01 2.37056 13.725 2.67056L10.725 5.67056C10.425 5.95556 10.425 6.43556 10.725 6.72056L13.725 9.72056C14.01 10.0206 14.49 10.0206 14.775 9.72056C15.075 9.43556 15.075 8.95556 14.775 8.67056L13.065 6.94556H15.75C16.995 6.94556 18 7.95056 18 9.19556V16.0206C17.0895 16.2064 16.2804 16.7237 15.7296 17.4722C15.1788 18.2207 14.9256 19.1471 15.019 20.0717C15.1124 20.9963 15.5458 21.8533 16.2351 22.4765C16.9245 23.0997 17.8207 23.4448 18.75 23.4448C19.6793 23.4448 20.5755 23.0997 21.2649 22.4765C21.9542 21.8533 22.3876 20.9963 22.481 20.0717C22.5744 19.1471 22.3212 18.2207 21.7704 17.4722C21.2196 16.7237 20.4105 16.2064 19.5 16.0206ZM18.75 21.9456C17.505 21.9456 16.5 20.9406 16.5 19.6956C16.5 18.4506 17.505 17.4456 18.75 17.4456C19.995 17.4456 21 18.4506 21 19.6956C21 20.9406 19.995 21.9456 18.75 21.9456ZM9 6.19556C8.99985 5.48603 8.79842 4.79111 8.4191 4.1915C8.03977 3.59189 7.49812 3.11219 6.85706 2.80813C6.21599 2.50406 5.50181 2.38811 4.79748 2.47373C4.09314 2.55935 3.42754 2.84303 2.878 3.29183C2.32845 3.74062 1.9175 4.33612 1.69288 5.00915C1.46826 5.68218 1.43918 6.40512 1.60903 7.09401C1.77888 7.78291 2.14068 8.40948 2.65241 8.90096C3.16415 9.39244 3.80481 9.72865 4.5 9.87056V16.0221C2.79 16.3701 1.5 17.8851 1.5 19.6956C1.5 21.7641 3.183 23.4456 5.25 23.4456C7.317 23.4456 9 21.7641 9 19.6956C9 17.8836 7.71 16.3701 6 16.0221V9.87056C6.84702 9.69766 7.6083 9.23742 8.15498 8.56773C8.70166 7.89805 9.00018 7.06005 9 6.19556ZM3 6.19556C3 4.95056 4.005 3.94556 5.25 3.94556C6.495 3.94556 7.5 4.95056 7.5 6.19556C7.5 7.44056 6.495 8.44556 5.25 8.44556C4.005 8.44556 3 7.44056 3 6.19556ZM7.5 19.6956C7.5 20.9361 6.4905 21.9456 5.25 21.9456C4.0095 21.9456 3 20.9361 3 19.6956C3 18.4551 4.0095 17.4456 5.25 17.4456C6.4905 17.4456 7.5 18.4551 7.5 19.6956Z" fill="#575656"/>
</svg>
