<svg width="36" height="36" viewBox="0 0 36 36" fill="none" xmlns="http://www.w3.org/2000/svg">
<path d="M11.084 6.42868H9.08729C9.30959 5.33965 9.90132 4.36087 10.7623 3.65799C11.6234 2.95511 12.7008 2.57131 13.8123 2.57153H26.0266C27.9873 2.57153 29.8677 3.35042 31.2541 4.73685C32.6405 6.12328 33.4194 8.00368 33.4194 9.96439V22.1787C33.4197 23.2879 33.0374 24.3633 32.3371 25.2236C31.6369 26.0838 30.6614 26.6763 29.5751 26.9011V24.9018C30.1361 24.7005 30.6211 24.3309 30.964 23.8435C31.3069 23.3561 31.4909 22.7746 31.4909 22.1787V9.96439C31.4909 8.51517 30.9152 7.12531 29.8904 6.10056C28.8657 5.0758 27.4758 4.5001 26.0266 4.5001H13.8123C13.2139 4.49992 12.6302 4.6853 12.1416 5.0307C11.653 5.3761 11.2835 5.86452 11.084 6.42868ZM7.39272 7.71439C6.114 7.71439 4.88765 8.22236 3.98345 9.12655C3.07926 10.0307 2.57129 11.2571 2.57129 12.5358V28.6072C2.57129 29.886 3.07926 31.1123 3.98345 32.0165C4.88765 32.9207 6.114 33.4287 7.39272 33.4287H23.4641C24.7429 33.4287 25.9692 32.9207 26.8734 32.0165C27.7776 31.1123 28.2856 29.886 28.2856 28.6072V12.5358C28.2856 11.2571 27.7776 10.0307 26.8734 9.12655C25.9692 8.22236 24.7429 7.71439 23.4641 7.71439H7.39272ZM4.49986 12.5358C4.49986 11.7686 4.80464 11.0328 5.34716 10.4903C5.88967 9.94774 6.62548 9.64296 7.39272 9.64296H23.4641C24.2314 9.64296 24.9672 9.94774 25.5097 10.4903C26.0522 11.0328 26.357 11.7686 26.357 12.5358V28.6072C26.357 29.3745 26.0522 30.1103 25.5097 30.6528C24.9672 31.1953 24.2314 31.5001 23.4641 31.5001H7.39272C6.62548 31.5001 5.88967 31.1953 5.34716 30.6528C4.80464 30.1103 4.49986 29.3745 4.49986 28.6072V12.5358Z" fill="#0091B4"/>
</svg>
