<svg width="20" height="20" viewBox="0 0 20 20" fill="none" xmlns="http://www.w3.org/2000/svg">
<g id="Base / Icons / Grid view">
<path id="Vector" d="M14.6429 2C15.0893 2 15.5149 2.08929 15.9196 2.26786C16.3244 2.44643 16.6815 2.69048 16.9911 3C17.3006 3.30952 17.5446 3.66667 17.7232 4.07143C17.9018 4.47619 17.994 4.90476 18 5.35714V14.6429C18 15.0893 17.9107 15.5149 17.7321 15.9196C17.5536 16.3244 17.3095 16.6815 17 16.9911C16.6905 17.3006 16.3333 17.5446 15.9286 17.7232C15.5238 17.9018 15.0952 17.994 14.6429 18H5.35714C4.91071 18 4.48512 17.9107 4.08036 17.7321C3.6756 17.5536 3.31845 17.3095 3.00893 17C2.6994 16.6905 2.45536 16.3333 2.27679 15.9286C2.09821 15.5238 2.00595 15.0952 2 14.6429V5.35714C2 4.91071 2.08929 4.48512 2.26786 4.08036C2.44643 3.6756 2.69048 3.31845 3 3.00893C3.30952 2.6994 3.66667 2.45536 4.07143 2.27679C4.47619 2.09821 4.90476 2.00595 5.35714 2H14.6429ZM5.38393 3.14286C5.08631 3.14286 4.80357 3.20238 4.53571 3.32143C4.26786 3.44048 4.02976 3.60417 3.82143 3.8125C3.6131 4.02083 3.4494 4.25893 3.33036 4.52679C3.21131 4.79464 3.14881 5.08036 3.14286 5.38393V6.57143H7.71429V3.14286H5.38393ZM16.8571 5.38393C16.8571 5.08631 16.7976 4.80357 16.6786 4.53571C16.5595 4.26786 16.3958 4.02976 16.1875 3.82143C15.9792 3.6131 15.7411 3.4494 15.4732 3.33036C15.2054 3.21131 14.9196 3.14881 14.6161 3.14286H8.85714V6.57143H16.8571V5.38393ZM3.14286 12.2857H7.71429V7.71429H3.14286V12.2857ZM16.8571 7.71429H8.85714V12.2857H16.8571V7.71429ZM3.14286 14.6161C3.14286 14.9137 3.20238 15.1964 3.32143 15.4643C3.44048 15.7321 3.60417 15.9702 3.8125 16.1786C4.02083 16.3869 4.25893 16.5506 4.52679 16.6696C4.79464 16.7887 5.08036 16.8512 5.38393 16.8571H7.71429V13.4286H3.14286V14.6161ZM14.6161 16.8571C14.9137 16.8571 15.1964 16.7976 15.4643 16.6786C15.7321 16.5595 15.9702 16.3958 16.1786 16.1875C16.3869 15.9792 16.5506 15.7411 16.6696 15.4732C16.7887 15.2054 16.8512 14.9196 16.8571 14.6161V13.4286H8.85714V16.8571H14.6161Z" fill="#038387"/>
</g>
</svg>
