<svg width="16" height="16" viewBox="0 0 16 16" fill="none" xmlns="http://www.w3.org/2000/svg">
<g id="Leading Icon">
<g id="Icon">
<path d="M7.3335 11.3332C7.3335 10.965 7.63197 10.6665 8.00016 10.6665H8.00615C8.37434 10.6665 8.67282 10.965 8.67282 11.3332C8.67282 11.7014 8.37434 11.9998 8.00615 11.9998H8.00016C7.63197 11.9998 7.3335 11.7014 7.3335 11.3332Z" fill="#384250"/>
<path fill-rule="evenodd" clip-rule="evenodd" d="M2.16683 6.8935L1.67955 7.36073C1.48023 7.55185 1.16372 7.54521 0.9726 7.34589C0.781479 7.14657 0.788125 6.83006 0.987443 6.63894L3.90959 3.83698C4.77581 3.00637 5.46231 2.34809 6.07177 1.90221C6.69982 1.44274 7.30094 1.1665 8.00016 1.1665C8.69939 1.1665 9.30051 1.44274 9.92855 1.90221C10.538 2.34809 11.2245 3.00637 12.0907 3.83698L15.0129 6.63894C15.2122 6.83006 15.2188 7.14657 15.0277 7.34589C14.8366 7.54521 14.5201 7.55185 14.3208 7.36073L13.8335 6.8935V9.03744C13.8335 10.2626 13.8335 11.233 13.7314 11.9925C13.6263 12.7741 13.4049 13.4068 12.906 13.9057C12.4071 14.4046 11.7745 14.626 10.9928 14.7311C10.2334 14.8332 9.26296 14.8332 8.0378 14.8332H7.96256C6.7374 14.8332 5.76695 14.8332 5.00748 14.7311C4.22587 14.626 3.59323 14.4046 3.09433 13.9057C2.59542 13.4068 2.37401 12.7741 2.26892 11.9925C2.16681 11.233 2.16682 10.2626 2.16683 9.03745L2.16683 6.8935ZM4.57498 4.58439C5.47392 3.72242 6.11291 3.11116 6.66222 2.70929C7.19921 2.31643 7.59482 2.1665 8.00016 2.1665C8.40551 2.1665 8.80112 2.31643 9.3381 2.70929C9.88742 3.11116 10.5264 3.72243 11.4253 4.58439L12.8335 5.93462V8.99984C12.8335 10.2711 12.8324 11.1742 12.7403 11.8593C12.6501 12.53 12.481 12.9164 12.1989 13.1986C11.9168 13.4807 11.5303 13.6498 10.8596 13.74C10.1745 13.8321 9.27138 13.8332 8.00016 13.8332C6.72895 13.8332 5.82584 13.8321 5.14073 13.74C4.47 13.6498 4.08357 13.4807 3.80143 13.1986C3.51929 12.9164 3.35018 12.53 3.26 11.8593C3.16789 11.1742 3.16683 10.2711 3.16683 8.99984V5.93463L4.57498 4.58439Z" fill="#384250"/>
</g>
</g>
</svg>
