<svg width="20" height="20" viewBox="0 0 20 20" fill="none" xmlns="http://www.w3.org/2000/svg">
<path d="M6.66667 6.87484C6.32149 6.87484 6.04167 7.15466 6.04167 7.49984C6.04167 7.84502 6.32149 8.12484 6.66667 8.12484H8.33333C8.67851 8.12484 8.95833 7.84502 8.95833 7.49984C8.95833 7.15466 8.67851 6.87484 8.33333 6.87484H6.66667Z" fill="#161616"/>
<path d="M11.6667 6.87484C11.3215 6.87484 11.0417 7.15466 11.0417 7.49984C11.0417 7.84502 11.3215 8.12484 11.6667 8.12484H13.3333C13.6785 8.12484 13.9583 7.84502 13.9583 7.49984C13.9583 7.15466 13.6785 6.87484 13.3333 6.87484H11.6667Z" fill="#161616"/>
<path d="M6.66667 10.2082C6.32149 10.2082 6.04167 10.488 6.04167 10.8332C6.04167 11.1783 6.32149 11.4582 6.66667 11.4582H8.33333C8.67851 11.4582 8.95833 11.1783 8.95833 10.8332C8.95833 10.488 8.67851 10.2082 8.33333 10.2082H6.66667Z" fill="#161616"/>
<path d="M11.6667 10.2082C11.3215 10.2082 11.0417 10.488 11.0417 10.8332C11.0417 11.1783 11.3215 11.4582 11.6667 11.4582H13.3333C13.6785 11.4582 13.9583 11.1783 13.9583 10.8332C13.9583 10.488 13.6785 10.2082 13.3333 10.2082H11.6667Z" fill="#161616"/>
<path d="M6.66667 13.5415C6.32149 13.5415 6.04167 13.8213 6.04167 14.1665C6.04167 14.5117 6.32149 14.7915 6.66667 14.7915H8.33333C8.67851 14.7915 8.95833 14.5117 8.95833 14.1665C8.95833 13.8213 8.67851 13.5415 8.33333 13.5415H6.66667Z" fill="#161616"/>
<path d="M11.6667 13.5415C11.3215 13.5415 11.0417 13.8213 11.0417 14.1665C11.0417 14.5117 11.3215 14.7915 11.6667 14.7915H13.3333C13.6785 14.7915 13.9583 14.5117 13.9583 14.1665C13.9583 13.8213 13.6785 13.5415 13.3333 13.5415H11.6667Z" fill="#161616"/>
<path fill-rule="evenodd" clip-rule="evenodd" d="M10 1.0415C9.66621 1.0415 9.3698 1.13048 9.07158 1.26266C8.79176 1.38669 8.47245 1.56687 8.09765 1.77836L3.85931 4.16976C3.47088 4.3889 3.13942 4.57591 2.87924 4.75979C2.60099 4.95645 2.36533 5.17537 2.19018 5.47737C2.01561 5.77836 1.94175 6.09095 1.90754 6.42999C1.8755 6.74751 1.87533 7.12896 1.87512 7.57695L1.875 11.6154C1.87499 13.1703 1.87498 14.4001 2.00246 15.3621C2.13346 16.3508 2.40916 17.1502 3.03117 17.7813C3.65443 18.4137 4.44593 18.6951 5.42462 18.8286C6.37455 18.9582 7.58808 18.9582 9.11901 18.9582H10.881C12.4119 18.9582 13.6255 18.9582 14.5754 18.8286C15.5541 18.6951 16.3456 18.4137 16.9688 17.7813C17.5908 17.1502 17.8665 16.3508 17.9975 15.3621C18.125 14.4001 18.125 13.1704 18.125 11.6154L18.1249 7.57693C18.1247 7.12895 18.1245 6.74751 18.0925 6.42999C18.0582 6.09095 17.9844 5.77836 17.8098 5.47737C17.6347 5.17537 17.399 4.95645 17.1208 4.75979C16.8606 4.57591 16.5291 4.38891 16.1407 4.16976L11.9024 1.77838C11.5276 1.56688 11.2082 1.3867 10.9284 1.26266C10.6302 1.13047 10.3338 1.0415 10 1.0415ZM8.68712 2.88101C9.09342 2.65176 9.3601 2.50207 9.57811 2.40543C9.78388 2.31423 9.90155 2.2915 10 2.2915C10.0985 2.2915 10.2161 2.31423 10.4219 2.40543C10.6399 2.50207 10.9066 2.65176 11.3129 2.88101L15.5005 5.24381C15.9219 5.48156 16.1972 5.63777 16.3993 5.78058C16.589 5.91468 16.6736 6.00988 16.7285 6.10449C16.784 6.20012 16.8252 6.32235 16.8488 6.55549C16.8738 6.80319 16.8747 7.12177 16.8749 7.60695L16.875 11.569C16.875 13.1807 16.8737 14.3276 16.7584 15.1979C16.6453 16.0513 16.4328 16.5444 16.0785 16.9039C15.7255 17.2621 15.2432 17.4759 14.4064 17.5901C13.5508 17.7068 12.4226 17.7082 10.8333 17.7082H9.16667C7.5774 17.7082 6.44923 17.7068 5.59357 17.5901C4.75683 17.4759 4.27451 17.2621 3.92145 16.9039C3.56716 16.5444 3.3547 16.0513 3.24162 15.1979C3.12629 14.3276 3.125 13.1807 3.125 11.569L3.12511 7.60666C3.12535 7.12148 3.12623 6.80319 3.15123 6.55549C3.17475 6.32235 3.21602 6.20012 3.27148 6.10449C3.32635 6.00988 3.41095 5.91468 3.6007 5.78058C3.80276 5.63777 4.07809 5.48156 4.49946 5.24381L8.68712 2.88101Z" fill="#161616"/>
</svg>
