<svg width="36" height="36" viewBox="0 0 36 36" fill="none" xmlns="http://www.w3.org/2000/svg">
<path d="M18 33C9.7155 33 3 26.2845 3 18C3 9.7155 9.7155 3 18 3C24.717 3 30.339 7.4145 32.25 13.5H28.5" stroke="#D9AC49" stroke-width="2" stroke-linecap="round" stroke-linejoin="round"/>
<path d="M18 12V18L21 21M32.9325 19.5C32.9775 19.005 33 18.505 33 18M22.5 33C23.0102 32.831 23.5109 32.6347 24 32.412M31.185 25.5C31.476 24.942 31.7335 24.365 31.9575 23.769M27.288 30.3435C27.806 29.9155 28.2945 29.4545 28.7535 28.9605" stroke="#D9AC49" stroke-width="2" stroke-linecap="round" stroke-linejoin="round"/>
</svg>
