<svg width="22" height="23" viewBox="0 0 22 23" fill="none" xmlns="http://www.w3.org/2000/svg">
<g id="Group">
<path id="Vector" d="M20.3177 6.64108L19.8237 5.78508C19.4507 5.13708 19.2637 4.81308 18.9457 4.68408C18.6287 4.55408 18.2697 4.65708 17.5507 4.86008L16.3307 5.20408C15.8717 5.31008 15.3907 5.25008 14.9727 5.03408L14.6357 4.84008C14.2766 4.61 14.0005 4.27118 13.8477 3.87308L13.5137 2.87508C13.2937 2.21508 13.1837 1.88508 12.9227 1.69708C12.6617 1.50708 12.3137 1.50708 11.6197 1.50708H10.5047C9.81069 1.50708 9.46369 1.50708 9.20169 1.69708C8.94069 1.88508 8.83169 2.21508 8.61169 2.87508L8.27769 3.87308C8.12456 4.27132 7.8481 4.61016 7.48869 4.84008L7.15169 5.03508C6.73369 5.25008 6.25169 5.31008 5.79369 5.20508L4.57369 4.86008C3.85469 4.65708 3.49569 4.55508 3.17869 4.68408C2.86069 4.81308 2.67369 5.13708 2.30069 5.78408L1.80769 6.64108C1.45769 7.24908 1.28269 7.55208 1.31669 7.87508C1.35069 8.19908 1.58469 8.45908 2.05269 8.98008L3.08369 10.1331C3.33569 10.4521 3.51469 11.0081 3.51469 11.5081C3.51469 12.0081 3.33569 12.5641 3.08469 12.8831L2.05269 14.0351C1.58469 14.5561 1.35069 14.8171 1.31669 15.1401C1.28269 15.4631 1.45669 15.7671 1.80669 16.3741L2.30069 17.2311C2.67369 17.8781 2.86069 18.2021 3.17869 18.3311C3.49669 18.4601 3.85469 18.3591 4.57369 18.1551L5.79369 17.8111C6.25258 17.706 6.73381 17.7662 7.15269 17.9811L7.48869 18.1751C7.84869 18.4051 8.12469 18.7451 8.27669 19.1431L8.61069 20.1401C8.83069 20.8001 8.94069 21.1301 9.20169 21.3201C9.46369 21.5081 9.81069 21.5081 10.5047 21.5081H11.6197C12.3137 21.5081 12.6617 21.5081 12.9227 21.3191C13.1837 21.1301 13.2937 20.8001 13.5127 20.1401L13.8477 19.1431C13.9997 18.7441 14.2757 18.4051 14.6357 18.1751L14.9717 17.9811C15.3917 17.7661 15.8717 17.7051 16.3317 17.8111L17.5517 18.1551C18.2697 18.3591 18.6287 18.4611 18.9457 18.3321C19.2637 18.2021 19.4507 17.8781 19.8237 17.2311L20.3167 16.3741C20.6667 15.7671 20.8417 15.4641 20.8077 15.1401C20.7737 14.8161 20.5397 14.5561 20.0717 14.0351L19.0407 12.8831C18.7887 12.5631 18.6097 12.0081 18.6097 11.5081C18.6097 11.0081 18.7887 10.4521 19.0397 10.1331L20.0717 8.98008C20.5397 8.46008 20.7737 8.19908 20.8077 7.87508C20.8417 7.55108 20.6677 7.24908 20.3177 6.64108Z" stroke="#1F2A37" stroke-width="1.5" stroke-linecap="round" stroke-linejoin="round"/>
<path id="Vector_2" d="M14.5195 11.5C14.5195 12.4283 14.1508 13.3185 13.4944 13.9749C12.838 14.6313 11.9478 15 11.0195 15C10.0913 15 9.20103 14.6313 8.54466 13.9749C7.88828 13.3185 7.51953 12.4283 7.51953 11.5C7.51953 10.5717 7.88828 9.6815 8.54466 9.02513C9.20103 8.36875 10.0913 8 11.0195 8C11.9478 8 12.838 8.36875 13.4944 9.02513C14.1508 9.6815 14.5195 10.5717 14.5195 11.5Z" stroke="#1F2A37" stroke-width="1.5" stroke-linecap="round" stroke-linejoin="round"/>
</g>
</svg>
