<svg width="24" height="24" viewBox="0 0 24 24" fill="none" xmlns="http://www.w3.org/2000/svg">
<path d="M21.3177 7.14108L20.8237 6.28508C20.4507 5.63708 20.2637 5.31308 19.9457 5.18408C19.6287 5.05408 19.2697 5.15708 18.5507 5.36008L17.3307 5.70408C16.8717 5.81008 16.3907 5.75008 15.9727 5.53408L15.6357 5.34008C15.2766 5.11 15.0005 4.77118 14.8477 4.37308L14.5137 3.37508C14.2937 2.71508 14.1837 2.38508 13.9227 2.19708C13.6617 2.00708 13.3137 2.00708 12.6197 2.00708H11.5047C10.8107 2.00708 10.4637 2.00708 10.2017 2.19708C9.94069 2.38508 9.83169 2.71508 9.61169 3.37508L9.27769 4.37308C9.12456 4.77132 8.8481 5.11016 8.48869 5.34008L8.15169 5.53508C7.73369 5.75008 7.25169 5.81008 6.79369 5.70508L5.57369 5.36008C4.85469 5.15708 4.49569 5.05508 4.17869 5.18408C3.86069 5.31308 3.67369 5.63708 3.30069 6.28408L2.80769 7.14108C2.45769 7.74908 2.28269 8.05208 2.31669 8.37508C2.35069 8.69908 2.58469 8.95908 3.05269 9.48008L4.08369 10.6331C4.33569 10.9521 4.51469 11.5081 4.51469 12.0081C4.51469 12.5081 4.33569 13.0641 4.08469 13.3831L3.05269 14.5351C2.58469 15.0561 2.35069 15.3171 2.31669 15.6401C2.28269 15.9631 2.45669 16.2671 2.80669 16.8741L3.30069 17.7311C3.67369 18.3781 3.86069 18.7021 4.17869 18.8311C4.49669 18.9601 4.85469 18.8591 5.57369 18.6551L6.79369 18.3111C7.25258 18.206 7.73381 18.2662 8.15269 18.4811L8.48869 18.6751C8.84869 18.9051 9.12469 19.2451 9.27669 19.6431L9.61069 20.6401C9.83069 21.3001 9.94069 21.6301 10.2017 21.8201C10.4637 22.0081 10.8107 22.0081 11.5047 22.0081H12.6197C13.3137 22.0081 13.6617 22.0081 13.9227 21.8191C14.1837 21.6301 14.2937 21.3001 14.5127 20.6401L14.8477 19.6431C14.9997 19.2441 15.2757 18.9051 15.6357 18.6751L15.9717 18.4811C16.3917 18.2661 16.8717 18.2051 17.3317 18.3111L18.5517 18.6551C19.2697 18.8591 19.6287 18.9611 19.9457 18.8321C20.2637 18.7021 20.4507 18.3781 20.8237 17.7311L21.3167 16.8741C21.6667 16.2671 21.8417 15.9641 21.8077 15.6401C21.7737 15.3161 21.5397 15.0561 21.0717 14.5351L20.0407 13.3831C19.7887 13.0631 19.6097 12.5081 19.6097 12.0081C19.6097 11.5081 19.7887 10.9521 20.0397 10.6331L21.0717 9.48008C21.5397 8.96008 21.7737 8.69908 21.8077 8.37508C21.8417 8.05108 21.6677 7.74908 21.3177 7.14108Z" stroke="#575656" stroke-width="1.5" stroke-linecap="round" stroke-linejoin="round"/>
<path d="M15.5195 12C15.5195 12.9283 15.1508 13.8185 14.4944 14.4749C13.838 15.1313 12.9478 15.5 12.0195 15.5C11.0913 15.5 10.201 15.1313 9.54466 14.4749C8.88828 13.8185 8.51953 12.9283 8.51953 12C8.51953 11.0717 8.88828 10.1815 9.54466 9.52513C10.201 8.86875 11.0913 8.5 12.0195 8.5C12.9478 8.5 13.838 8.86875 14.4944 9.52513C15.1508 10.1815 15.5195 11.0717 15.5195 12Z" stroke="#575656" stroke-width="1.5" stroke-linecap="round" stroke-linejoin="round"/>
</svg>
