<svg width="24" height="25" viewBox="0 0 24 25" fill="none" xmlns="http://www.w3.org/2000/svg">
<path d="M18 15.9456V9.94556C18 7.11756 18 5.70256 17.121 4.82456C16.243 3.94556 14.828 3.94556 12 3.94556H8C5.172 3.94556 3.757 3.94556 2.879 4.82456C2 5.70256 2 7.11756 2 9.94556V15.9456C2 18.7736 2 20.1886 2.879 21.0666C3.757 21.9456 5.172 21.9456 8 21.9456H20M6 8.94556H14M6 12.9456H14M6 16.9456H10" stroke="#575656" stroke-width="1.5" stroke-linecap="round" stroke-linejoin="round"/>
<path d="M18 8.94556H19C20.414 8.94556 21.121 8.94556 21.56 9.38556C22 9.82456 22 10.5316 22 11.9456V19.9456C22 20.476 21.7893 20.9847 21.4142 21.3598C21.0391 21.7348 20.5304 21.9456 20 21.9456C19.4696 21.9456 18.9609 21.7348 18.5858 21.3598C18.2107 20.9847 18 20.476 18 19.9456V8.94556Z" stroke="#575656" stroke-width="1.5" stroke-linecap="round" stroke-linejoin="round"/>
</svg>
