<svg width="24" height="24" viewBox="0 0 24 24" fill="none" xmlns="http://www.w3.org/2000/svg">
<path d="M7 9L12 10M12 10L17 9M12 10V13M12 13L10 18M12 13L14 18M12 22C17.523 22 22 17.523 22 12C22 6.477 17.523 2 12 2C6.477 2 2 6.477 2 12C2 17.523 6.477 22 12 22Z" stroke="#575656" stroke-width="1.5" stroke-linecap="round" stroke-linejoin="round"/>
<path d="M12 7C11.8674 7 11.7402 6.94732 11.6464 6.85355C11.5527 6.75979 11.5 6.63261 11.5 6.5C11.5 6.36739 11.5527 6.24021 11.6464 6.14645C11.7402 6.05268 11.8674 6 12 6C12.1326 6 12.2598 6.05268 12.3536 6.14645C12.4473 6.24021 12.5 6.36739 12.5 6.5C12.5 6.63261 12.4473 6.75979 12.3536 6.85355C12.2598 6.94732 12.1326 7 12 7Z" fill="#575656" stroke="#575656" stroke-width="1.5" stroke-linecap="round" stroke-linejoin="round"/>
</svg>
