<svg width="16" height="16" viewBox="0 0 16 16" fill="none" xmlns="http://www.w3.org/2000/svg">
<path d="M6.4999 6.00011C6.4999 5.72397 6.72376 5.50011 6.9999 5.50011L8.9999 5.50011C9.27604 5.50011 9.4999 5.72397 9.4999 6.00011C9.4999 6.27625 9.27604 6.50011 8.9999 6.50011L6.9999 6.50011C6.72375 6.50011 6.4999 6.27625 6.4999 6.00011Z" fill="#384250"/>
<path fill-rule="evenodd" clip-rule="evenodd" d="M6.22585 0.833441L9.77418 0.833441C10.2383 0.833432 10.6222 0.833425 10.936 0.863752C11.2645 0.895508 11.5609 0.963615 11.837 1.12723C12.1169 1.29313 12.3103 1.51817 12.4777 1.7884C12.6335 2.04017 12.7839 2.36087 12.9604 2.73752L13.4514 3.78501C13.4564 3.7956 13.4611 3.80641 13.4655 3.8174C13.4674 3.82235 13.4693 3.82731 13.471 3.83229C13.4925 3.89233 13.5018 3.95427 13.4999 4.01513L13.4999 6.88034C13.4999 7.90744 13.4999 8.72855 13.4142 9.37287C13.3256 10.0387 13.1373 10.5903 12.7044 11.0277C12.2708 11.4657 11.7226 11.6569 11.0611 11.7467C10.4223 11.8335 9.60864 11.8335 8.59275 11.8334L7.40704 11.8334C6.39116 11.8335 5.57748 11.8335 4.93867 11.7467C4.27715 11.6569 3.72904 11.4657 3.29543 11.0277C2.86251 10.5903 2.67424 10.0387 2.58563 9.37287C2.49988 8.72856 2.49989 7.90744 2.4999 6.88035L2.4999 4.00035C2.4999 3.99021 2.5002 3.97989 2.50079 3.9699C2.50496 3.89998 2.5235 3.83392 2.55349 3.77465L3.03965 2.73752C3.21618 2.36088 3.3665 2.04017 3.52238 1.7884C3.68969 1.51817 3.88311 1.29313 4.16306 1.12723C4.43916 0.963615 4.73551 0.895508 5.06405 0.863752C5.37781 0.833425 5.76169 0.833433 6.22585 0.833441ZM3.7866 3.50011L12.2134 3.50011L12.0665 3.18669C11.8752 2.7786 11.749 2.51125 11.6274 2.31481C11.5138 2.13134 11.4251 2.04555 11.3272 1.98752C11.2254 1.9272 11.0904 1.88334 10.8398 1.85911C10.5798 1.83398 10.2444 1.83344 9.75002 1.83344L6.25002 1.83344C5.75561 1.83344 5.42026 1.83398 5.16026 1.85911C4.90961 1.88334 4.77465 1.9272 4.67287 1.98752C4.57494 2.04555 4.4862 2.13134 4.37261 2.31481C4.25098 2.51125 4.12481 2.7786 3.93351 3.18668L3.7866 3.50011ZM3.4999 4.50011L3.4999 6.84364C3.4999 7.9159 3.50094 8.67029 3.57689 9.24095C3.65099 9.79774 3.78816 10.104 4.00612 10.3242C4.22338 10.5436 4.52449 10.6813 5.07325 10.7558C5.63693 10.8324 6.3825 10.8334 7.44434 10.8334L8.55545 10.8334C9.61729 10.8334 10.3629 10.8324 10.9265 10.7558C11.4753 10.6813 11.7764 10.5436 11.9937 10.3242C12.2116 10.104 12.3488 9.79774 12.4229 9.24095C12.4989 8.67029 12.4999 7.9159 12.4999 6.84364L12.4999 4.50011L3.4999 4.50011Z" fill="#384250"/>
<path d="M15.1666 14.6668C15.1666 13.4702 14.1965 12.5001 12.9999 12.5001L2.9999 12.5001C1.80328 12.5001 0.83323 13.4702 0.83323 14.6668C0.83323 14.9429 1.05709 15.1668 1.33323 15.1668C1.60937 15.1668 1.83323 14.9429 1.83323 14.6668C1.83323 14.0224 2.35556 13.5001 2.9999 13.5001L4.16656 13.5001L4.16656 14.6668C4.16656 14.9429 4.39042 15.1668 4.66656 15.1668C4.94271 15.1668 5.16656 14.9429 5.16656 14.6668L5.16656 13.5001L7.4999 13.5001L7.4999 14.6668C7.4999 14.9429 7.72375 15.1668 7.9999 15.1668C8.27604 15.1668 8.4999 14.9429 8.4999 14.6668L8.4999 13.5001L10.8332 13.5001L10.8332 14.6668C10.8332 14.9429 11.0571 15.1668 11.3332 15.1668C11.6094 15.1668 11.8332 14.9429 11.8332 14.6668L11.8332 13.5001L12.9999 13.5001C13.6442 13.5001 14.1666 14.0224 14.1666 14.6668C14.1666 14.9429 14.3904 15.1668 14.6666 15.1668C14.9427 15.1668 15.1666 14.9429 15.1666 14.6668Z" fill="#384250"/>
</svg>
