<svg width="16" height="16" viewBox="0 0 16 16" fill="none" xmlns="http://www.w3.org/2000/svg">
<path d="M8.66683 4C8.29864 4 8.00016 4.29847 8.00016 4.66666C8.00016 5.03485 8.29864 5.33333 8.66683 5.33333H8.67282C9.04101 5.33333 9.33948 5.03485 9.33948 4.66666C9.33948 4.29847 9.04101 4 8.67282 4H8.66683Z" fill="#384250"/>
<path fill-rule="evenodd" clip-rule="evenodd" d="M6.70444 0.833328H6.62922C5.40405 0.833318 4.43362 0.83331 3.67415 0.935419C2.89253 1.0405 2.2599 1.26192 1.76099 1.76082C1.26208 2.25973 1.04067 2.89237 0.935586 3.67398C0.833478 4.43345 0.833486 5.40387 0.833496 6.62904V6.70427C0.833486 7.92944 0.833478 8.89987 0.935586 9.65934C1.04067 10.441 1.26208 11.0736 1.76099 11.5725C2.23203 12.0435 2.82226 12.2672 3.54454 12.3792C3.65389 13.1339 3.87798 13.7474 4.36475 14.2342C4.86616 14.7356 5.50204 14.9583 6.28829 15.064C7.0524 15.1667 8.02882 15.1667 9.26199 15.1667H9.33728C10.5704 15.1667 11.5469 15.1667 12.311 15.064C13.0973 14.9583 13.7331 14.7356 14.2346 14.2342C14.736 13.7328 14.9586 13.0969 15.0643 12.3107C15.167 11.5466 15.167 10.5701 15.167 9.33698V9.26169C15.167 8.02852 15.167 7.05207 15.0643 6.28796C14.9586 5.50171 14.736 4.86582 14.2346 4.36442C13.7477 3.8776 13.1341 3.65352 12.3793 3.54418C12.2673 2.82199 12.0437 2.23182 11.5727 1.76082C11.0738 1.26192 10.4411 1.0405 9.65951 0.935419C8.90004 0.83331 7.92961 0.833318 6.70444 0.833328ZM12.4732 4.57411C12.5002 5.16195 12.5002 5.84307 12.5002 6.62902V6.70427C12.5002 7.92943 12.5002 8.89987 12.3981 9.65934C12.293 10.441 12.0716 11.0736 11.5727 11.5725C11.0738 12.0714 10.4411 12.2928 9.65951 12.3979C8.90004 12.5 7.92963 12.5 6.70447 12.5H6.62922C5.84336 12.5 5.16227 12.5 4.57447 12.4731C4.67281 12.9719 4.83166 13.2869 5.07186 13.5271C5.35649 13.8117 5.74618 13.9821 6.42154 14.0729C7.11128 14.1656 8.02041 14.1667 9.29965 14.1667C10.5789 14.1667 11.488 14.1656 12.1778 14.0729C12.8531 13.9821 13.2428 13.8117 13.5274 13.5271C13.8121 13.2425 13.9824 12.8528 14.0732 12.1774C14.166 11.4877 14.167 10.5786 14.167 9.29932C14.167 8.02008 14.166 7.11095 14.0732 6.42121C13.9824 5.74585 13.8121 5.35616 13.5274 5.07153C13.2872 4.8313 12.9721 4.67244 12.4732 4.57411ZM2.4681 2.46793C2.75024 2.18579 3.13667 2.01668 3.8074 1.9265C4.49251 1.83439 5.39562 1.83333 6.66683 1.83333C7.93804 1.83333 8.84115 1.83439 9.52627 1.9265C10.197 2.01668 10.5834 2.18579 10.8656 2.46793C11.1477 2.75007 11.3168 3.1365 11.407 3.80723C11.4991 4.49234 11.5002 5.39545 11.5002 6.66666C11.5002 7.93788 11.4991 8.84099 11.407 9.5261C11.3168 10.1968 11.1477 10.5833 10.8656 10.8654C10.7069 11.0241 10.5152 11.147 10.2585 11.2402C9.76341 10.0717 8.88326 9.04656 7.72438 8.27821C6.26131 7.30818 4.43757 6.80149 2.57777 6.83488C2.32924 6.83446 2.08091 6.84307 1.83352 6.86065L1.8335 6.66666C1.8335 5.39545 1.83456 4.49234 1.92667 3.80723C2.01685 3.1365 2.18596 2.75007 2.4681 2.46793ZM7.17179 9.11166C8.11771 9.73881 8.82668 10.5447 9.25125 11.438C8.60316 11.4992 7.77481 11.5 6.66683 11.5C5.39562 11.5 4.49251 11.4989 3.8074 11.4068C3.13667 11.3166 2.75024 11.1475 2.4681 10.8654C2.18596 10.5833 2.01685 10.1968 1.92667 9.5261C1.86652 9.07868 1.84519 8.53829 1.83764 7.86313C2.08444 7.84378 2.33245 7.83434 2.58075 7.83489L2.59109 7.8348C4.26542 7.80384 5.88897 8.26114 7.17179 9.11166Z" fill="#384250"/>
</svg>
