<svg width="16" height="16" viewBox="0 0 16 16" fill="none" xmlns="http://www.w3.org/2000/svg">
<path fill-rule="evenodd" clip-rule="evenodd" d="M11.0001 3.49996C10.1717 3.49996 9.50008 4.17153 9.50008 4.99996C9.50008 5.82839 10.1717 6.49996 11.0001 6.49996C11.8285 6.49996 12.5001 5.82839 12.5001 4.99996C12.5001 4.17153 11.8285 3.49996 11.0001 3.49996ZM10.5001 4.99996C10.5001 4.72382 10.7239 4.49996 11.0001 4.49996C11.2762 4.49996 11.5001 4.72382 11.5001 4.99996C11.5001 5.2761 11.2762 5.49996 11.0001 5.49996C10.7239 5.49996 10.5001 5.2761 10.5001 4.99996Z" fill="#384250"/>
<path fill-rule="evenodd" clip-rule="evenodd" d="M8.0382 1.16663H7.96197C6.5015 1.16662 5.35438 1.16661 4.45876 1.28702C3.54099 1.41041 2.81282 1.66844 2.24069 2.24057C1.66856 2.8127 1.41054 3.54087 1.28714 4.45864C1.16673 5.35425 1.16674 6.50137 1.16675 7.96184V8.03808C1.16674 9.49855 1.16673 10.6457 1.28714 11.5413C1.41054 12.459 1.66856 13.1872 2.24069 13.7594C2.81282 14.3315 3.54099 14.5895 4.45876 14.7129C5.35437 14.8333 6.50148 14.8333 7.96195 14.8333H8.03819C9.49866 14.8333 10.6458 14.8333 11.5414 14.7129C12.4592 14.5895 13.1873 14.3315 13.7595 13.7594C14.3316 13.1872 14.5896 12.459 14.713 11.5413C14.8334 10.6457 14.8334 9.49856 14.8334 8.03809V7.96185C14.8334 6.50139 14.8334 5.35425 14.713 4.45864C14.5896 3.54087 14.3316 2.8127 13.7595 2.24057C13.1873 1.66844 12.4592 1.41041 11.5414 1.28702C10.6458 1.16661 9.49867 1.16662 8.0382 1.16663ZM2.9478 2.94767C3.30316 2.59231 3.78513 2.38659 4.59201 2.2781C5.41328 2.16769 6.49317 2.16663 8.00008 2.16663C9.507 2.16663 10.5869 2.16769 11.4082 2.2781C12.215 2.38659 12.697 2.59231 13.0524 2.94767C13.4077 3.30304 13.6135 3.78501 13.7219 4.59189C13.8324 5.41316 13.8334 6.49304 13.8334 7.99996C13.8334 8.95207 13.833 9.73372 13.8048 10.3874C13.2968 10.2409 12.7795 10.1662 12.2584 10.1667C11.141 10.1625 10.0479 10.4992 9.02548 11.1386C8.76985 10.9046 8.49623 10.6847 8.20597 10.4805C6.63637 9.37612 4.67576 8.7969 2.67336 8.83507C2.50465 8.83476 2.33604 8.83856 2.16772 8.84645C2.16679 8.58017 2.16675 8.29844 2.16675 7.99996C2.16675 6.49304 2.16781 5.41316 2.27823 4.59189C2.38671 3.78501 2.59243 3.30304 2.9478 2.94767ZM9.735 11.8783C10.22 12.456 10.6096 13.0945 10.8889 13.7754C11.073 13.7612 11.2456 13.7437 11.4082 13.7218C12.215 13.6133 12.697 13.4076 13.0524 13.0522C13.4076 12.697 13.6134 12.2151 13.7219 11.4086C13.2363 11.2465 12.7467 11.1662 12.2582 11.1667L12.2557 11.1667C11.4123 11.1633 10.5623 11.3985 9.735 11.8783ZM7.63053 11.2983C8.60041 11.9807 9.34493 12.851 9.81508 13.8223C9.2886 13.8331 8.68896 13.8333 8.00008 13.8333C6.49317 13.8333 5.41328 13.8322 4.59201 13.7218C3.78513 13.6133 3.30316 13.4076 2.9478 13.0522C2.59243 12.6969 2.38671 12.2149 2.27823 11.408C2.21932 10.9699 2.19153 10.4581 2.17843 9.84711C2.34419 9.83871 2.5103 9.83469 2.67652 9.83507L2.68749 9.83498C4.49111 9.79959 6.24299 10.3221 7.63053 11.2983Z" fill="#384250"/>
</svg>
