<svg width="24" height="24" viewBox="0 0 24 24" fill="none" xmlns="http://www.w3.org/2000/svg">
<path d="M11.8907 10.276C12.11 10.3055 12.3902 10.3813 12.626 10.6171C12.8618 10.8528 12.9377 11.133 12.9672 11.3524C12.9924 11.5396 12.9923 11.7614 12.9922 11.9665L12.9922 16.001C12.9922 16.4152 12.6564 16.751 12.2422 16.751C11.828 16.751 11.4922 16.4152 11.4922 16.001V12.001C11.4922 11.9019 11.4922 11.8216 11.491 11.7521C11.4216 11.751 11.3413 11.751 11.2422 11.751C10.828 11.751 10.4922 11.4152 10.4922 11.001C10.4922 10.5868 10.828 10.251 11.2422 10.251L11.2766 10.251C11.4817 10.2509 11.7035 10.2508 11.8907 10.276Z" fill="#067647"/>
<path d="M11.9922 7.00098C11.4399 7.00098 10.9922 7.44869 10.9922 8.00098C10.9922 8.55326 11.4399 9.00098 11.9922 9.00098H12.0012C12.5535 9.00098 13.0012 8.55326 13.0012 8.00098C13.0012 7.44869 12.5535 7.00098 12.0012 7.00098H11.9922Z" fill="#067647"/>
<path fill-rule="evenodd" clip-rule="evenodd" d="M12.0003 22.751H11.8303C10.7803 22.671 10.1203 21.921 9.59033 21.311L9.57944 21.2985C9.24349 20.9132 8.9267 20.5497 8.59033 20.431C8.23548 20.3029 7.75431 20.3399 7.24261 20.3793L7.18596 20.3837C6.2917 20.4534 5.17942 20.5401 4.33034 19.691C3.50433 18.865 3.57759 17.7586 3.63732 16.8567L3.64033 16.811L3.64202 16.7887C3.68143 16.267 3.7185 15.7761 3.59033 15.431C3.46033 15.091 3.10033 14.771 2.71033 14.431C2.10033 13.901 1.35033 13.241 1.27033 12.191C1.18033 10.941 2.02033 10.201 2.71033 9.61102L2.72328 9.59974C3.1085 9.26394 3.47177 8.94726 3.60033 8.61102C3.72851 8.26594 3.69143 7.77505 3.65202 7.25336L3.65034 7.23102C3.58034 6.32102 3.50033 5.19101 4.34033 4.35101C5.20033 3.49101 6.33034 3.58101 7.23034 3.66101L7.32523 3.6684C7.81077 3.7064 8.27168 3.74248 8.60033 3.61102C8.94033 3.48102 9.26033 3.12102 9.60033 2.73102C10.1303 2.12102 10.7903 1.37102 11.8403 1.29102H12.1803C13.2285 1.37012 13.8855 2.11413 14.4125 2.71086L14.4303 2.73102L14.4412 2.74352C14.7772 3.1289 15.094 3.49231 15.4303 3.61102C15.7852 3.73916 16.2663 3.70212 16.778 3.66273L16.8003 3.66101C17.7003 3.58101 18.8303 3.49101 19.6903 4.35101C20.5503 5.22101 20.4603 6.34103 20.3803 7.24103L20.373 7.33579C20.3349 7.82137 20.2989 8.28234 20.4303 8.61102C20.5545 8.9357 20.8975 9.24213 21.259 9.56516L21.3103 9.61102C21.9203 10.141 22.6703 10.801 22.7503 11.851C22.8403 13.101 21.9903 13.851 21.3103 14.441C20.9403 14.761 20.6003 15.061 20.4503 15.381C20.2818 15.7379 20.3295 16.2617 20.379 16.8065L20.3803 16.821C20.4603 17.721 20.5503 18.841 19.6903 19.701C18.8503 20.541 17.7203 20.4611 16.8103 20.3911L16.7879 20.3894C16.2662 20.35 15.7754 20.3129 15.4303 20.441C15.0903 20.571 14.7703 20.931 14.4303 21.321C13.9003 21.931 13.2403 22.681 12.1903 22.761H12.0103L12.0003 22.751ZM7.95033 18.8311C8.34033 18.8311 8.73034 18.871 9.11034 19.011C9.7808 19.2601 10.2494 19.7843 10.6656 20.2499L10.7203 20.311C11.2103 20.871 11.5303 21.211 11.9403 21.241H12.0703C12.4803 21.211 12.8003 20.871 13.2903 20.311L13.2975 20.3029C13.7257 19.815 14.2042 19.2696 14.9003 19.011C15.5603 18.771 16.2503 18.821 16.9203 18.871C17.7603 18.931 18.3003 18.951 18.6303 18.621C18.9803 18.271 18.9603 17.741 18.8903 16.921L18.8893 16.9097C18.8296 16.2225 18.7621 15.4471 19.0903 14.731C19.3688 14.1243 19.8749 13.6858 20.3231 13.2973L20.3303 13.291C20.9303 12.771 21.3003 12.421 21.2603 11.941C21.2303 11.531 20.8903 11.211 20.3303 10.721L20.3219 10.7136C19.8341 10.2855 19.2888 9.80703 19.0203 9.11102C18.7726 8.44722 18.8293 7.73439 18.8789 7.10858L18.8803 7.09106C18.9503 6.26106 18.9703 5.74104 18.6203 5.38104C18.2703 5.03104 17.7403 5.05103 16.9103 5.12103L16.8929 5.12241C16.2671 5.17211 15.5542 5.22872 14.8903 4.98102C14.2199 4.73199 13.7512 4.20775 13.335 3.74219L13.2803 3.68103C12.7903 3.12103 12.4703 2.78104 12.0603 2.75104H11.9203C11.5203 2.78104 11.2003 3.12103 10.7103 3.68103L10.7032 3.68917C10.275 4.17711 9.79646 4.72246 9.10033 4.98102C8.43649 5.22872 7.72357 5.17211 7.09773 5.12241L7.08034 5.12103C6.25034 5.05103 5.73034 5.03104 5.37034 5.38104C5.04034 5.71104 5.06034 6.25106 5.12034 7.09106C5.17034 7.76106 5.22034 8.45102 4.98034 9.11102C4.72034 9.81102 4.16033 10.301 3.67033 10.721C3.05033 11.261 2.71033 11.581 2.74033 12.061C2.77033 12.471 3.11033 12.7911 3.67033 13.2811L3.70436 13.3109C4.18602 13.7333 4.72634 14.2072 4.98034 14.8911C5.22034 15.5511 5.17034 16.241 5.12034 16.911C5.06034 17.751 5.04034 18.291 5.37034 18.621C5.72034 18.971 6.25034 18.951 7.08034 18.881C7.1379 18.8768 7.19637 18.8721 7.25566 18.8673C7.47429 18.8496 7.70449 18.8311 7.94034 18.8311H7.95033Z" fill="#067647"/>
</svg>
