<svg width="16" height="16" viewBox="0 0 16 16" fill="none" xmlns="http://www.w3.org/2000/svg">
<path d="M7.92699 6.85063C8.07316 6.87028 8.25998 6.92082 8.41718 7.07802C8.57437 7.23521 8.62496 7.42198 8.64463 7.56824C8.66141 7.69306 8.66136 7.84092 8.6613 7.97766L8.6613 10.6673C8.6613 10.9435 8.43744 11.1673 8.1613 11.1673C7.88515 11.1673 7.6613 10.9435 7.6613 10.6673V8.00064C7.6613 7.93459 7.66127 7.88105 7.66053 7.83474C7.61422 7.834 7.56068 7.83398 7.49463 7.83398C7.21849 7.83398 6.99463 7.61012 6.99463 7.33398C6.99463 7.05783 7.21849 6.83398 7.49463 6.83398L7.51759 6.83397C7.65433 6.83392 7.80219 6.83386 7.92699 6.85063Z" fill="#384250"/>
<path d="M7.99463 4.6673C7.62644 4.6673 7.32796 4.96577 7.32796 5.33396C7.32796 5.70215 7.62644 6.00063 7.99463 6.00063H8.00063C8.36882 6.00063 8.6673 5.70215 8.6673 5.33396C8.6673 4.96577 8.36882 4.6673 8.00063 4.6673H7.99463Z" fill="#384250"/>
<path fill-rule="evenodd" clip-rule="evenodd" d="M8.00006 15.1673H7.88673C7.18673 15.114 6.74673 14.614 6.39339 14.2073L6.38613 14.199C6.16216 13.9421 5.95097 13.6998 5.72673 13.6207C5.49015 13.5352 5.16938 13.5599 4.82824 13.5862L4.79048 13.5891C4.1943 13.6356 3.45279 13.6934 2.88673 13.1273C2.33606 12.5767 2.3849 11.839 2.42471 11.2378L2.42673 11.2073L2.42785 11.1924C2.45412 10.8446 2.47884 10.5174 2.39339 10.2873C2.30672 10.0607 2.06673 9.84733 1.80673 9.62067C1.40006 9.26733 0.900059 8.82734 0.846725 8.12734C0.786725 7.29401 1.34673 6.80066 1.80673 6.40733L1.81535 6.39981C2.07217 6.17594 2.31435 5.96482 2.40006 5.74066C2.48551 5.51061 2.46079 5.18335 2.43452 4.83555L2.4334 4.82066C2.38673 4.21399 2.33339 3.46066 2.89339 2.90066C3.46673 2.32732 4.22006 2.38732 4.82006 2.44065L4.88332 2.44558C5.20702 2.47092 5.51429 2.49497 5.73339 2.40733C5.96006 2.32066 6.17339 2.08066 6.40006 1.82066C6.75339 1.41399 7.19339 0.91399 7.89339 0.860657H8.12006C8.81884 0.913394 9.25687 1.4094 9.60819 1.80722L9.62006 1.82066L9.62732 1.82899C9.85129 2.08591 10.0625 2.32818 10.2867 2.40733C10.5233 2.49276 10.8441 2.46806 11.1852 2.4418L11.2001 2.44065C11.8001 2.38732 12.5534 2.32732 13.1267 2.90066C13.7001 3.48066 13.6401 4.22733 13.5867 4.82733L13.5818 4.8905C13.5565 5.21423 13.5324 5.52154 13.6201 5.74066C13.7028 5.95711 13.9315 6.1614 14.1725 6.37675L14.2067 6.40733C14.6134 6.76066 15.1134 7.20066 15.1667 7.90066C15.2267 8.73399 14.6601 9.23401 14.2067 9.62734C13.9601 9.84067 13.7334 10.0407 13.6334 10.254C13.5211 10.4919 13.5528 10.8411 13.5858 11.2043L13.5867 11.214C13.6401 11.814 13.7001 12.5607 13.1267 13.134C12.5667 13.694 11.8134 13.6407 11.2067 13.594L11.1918 13.5929C10.844 13.5666 10.5168 13.5419 10.2867 13.6273C10.0601 13.714 9.84673 13.954 9.62006 14.214C9.26673 14.6207 8.82673 15.1207 8.12673 15.174H8.00673L8.00006 15.1673ZM5.30006 12.554C5.56006 12.554 5.82006 12.5807 6.07339 12.674C6.52037 12.84 6.8328 13.1895 7.11026 13.4999L7.14673 13.5407C7.4734 13.914 7.68673 14.1407 7.96006 14.1607H8.04673C8.32006 14.1407 8.5334 13.914 8.86006 13.5407L8.86483 13.5352C9.15028 13.21 9.46931 12.8464 9.9334 12.674C10.3734 12.514 10.8334 12.5473 11.2801 12.5807C11.8401 12.6207 12.2001 12.634 12.4201 12.414C12.6534 12.1807 12.6401 11.8273 12.5934 11.2807L12.5927 11.2731C12.5529 10.815 12.5079 10.298 12.7267 9.82066C12.9124 9.41618 13.2497 9.12382 13.5485 8.86486L13.5534 8.86066C13.9534 8.51399 14.2001 8.28067 14.1734 7.96067C14.1534 7.68734 13.9267 7.47399 13.5534 7.14732L13.5478 7.14241C13.2226 6.857 12.859 6.538 12.6801 6.074C12.5149 5.63146 12.5527 5.15624 12.5858 4.73903L12.5867 4.72736C12.6334 4.17402 12.6467 3.82734 12.4134 3.58734C12.1801 3.35401 11.8267 3.36733 11.2734 3.414L11.2618 3.41492C10.8446 3.44805 10.3693 3.48579 9.92673 3.32066C9.47975 3.15464 9.16732 2.80515 8.88987 2.49477L8.85339 2.454C8.52673 2.08067 8.31339 1.854 8.04006 1.834H7.94673C7.68006 1.854 7.46673 2.08067 7.14006 2.454L7.1353 2.45943C6.84985 2.78472 6.53081 3.14828 6.06673 3.32066C5.62417 3.48579 5.14888 3.44805 4.73166 3.41492L4.72006 3.414C4.16673 3.36733 3.82006 3.35401 3.58006 3.58734C3.36006 3.80734 3.3734 4.16736 3.4134 4.72736C3.44673 5.17402 3.48006 5.634 3.32006 6.074C3.14673 6.54066 2.77339 6.86732 2.44673 7.14732C2.03339 7.50732 1.80673 7.72067 1.82673 8.04067C1.84673 8.314 2.07339 8.52736 2.44673 8.85402L2.46941 8.87392C2.79051 9.15554 3.15073 9.47145 3.32006 9.92735C3.48006 10.3673 3.44673 10.8273 3.4134 11.274C3.3734 11.834 3.36006 12.194 3.58006 12.414C3.8134 12.6473 4.16673 12.634 4.72006 12.5873C4.75844 12.5845 4.79742 12.5814 4.83694 12.5782C4.9827 12.5664 5.13616 12.554 5.2934 12.554H5.30006Z" fill="#384250"/>
</svg>
