<svg width="18" height="18" viewBox="0 0 18 18" fill="none" xmlns="http://www.w3.org/2000/svg">
<g id="elements">
<g id="Icon">
<path d="M8.57521 8.79248C8.51733 8.79155 8.45041 8.79152 8.36784 8.79152C8.02266 8.79152 7.74284 8.5117 7.74284 8.16652C7.74284 7.82134 8.02266 7.54152 8.36784 7.54152L8.39654 7.54151C8.56747 7.54144 8.7523 7.54137 8.90832 7.56235C9.09108 7.58692 9.32458 7.65012 9.52108 7.84662C9.71758 8.04312 9.78077 8.27661 9.80534 8.45938C9.82632 8.61539 9.82625 8.80022 9.82618 8.97115L9.82617 13.1665C9.82617 13.5117 9.54635 13.7915 9.20117 13.7915C8.85599 13.7915 8.57617 13.5117 8.57617 13.1665V8.99985C8.57617 8.91729 8.57614 8.85036 8.57521 8.79248Z" fill="#175CD3"/>
<path d="M8.99284 4.83317C8.5326 4.83317 8.15951 5.20627 8.15951 5.6665C8.15951 6.12674 8.5326 6.49984 8.99284 6.49984H9.00032C9.46056 6.49984 9.83366 6.12674 9.83366 5.6665C9.83366 5.20627 9.46056 4.83317 9.00032 4.83317H8.99284Z" fill="#175CD3"/>
<path fill-rule="evenodd" clip-rule="evenodd" d="M0.0410156 8.99984C0.0410156 13.9474 4.0518 17.9582 8.99935 17.9582C13.9469 17.9582 17.9577 13.9474 17.9577 8.99984C17.9577 4.05229 13.9469 0.0415039 8.99935 0.0415039C4.0518 0.0415039 0.0410156 4.05229 0.0410156 8.99984ZM8.99935 16.7082C4.74215 16.7082 1.29102 13.257 1.29102 8.99984C1.29102 4.74264 4.74215 1.2915 8.99935 1.2915C13.2565 1.2915 16.7077 4.74264 16.7077 8.99984C16.7077 13.257 13.2565 16.7082 8.99935 16.7082Z" fill="#175CD3"/>
<path d="M8.57521 8.79248C8.51733 8.79155 8.45041 8.79152 8.36784 8.79152C8.02266 8.79152 7.74284 8.5117 7.74284 8.16652C7.74284 7.82134 8.02266 7.54152 8.36784 7.54152L8.39654 7.54151C8.56747 7.54144 8.7523 7.54137 8.90832 7.56235C9.09108 7.58692 9.32458 7.65012 9.52108 7.84662C9.71758 8.04312 9.78077 8.27661 9.80534 8.45938C9.82632 8.61539 9.82625 8.80022 9.82618 8.97115L9.82617 13.1665C9.82617 13.5117 9.54635 13.7915 9.20117 13.7915C8.85599 13.7915 8.57617 13.5117 8.57617 13.1665V8.99985C8.57617 8.91729 8.57614 8.85036 8.57521 8.79248Z" stroke="#175CD3"/>
<path d="M8.99284 4.83317C8.5326 4.83317 8.15951 5.20627 8.15951 5.6665C8.15951 6.12674 8.5326 6.49984 8.99284 6.49984H9.00032C9.46056 6.49984 9.83366 6.12674 9.83366 5.6665C9.83366 5.20627 9.46056 4.83317 9.00032 4.83317H8.99284Z" stroke="#175CD3"/>
<path fill-rule="evenodd" clip-rule="evenodd" d="M0.0410156 8.99984C0.0410156 13.9474 4.0518 17.9582 8.99935 17.9582C13.9469 17.9582 17.9577 13.9474 17.9577 8.99984C17.9577 4.05229 13.9469 0.0415039 8.99935 0.0415039C4.0518 0.0415039 0.0410156 4.05229 0.0410156 8.99984ZM8.99935 16.7082C4.74215 16.7082 1.29102 13.257 1.29102 8.99984C1.29102 4.74264 4.74215 1.2915 8.99935 1.2915C13.2565 1.2915 16.7077 4.74264 16.7077 8.99984C16.7077 13.257 13.2565 16.7082 8.99935 16.7082Z" stroke="#175CD3"/>
</g>
</g>
</svg>
