<svg width="14" height="14" viewBox="0 0 14 14" fill="none" xmlns="http://www.w3.org/2000/svg">
<g id="elements">
<g id="Icon">
<path fill-rule="evenodd" clip-rule="evenodd" d="M9.36006 0.729187H9.01511C8.5566 0.729175 8.17417 0.729164 7.8705 0.764887C7.55372 0.802154 7.2564 0.884317 7.01098 1.09906C6.75716 1.32115 6.65164 1.60324 6.60503 1.90659C6.56253 2.18324 6.56255 2.52751 6.56258 2.92115V3.49555C6.56255 3.88919 6.56253 4.23347 6.60503 4.51012C6.65164 4.81347 6.75716 5.09556 7.01098 5.31765C7.2564 5.53239 7.55372 5.61456 7.8705 5.65182C8.17417 5.68755 8.55659 5.68754 9.01512 5.68752H9.36005C9.81858 5.68754 10.201 5.68755 10.5047 5.65182C10.8215 5.61456 11.1188 5.53239 11.3642 5.31765C11.5442 5.16017 11.6496 4.97253 11.7123 4.76854C11.7898 4.81842 11.8633 4.86245 11.9326 4.89908C12.1489 5.01343 12.4459 5.12266 12.7595 4.98662C13.0911 4.84282 13.1952 4.53546 13.2343 4.29351C13.271 4.06652 13.271 3.76924 13.2709 3.44274V2.97397C13.271 2.64747 13.271 2.35019 13.2343 2.1232C13.1952 1.88125 13.0911 1.57389 12.7595 1.43009C12.4459 1.29405 12.1489 1.40328 11.9326 1.51763C11.8633 1.55426 11.7898 1.59829 11.7123 1.64817C11.6496 1.44418 11.5442 1.25654 11.3642 1.09906C11.1188 0.884317 10.8215 0.802154 10.5047 0.764887C10.201 0.729164 9.81858 0.729175 9.36006 0.729187ZM12.3415 4.12551C12.214 4.05808 12.0508 3.94516 11.812 3.77363C11.8126 3.68406 11.8126 3.59132 11.8126 3.49566V2.92117C11.8126 2.8255 11.8126 2.73265 11.812 2.64308C12.0508 2.47155 12.214 2.35863 12.3415 2.2912C12.3527 2.28527 12.363 2.28004 12.3725 2.27543C12.3946 2.42392 12.3959 2.64618 12.3959 3.0088V3.40791C12.3959 3.77053 12.3946 3.99279 12.3725 4.14127C12.363 4.13667 12.3527 4.13144 12.3415 4.12551ZM7.58718 1.75756C7.64075 1.71068 7.73355 1.66203 7.97274 1.63389C8.21918 1.6049 8.54967 1.60419 9.04175 1.60419H9.33342C9.8255 1.60419 10.156 1.6049 10.4024 1.63389C10.6416 1.66203 10.7344 1.71068 10.788 1.75756C10.8332 1.79709 10.8771 1.85634 10.9053 2.03948C10.9364 2.24183 10.9376 2.518 10.9376 2.95315V3.46356C10.9376 3.89871 10.9364 4.17488 10.9053 4.37724C10.8771 4.56037 10.8332 4.61962 10.788 4.65915C10.7344 4.70603 10.6416 4.75468 10.4024 4.78282C10.156 4.81181 9.8255 4.81252 9.33342 4.81252H9.04175C8.54967 4.81252 8.21918 4.81181 7.97274 4.78282C7.73355 4.75468 7.64075 4.70603 7.58718 4.65915C7.542 4.61962 7.49802 4.56037 7.46988 4.37724C7.43879 4.17488 7.43759 3.89871 7.43759 3.46356V2.95315C7.43759 2.518 7.43879 2.24183 7.46988 2.03947C7.49802 1.85634 7.542 1.79709 7.58718 1.75756Z" fill="#1849A9"/>
<path fill-rule="evenodd" clip-rule="evenodd" d="M4.63642 1.31252L5.25008 1.31252C5.49171 1.31252 5.68758 1.5084 5.68758 1.75002C5.68758 1.99165 5.49171 2.18752 5.25008 2.18752H4.66675C4.10441 2.18752 3.72667 2.18845 3.4449 2.22633C3.17571 2.26253 3.0605 2.32507 2.98448 2.40109C2.90847 2.47711 2.84592 2.59231 2.80973 2.8615C2.77185 3.14327 2.77092 3.52102 2.77092 4.08336V8.31252H11.2292V6.70836C11.2292 6.46673 11.4251 6.27086 11.6667 6.27086C11.9084 6.27086 12.1042 6.46673 12.1042 6.70836V8.69105L12.3443 9.13385C12.7679 9.91522 13.0531 10.5372 13.1849 11.0534C13.3203 11.5836 13.3043 12.0455 13.0744 12.4633C12.8173 12.9302 12.3579 13.1123 11.8426 13.193C11.3447 13.2709 10.6806 13.2709 9.86603 13.2709H4.13403C3.31942 13.2709 2.65535 13.2709 2.1574 13.193C1.64215 13.1123 1.18279 12.9302 0.925687 12.4633C0.695708 12.0456 0.679755 11.5836 0.815109 11.0534C0.946641 10.5381 1.23104 9.91748 1.65337 9.1381L1.89592 8.66621L1.89592 4.05302C1.8959 3.52891 1.89588 3.09186 1.94253 2.74491C1.99177 2.3787 2.10007 2.04806 2.36577 1.78237C2.63146 1.51668 2.96209 1.40837 3.3283 1.35914C3.67526 1.31249 4.1123 1.3125 4.63642 1.31252ZM2.61178 9.18752L2.42941 9.54236L2.42491 9.55087C2.00684 10.322 1.76639 10.8645 1.66292 11.2698C1.56304 11.6611 1.60225 11.8779 1.69219 12.0413C1.75502 12.1554 1.87974 12.2638 2.29269 12.3285C2.71491 12.3946 3.30978 12.3959 4.17354 12.3959H9.82649C10.6903 12.3959 11.2851 12.3946 11.7073 12.3285C12.1203 12.2638 12.245 12.1554 12.3078 12.0413C12.3978 11.8779 12.437 11.6611 12.3371 11.2698C12.2336 10.8645 11.9931 10.322 11.5751 9.55087L11.3781 9.18752H2.61178Z" fill="#1849A9"/>
</g>
</g>
</svg>
