<svg width="44" height="44" viewBox="0 0 44 44" fill="none" xmlns="http://www.w3.org/2000/svg">
<g clip-path="url(#clip0_5698_32521)">
<path d="M44 22C44 34.1503 34.1503 44 22 44C9.84974 44 0 34.1503 0 22C0 9.84974 9.84974 0 22 0C34.1503 0 44 9.84974 44 22ZM3.96 22C3.96 31.9632 12.0368 40.04 22 40.04C31.9632 40.04 40.04 31.9632 40.04 22C40.04 12.0368 31.9632 3.96 22 3.96C12.0368 3.96 3.96 12.0368 3.96 22Z" fill="#F3F4F6"/>
<path d="M22 42.02C22 43.1135 22.8883 44.0092 23.9773 43.911C26.1886 43.7114 28.3608 43.1779 30.419 42.3254C33.0882 41.2197 35.5135 39.5992 37.5564 37.5564C39.5992 35.5135 41.2197 33.0882 42.3253 30.419C43.1779 28.3608 43.7114 26.1886 43.911 23.9774C44.0092 22.8883 43.1135 22 42.02 22C40.9265 22 40.0512 22.8891 39.9314 23.976C39.7451 25.6668 39.3203 27.326 38.6668 28.9036C37.7602 31.0923 36.4314 33.081 34.7562 34.7562C33.081 36.4314 31.0923 37.7602 28.9036 38.6668C27.326 39.3203 25.6668 39.7451 23.976 39.9314C22.8891 40.0512 22 40.9265 22 42.02Z" fill="#1B8354"/>
</g>
<defs>
<clipPath id="clip0_5698_32521">
<rect width="44" height="44" fill="white"/>
</clipPath>
</defs>
</svg>
