<svg width="36" height="36" viewBox="0 0 36 36" fill="none" xmlns="http://www.w3.org/2000/svg">
<path d="M21.9219 3.00635V8.83723C21.9219 9.6269 22.2364 10.3858 22.7975 10.9452C23.3599 11.5052 24.1214 11.8195 24.9151 11.8192H31.6038" stroke="#569A38" stroke-width="2" stroke-linecap="round" stroke-linejoin="round"/>
<path d="M31.7546 12.4355V26.3284C31.7224 27.2371 31.5107 28.1305 31.1317 28.957C30.7526 29.7836 30.2138 30.5269 29.5461 31.1442C28.8779 31.7644 28.0941 32.2469 27.2394 32.564C26.3847 32.8812 25.4759 33.0269 24.5649 32.9927H12.2578C11.3412 33.0346 10.4254 32.8952 9.56284 32.5824C8.70026 32.2697 7.9079 31.7898 7.23117 31.1702C6.55707 30.5512 6.01269 29.8044 5.62967 28.9732C5.24664 28.142 5.03261 27.243 5 26.3284V9.6692C5.03219 8.76048 5.24391 7.8671 5.62294 7.04057C6.00198 6.21404 6.54084 5.4707 7.20847 4.85337C7.87666 4.23319 8.66049 3.75073 9.51518 3.43356C10.3699 3.11639 11.2787 2.97072 12.1897 3.00487H21.4549C22.8693 2.99988 24.2346 3.52321 25.2832 4.47232L30.0828 8.88602C30.595 9.32719 31.0085 9.87124 31.2966 10.4828C31.5846 11.0943 31.7407 11.7596 31.7546 12.4355Z" stroke="#569A38" stroke-width="2" stroke-linecap="round" stroke-linejoin="round"/>
<path d="M13 20.0922L16.0468 23.1406C16.1539 23.2489 16.2814 23.335 16.4219 23.3937C16.5625 23.4524 16.7133 23.4826 16.8656 23.4826C17.018 23.4826 17.1688 23.4524 17.3093 23.3937C17.4499 23.335 17.5774 23.2489 17.6845 23.1406L23.8251 17" stroke="#569A38" stroke-width="2" stroke-linecap="round" stroke-linejoin="round"/>
</svg>
