<svg width="12" height="13" viewBox="0 0 12 13" fill="none" xmlns="http://www.w3.org/2000/svg">
<path d="M7.20459 1.00244V3.14043C7.20459 3.42998 7.31993 3.70822 7.52565 3.91334C7.73188 4.11868 8.01109 4.23392 8.30212 4.2338H10.7546" stroke="#212529" stroke-width="0.875" stroke-linecap="round" stroke-linejoin="round"/>
<path d="M10.81 4.45967V9.55375C10.7982 9.88695 10.7206 10.2145 10.5816 10.5176C10.4426 10.8206 10.245 11.0932 10.0003 11.3196C9.75525 11.547 9.46785 11.7239 9.15446 11.8402C8.84107 11.9564 8.50784 12.0099 8.1738 11.9973H3.66119C3.32512 12.0127 2.98932 11.9616 2.67304 11.8469C2.35676 11.7322 2.06623 11.5562 1.8181 11.3291C1.57093 11.1021 1.37132 10.8283 1.23088 10.5235C1.09044 10.2187 1.01196 9.8891 1 9.55375V3.44537C1.0118 3.11217 1.08943 2.7846 1.22841 2.48154C1.36739 2.17848 1.56497 1.90592 1.80977 1.67957C2.05477 1.45217 2.34218 1.27527 2.65557 1.15897C2.96895 1.04267 3.30218 0.989263 3.63622 1.00179H7.03346C7.55207 0.999955 8.05268 1.19184 8.43719 1.53985L10.197 3.15821C10.3848 3.31997 10.5365 3.51946 10.6421 3.74369C10.7477 3.96792 10.8049 4.21187 10.81 4.45967Z" stroke="#212529" stroke-width="0.875" stroke-linecap="round" stroke-linejoin="round"/>
</svg>
