<svg width="16" height="17" viewBox="0 0 16 17" fill="none" xmlns="http://www.w3.org/2000/svg">
<g id="mi:menu">
<g id="Vector">
<mask id="path-1-inside-1_478_1457" fill="white">
<path d="M2.6665 5.13957C2.6665 4.96276 2.73674 4.79319 2.86177 4.66816C2.98679 4.54314 3.15636 4.4729 3.33317 4.4729H12.6665C12.8433 4.4729 13.0129 4.54314 13.1379 4.66816C13.2629 4.79319 13.3332 4.96276 13.3332 5.13957C13.3332 5.31638 13.2629 5.48595 13.1379 5.61097C13.0129 5.736 12.8433 5.80623 12.6665 5.80623H3.33317C3.15636 5.80623 2.98679 5.736 2.86177 5.61097C2.73674 5.48595 2.6665 5.31638 2.6665 5.13957ZM2.6665 8.4729C2.6665 8.29609 2.73674 8.12652 2.86177 8.0015C2.98679 7.87647 3.15636 7.80623 3.33317 7.80623H12.6665C12.8433 7.80623 13.0129 7.87647 13.1379 8.0015C13.2629 8.12652 13.3332 8.29609 13.3332 8.4729C13.3332 8.64971 13.2629 8.81928 13.1379 8.9443C13.0129 9.06933 12.8433 9.13957 12.6665 9.13957H3.33317C3.15636 9.13957 2.98679 9.06933 2.86177 8.9443C2.73674 8.81928 2.6665 8.64971 2.6665 8.4729ZM2.6665 11.8062C2.6665 11.6294 2.73674 11.4599 2.86177 11.3348C2.98679 11.2098 3.15636 11.1396 3.33317 11.1396H12.6665C12.8433 11.1396 13.0129 11.2098 13.1379 11.3348C13.2629 11.4599 13.3332 11.6294 13.3332 11.8062C13.3332 11.983 13.2629 12.1526 13.1379 12.2776C13.0129 12.4027 12.8433 12.4729 12.6665 12.4729H3.33317C3.15636 12.4729 2.98679 12.4027 2.86177 12.2776C2.73674 12.1526 2.6665 11.983 2.6665 11.8062Z"/>
</mask>
<path d="M2.6665 5.13957C2.6665 4.96276 2.73674 4.79319 2.86177 4.66816C2.98679 4.54314 3.15636 4.4729 3.33317 4.4729H12.6665C12.8433 4.4729 13.0129 4.54314 13.1379 4.66816C13.2629 4.79319 13.3332 4.96276 13.3332 5.13957C13.3332 5.31638 13.2629 5.48595 13.1379 5.61097C13.0129 5.736 12.8433 5.80623 12.6665 5.80623H3.33317C3.15636 5.80623 2.98679 5.736 2.86177 5.61097C2.73674 5.48595 2.6665 5.31638 2.6665 5.13957ZM2.6665 8.4729C2.6665 8.29609 2.73674 8.12652 2.86177 8.0015C2.98679 7.87647 3.15636 7.80623 3.33317 7.80623H12.6665C12.8433 7.80623 13.0129 7.87647 13.1379 8.0015C13.2629 8.12652 13.3332 8.29609 13.3332 8.4729C13.3332 8.64971 13.2629 8.81928 13.1379 8.9443C13.0129 9.06933 12.8433 9.13957 12.6665 9.13957H3.33317C3.15636 9.13957 2.98679 9.06933 2.86177 8.9443C2.73674 8.81928 2.6665 8.64971 2.6665 8.4729ZM2.6665 11.8062C2.6665 11.6294 2.73674 11.4599 2.86177 11.3348C2.98679 11.2098 3.15636 11.1396 3.33317 11.1396H12.6665C12.8433 11.1396 13.0129 11.2098 13.1379 11.3348C13.2629 11.4599 13.3332 11.6294 13.3332 11.8062C13.3332 11.983 13.2629 12.1526 13.1379 12.2776C13.0129 12.4027 12.8433 12.4729 12.6665 12.4729H3.33317C3.15636 12.4729 2.98679 12.4027 2.86177 12.2776C2.73674 12.1526 2.6665 11.983 2.6665 11.8062Z" fill="#6A7383"/>
<path d="M3.33317 4.4729V5.9729V4.4729ZM4.1665 5.13957C4.1665 5.36058 4.07871 5.57254 3.92243 5.72882L1.80111 3.6075C1.39478 4.01383 1.1665 4.56493 1.1665 5.13957H4.1665ZM3.92243 5.72882C3.76615 5.8851 3.55419 5.9729 3.33317 5.9729L3.33317 2.9729C2.75853 2.9729 2.20743 3.20117 1.80111 3.6075L3.92243 5.72882ZM3.33317 5.9729H12.6665V2.9729H3.33317V5.9729ZM12.6665 5.9729C12.4455 5.9729 12.2335 5.8851 12.0772 5.72882L14.1986 3.6075C13.7922 3.20117 13.2411 2.9729 12.6665 2.9729V5.9729ZM12.0772 5.72882C11.921 5.57254 11.8332 5.36058 11.8332 5.13957H14.8332C14.8332 4.56493 14.6049 4.01383 14.1986 3.6075L12.0772 5.72882ZM11.8332 5.13957C11.8332 4.91856 11.921 4.70659 12.0772 4.55031L14.1986 6.67163C14.6049 6.2653 14.8332 5.7142 14.8332 5.13957H11.8332ZM12.0772 4.55031C12.2335 4.39403 12.4455 4.30623 12.6665 4.30623V7.30623C13.2411 7.30623 13.7922 7.07796 14.1986 6.67163L12.0772 4.55031ZM12.6665 4.30623H3.33317V7.30623H12.6665V4.30623ZM3.33317 4.30623C3.55419 4.30623 3.76615 4.39403 3.92243 4.55031L1.80111 6.67163C2.20743 7.07796 2.75853 7.30623 3.33317 7.30623V4.30623ZM3.92243 4.55031C4.07871 4.70659 4.1665 4.91855 4.1665 5.13957H1.1665C1.1665 5.7142 1.39478 6.2653 1.80111 6.67163L3.92243 4.55031ZM4.1665 8.4729C4.1665 8.69392 4.07871 8.90588 3.92243 9.06216L1.80111 6.94084C1.39478 7.34716 1.1665 7.89826 1.1665 8.4729H4.1665ZM3.92243 9.06216C3.76615 9.21844 3.55419 9.30623 3.33317 9.30623V6.30623C2.75853 6.30623 2.20743 6.53451 1.80111 6.94084L3.92243 9.06216ZM3.33317 9.30623H12.6665V6.30623H3.33317V9.30623ZM12.6665 9.30623C12.4455 9.30623 12.2335 9.21844 12.0772 9.06216L14.1986 6.94084C13.7922 6.53451 13.2411 6.30623 12.6665 6.30623V9.30623ZM12.0772 9.06216C11.921 8.90587 11.8332 8.69391 11.8332 8.4729H14.8332C14.8332 7.89827 14.6049 7.34717 14.1986 6.94084L12.0772 9.06216ZM11.8332 8.4729C11.8332 8.25189 11.921 8.03993 12.0772 7.88364L14.1986 10.005C14.6049 9.59863 14.8332 9.04753 14.8332 8.4729H11.8332ZM12.0772 7.88364C12.2335 7.72736 12.4455 7.63957 12.6665 7.63957V10.6396C13.2411 10.6396 13.7922 10.4113 14.1986 10.005L12.0772 7.88364ZM12.6665 7.63957H3.33317V10.6396H12.6665V7.63957ZM3.33317 7.63957C3.55419 7.63957 3.76615 7.72737 3.92243 7.88364L1.80111 10.005C2.20743 10.4113 2.75853 10.6396 3.33317 10.6396V7.63957ZM3.92243 7.88364C4.07871 8.03992 4.1665 8.25189 4.1665 8.4729H1.1665C1.1665 9.04754 1.39478 9.59864 1.80111 10.005L3.92243 7.88364ZM4.1665 11.8062C4.1665 12.0272 4.07871 12.2392 3.92243 12.3955L1.80111 10.2742C1.39478 10.6805 1.1665 11.2316 1.1665 11.8062H4.1665ZM3.92243 12.3955C3.76614 12.5518 3.55418 12.6396 3.33317 12.6396V9.63957C2.75854 9.63957 2.20744 9.86784 1.80111 10.2742L3.92243 12.3955ZM3.33317 12.6396H12.6665V9.63957H3.33317V12.6396ZM12.6665 12.6396C12.4455 12.6396 12.2335 12.5518 12.0772 12.3955L14.1986 10.2742C13.7922 9.86784 13.2411 9.63957 12.6665 9.63957V12.6396ZM12.0772 12.3955C11.921 12.2392 11.8332 12.0272 11.8332 11.8062H14.8332C14.8332 11.2316 14.6049 10.6805 14.1986 10.2742L12.0772 12.3955ZM11.8332 11.8062C11.8332 11.5852 11.921 11.3733 12.0772 11.217L14.1986 13.3383C14.6049 12.932 14.8332 12.3809 14.8332 11.8062H11.8332ZM12.0772 11.217C12.2335 11.0607 12.4455 10.9729 12.6665 10.9729V13.9729C13.2411 13.9729 13.7922 13.7446 14.1986 13.3383L12.0772 11.217ZM12.6665 10.9729H3.33317V13.9729H12.6665V10.9729ZM3.33317 10.9729C3.55418 10.9729 3.76614 11.0607 3.92243 11.217L1.80111 13.3383C2.20744 13.7446 2.75854 13.9729 3.33317 13.9729V10.9729ZM3.92243 11.217C4.07871 11.3733 4.1665 11.5852 4.1665 11.8062H1.1665C1.1665 12.3809 1.39478 12.932 1.80111 13.3383L3.92243 11.217Z" fill="#067647" mask="url(#path-1-inside-1_478_1457)"/>
</g>
</g>
</svg>
