<svg width="16" height="16" viewBox="0 0 16 16" fill="none" xmlns="http://www.w3.org/2000/svg">
<g id="mi:menu">
<g id="Vector">
<mask id="path-1-inside-1_478_1400" fill="white">
<path d="M2.6665 4.66667C2.6665 4.48986 2.73674 4.32029 2.86177 4.19526C2.98679 4.07024 3.15636 4 3.33317 4H12.6665C12.8433 4 13.0129 4.07024 13.1379 4.19526C13.2629 4.32029 13.3332 4.48986 13.3332 4.66667C13.3332 4.84348 13.2629 5.01305 13.1379 5.13807C13.0129 5.2631 12.8433 5.33333 12.6665 5.33333H3.33317C3.15636 5.33333 2.98679 5.2631 2.86177 5.13807C2.73674 5.01305 2.6665 4.84348 2.6665 4.66667ZM2.6665 8C2.6665 7.82319 2.73674 7.65362 2.86177 7.5286C2.98679 7.40357 3.15636 7.33333 3.33317 7.33333H12.6665C12.8433 7.33333 13.0129 7.40357 13.1379 7.5286C13.2629 7.65362 13.3332 7.82319 13.3332 8C13.3332 8.17681 13.2629 8.34638 13.1379 8.4714C13.0129 8.59643 12.8433 8.66667 12.6665 8.66667H3.33317C3.15636 8.66667 2.98679 8.59643 2.86177 8.4714C2.73674 8.34638 2.6665 8.17681 2.6665 8ZM2.6665 11.3333C2.6665 11.1565 2.73674 10.987 2.86177 10.8619C2.98679 10.7369 3.15636 10.6667 3.33317 10.6667H12.6665C12.8433 10.6667 13.0129 10.7369 13.1379 10.8619C13.2629 10.987 13.3332 11.1565 13.3332 11.3333C13.3332 11.5101 13.2629 11.6797 13.1379 11.8047C13.0129 11.9298 12.8433 12 12.6665 12H3.33317C3.15636 12 2.98679 11.9298 2.86177 11.8047C2.73674 11.6797 2.6665 11.5101 2.6665 11.3333Z"/>
</mask>
<path d="M2.6665 4.66667C2.6665 4.48986 2.73674 4.32029 2.86177 4.19526C2.98679 4.07024 3.15636 4 3.33317 4H12.6665C12.8433 4 13.0129 4.07024 13.1379 4.19526C13.2629 4.32029 13.3332 4.48986 13.3332 4.66667C13.3332 4.84348 13.2629 5.01305 13.1379 5.13807C13.0129 5.2631 12.8433 5.33333 12.6665 5.33333H3.33317C3.15636 5.33333 2.98679 5.2631 2.86177 5.13807C2.73674 5.01305 2.6665 4.84348 2.6665 4.66667ZM2.6665 8C2.6665 7.82319 2.73674 7.65362 2.86177 7.5286C2.98679 7.40357 3.15636 7.33333 3.33317 7.33333H12.6665C12.8433 7.33333 13.0129 7.40357 13.1379 7.5286C13.2629 7.65362 13.3332 7.82319 13.3332 8C13.3332 8.17681 13.2629 8.34638 13.1379 8.4714C13.0129 8.59643 12.8433 8.66667 12.6665 8.66667H3.33317C3.15636 8.66667 2.98679 8.59643 2.86177 8.4714C2.73674 8.34638 2.6665 8.17681 2.6665 8ZM2.6665 11.3333C2.6665 11.1565 2.73674 10.987 2.86177 10.8619C2.98679 10.7369 3.15636 10.6667 3.33317 10.6667H12.6665C12.8433 10.6667 13.0129 10.7369 13.1379 10.8619C13.2629 10.987 13.3332 11.1565 13.3332 11.3333C13.3332 11.5101 13.2629 11.6797 13.1379 11.8047C13.0129 11.9298 12.8433 12 12.6665 12H3.33317C3.15636 12 2.98679 11.9298 2.86177 11.8047C2.73674 11.6797 2.6665 11.5101 2.6665 11.3333Z" fill="white"/>
<path d="M3.33317 4V5.5V4ZM4.1665 4.66667C4.1665 4.88768 4.07871 5.09964 3.92243 5.25592L1.80111 3.1346C1.39478 3.54093 1.1665 4.09203 1.1665 4.66667H4.1665ZM3.92243 5.25592C3.76615 5.4122 3.55419 5.5 3.33317 5.5L3.33317 2.5C2.75853 2.5 2.20743 2.72827 1.80111 3.1346L3.92243 5.25592ZM3.33317 5.5H12.6665V2.5H3.33317V5.5ZM12.6665 5.5C12.4455 5.5 12.2335 5.4122 12.0772 5.25592L14.1986 3.1346C13.7922 2.72827 13.2411 2.5 12.6665 2.5V5.5ZM12.0772 5.25592C11.921 5.09964 11.8332 4.88768 11.8332 4.66667H14.8332C14.8332 4.09203 14.6049 3.54093 14.1986 3.1346L12.0772 5.25592ZM11.8332 4.66667C11.8332 4.44566 11.921 4.23369 12.0772 4.07741L14.1986 6.19873C14.6049 5.7924 14.8332 5.2413 14.8332 4.66667H11.8332ZM12.0772 4.07741C12.2335 3.92113 12.4455 3.83333 12.6665 3.83333V6.83333C13.2411 6.83333 13.7922 6.60506 14.1986 6.19873L12.0772 4.07741ZM12.6665 3.83333H3.33317V6.83333H12.6665V3.83333ZM3.33317 3.83333C3.55419 3.83333 3.76615 3.92113 3.92243 4.07741L1.80111 6.19873C2.20743 6.60506 2.75853 6.83333 3.33317 6.83333V3.83333ZM3.92243 4.07741C4.07871 4.23369 4.1665 4.44565 4.1665 4.66667H1.1665C1.1665 5.2413 1.39478 5.7924 1.80111 6.19873L3.92243 4.07741ZM4.1665 8C4.1665 8.22101 4.07871 8.43298 3.92243 8.58926L1.80111 6.46794C1.39478 6.87426 1.1665 7.42536 1.1665 8H4.1665ZM3.92243 8.58926C3.76615 8.74554 3.55419 8.83333 3.33317 8.83333V5.83333C2.75853 5.83333 2.20743 6.06161 1.80111 6.46794L3.92243 8.58926ZM3.33317 8.83333H12.6665V5.83333H3.33317V8.83333ZM12.6665 8.83333C12.4455 8.83333 12.2335 8.74554 12.0772 8.58926L14.1986 6.46794C13.7922 6.06161 13.2411 5.83333 12.6665 5.83333V8.83333ZM12.0772 8.58926C11.921 8.43297 11.8332 8.22101 11.8332 8H14.8332C14.8332 7.42537 14.6049 6.87427 14.1986 6.46794L12.0772 8.58926ZM11.8332 8C11.8332 7.77899 11.921 7.56703 12.0772 7.41074L14.1986 9.53206C14.6049 9.12573 14.8332 8.57463 14.8332 8H11.8332ZM12.0772 7.41074C12.2335 7.25446 12.4455 7.16667 12.6665 7.16667V10.1667C13.2411 10.1667 13.7922 9.93839 14.1986 9.53206L12.0772 7.41074ZM12.6665 7.16667H3.33317V10.1667H12.6665V7.16667ZM3.33317 7.16667C3.55419 7.16667 3.76615 7.25446 3.92243 7.41074L1.80111 9.53206C2.20743 9.93839 2.75853 10.1667 3.33317 10.1667V7.16667ZM3.92243 7.41074C4.07871 7.56702 4.1665 7.77899 4.1665 8H1.1665C1.1665 8.57464 1.39478 9.12574 1.80111 9.53206L3.92243 7.41074ZM4.1665 11.3333C4.1665 11.5543 4.07871 11.7663 3.92243 11.9226L1.80111 9.80127C1.39478 10.2076 1.1665 10.7587 1.1665 11.3333H4.1665ZM3.92243 11.9226C3.76614 12.0789 3.55418 12.1667 3.33317 12.1667V9.16667C2.75854 9.16667 2.20744 9.39494 1.80111 9.80127L3.92243 11.9226ZM3.33317 12.1667H12.6665V9.16667H3.33317V12.1667ZM12.6665 12.1667C12.4455 12.1667 12.2335 12.0789 12.0772 11.9226L14.1986 9.80127C13.7922 9.39494 13.2411 9.16667 12.6665 9.16667V12.1667ZM12.0772 11.9226C11.921 11.7663 11.8332 11.5543 11.8332 11.3333H14.8332C14.8332 10.7587 14.6049 10.2076 14.1986 9.80127L12.0772 11.9226ZM11.8332 11.3333C11.8332 11.1123 11.921 10.9004 12.0772 10.7441L14.1986 12.8654C14.6049 12.4591 14.8332 11.908 14.8332 11.3333H11.8332ZM12.0772 10.7441C12.2335 10.5878 12.4455 10.5 12.6665 10.5V13.5C13.2411 13.5 13.7922 13.2717 14.1986 12.8654L12.0772 10.7441ZM12.6665 10.5H3.33317V13.5H12.6665V10.5ZM3.33317 10.5C3.55418 10.5 3.76614 10.5878 3.92243 10.7441L1.80111 12.8654C2.20744 13.2717 2.75854 13.5 3.33317 13.5V10.5ZM3.92243 10.7441C4.07871 10.9004 4.1665 11.1123 4.1665 11.3333H1.1665C1.1665 11.908 1.39478 12.4591 1.80111 12.8654L3.92243 10.7441Z" fill="#F7FDF5" mask="url(#path-1-inside-1_478_1400)"/>
</g>
</g>
</svg>
