<svg width="12" height="16" viewBox="0 0 12 16" fill="none" xmlns="http://www.w3.org/2000/svg">
<g id="elements">
<g id="Icon">
<path fill-rule="evenodd" clip-rule="evenodd" d="M5.99984 11.1668C8.11693 11.1668 9.83317 9.45059 9.83317 7.3335V4.66683C9.83317 2.54974 8.11693 0.833496 5.99984 0.833496C3.88275 0.833496 2.1665 2.54974 2.1665 4.66683V7.3335C2.1665 9.45059 3.88275 11.1668 5.99984 11.1668ZM5.99984 1.8335C4.43503 1.8335 3.1665 3.10202 3.1665 4.66683V7.3335C3.1665 8.8983 4.43503 10.1668 5.99984 10.1668C7.39403 10.1668 8.55304 9.15983 8.78919 7.8335H7.33317C7.05703 7.8335 6.83317 7.60964 6.83317 7.3335C6.83317 7.05735 7.05703 6.8335 7.33317 6.8335H8.83317V5.16683H7.33317C7.05703 5.16683 6.83317 4.94297 6.83317 4.66683C6.83317 4.39069 7.05703 4.16683 7.33317 4.16683H8.78919C8.55304 2.84049 7.39403 1.8335 5.99984 1.8335Z" fill="#161616"/>
<path d="M1.1665 7.3335C1.1665 7.05735 0.942646 6.8335 0.666504 6.8335C0.390362 6.8335 0.166504 7.05735 0.166504 7.3335C0.166504 10.3867 2.51224 12.8921 5.49984 13.1457V14.1668H3.99984C3.72369 14.1668 3.49984 14.3907 3.49984 14.6668C3.49984 14.943 3.72369 15.1668 3.99984 15.1668H7.99984C8.27598 15.1668 8.49984 14.943 8.49984 14.6668C8.49984 14.3907 8.27598 14.1668 7.99984 14.1668H6.49984V13.1457C9.48744 12.8921 11.8332 10.3867 11.8332 7.3335C11.8332 7.05735 11.6093 6.8335 11.3332 6.8335C11.057 6.8335 10.8332 7.05735 10.8332 7.3335C10.8332 10.0029 8.66921 12.1668 5.99984 12.1668C3.33046 12.1668 1.1665 10.0029 1.1665 7.3335Z" fill="#161616"/>
</g>
</g>
</svg>
