<svg width="40" height="40" viewBox="0 0 40 40" fill="none" xmlns="http://www.w3.org/2000/svg">
<path d="M0 20C0 8.95431 8.95431 0 20 0C31.0457 0 40 8.95431 40 20C40 31.0457 31.0457 40 20 40C8.95431 40 0 31.0457 0 20Z" fill="#F9FAFB"/>
<path d="M20.6251 16.6666C20.6251 16.3214 20.3453 16.0416 20.0001 16.0416C19.6549 16.0416 19.3751 16.3214 19.3751 16.6666V19.375H16.6667C16.3216 19.375 16.0417 19.6548 16.0417 20C16.0417 20.3451 16.3216 20.625 16.6667 20.625H19.3751V23.3333C19.3751 23.6785 19.6549 23.9583 20.0001 23.9583C20.3453 23.9583 20.6251 23.6785 20.6251 23.3333V20.625H23.3334C23.6786 20.625 23.9584 20.3451 23.9584 20C23.9584 19.6548 23.6786 19.375 23.3334 19.375H20.6251V16.6666Z" fill="#161616"/>
<path fill-rule="evenodd" clip-rule="evenodd" d="M20.0001 28.9583C15.0525 28.9583 11.0417 24.9475 11.0417 20C11.0417 15.0524 15.0525 11.0416 20.0001 11.0416C24.9476 11.0416 28.9584 15.0524 28.9584 20C28.9584 24.9475 24.9476 28.9583 20.0001 28.9583ZM12.2917 20C12.2917 24.2572 15.7429 27.7083 20.0001 27.7083C24.2573 27.7083 27.7084 24.2572 27.7084 20C27.7084 15.7428 24.2573 12.2916 20.0001 12.2916C15.7429 12.2916 12.2917 15.7428 12.2917 20Z" fill="#161616"/>
</svg>
