<svg width="24" height="24" viewBox="0 0 24 24" fill="none" xmlns="http://www.w3.org/2000/svg">
<path d="M14.2965 8.40248C14.1889 8.48374 13.8677 8.72634 13.6826 8.87083C13.3118 9.16021 12.8191 9.55561 12.3278 9.98215C11.834 10.4108 11.3532 10.8612 10.9997 11.2613C10.8224 11.4619 10.6877 11.6381 10.6001 11.7835C10.5176 11.9203 10.5005 12.0011 10.5005 12.0011C10.5005 12.0011 10.5176 12.0795 10.6001 12.2162C10.6877 12.3617 10.8224 12.5379 10.9997 12.7385C11.3532 13.1386 11.8341 13.5889 12.3278 14.0176C12.8191 14.4441 13.3118 14.8396 13.6826 15.1289C13.8678 15.2734 14.1885 15.5157 14.296 15.5969C14.5184 15.7607 14.5664 16.074 14.4026 16.2964C14.2388 16.5187 13.9258 16.5662 13.7035 16.4025L13.7019 16.4013C13.5892 16.3162 13.2564 16.0648 13.0674 15.9173C12.6882 15.6214 12.1809 15.2144 11.6722 14.7727C11.1659 14.3332 10.6468 13.8494 10.2503 13.4006C10.0526 13.1768 9.87475 12.95 9.74366 12.7325C9.62085 12.5288 9.5 12.2709 9.5 11.9999C9.5 11.7289 9.62086 11.4709 9.74367 11.2672C9.87475 11.0498 10.0526 10.8229 10.2503 10.5991C10.6468 10.1504 11.1659 9.6666 11.6722 9.22705C12.1809 8.78535 12.6882 8.3784 13.0674 8.08248C13.2564 7.93494 13.5891 7.68363 13.7017 7.5986L13.7031 7.59752C13.9255 7.43376 14.2388 7.48103 14.4026 7.70337C14.5663 7.92571 14.5188 8.23872 14.2965 8.40248Z" fill="#161616"/>
</svg>
