<svg width="16" height="16" viewBox="0 0 16 16" fill="none" xmlns="http://www.w3.org/2000/svg">
<path d="M5.16675 1.33331C5.16675 1.05717 4.94289 0.833313 4.66675 0.833313C4.39061 0.833313 4.16675 1.05717 4.16675 1.33331V2.83331L2.66675 2.83331C2.39061 2.83331 2.16675 3.05717 2.16675 3.33331C2.16675 3.60946 2.39061 3.83331 2.66675 3.83331H4.16675V5.33331C4.16675 5.60946 4.39061 5.83331 4.66675 5.83331C4.94289 5.83331 5.16675 5.60946 5.16675 5.33331V3.83331H6.66675C6.94289 3.83331 7.16675 3.60946 7.16675 3.33331C7.16675 3.05717 6.94289 2.83331 6.66675 2.83331L5.16675 2.83331V1.33331Z" fill="#161616"/>
<path fill-rule="evenodd" clip-rule="evenodd" d="M10.5678 5.49998C10.2184 5.49994 9.90574 5.49991 9.65292 5.53532C9.3758 5.57413 9.09831 5.66383 8.8737 5.89779C8.65185 6.12889 8.56946 6.4095 8.53349 6.68825C8.5152 6.82994 8.50692 6.9904 8.50317 7.16665H5.16675V6.99998C5.16675 6.72384 4.94289 6.49998 4.66675 6.49998C4.39061 6.49998 4.16675 6.72384 4.16675 6.99998L4.16675 9.03656C4.16673 9.94829 4.16672 10.6832 4.24443 11.2611C4.32511 11.8612 4.4977 12.3665 4.89898 12.7677C5.30026 13.169 5.80551 13.3416 6.40558 13.4223C6.95648 13.4964 7.64992 13.4998 8.50317 13.5C8.50692 13.6762 8.5152 13.8367 8.53349 13.9784C8.56946 14.2571 8.65185 14.5377 8.8737 14.7688C9.09831 15.0028 9.3758 15.0925 9.65292 15.1313C9.90574 15.1667 10.2184 15.1667 10.5678 15.1666H11.4323C11.7817 15.1667 12.0944 15.1667 12.3472 15.1313C12.6244 15.0925 12.9019 15.0028 13.1265 14.7688C13.3483 14.5377 13.4307 14.2571 13.4667 13.9784C13.5001 13.7192 13.5001 13.3972 13.5001 13.0307V12.9693C13.5001 12.6028 13.5001 12.2808 13.4667 12.0216C13.4307 11.7428 13.3483 11.4622 13.1265 11.2311C12.9019 10.9972 12.6244 10.9075 12.3472 10.8687C12.0944 10.8332 11.7817 10.8333 11.4323 10.8333H10.5678C10.2184 10.8333 9.90574 10.8332 9.65292 10.8687C9.3758 10.9075 9.09831 10.9972 8.8737 11.2311C8.65185 11.4622 8.56946 11.7428 8.53349 12.0216C8.5152 12.1633 8.50692 12.3237 8.50317 12.5C7.63295 12.4996 7.01319 12.495 6.53883 12.4312C6.04964 12.3654 5.7906 12.2451 5.60609 12.0606C5.42158 11.8761 5.30128 11.6171 5.23551 11.1279C5.16781 10.6243 5.16675 9.95692 5.16675 8.99998V8.16665H8.50317C8.50692 8.34289 8.5152 8.50335 8.53349 8.64504C8.56946 8.92379 8.65185 9.2044 8.8737 9.4355C9.09831 9.66946 9.3758 9.75916 9.65292 9.79797C9.90574 9.83338 10.2184 9.83335 10.5678 9.83331H11.4323C11.7817 9.83335 12.0944 9.83338 12.3472 9.79797C12.6244 9.75916 12.9019 9.66946 13.1265 9.4355C13.3483 9.2044 13.4307 8.92379 13.4667 8.64504C13.5001 8.38586 13.5001 8.06386 13.5001 7.69733V7.63596C13.5001 7.26943 13.5001 6.94743 13.4667 6.68825C13.4307 6.4095 13.3483 6.12889 13.1265 5.89779C12.9019 5.66383 12.6244 5.57413 12.3472 5.53532C12.0944 5.49991 11.7817 5.49994 11.4323 5.49998H10.5678ZM9.59509 6.59032L9.59567 6.58972C9.60592 6.57898 9.63604 6.54744 9.79161 6.52566C9.96675 6.50113 10.2083 6.49998 10.6001 6.49998H11.4001C11.7919 6.49998 12.0334 6.50113 12.2086 6.52566C12.3641 6.54744 12.3942 6.57898 12.4045 6.58972L12.4051 6.59032C12.4175 6.6033 12.4523 6.64115 12.4749 6.81626C12.4991 7.00372 12.5001 7.26022 12.5001 7.66665C12.5001 8.07307 12.4991 8.32957 12.4749 8.51704C12.4523 8.69214 12.4175 8.72999 12.4051 8.74297L12.4045 8.74357C12.3942 8.75431 12.3641 8.78585 12.2086 8.80764C12.0334 8.83216 11.7919 8.83331 11.4001 8.83331H10.6001C10.2083 8.83331 9.96675 8.83216 9.79161 8.80764C9.63604 8.78585 9.60592 8.75431 9.59567 8.74357L9.59509 8.74297C9.58263 8.72999 9.54786 8.69214 9.52526 8.51704C9.50106 8.32957 9.50008 8.07307 9.50008 7.66665C9.50008 7.26022 9.50106 7.00372 9.52526 6.81626C9.54786 6.64115 9.58263 6.6033 9.59509 6.59032ZM9.59567 11.9231L9.59509 11.9237C9.58263 11.9366 9.54786 11.9745 9.52526 12.1496C9.50106 12.3371 9.50008 12.5936 9.50008 13C9.50008 13.4064 9.50106 13.6629 9.52526 13.8504C9.54786 14.0255 9.58263 14.0633 9.59509 14.0763L9.59567 14.0769C9.60592 14.0876 9.63604 14.1192 9.79161 14.141C9.96675 14.1655 10.2083 14.1666 10.6001 14.1666H11.4001C11.7919 14.1666 12.0334 14.1655 12.2086 14.141C12.3641 14.1192 12.3942 14.0876 12.4045 14.0769L12.4051 14.0763C12.4175 14.0633 12.4523 14.0255 12.4749 13.8504C12.4991 13.6629 12.5001 13.4064 12.5001 13C12.5001 12.5936 12.4991 12.3371 12.4749 12.1496C12.4523 11.9745 12.4175 11.9366 12.4051 11.9237L12.4045 11.9231C12.3942 11.9123 12.3641 11.8808 12.2086 11.859C12.0334 11.8345 11.7919 11.8333 11.4001 11.8333H10.6001C10.2083 11.8333 9.96675 11.8345 9.79161 11.859C9.63604 11.8808 9.60592 11.9123 9.59567 11.9231Z" fill="#161616"/>
</svg>
