<svg width="24" height="24" viewBox="0 0 24 24" fill="none" xmlns="http://www.w3.org/2000/svg">
<path d="M13.0739 6.29191C12.6737 6.18527 12.2628 6.42329 12.1561 6.82354C12.0495 7.22379 12.2875 7.63471 12.6877 7.74135L17.4606 9.01303C17.8609 9.11968 18.2718 8.88166 18.3785 8.48141C18.4851 8.08116 18.2471 7.67024 17.8468 7.5636L13.0739 6.29191Z" fill="#067647"/>
<path d="M12.0508 10.0887C11.6506 9.98207 11.2396 10.2201 11.133 10.6203C11.0264 11.0206 11.2644 11.4315 11.6646 11.5381L14.0511 12.174C14.4513 12.2806 14.8622 12.0426 14.9689 11.6424C15.0755 11.2421 14.8375 10.8312 14.4373 10.7246L12.0508 10.0887Z" fill="#067647"/>
<path fill-rule="evenodd" clip-rule="evenodd" d="M17.2693 2.32299L16.2093 2.04056C14.9041 1.69278 13.8515 1.41232 12.9938 1.30242C12.1033 1.18831 11.3123 1.24113 10.582 1.66038C9.85111 2.07998 9.40858 2.73596 9.06201 3.56152C8.72858 4.35578 8.4464 5.403 8.09685 6.70028L7.04511 10.6033C6.69553 11.9005 6.41332 12.9477 6.30269 13.8014C6.18771 14.6886 6.24088 15.478 6.66385 16.2065C7.08645 16.9343 7.74612 17.3738 8.57468 17.7177C9.37282 18.049 10.4254 18.3294 11.7305 18.6771L12.7906 18.9596C14.0958 19.3074 15.1484 19.5878 16.0061 19.6977C16.8966 19.8118 17.6876 19.759 18.4179 19.3398C19.1488 18.9202 19.5913 18.2642 19.9379 17.4386C20.2713 16.6444 20.5535 15.5972 20.903 14.2999L21.9548 10.3969C22.3044 9.09966 22.5866 8.05243 22.6972 7.19873C22.8122 6.31151 22.759 5.52211 22.336 4.79364C21.9134 4.06579 21.2538 3.62636 20.4252 3.28244C19.6271 2.95114 18.5745 2.67071 17.2693 2.32299ZM11.3288 2.96124C11.6621 2.76993 12.0779 2.69732 12.8032 2.79025C13.5498 2.88592 14.5054 3.13891 15.8758 3.50403L16.8304 3.75836C18.2008 4.12349 19.1556 4.37952 19.8502 4.66783C20.5251 4.94798 20.8474 5.21714 21.0388 5.54682C21.2299 5.87588 21.3029 6.28642 21.2096 7.00595C21.1136 7.74737 20.8594 8.69676 20.4921 10.0597L19.469 13.8565C19.1017 15.2194 18.8444 16.1681 18.5548 16.858C18.2738 17.5275 18.0037 17.8479 17.6711 18.0389C17.3378 18.2302 16.922 18.3028 16.1967 18.2099C15.4501 18.1142 14.4944 17.8612 13.1241 17.4961L12.1695 17.2418C10.7991 16.8767 9.84433 16.6206 9.14973 16.3323C8.4748 16.0522 8.15246 15.783 7.96104 15.4533C7.76999 15.1243 7.697 14.7137 7.79025 13.9942C7.88633 13.2528 8.14049 12.3034 8.50777 10.9404L9.53089 7.14362C9.89815 5.7807 10.1554 4.83209 10.4451 4.14214C10.7261 3.47269 10.9962 3.1522 11.3288 2.96124Z" fill="#067647"/>
<path d="M5.4999 6.25041L5.32693 6.25027C4.66446 6.24942 3.97863 6.24854 3.39568 6.36454C2.72067 6.49886 2.06747 6.8109 1.65961 7.52882C1.24117 8.26536 1.18813 9.063 1.30233 9.96365C1.41245 10.8321 1.69358 11.8983 2.04277 13.2226L3.09113 17.1987C3.44022 18.5228 3.72134 19.589 4.05334 20.3973C4.39748 21.2351 4.83709 21.9024 5.5666 22.3305C6.29791 22.7595 7.09102 22.8136 7.98204 22.6969C8.83887 22.5847 9.88979 22.2985 11.191 21.9442L12.197 21.6702C12.5967 21.5614 12.8324 21.1492 12.7236 20.7495C12.6148 20.3498 12.2026 20.1141 11.8029 20.2229L10.8506 20.4822C9.48295 20.8546 8.53075 21.1122 7.78727 21.2096C7.06622 21.304 6.65541 21.2302 6.32569 21.0367C5.99418 20.8422 5.72284 20.5139 5.44085 19.8274C5.1511 19.122 4.89393 18.1527 4.5277 16.7637L3.50699 12.8925C3.14079 11.5036 2.88658 10.5334 2.79041 9.77496C2.69688 9.03734 2.76969 8.61149 2.96383 8.26977C3.08587 8.05496 3.27679 7.91761 3.68842 7.8357C4.11864 7.75009 4.65799 7.75022 5.3842 7.75039L5.50001 7.75041C5.91423 7.75038 6.24999 7.41457 6.24995 7.00035C6.24992 6.58614 5.91411 6.25038 5.4999 6.25041Z" fill="#067647"/>
</svg>
