<svg width="40" height="41" viewBox="0 0 40 41" fill="none" xmlns="http://www.w3.org/2000/svg">
<path d="M0 20.5C0 9.45431 8.95431 0.5 20 0.5C31.0457 0.5 40 9.45431 40 20.5C40 31.5457 31.0457 40.5 20 40.5C8.95431 40.5 0 31.5457 0 20.5Z" fill="#F9FAFB"/>
<path d="M20.895 15.7432C20.5615 15.6544 20.219 15.8527 20.1302 16.1863C20.0413 16.5198 20.2397 16.8622 20.5732 16.9511L24.5506 18.0108C24.8842 18.0997 25.2266 17.9014 25.3155 17.5678C25.4043 17.2343 25.206 16.8918 24.8724 16.803L20.895 15.7432Z" fill="#161616"/>
<path d="M20.0424 18.9072C19.7089 18.8184 19.3664 19.0167 19.2776 19.3503C19.1887 19.6838 19.3871 20.0262 19.7206 20.1151L21.7093 20.645C22.0428 20.7338 22.3853 20.5355 22.4741 20.2019C22.563 19.8684 22.3647 19.526 22.0311 19.4371L20.0424 18.9072Z" fill="#161616"/>
<path fill-rule="evenodd" clip-rule="evenodd" d="M24.3912 12.4358L23.5078 12.2004C22.4202 11.9106 21.543 11.6769 20.8283 11.5853C20.0861 11.4902 19.427 11.5343 18.8184 11.8836C18.2093 12.2333 17.8406 12.7799 17.5518 13.4679C17.2739 14.1298 17.0388 15.0025 16.7475 16.0835L15.871 19.3361C15.5797 20.4171 15.3445 21.2897 15.2523 22.0012C15.1565 22.7405 15.2008 23.3983 15.5533 24.0054C15.9055 24.6119 16.4552 24.9781 17.1456 25.2647C17.8108 25.5408 18.6879 25.7745 19.7755 26.0643L20.6589 26.2996C21.7466 26.5895 22.6237 26.8232 23.3385 26.9148C24.0806 27.0098 24.7397 26.9658 25.3483 26.6165C25.9574 26.2668 26.3262 25.7201 26.615 25.0322C26.8928 24.3703 27.128 23.4976 27.4193 22.4165L28.2957 19.164C28.587 18.083 28.8222 17.2103 28.9144 16.4989C29.0102 15.7596 28.9659 15.1017 28.6134 14.4947C28.2613 13.8881 27.7116 13.5219 27.0211 13.2353C26.356 12.9593 25.4788 12.7256 24.3912 12.4358ZM19.4408 12.9677C19.7185 12.8083 20.065 12.7477 20.6694 12.8252C21.2916 12.9049 22.088 13.1157 23.2299 13.42L24.0254 13.632C25.1674 13.9362 25.963 14.1496 26.5419 14.3898C27.1043 14.6233 27.3729 14.8476 27.5325 15.1223C27.6917 15.3965 27.7525 15.7387 27.6748 16.3383C27.5947 16.9561 27.3829 17.7473 27.0768 18.8831L26.2242 22.0471C25.9182 23.1828 25.7038 23.9734 25.4624 24.5483C25.2282 25.1062 25.0031 25.3733 24.726 25.5324C24.4483 25.6918 24.1018 25.7523 23.4973 25.6749C22.8752 25.5952 22.0788 25.3843 20.9368 25.0801L20.1413 24.8681C18.9993 24.5639 18.2037 24.3505 17.6249 24.1102C17.0624 23.8768 16.7938 23.6525 16.6343 23.3777C16.4751 23.1035 16.4143 22.7614 16.492 22.1618C16.572 21.544 16.7838 20.7528 17.0899 19.617L17.9425 16.453C18.2485 15.3172 18.4629 14.5267 18.7043 13.9518C18.9385 13.3939 19.1636 13.1268 19.4408 12.9677Z" fill="#161616"/>
<path d="M14.5833 15.7087L14.4392 15.7085C13.8871 15.7078 13.3156 15.7071 12.8298 15.8038C12.2673 15.9157 11.723 16.1757 11.3831 16.774C11.0344 17.3878 10.9902 18.0525 11.0854 18.803C11.1771 19.5267 11.4114 20.4152 11.7024 21.5188L12.576 24.8322C12.8669 25.9356 13.1012 26.8242 13.3779 27.4977C13.6647 28.1959 14.031 28.752 14.6389 29.1087C15.2483 29.4663 15.9093 29.5113 16.6518 29.4141C17.3658 29.3205 18.2416 29.0821 19.3259 28.7868L20.1643 28.5585C20.4973 28.4678 20.6938 28.1243 20.6031 27.7912C20.5124 27.4582 20.1689 27.2617 19.8358 27.3524L19.0422 27.5685C17.9025 27.8788 17.109 28.0935 16.4895 28.1746C15.8886 28.2533 15.5463 28.1918 15.2715 28.0306C14.9952 27.8685 14.7691 27.5949 14.5341 27.0228C14.2927 26.4349 14.0784 25.6272 13.7732 24.4697L12.9226 21.2437C12.6174 20.0863 12.4056 19.2778 12.3254 18.6458C12.2475 18.0311 12.3082 17.6762 12.4699 17.3915C12.5716 17.2124 12.7307 17.098 13.0738 17.0297C13.4323 16.9584 13.8817 16.9585 14.4869 16.9586L14.5834 16.9587C14.9286 16.9586 15.2084 16.6788 15.2084 16.3336C15.2084 15.9884 14.9285 15.7086 14.5833 15.7087Z" fill="#161616"/>
</svg>
