<svg width="24" height="25" viewBox="0 0 24 25" fill="none" xmlns="http://www.w3.org/2000/svg">
<path d="M7.21981 14.9429L9.68981 12.4729L7.21981 10.0029C7.12109 9.91125 7.04892 9.79465 7.0109 9.6654C6.97289 9.53615 6.97044 9.39905 7.00381 9.26852C7.03719 9.138 7.10515 9.01889 7.20053 8.92375C7.29592 8.82861 7.4152 8.76096 7.54581 8.72793C7.6762 8.69462 7.81314 8.697 7.94228 8.73483C8.07142 8.77266 8.18801 8.84454 8.27981 8.94293L11.2798 11.9429C11.4203 12.0836 11.4992 12.2742 11.4992 12.4729C11.4992 12.6717 11.4203 12.8623 11.2798 13.0029L8.27981 16.0029C8.13767 16.1356 7.94957 16.2078 7.75518 16.2045C7.56079 16.2011 7.37529 16.1224 7.23781 15.9849C7.10034 15.8474 7.02163 15.662 7.01827 15.4676C7.01491 15.2732 7.08717 15.0851 7.21981 14.9429Z" fill="#0091B4"/>
<path d="M3.75 2.4729H20.25C21.216 2.4729 22 3.2569 22 4.2229V20.7229C22 21.187 21.8156 21.6321 21.4874 21.9603C21.1592 22.2885 20.7141 22.4729 20.25 22.4729H3.75C3.28587 22.4729 2.84075 22.2885 2.51256 21.9603C2.18437 21.6321 2 21.187 2 20.7229V4.2229C2 3.2569 2.784 2.4729 3.75 2.4729ZM3.5 4.2229V20.7229C3.5 20.8609 3.612 20.9729 3.75 20.9729H15V3.9729H3.75C3.6837 3.9729 3.62011 3.99924 3.57322 4.04612C3.52634 4.09301 3.5 4.1566 3.5 4.2229ZM16.5 20.9729H20.25C20.3163 20.9729 20.3799 20.9466 20.4268 20.8997C20.4737 20.8528 20.5 20.7892 20.5 20.7229V4.2229C20.5 4.1566 20.4737 4.09301 20.4268 4.04612C20.3799 3.99924 20.3163 3.9729 20.25 3.9729H16.5V20.9729Z" fill="#0091B4"/>
</svg>
