<svg width="16" height="16" viewBox="0 0 16 16" fill="none" xmlns="http://www.w3.org/2000/svg">
<path d="M8.50016 5.33334C8.50016 5.0572 8.27631 4.83334 8.00016 4.83334C7.72402 4.83334 7.50016 5.0572 7.50016 5.33334V7.50001H5.3335C5.05735 7.50001 4.8335 7.72387 4.8335 8.00001C4.8335 8.27615 5.05735 8.50001 5.3335 8.50001H7.50016V10.6667C7.50016 10.9428 7.72402 11.1667 8.00016 11.1667C8.27631 11.1667 8.50016 10.9428 8.50016 10.6667V8.50001H10.6668C10.943 8.50001 11.1668 8.27615 11.1668 8.00001C11.1668 7.72387 10.943 7.50001 10.6668 7.50001H8.50016V5.33334Z" fill="#161616"/>
<path fill-rule="evenodd" clip-rule="evenodd" d="M8.00016 15.1667C4.04212 15.1667 0.833496 11.9581 0.833496 8.00001C0.833496 4.04197 4.04212 0.833344 8.00016 0.833344C11.9582 0.833344 15.1668 4.04197 15.1668 8.00001C15.1668 11.9581 11.9582 15.1667 8.00016 15.1667ZM1.8335 8.00001C1.8335 11.4058 4.59441 14.1667 8.00016 14.1667C11.4059 14.1667 14.1668 11.4058 14.1668 8.00001C14.1668 4.59425 11.4059 1.83334 8.00016 1.83334C4.59441 1.83334 1.8335 4.59425 1.8335 8.00001Z" fill="#161616"/>
</svg>
