<svg width="16" height="17" viewBox="0 0 16 17" fill="none" xmlns="http://www.w3.org/2000/svg">
<path d="M8.50004 5.83337C8.50004 5.55723 8.27618 5.33337 8.00004 5.33337C7.7239 5.33337 7.50004 5.55723 7.50004 5.83337V8.00004H5.33337C5.05723 8.00004 4.83337 8.2239 4.83337 8.50004C4.83337 8.77618 5.05723 9.00004 5.33337 9.00004H7.50004V11.1667C7.50004 11.4428 7.7239 11.6667 8.00004 11.6667C8.27618 11.6667 8.50004 11.4428 8.50004 11.1667V9.00004H10.6667C10.9428 9.00004 11.1667 8.77618 11.1667 8.50004C11.1667 8.2239 10.9428 8.00004 10.6667 8.00004H8.50004V5.83337Z" fill="#161616"/>
<path fill-rule="evenodd" clip-rule="evenodd" d="M8.00004 15.6667C4.042 15.6667 0.833374 12.4581 0.833374 8.50004C0.833374 4.542 4.042 1.33337 8.00004 1.33337C11.9581 1.33337 15.1667 4.542 15.1667 8.50004C15.1667 12.4581 11.9581 15.6667 8.00004 15.6667ZM1.83337 8.50004C1.83337 11.9058 4.59428 14.6667 8.00004 14.6667C11.4058 14.6667 14.1667 11.9058 14.1667 8.50004C14.1667 5.09428 11.4058 2.33337 8.00004 2.33337C4.59428 2.33337 1.83337 5.09428 1.83337 8.50004Z" fill="#161616"/>
</svg>
