<svg width="16" height="16" viewBox="0 0 16 16" fill="none" xmlns="http://www.w3.org/2000/svg">
<path fill-rule="evenodd" clip-rule="evenodd" d="M6.19714 8.00016C6.19714 7.00033 6.98968 6.16683 7.99529 6.16683C9.0009 6.16683 9.79343 7.00033 9.79343 8.00016C9.79343 8.99999 9.0009 9.8335 7.99529 9.8335C6.98968 9.8335 6.19714 8.99999 6.19714 8.00016ZM7.99529 7.16683C7.56701 7.16683 7.19714 7.52723 7.19714 8.00016C7.19714 8.47309 7.56701 8.8335 7.99529 8.8335C8.42357 8.8335 8.79343 8.47309 8.79343 8.00016C8.79343 7.52723 8.42357 7.16683 7.99529 7.16683Z" fill="#384250"/>
<path d="M9.96063 12.3338C8.94656 11.2021 7.05362 11.2406 6.0328 12.3403C5.84493 12.5427 5.52857 12.5545 5.32618 12.3666C5.12379 12.1788 5.11202 11.8624 5.29989 11.66C6.69713 10.1547 9.27541 10.0706 10.7054 11.6665C10.8897 11.8722 10.8723 12.1883 10.6667 12.3725C10.461 12.5568 10.1449 12.5395 9.96063 12.3338Z" fill="#384250"/>
<path fill-rule="evenodd" clip-rule="evenodd" d="M7.99969 0.833518C8.26328 0.833344 8.52547 0.833183 8.71754 0.877387C9.15966 0.979142 9.54933 1.25488 9.76677 1.65462C9.84913 1.80604 9.89518 1.97871 9.93995 2.16968C10.6938 2.17571 11.3214 2.19774 11.8388 2.28378C12.4295 2.382 12.9244 2.5706 13.3268 2.95182C13.7815 3.38263 13.9819 3.93009 14.076 4.5926C14.1664 5.2297 14.1664 6.04053 14.1663 7.04969V10.285C14.1664 11.2942 14.1664 12.105 14.076 12.7421C13.9819 13.4046 13.7815 13.9521 13.3268 14.3829C12.8759 14.8101 12.3092 14.995 11.6232 15.0824C10.9562 15.1674 10.105 15.1674 9.03516 15.1673H6.96422C5.89437 15.1674 5.0432 15.1674 4.3762 15.0824C3.69011 14.995 3.12348 14.8101 2.67255 14.3829C2.21781 13.9521 2.01742 13.4046 1.9234 12.7421C1.83298 12.105 1.83299 11.2942 1.83301 10.285V7.04967C1.83299 6.04053 1.83298 5.22969 1.9234 4.5926C2.01742 3.93009 2.21781 3.38263 2.67255 2.95182C3.07495 2.5706 3.5699 2.382 4.16057 2.28378C4.67799 2.19774 5.30558 2.17571 6.05943 2.16968C6.1042 1.97871 6.15025 1.80604 6.23261 1.65462C6.45006 1.25488 6.83972 0.979142 7.28185 0.877387C7.47391 0.833183 7.7361 0.833344 7.99969 0.833518ZM5.84619 3.17205C5.20659 3.18075 4.71674 3.20503 4.3246 3.27024C3.85037 3.34909 3.56849 3.48054 3.3603 3.67777C3.13162 3.89441 2.99031 4.1917 2.91348 4.73311C2.83419 5.29179 2.83301 6.03145 2.83301 7.0884V10.2463C2.83301 11.3032 2.83419 12.0429 2.91348 12.6016C2.99031 13.143 3.13162 13.4403 3.3603 13.6569C3.59279 13.8772 3.91784 14.0159 4.50255 14.0904C5.09899 14.1664 5.88632 14.1673 6.99967 14.1673H8.99968C10.113 14.1673 10.9004 14.1664 11.4968 14.0904C12.0815 14.0159 12.4066 13.8772 12.6391 13.6569C12.8677 13.4403 13.009 13.143 13.0859 12.6016C13.1652 12.0429 13.1663 11.3032 13.1663 10.2463V7.0884C13.1663 6.03145 13.1652 5.29179 13.0859 4.73311C13.009 4.1917 12.8677 3.89441 12.6391 3.67777C12.4309 3.48054 12.149 3.34909 11.6747 3.27024C11.2826 3.20503 10.7928 3.18075 10.1532 3.17205C10.1534 3.17364 10.1536 3.17519 10.1538 3.17672C10.1762 3.36268 10.1778 3.57755 10.0804 3.79223C9.98086 4.01162 9.81532 4.19087 9.61324 4.31361C9.42314 4.42907 9.21711 4.46716 9.02461 4.48403C8.84008 4.50021 8.61289 4.5002 8.35263 4.50018H7.64676C7.38649 4.5002 7.1593 4.50021 6.97477 4.48403C6.78227 4.46716 6.57624 4.42907 6.38615 4.31361C6.18406 4.19087 6.01852 4.01162 5.919 3.79223C5.82161 3.57755 5.82314 3.36268 5.84561 3.17672C5.8458 3.17519 5.84599 3.17364 5.84619 3.17205ZM7.99968 1.83347C7.6599 1.83347 7.57241 1.83661 7.50612 1.85187C7.31803 1.89516 7.17979 2.00605 7.11104 2.13242C7.09216 2.21407 7.059 2.35044 7.02214 2.50202C6.94337 2.826 6.8477 3.21946 6.83838 3.29663L6.83839 3.29749C6.83969 3.36765 6.84155 3.46849 7.06206 3.48781C7.19761 3.49969 7.38038 3.50014 7.66761 3.50014H8.33175C8.61898 3.50014 8.80175 3.49969 8.9373 3.48781C9.14835 3.47909 9.17436 3.35673 9.16098 3.29663C9.15166 3.21946 9.056 2.82603 8.97722 2.50206C8.94037 2.35048 8.9072 2.21407 8.88831 2.13242C8.81957 2.00605 8.68133 1.89516 8.49324 1.85187C8.42695 1.83661 8.33947 1.83347 7.99968 1.83347Z" fill="#384250"/>
</svg>
