<svg width="16" height="16" viewBox="0 0 16 16" fill="none" xmlns="http://www.w3.org/2000/svg">
<path d="M2.31368 1.61064C2.09863 1.43741 1.78386 1.47131 1.61064 1.68636C1.43741 1.90141 1.47131 2.21617 1.68636 2.3894L2.71448 3.21758C3.16146 3.57763 3.45445 3.81515 3.64234 4.0155C3.8228 4.20791 3.83335 4.29131 3.83335 4.33335C3.83335 4.37539 3.8228 4.45879 3.64234 4.65121C3.45445 4.85155 3.16146 5.08907 2.71448 5.44912L1.68636 6.2773C1.47131 6.45053 1.43741 6.76529 1.61064 6.98034C1.78386 7.19539 2.09863 7.2293 2.31368 7.05607L3.37011 6.20508C3.781 5.87413 4.13011 5.59294 4.37175 5.33528C4.62637 5.0638 4.83335 4.74508 4.83335 4.33335C4.83335 3.92162 4.62637 3.60291 4.37175 3.33142C4.13011 3.07376 3.781 2.79257 3.37011 2.46162L2.31368 1.61064Z" fill="#384250"/>
<path d="M7.33333 1.5C7.05719 1.5 6.83333 1.72386 6.83333 2C6.83333 2.27614 7.05719 2.5 7.33333 2.5H14C14.2761 2.5 14.5 2.27614 14.5 2C14.5 1.72386 14.2761 1.5 14 1.5H7.33333Z" fill="#384250"/>
<path d="M7.33333 5.5C7.05719 5.5 6.83333 5.72386 6.83333 6C6.83333 6.27614 7.05719 6.5 7.33333 6.5H14C14.2761 6.5 14.5 6.27614 14.5 6C14.5 5.72386 14.2761 5.5 14 5.5H7.33333Z" fill="#384250"/>
<path d="M2 9.5C1.72386 9.5 1.5 9.72386 1.5 10C1.5 10.2761 1.72386 10.5 2 10.5H14C14.2761 10.5 14.5 10.2761 14.5 10C14.5 9.72386 14.2761 9.5 14 9.5H2Z" fill="#384250"/>
<path d="M1.5 14C1.5 13.7239 1.72386 13.5 2 13.5H14C14.2761 13.5 14.5 13.7239 14.5 14C14.5 14.2761 14.2761 14.5 14 14.5H2C1.72386 14.5 1.5 14.2761 1.5 14Z" fill="#384250"/>
</svg>
