<svg width="14" height="14" viewBox="0 0 14 14" fill="none" xmlns="http://www.w3.org/2000/svg">
<path d="M7.4375 1.75C7.4375 1.50838 7.24162 1.3125 7 1.3125C6.75838 1.3125 6.5625 1.50838 6.5625 1.75V3.5C6.5625 3.74162 6.75838 3.9375 7 3.9375C7.24162 3.9375 7.4375 3.74162 7.4375 3.5V1.75Z" fill="#1849A9"/>
<path d="M7.4375 10.5C7.4375 10.2584 7.24162 10.0625 7 10.0625C6.75838 10.0625 6.5625 10.2584 6.5625 10.5V12.25C6.5625 12.4916 6.75838 12.6875 7 12.6875C7.24162 12.6875 7.4375 12.4916 7.4375 12.25V10.5Z" fill="#1849A9"/>
<path d="M10.0625 7C10.0625 6.75838 10.2584 6.5625 10.5 6.5625H12.25C12.4916 6.5625 12.6875 6.75838 12.6875 7C12.6875 7.24162 12.4916 7.4375 12.25 7.4375H10.5C10.2584 7.4375 10.0625 7.24162 10.0625 7Z" fill="#1849A9"/>
<path d="M1.75 6.5625C1.50838 6.5625 1.3125 6.75838 1.3125 7C1.3125 7.24162 1.50838 7.4375 1.75 7.4375H3.5C3.74162 7.4375 3.9375 7.24162 3.9375 7C3.9375 6.75838 3.74162 6.5625 3.5 6.5625H1.75Z" fill="#1849A9"/>
<path d="M11.0214 2.97873C11.1923 3.14958 11.1923 3.42659 11.0214 3.59745L9.78397 4.83488C9.61311 5.00574 9.3361 5.00574 9.16525 4.83488C8.9944 4.66403 8.9944 4.38702 9.16525 4.21616L10.4027 2.97873C10.5735 2.80787 10.8506 2.80787 11.0214 2.97873Z" fill="#1849A9"/>
<path d="M4.83431 9.78397C5.00517 9.61311 5.00517 9.3361 4.83431 9.16525C4.66346 8.9944 4.38645 8.9944 4.21559 9.16525L2.97816 10.4027C2.8073 10.5735 2.8073 10.8506 2.97816 11.0214C3.14901 11.1923 3.42602 11.1923 3.59688 11.0214L4.83431 9.78397Z" fill="#1849A9"/>
<path d="M9.16525 9.16525C9.3361 8.9944 9.61311 8.9944 9.78397 9.16525L11.0214 10.4027C11.1923 10.5735 11.1923 10.8506 11.0214 11.0214C10.8506 11.1923 10.5735 11.1923 10.4027 11.0214L9.16525 9.78397C8.9944 9.61311 8.9944 9.3361 9.16525 9.16525Z" fill="#1849A9"/>
<path d="M3.59688 2.97873C3.42602 2.80787 3.14901 2.80787 2.97816 2.97873C2.8073 3.14958 2.8073 3.42659 2.97816 3.59745L4.21559 4.83488C4.38645 5.00574 4.66346 5.00574 4.83431 4.83488C5.00517 4.66403 5.00517 4.38702 4.83431 4.21616L3.59688 2.97873Z" fill="#1849A9"/>
</svg>
