<svg width="16" height="16" viewBox="0 0 16 16" fill="none" xmlns="http://www.w3.org/2000/svg">
<path d="M8.5 2C8.5 1.72386 8.27614 1.5 8 1.5C7.72386 1.5 7.5 1.72386 7.5 2V4C7.5 4.27614 7.72386 4.5 8 4.5C8.27614 4.5 8.5 4.27614 8.5 4V2Z" fill="#161616"/>
<path d="M8.5 12C8.5 11.7239 8.27614 11.5 8 11.5C7.72386 11.5 7.5 11.7239 7.5 12V14C7.5 14.2761 7.72386 14.5 8 14.5C8.27614 14.5 8.5 14.2761 8.5 14V12Z" fill="#161616"/>
<path d="M11.5 8C11.5 7.72386 11.7239 7.5 12 7.5H14C14.2761 7.5 14.5 7.72386 14.5 8C14.5 8.27614 14.2761 8.5 14 8.5H12C11.7239 8.5 11.5 8.27614 11.5 8Z" fill="#161616"/>
<path d="M2 7.5C1.72386 7.5 1.5 7.72386 1.5 8C1.5 8.27614 1.72386 8.5 2 8.5H4C4.27614 8.5 4.5 8.27614 4.5 8C4.5 7.72386 4.27614 7.5 4 7.5H2Z" fill="#161616"/>
<path d="M12.5959 3.40426C12.7912 3.59952 12.7912 3.9161 12.5959 4.11137L11.1817 5.52558C10.9864 5.72084 10.6698 5.72084 10.4746 5.52558C10.2793 5.33032 10.2793 5.01373 10.4746 4.81847L11.8888 3.40426C12.084 3.209 12.4006 3.209 12.5959 3.40426Z" fill="#161616"/>
<path d="M5.52493 11.1817C5.72019 10.9864 5.72019 10.6698 5.52493 10.4746C5.32967 10.2793 5.01308 10.2793 4.81782 10.4746L3.40361 11.8888C3.20835 12.084 3.20835 12.4006 3.40361 12.5959C3.59887 12.7912 3.91545 12.7912 4.11071 12.5959L5.52493 11.1817Z" fill="#161616"/>
<path d="M10.4746 10.4746C10.6698 10.2793 10.9864 10.2793 11.1817 10.4746L12.5959 11.8888C12.7912 12.084 12.7912 12.4006 12.5959 12.5959C12.4006 12.7912 12.084 12.7912 11.8888 12.5959L10.4746 11.1817C10.2793 10.9864 10.2793 10.6698 10.4746 10.4746Z" fill="#161616"/>
<path d="M4.11071 3.40426C3.91545 3.209 3.59887 3.209 3.40361 3.40426C3.20835 3.59952 3.20835 3.9161 3.40361 4.11137L4.81782 5.52558C5.01308 5.72084 5.32967 5.72084 5.52493 5.52558C5.72019 5.33032 5.72019 5.01373 5.52493 4.81847L4.11071 3.40426Z" fill="#161616"/>
</svg>
