<svg width="14" height="14" viewBox="0 0 14 14" fill="none" xmlns="http://www.w3.org/2000/svg">
<g id="elements">
<g id="Icon">
<path d="M7.43752 4.66667C7.43752 4.42505 7.24164 4.22917 7.00002 4.22917C6.7584 4.22917 6.56252 4.42505 6.56252 4.66667V6.5625H4.66669C4.42506 6.5625 4.22919 6.75838 4.22919 7C4.22919 7.24163 4.42506 7.4375 4.66669 7.4375H6.56252V9.33334C6.56252 9.57496 6.7584 9.77084 7.00002 9.77084C7.24164 9.77084 7.43752 9.57496 7.43752 9.33334V7.4375H9.33335C9.57498 7.4375 9.77085 7.24163 9.77085 7C9.77085 6.75838 9.57498 6.5625 9.33335 6.5625H7.43752V4.66667Z" fill="#161616"/>
<path fill-rule="evenodd" clip-rule="evenodd" d="M7.00002 13.2708C3.53673 13.2708 0.729187 10.4633 0.729187 7C0.729187 3.53672 3.53673 0.729172 7.00002 0.729172C10.4633 0.729172 13.2709 3.53672 13.2709 7C13.2709 10.4633 10.4633 13.2708 7.00002 13.2708ZM1.60419 7C1.60419 9.98004 4.01998 12.3958 7.00002 12.3958C9.98006 12.3958 12.3959 9.98004 12.3959 7C12.3959 4.01997 9.98006 1.60417 7.00002 1.60417C4.01998 1.60417 1.60419 4.01997 1.60419 7Z" fill="#161616"/>
</g>
</g>
</svg>
