<svg width="24" height="24" viewBox="0 0 24 24" fill="none" xmlns="http://www.w3.org/2000/svg">
<path d="M9.70498 15.5969C9.81257 15.5157 10.1337 15.2731 10.3189 15.1286C10.6897 14.8392 11.1824 14.4438 11.6737 14.0173C12.1674 13.5886 12.6483 13.1382 13.0018 12.7382C13.179 12.5376 13.3137 12.3613 13.4014 12.2159C13.4838 12.0791 13.501 11.9984 13.501 11.9984C13.501 11.9984 13.4838 11.9199 13.4014 11.7832C13.3137 11.6378 13.179 11.4615 13.0018 11.2609C12.6483 10.8609 12.1674 10.4105 11.6737 9.98182C11.1824 9.55528 10.6897 9.15987 10.3188 8.87049C10.1337 8.72601 9.81299 8.48374 9.70541 8.40248C9.48306 8.23872 9.4351 7.92539 9.59886 7.70304C9.76262 7.48069 10.0756 7.43319 10.298 7.59695L10.2997 7.59823C10.4125 7.68345 10.7452 7.93472 10.9341 8.08214C11.3133 8.37806 11.8205 8.78501 12.3293 9.22671C12.8355 9.66626 13.3547 10.15 13.7512 10.5988C13.9489 10.8226 14.1267 11.0494 14.2578 11.2669C14.3806 11.4706 14.5015 11.7285 14.5015 11.9995C14.5015 12.2706 14.3806 12.5285 14.2578 12.7322C14.1267 12.9496 13.9489 13.1765 13.7512 13.4003C13.3547 13.849 12.8355 14.3328 12.3293 14.7724C11.8205 15.2141 11.3133 15.621 10.9341 15.9169C10.7451 16.0645 10.4124 16.3158 10.2998 16.4008L10.2983 16.4019C10.076 16.5657 9.76265 16.5184 9.59889 16.2961C9.43514 16.0737 9.48265 15.7607 9.70498 15.5969Z" fill="#161616"/>
</svg>
