<svg width="20" height="20" viewBox="0 0 20 20" fill="none" xmlns="http://www.w3.org/2000/svg">
<path d="M15.0003 9.16669C14.5401 9.16669 14.167 9.53978 14.167 10C14.167 10.4603 14.5401 10.8334 15.0003 10.8334H15.0078C15.468 10.8334 15.8411 10.4603 15.8411 10C15.8411 9.53978 15.468 9.16669 15.0078 9.16669H15.0003Z" fill="white"/>
<path fill-rule="evenodd" clip-rule="evenodd" d="M10.877 1.04169H9.12366C8.37494 1.04166 7.75057 1.04164 7.25493 1.10828C6.73177 1.17862 6.25943 1.33335 5.87987 1.7129C5.50032 2.09246 5.34559 2.5648 5.27525 3.08796C5.20861 3.5836 5.20864 4.20795 5.20866 4.95667L5.20866 6.04536C4.88464 6.04976 4.5979 6.05943 4.34343 6.08068C3.86232 6.12087 3.44325 6.20557 3.05449 6.40548C2.58908 6.6448 2.18953 6.99219 1.89285 7.41893C1.6433 7.7779 1.5118 8.17883 1.42135 8.64137C1.33402 9.08791 1.27649 9.6421 1.20556 10.3254L1.19921 10.3866C1.11403 11.207 1.04538 11.8681 1.04212 12.4028C1.03876 12.9532 1.10234 13.44 1.33101 13.8878C1.59941 14.4133 2.01354 14.8526 2.52349 15.1584C2.95437 15.4168 3.44036 15.5243 4.00308 15.5753C4.38897 15.6102 4.84279 15.6206 5.37637 15.6237C5.32596 15.8518 5.28466 16.0537 5.25618 16.2324C5.20665 16.5433 5.18589 16.8389 5.24324 17.1323C5.37493 17.8061 5.78959 18.3973 6.39332 18.7169C6.66194 18.8591 6.95106 18.9113 7.24936 18.9352C7.53746 18.9584 7.89318 18.9584 8.3179 18.9583H11.6827C12.1075 18.9584 12.4632 18.9584 12.7513 18.9352C13.0496 18.9113 13.3387 18.8591 13.6073 18.7169C14.211 18.3973 14.6257 17.8061 14.7574 17.1323C14.8147 16.8389 14.794 16.5433 14.7444 16.2324C14.716 16.0537 14.6747 15.8518 14.6242 15.6237C15.1578 15.6206 15.6117 15.6102 15.9976 15.5753C16.5603 15.5243 17.0463 15.4168 17.4772 15.1584C17.9871 14.8526 18.4012 14.4133 18.6696 13.8878C18.8983 13.44 18.9619 12.9532 18.9585 12.4028C18.9553 11.868 18.8866 11.2069 18.8014 10.3865L18.7951 10.3254C18.7242 9.6421 18.6666 9.08791 18.5793 8.64137C18.4889 8.17883 18.3574 7.7779 18.1078 7.41893C17.8111 6.99219 17.4116 6.6448 16.9462 6.40548C16.5574 6.20557 16.1383 6.12087 15.6572 6.08068C15.4028 6.05943 15.116 6.04976 14.792 6.04536L14.792 4.95669C14.792 4.20799 14.792 3.58359 14.7254 3.08796C14.6551 2.5648 14.5003 2.09246 14.1208 1.7129C13.7412 1.33335 13.2689 1.17862 12.7457 1.10828C12.2501 1.04164 11.6257 1.04166 10.877 1.04169ZM5.91934 13.7704C5.81342 13.9472 5.73846 14.1461 5.67282 14.3747C5.01166 14.3734 4.51522 14.3665 4.11587 14.3304C3.63649 14.2869 3.36526 14.2056 3.16632 14.0863C2.853 13.8985 2.60388 13.6319 2.44423 13.3192C2.34543 13.1258 2.2893 12.8681 2.29209 12.4104C2.29494 11.9439 2.35657 11.3436 2.44589 10.4833C2.52053 9.76432 2.57284 9.26618 2.64811 8.88128C2.72147 8.50611 2.80739 8.29328 2.9192 8.13245C3.09702 7.87667 3.33922 7.66465 3.62612 7.51712C3.81028 7.42242 4.0469 7.35981 4.44749 7.32635C4.8563 7.2922 5.37966 7.29169 6.12862 7.29169H13.872C14.621 7.29169 15.1444 7.2922 15.5532 7.32635C15.9538 7.35981 16.1904 7.42242 16.3745 7.51712C16.6614 7.66465 16.9036 7.87667 17.0815 8.13245C17.1933 8.29328 17.2792 8.50611 17.3525 8.88128C17.4278 9.26618 17.4801 9.76432 17.5548 10.4833C17.6441 11.3436 17.7057 11.9439 17.7086 12.4104C17.7114 12.8681 17.6552 13.1258 17.5564 13.3192C17.3968 13.6319 17.1477 13.8985 16.8343 14.0863C16.6354 14.2056 16.3642 14.2869 15.8848 14.3304C15.4854 14.3665 14.989 14.3734 14.3278 14.3747C14.2622 14.1461 14.1872 13.9472 14.0813 13.7704C13.8257 13.3438 13.4395 13.0117 12.9757 12.8385C12.6242 12.7073 12.2291 12.7077 11.7517 12.7083H8.24893C7.77156 12.7077 7.37642 12.7073 7.02487 12.8385C6.56115 13.0117 6.17491 13.3438 5.91934 13.7704ZM13.542 6.04169V5.00002C13.542 4.19668 13.5407 3.65705 13.4865 3.25452C13.4348 2.86997 13.3455 2.70538 13.2369 2.59679C13.1283 2.48819 12.9637 2.39884 12.5792 2.34714C12.1766 2.29302 11.637 2.29169 10.8337 2.29169H9.16699C8.36365 2.29169 7.82402 2.29302 7.42149 2.34714C7.03694 2.39884 6.87235 2.48819 6.76376 2.59679C6.65516 2.70538 6.56581 2.86997 6.51411 3.25452C6.45999 3.65705 6.45866 4.19668 6.45866 5.00002V6.04169H13.542ZM8.34308 13.9583C7.72087 13.9583 7.57362 13.9679 7.46213 14.0096C7.27799 14.0783 7.10948 14.2161 6.99161 14.4128C6.91484 14.541 6.86558 14.7213 6.71671 15.3673C6.60653 15.8455 6.53136 16.1733 6.49062 16.4291C6.45033 16.6819 6.45379 16.8094 6.47003 16.8925C6.5346 17.2229 6.73164 17.4817 6.97816 17.6122C7.02838 17.6388 7.12176 17.671 7.34934 17.6892C7.58144 17.7079 7.88661 17.7083 8.34308 17.7083H11.6575C12.114 17.7083 12.4192 17.7079 12.6513 17.6892C12.8789 17.671 12.9722 17.6388 13.0225 17.6122C13.269 17.4817 13.466 17.2229 13.5306 16.8925C13.5468 16.8094 13.5503 16.6819 13.51 16.4291C13.4693 16.1733 13.3941 15.8455 13.2839 15.3673C13.135 14.7213 13.0858 14.541 13.009 14.4128C12.8911 14.2161 12.7226 14.0783 12.5385 14.0096C12.427 13.9679 12.2798 13.9583 11.6575 13.9583H8.34308Z" fill="white"/>
</svg>
