<svg width="16" height="16" viewBox="0 0 16 16" fill="none" xmlns="http://www.w3.org/2000/svg">
<path d="M2.88634 7.77637C3.00983 7.52938 3.31017 7.42927 3.55716 7.55276L4.89049 8.21943C5.13748 8.34292 5.23759 8.64326 5.1141 8.89025C4.9906 9.13724 4.69027 9.23735 4.44328 9.11385L3.10994 8.44719C2.86295 8.32369 2.76284 8.02336 2.88634 7.77637Z" fill="#384250"/>
<path fill-rule="evenodd" clip-rule="evenodd" d="M7.83344 7.78539C8.42355 7.67455 9.03673 7.37762 9.88995 6.96444L11.9842 5.95103C12.3021 5.79721 12.5898 5.65803 12.8334 5.52581L12.8334 7.3332C12.8334 7.60934 13.0573 7.8332 13.3334 7.8332C13.6096 7.8332 13.8334 7.60934 13.8334 7.3332L13.8334 4.66653C13.8334 4.61829 13.8266 4.57164 13.8139 4.5275C13.8266 4.46622 13.8334 4.40152 13.8334 4.3332C13.8334 3.86516 13.5102 3.56767 13.2125 3.36663C12.9153 3.16584 12.4878 2.959 11.9842 2.71537L9.88996 1.70196C8.79545 1.17194 8.09594 0.833198 7.33344 0.833198C6.57095 0.833198 5.87144 1.17194 4.77693 1.70196L2.6827 2.71536C2.17914 2.95899 1.75163 3.16583 1.45436 3.36663C1.15672 3.56767 0.833442 3.86516 0.833442 4.3332C0.833442 4.40152 0.840331 4.46622 0.853024 4.5275C0.840274 4.57164 0.833441 4.61829 0.833441 4.66653L0.833442 11.4407C0.833442 12.1877 1.37834 12.6844 2.04899 13.0869C2.72792 13.4943 3.72668 13.9161 4.98874 14.4493L5.12953 14.5088C6.07556 14.9087 6.68541 15.1665 7.33344 15.1665C7.90123 15.1665 8.36278 14.9675 9.04355 14.674L9.19737 14.6077C9.45111 14.4988 9.5685 14.2048 9.45955 13.951C9.35061 13.6973 9.05617 13.5801 8.80242 13.689C8.34681 13.8846 8.05858 14.0084 7.83344 14.0808L7.83344 7.78539ZM1.83344 5.52581C2.07711 5.65804 2.36475 5.79721 2.6827 5.95104L4.77693 6.96444C5.63015 7.37762 6.24334 7.67455 6.83344 7.78539L6.83344 14.092C6.51418 14.0041 6.09878 13.8326 5.41929 13.5456C4.10675 12.9911 3.17429 12.5959 2.56353 12.2294C1.93709 11.8535 1.83344 11.6154 1.83344 11.4407L1.83344 5.52581ZM5.10184 2.65568C6.34707 2.05313 6.82838 1.8332 7.33344 1.8332C7.8385 1.8332 8.31982 2.05313 9.56504 2.65569L9.56795 2.65709L3.96293 5.4596L3.15437 5.06835C2.60484 4.80244 2.24413 4.62648 2.01409 4.4711C1.91517 4.40428 1.86737 4.359 1.84525 4.3332C1.86737 4.3074 1.91517 4.26212 2.01409 4.1953C2.24413 4.03992 2.60484 3.86396 3.15437 3.59804L5.10184 2.65568ZM5.09927 6.00947L5.10184 6.01071C6.34707 6.61326 6.82838 6.8332 7.33344 6.8332C7.8385 6.8332 8.31982 6.61326 9.56504 6.01071L11.5125 5.06835C12.062 4.80244 12.4228 4.62648 12.6528 4.4711C12.7517 4.40428 12.7995 4.359 12.8216 4.3332C12.7995 4.30739 12.7517 4.26212 12.6528 4.1953C12.4228 4.03991 12.062 3.86396 11.5125 3.59804L10.7043 3.20696L5.09927 6.00947Z" fill="#384250"/>
<path d="M12.3334 8.8332C12.6096 8.8332 12.8334 9.05706 12.8334 9.3332L12.8334 11.1665L14.6668 11.1665C14.9429 11.1665 15.1668 11.3904 15.1668 11.6665C15.1668 11.9427 14.9429 12.1665 14.6668 12.1665L12.8334 12.1665L12.8334 13.9999C12.8334 14.276 12.6096 14.4999 12.3334 14.4999C12.0573 14.4999 11.8334 14.276 11.8334 13.9999L11.8334 12.1665L10.0001 12.1665C9.72397 12.1665 9.50011 11.9427 9.50011 11.6665C9.50011 11.3904 9.72397 11.1665 10.0001 11.1665L11.8334 11.1665L11.8334 9.3332C11.8334 9.05706 12.0573 8.8332 12.3334 8.8332Z" fill="#384250"/>
</svg>
