<svg width="18" height="18" viewBox="0 0 18 18" fill="none" xmlns="http://www.w3.org/2000/svg">
<g id="elements">
<g id="Icon">
<path d="M4.78624 1.70807C5.80522 1.70807 6.15293 1.71757 6.44595 1.82745C7.13547 2.08602 7.438 2.69116 7.89942 3.61409L7.98808 3.79141H4.83268C4.4875 3.79141 4.20768 4.07123 4.20768 4.41641C4.20768 4.76159 4.4875 5.04141 4.83268 5.04141H8.98678C8.99547 5.04159 9.00417 5.04159 9.01289 5.04141H12.9577C13.8485 5.04141 14.4695 5.04216 14.9483 5.09086C15.4166 5.1385 15.6789 5.22679 15.8744 5.3574C16.0791 5.4942 16.2549 5.66998 16.3917 5.87471C16.514 6.05776 16.6078 6.35927 16.6577 6.89925C16.7071 7.43382 16.7077 8.11108 16.7077 8.99974C16.7077 9.34492 16.9875 9.62474 17.3327 9.62474C17.6779 9.62474 17.9577 9.34492 17.9577 8.99974V8.97224C17.9577 8.11709 17.9577 7.38283 17.9024 6.78421C17.8469 6.1846 17.73 5.62776 17.431 5.18025C17.203 4.83903 16.9101 4.54606 16.5688 4.31806C16.1337 4.02735 15.6419 3.90498 15.0748 3.84728C14.5253 3.79139 13.8406 3.7914 12.9914 3.79141L9.38562 3.79141L9.0305 3.08117C9.00457 3.0293 8.97825 2.97605 8.9514 2.92171C8.55805 2.12575 8.04773 1.09312 6.88485 0.657041C6.35246 0.457398 5.75939 0.45766 4.90155 0.45804L4.75728 0.458074C4.02499 0.458067 3.43439 0.458061 2.95743 0.500105C2.46598 0.543426 2.03592 0.635059 1.64317 0.854237C1.13713 1.13664 0.719579 1.55418 0.437179 2.06022C0.218001 2.45298 0.126368 2.88304 0.0830467 3.37449C0.041003 3.85144 0.0410087 4.44205 0.0410158 5.17433V7.79755C0.0410053 9.72121 0.040997 11.2287 0.199138 12.405C0.361004 13.6089 0.698788 14.559 1.44446 15.3046C2.10542 15.9656 2.92806 16.307 3.9485 16.4885C4.95092 16.6669 6.19805 16.6995 7.74661 16.7063C8.09178 16.7079 8.37283 16.4293 8.37434 16.0841C8.37586 15.7389 8.09727 15.4579 7.75209 15.4564C6.19082 15.4495 5.0482 15.4146 4.16746 15.2579C3.30475 15.1044 2.75083 14.8432 2.32835 14.4207C1.85363 13.946 1.58122 13.3038 1.43799 12.2384C1.29234 11.1551 1.29102 9.73159 1.29102 7.74974V5.2033C1.29102 4.43527 1.29158 3.89986 1.32822 3.48425C1.36413 3.07685 1.43096 2.84453 1.52871 2.66936C1.69815 2.36574 1.94868 2.11521 2.25231 1.94577C2.42747 1.84802 2.6598 1.78119 3.06719 1.74528C3.4828 1.70864 4.01821 1.70807 4.78624 1.70807Z" fill="#067647"/>
<path d="M10.666 11.2913C10.3208 11.2913 10.041 11.5712 10.041 11.9163C10.041 12.2615 10.3208 12.5413 10.666 12.5413H17.3327C17.6779 12.5413 17.9577 12.2615 17.9577 11.9163C17.9577 11.5712 17.6779 11.2913 17.3327 11.2913H10.666Z" fill="#067647"/>
<path d="M10.666 13.7913C10.3208 13.7913 10.041 14.0712 10.041 14.4163C10.041 14.7615 10.3208 15.0413 10.666 15.0413H17.3327C17.6779 15.0413 17.9577 14.7615 17.9577 14.4163C17.9577 14.0712 17.6779 13.7913 17.3327 13.7913H10.666Z" fill="#067647"/>
<path d="M10.6661 16.2912C10.321 16.2912 10.0411 16.571 10.0411 16.9161C10.0411 17.2613 10.3209 17.5412 10.6661 17.5412L13.9993 17.5413C14.3445 17.5414 14.6243 17.2616 14.6243 16.9164C14.6244 16.5712 14.3446 16.2914 13.9994 16.2913L10.6661 16.2912Z" fill="#067647"/>
</g>
</g>
</svg>
