<svg width="11" height="10" viewBox="0 0 11 10" fill="none" xmlns="http://www.w3.org/2000/svg">
<path fill-rule="evenodd" clip-rule="evenodd" d="M3.37512 0.520996C2.68181 0.520996 2.12512 1.08785 2.12512 1.78047C2.12512 2.47308 2.68181 3.03994 3.37512 3.03994C4.06843 3.03994 4.62512 2.47308 4.62512 1.78047C4.62512 1.08785 4.06843 0.520996 3.37512 0.520996ZM2.75012 1.78047C2.75012 1.42709 3.03289 1.146 3.37512 1.146C3.71734 1.146 4.00012 1.42709 4.00012 1.78047C4.00012 2.13384 3.71734 2.41494 3.37512 2.41494C3.03289 2.41494 2.75012 2.13384 2.75012 1.78047Z" fill="#161616"/>
<path fill-rule="evenodd" clip-rule="evenodd" d="M4.65355 3.49079C3.86957 3.06642 2.88067 3.06642 2.09668 3.49079C2.07707 3.50141 2.05117 3.51465 2.02067 3.53024C1.87472 3.60482 1.62353 3.73319 1.45224 3.88561C1.34727 3.97902 1.21614 4.12785 1.19156 4.33222C1.16405 4.56105 1.27932 4.75219 1.444 4.89482C1.70502 5.12089 2.03126 5.31266 2.45655 5.31266H4.29369C4.71897 5.31266 5.04522 5.12089 5.30624 4.89482C5.47092 4.75219 5.58619 4.56105 5.55867 4.33222C5.5341 4.12785 5.40296 3.97902 5.29799 3.88561C5.1267 3.73319 4.8756 3.60486 4.72965 3.53028C4.69912 3.51467 4.67319 3.50142 4.65355 3.49079ZM2.39421 4.04043C2.99257 3.71654 3.75767 3.71654 4.35603 4.04043C4.39743 4.06285 4.44034 4.08502 4.4835 4.10734C4.62931 4.18271 4.77813 4.25964 4.88252 4.35252C4.90303 4.37077 4.91644 4.3852 4.92511 4.39571C4.91845 4.40285 4.90936 4.41173 4.89706 4.42238C4.69822 4.5946 4.51231 4.68766 4.29369 4.68766H2.45655C2.23793 4.68766 2.05202 4.5946 1.85318 4.42238C1.84087 4.41173 1.83178 4.40285 1.82513 4.39571C1.83379 4.3852 1.84721 4.37077 1.86772 4.35252C1.9721 4.25964 2.12093 4.18271 2.26673 4.10734C2.30987 4.08504 2.35283 4.06283 2.39421 4.04043ZM4.94195 4.37334C4.9421 4.37333 4.9417 4.37446 4.9403 4.37675C4.9411 4.37449 4.9418 4.37335 4.94195 4.37334ZM1.80829 4.37334C1.80844 4.37335 1.80913 4.37449 1.80994 4.37675C1.80854 4.37446 1.80814 4.37333 1.80829 4.37334Z" fill="#161616"/>
<path d="M2.64583 6.25016C2.64583 6.07757 2.50592 5.93766 2.33333 5.93766C2.16074 5.93766 2.02083 6.07757 2.02083 6.25016C2.02083 7.80489 3.2786 9.06266 4.83333 9.06266C4.94164 9.06266 5.04222 9.00658 5.09916 8.91445C5.1561 8.82232 5.16128 8.70728 5.11284 8.61041L4.7557 7.89612C4.67851 7.74175 4.4908 7.67918 4.33644 7.75637C4.18207 7.83355 4.1195 8.02126 4.19668 8.17563L4.29435 8.37097C3.34607 8.13134 2.64583 7.27367 2.64583 6.25016Z" fill="#161616"/>
<path d="M6.23417 1.08587C6.29111 0.993742 6.39169 0.937663 6.5 0.937663C8.05473 0.937663 9.3125 2.19543 9.3125 3.75016C9.3125 3.92275 9.17259 4.06266 9 4.06266C8.82741 4.06266 8.6875 3.92275 8.6875 3.75016C8.6875 2.72665 7.98726 1.86899 7.03898 1.62936L7.13665 1.82469C7.21384 1.97906 7.15127 2.16677 6.9969 2.24396C6.84253 2.32114 6.65482 2.25857 6.57763 2.1042L6.22049 1.38992C6.17206 1.29305 6.17723 1.178 6.23417 1.08587Z" fill="#161616"/>
<path fill-rule="evenodd" clip-rule="evenodd" d="M7.95845 4.68766C7.26514 4.68766 6.70845 5.25451 6.70845 5.94713C6.70845 6.63975 7.26514 7.2066 7.95845 7.2066C8.65176 7.2066 9.20845 6.63975 9.20845 5.94713C9.20845 5.25451 8.65176 4.68766 7.95845 4.68766ZM7.33345 5.94713C7.33345 5.59376 7.61623 5.31266 7.95845 5.31266C8.30068 5.31266 8.58345 5.59376 8.58345 5.94713C8.58345 6.30051 8.30068 6.5816 7.95845 6.5816C7.61623 6.5816 7.33345 6.30051 7.33345 5.94713Z" fill="#161616"/>
<path fill-rule="evenodd" clip-rule="evenodd" d="M9.23689 7.65746C8.4529 7.23308 7.464 7.23308 6.68002 7.65746C6.66038 7.66809 6.63445 7.68134 6.60392 7.69695C6.45797 7.77153 6.20687 7.89986 6.03558 8.05228C5.93061 8.14568 5.79947 8.29452 5.7749 8.49889C5.74738 8.72772 5.86265 8.91886 6.02733 9.06149C6.28835 9.28755 6.6146 9.47933 7.03988 9.47933H8.87702C9.30231 9.47933 9.62856 9.28755 9.88957 9.06149C10.0543 8.91886 10.1695 8.72772 10.142 8.49889C10.1174 8.29452 9.9863 8.14568 9.88133 8.05228C9.71004 7.89986 9.45893 7.77153 9.31298 7.69695C9.28245 7.68134 9.25652 7.66809 9.23689 7.65746ZM6.85015 8.27396C6.89329 8.25166 6.93616 8.2295 6.97754 8.2071C7.5759 7.8832 8.341 7.8832 8.93936 8.2071C8.98077 8.22951 9.02367 8.25169 9.06684 8.274C9.21264 8.34937 9.36147 8.4263 9.46585 8.51919C9.48636 8.53744 9.49978 8.55186 9.50844 8.56238C9.50179 8.56952 9.4927 8.57839 9.48039 8.58905C9.28155 8.76126 9.09564 8.85433 8.87702 8.85433H7.03988C6.82126 8.85433 6.63535 8.76126 6.43651 8.58905C6.42421 8.57839 6.41512 8.56952 6.40846 8.56238C6.41713 8.55187 6.43054 8.53744 6.45105 8.51919C6.55544 8.4263 6.70435 8.34933 6.85015 8.27396ZM9.52528 8.54001C9.52543 8.54 9.52503 8.54113 9.52363 8.54341C9.52444 8.54116 9.52513 8.54002 9.52528 8.54001ZM6.39162 8.54001C6.39177 8.54002 6.39247 8.54116 6.39327 8.54341C6.39187 8.54113 6.39147 8.54 6.39162 8.54001Z" fill="#161616"/>
</svg>
