<svg width="16" height="16" viewBox="0 0 16 16" fill="none" xmlns="http://www.w3.org/2000/svg">
<path d="M6.4999 6.00005C6.4999 5.7239 6.72376 5.50005 6.9999 5.50005L8.9999 5.50005C9.27604 5.50005 9.4999 5.7239 9.4999 6.00005C9.4999 6.27619 9.27604 6.50005 8.9999 6.50005L6.9999 6.50005C6.72375 6.50005 6.4999 6.27619 6.4999 6.00005Z" fill="#384250"/>
<path fill-rule="evenodd" clip-rule="evenodd" d="M6.22585 0.83338L9.77418 0.83338C10.2383 0.833371 10.6222 0.833364 10.936 0.863691C11.2645 0.895447 11.5609 0.963554 11.837 1.12717C12.1169 1.29307 12.3103 1.51811 12.4777 1.78834C12.6335 2.04011 12.7839 2.36081 12.9604 2.73746L13.4514 3.78495C13.4564 3.79554 13.4611 3.80635 13.4655 3.81734C13.4674 3.82229 13.4693 3.82725 13.471 3.83223C13.4925 3.89227 13.5018 3.95421 13.4999 4.01507L13.4999 6.88028C13.4999 7.90738 13.4999 8.72849 13.4142 9.37281C13.3256 10.0387 13.1373 10.5903 12.7044 11.0276C12.2708 11.4657 11.7226 11.6568 11.0611 11.7466C10.4223 11.8334 9.60864 11.8334 8.59275 11.8334L7.40704 11.8334C6.39116 11.8334 5.57748 11.8334 4.93867 11.7466C4.27715 11.6568 3.72904 11.4657 3.29543 11.0276C2.86251 10.5903 2.67424 10.0387 2.58563 9.37281C2.49988 8.72849 2.49989 7.90738 2.4999 6.88029L2.4999 4.00029C2.4999 3.99015 2.5002 3.97983 2.50079 3.96984C2.50496 3.89992 2.5235 3.83386 2.55349 3.77459L3.03965 2.73746C3.21618 2.36082 3.3665 2.04011 3.52238 1.78834C3.68969 1.5181 3.88311 1.29307 4.16306 1.12717C4.43916 0.963554 4.73551 0.895447 5.06405 0.863691C5.37781 0.833364 5.76169 0.833372 6.22585 0.83338ZM3.7866 3.50005L12.2134 3.50005L12.0665 3.18662C11.8752 2.77854 11.749 2.51119 11.6274 2.31475C11.5138 2.13128 11.4251 2.04549 11.3272 1.98746C11.2254 1.92714 11.0904 1.88328 10.8398 1.85905C10.5798 1.83392 10.2444 1.83338 9.75002 1.83338L6.25002 1.83338C5.75561 1.83338 5.42026 1.83392 5.16026 1.85905C4.90961 1.88328 4.77465 1.92714 4.67287 1.98746C4.57494 2.04549 4.4862 2.13128 4.37261 2.31475C4.25098 2.51119 4.12481 2.77854 3.93351 3.18662L3.7866 3.50005ZM3.4999 4.50005L3.4999 6.84358C3.4999 7.91583 3.50094 8.67023 3.57689 9.24088C3.65099 9.79768 3.78816 10.1039 4.00612 10.3241C4.22338 10.5436 4.52449 10.6812 5.07325 10.7557C5.63693 10.8323 6.3825 10.8334 7.44434 10.8334L8.55545 10.8334C9.61729 10.8334 10.3629 10.8323 10.9265 10.7557C11.4753 10.6812 11.7764 10.5436 11.9937 10.3241C12.2116 10.1039 12.3488 9.79768 12.4229 9.24089C12.4989 8.67023 12.4999 7.91583 12.4999 6.84358L12.4999 4.50005L3.4999 4.50005Z" fill="#384250"/>
<path d="M15.1666 14.6667C15.1666 13.4701 14.1965 12.5 12.9999 12.5L2.9999 12.5C1.80328 12.5 0.83323 13.4701 0.83323 14.6667C0.83323 14.9429 1.05709 15.1667 1.33323 15.1667C1.60937 15.1667 1.83323 14.9429 1.83323 14.6667C1.83323 14.0224 2.35556 13.5 2.9999 13.5L4.16656 13.5L4.16656 14.6667C4.16656 14.9429 4.39042 15.1667 4.66656 15.1667C4.94271 15.1667 5.16656 14.9429 5.16656 14.6667L5.16656 13.5L7.4999 13.5L7.4999 14.6667C7.4999 14.9429 7.72375 15.1667 7.9999 15.1667C8.27604 15.1667 8.4999 14.9429 8.4999 14.6667L8.4999 13.5L10.8332 13.5L10.8332 14.6667C10.8332 14.9429 11.0571 15.1667 11.3332 15.1667C11.6094 15.1667 11.8332 14.9429 11.8332 14.6667L11.8332 13.5L12.9999 13.5C13.6442 13.5 14.1666 14.0224 14.1666 14.6667C14.1666 14.9429 14.3904 15.1667 14.6666 15.1667C14.9427 15.1667 15.1666 14.9429 15.1666 14.6667Z" fill="#384250"/>
</svg>
