<svg width="40" height="40" viewBox="0 0 40 40" fill="none" xmlns="http://www.w3.org/2000/svg">
<path d="M0 20C0 8.95431 8.95431 0 20 0C31.0457 0 40 8.95431 40 20C40 31.0457 31.0457 40 20 40C8.95431 40 0 31.0457 0 20Z" fill="#F3FCF6"/>
<path d="M22.0581 11.2247C22.3021 10.9806 22.6979 10.9806 22.9419 11.2247L25 13.2827L27.0581 11.2247C27.3021 10.9806 27.6979 10.9806 27.9419 11.2247C28.186 11.4688 28.186 11.8645 27.9419 12.1086L25.8839 14.1666L27.9419 16.2247C28.186 16.4688 28.186 16.8645 27.9419 17.1086C27.6979 17.3526 27.3021 17.3526 27.0581 17.1086L25 15.0505L22.9419 17.1086C22.6979 17.3526 22.3021 17.3526 22.0581 17.1086C21.814 16.8645 21.814 16.4688 22.0581 16.2247L24.1161 14.1666L22.0581 12.1086C21.814 11.8645 21.814 11.4688 22.0581 11.2247Z" fill="#067647"/>
<path fill-rule="evenodd" clip-rule="evenodd" d="M11.875 25.8333C11.875 24.1074 13.2741 22.7083 15 22.7083C16.7259 22.7083 18.125 24.1074 18.125 25.8333C18.125 27.5592 16.7259 28.9583 15 28.9583C13.2741 28.9583 11.875 27.5592 11.875 25.8333ZM15 23.9583C13.9645 23.9583 13.125 24.7978 13.125 25.8333C13.125 26.8688 13.9645 27.7083 15 27.7083C16.0355 27.7083 16.875 26.8688 16.875 25.8333C16.875 24.7978 16.0355 23.9583 15 23.9583Z" fill="#067647"/>
<path d="M17.0833 13.5416C15.1273 13.5416 13.5417 15.1273 13.5417 17.0833C13.5417 19.0393 15.1273 20.625 17.0833 20.625H22.9167C24.1823 20.625 25.2083 21.651 25.2083 22.9166C25.2083 24.1823 24.1823 25.2083 22.9167 25.2083H20C19.6548 25.2083 19.375 25.4881 19.375 25.8333C19.375 26.1785 19.6548 26.4583 20 26.4583H22.9167C24.8727 26.4583 26.4583 24.8726 26.4583 22.9166C26.4583 20.9606 24.8727 19.375 22.9167 19.375H17.0833C15.8177 19.375 14.7917 18.3489 14.7917 17.0833C14.7917 15.8176 15.8177 14.7916 17.0833 14.7916H20C20.3452 14.7916 20.625 14.5118 20.625 14.1666C20.625 13.8214 20.3452 13.5416 20 13.5416H17.0833Z" fill="#067647"/>
</svg>
