<svg width="14" height="14" viewBox="0 0 14 14" fill="none" xmlns="http://www.w3.org/2000/svg">
<path fill-rule="evenodd" clip-rule="evenodd" d="M6.90262 0.166505C6.52246 0.166482 6.19026 0.166462 5.91659 0.20217C5.61838 0.24108 5.34049 0.327288 5.09166 0.532257C4.84852 0.732539 4.70043 0.99107 4.58286 1.2799C4.47072 1.55538 4.36841 1.90621 4.24624 2.32511L4.19527 2.49988L2.55137 2.49986C2.14371 2.49968 1.85043 2.49956 1.60255 2.55946C0.905312 2.72794 0.330425 3.24822 0.192396 3.95023C0.14382 4.19728 0.176249 4.47801 0.215537 4.81813L0.223803 4.88991C0.285508 5.42907 0.464644 5.89747 0.807288 6.27761L0.811972 6.28279L0.811451 6.28822L0.677102 7.77535C0.562817 9.04027 0.472322 10.0419 0.509348 10.8289C0.547414 11.6381 0.722294 12.3041 1.20883 12.8403C1.69585 13.3769 2.34061 13.6131 3.13953 13.7248C3.91572 13.8332 4.9157 13.8332 6.17732 13.8332H7.82439C9.086 13.8332 10.086 13.8332 10.8622 13.7248C11.6611 13.6131 12.3059 13.3769 12.7929 12.8403C13.2794 12.3041 13.4543 11.6381 13.4924 10.8289C13.5294 10.0419 13.4389 9.0403 13.3246 7.7754L13.1903 6.28822L13.1898 6.28275L13.1944 6.27761C13.5371 5.89747 13.7162 5.42907 13.7779 4.88991L13.7862 4.81812C13.8255 4.47801 13.8579 4.19728 13.8093 3.95023C13.6713 3.24822 13.0964 2.72794 12.3992 2.55946C12.1513 2.49956 11.858 2.49968 11.4503 2.49986L9.8064 2.49988L9.75543 2.32513C9.63326 1.90622 9.53095 1.55538 9.41881 1.2799C9.30124 0.99107 9.15315 0.732539 8.91001 0.532257C8.66118 0.327288 8.38329 0.24108 8.08508 0.20217C7.81141 0.166462 7.47925 0.166482 7.09908 0.166505H6.90262ZM8.76469 2.49988C8.65375 2.12066 8.57399 1.85686 8.4926 1.65692C8.40545 1.44282 8.3366 1.35551 8.27421 1.30411C8.21751 1.2574 8.13971 1.21777 7.9557 1.19376C7.75433 1.16749 7.48802 1.16651 7.06906 1.16651H6.9326C6.51365 1.16651 6.24734 1.16749 6.04597 1.19376C5.86196 1.21777 5.78416 1.2574 5.72746 1.30411C5.66506 1.35551 5.59621 1.44282 5.50906 1.65692C5.42768 1.85686 5.34792 2.12066 5.23698 2.49988H8.76469ZM1.67657 7.82637L1.75789 6.92618C1.88358 6.97914 2.01536 7.0264 2.15271 7.06876L4.9378 7.92765C5.02867 7.95568 5.11575 7.98253 5.1993 8.00816C5.35939 8.85739 6.1051 9.49979 7.00085 9.49979C7.8966 9.49979 8.6423 8.85739 8.80239 8.00816C8.88587 7.98256 8.97287 7.95573 9.06366 7.92773L11.849 7.06876C11.9864 7.0264 12.1181 6.97913 12.2439 6.92617L12.3252 7.82637C12.4438 9.13897 12.5269 10.0718 12.4935 10.7819C12.4608 11.478 12.3181 11.8754 12.0524 12.1682C11.7871 12.4605 11.4082 12.6388 10.7238 12.7344C10.0249 12.8321 9.0949 12.8332 7.78486 12.8332H6.21688C4.90684 12.8332 3.97686 12.8321 3.27791 12.7344C2.59359 12.6388 2.21462 12.4605 1.94936 12.1682C1.68362 11.8754 1.54099 11.478 1.50824 10.7819C1.47484 10.0718 1.55798 9.13897 1.67657 7.82637ZM8.83067 6.95311L11.5543 6.11317C11.9959 5.977 12.2736 5.80565 12.4516 5.6081C12.6249 5.41579 12.7407 5.15784 12.7844 4.7762C12.836 4.32519 12.8424 4.21608 12.8281 4.14315C12.777 3.88306 12.5438 3.6232 12.1643 3.53148C12.0483 3.50347 11.8866 3.49988 11.3825 3.49988H2.61923C2.11514 3.49988 1.95336 3.50347 1.83743 3.53148C1.45787 3.6232 1.22475 3.88305 1.17361 4.14315C1.15927 4.21608 1.1657 4.32519 1.21732 4.7762C1.26099 5.15784 1.37675 5.41579 1.55008 5.6081C1.72815 5.80565 2.00585 5.977 2.44741 6.11317L5.17103 6.95311C5.17553 6.86546 5.18549 6.77909 5.20727 6.69783C5.31515 6.29523 5.62962 5.98076 6.03222 5.87288C6.18325 5.83241 6.35195 5.83274 6.51366 5.83307L6.5564 5.83312H7.44529L7.48803 5.83307C7.64975 5.83274 7.81844 5.83241 7.96947 5.87288C8.37208 5.98076 8.68655 6.29523 8.79443 6.69783C8.8162 6.77909 8.82616 6.86546 8.83067 6.95311ZM6.17364 6.95503C6.1893 6.89883 6.23322 6.85491 6.28942 6.83925C6.29265 6.83871 6.30574 6.83683 6.33609 6.83544C6.38432 6.83324 6.44854 6.83312 6.5564 6.83312H7.44529C7.55315 6.83312 7.61737 6.83324 7.6656 6.83544C7.69595 6.83683 7.70904 6.83871 7.71227 6.83925C7.76847 6.85491 7.81239 6.89883 7.82806 6.95503C7.82859 6.95826 7.83048 6.97135 7.83186 7.0017C7.83406 7.04993 7.83418 7.11415 7.83418 7.22201V7.66646C7.83418 8.12669 7.46108 8.49979 7.00085 8.49979C6.54061 8.49979 6.16751 8.12669 6.16751 7.66646V7.22201C6.16751 7.11415 6.16763 7.04993 6.16983 7.0017C6.17122 6.97135 6.1731 6.95826 6.17364 6.95503Z" fill="#384250"/>
</svg>
