<svg width="16" height="16" viewBox="0 0 16 16" fill="none" xmlns="http://www.w3.org/2000/svg">
<path d="M4.99973 12.6667C4.63154 12.6667 4.33306 12.9651 4.33306 13.3333C4.33306 13.7015 4.63154 14 4.99973 14L5.00572 14C5.37391 14 5.67238 13.7015 5.67238 13.3333C5.67238 12.9651 5.37391 12.6667 5.00572 12.6667L4.99973 12.6667Z" fill="#384250"/>
<path d="M2.49973 2.66667C2.49973 2.39053 2.27587 2.16667 1.99973 2.16667C1.72359 2.16667 1.49973 2.39053 1.49973 2.66667L1.49973 13.3333C1.49973 13.6095 1.72359 13.8333 1.99973 13.8333C2.27587 13.8333 2.49973 13.6095 2.49973 13.3333L2.49973 2.66667Z" fill="#384250"/>
<path d="M5.49973 2.66667C5.49973 2.39053 5.27587 2.16667 4.99973 2.16667C4.72359 2.16667 4.49973 2.39053 4.49973 2.66667L4.49973 11.3333C4.49973 11.6095 4.72359 11.8333 4.99973 11.8333C5.27587 11.8333 5.49973 11.6095 5.49973 11.3333L5.49973 2.66667Z" fill="#384250"/>
<path d="M7.99973 2.16667C8.27587 2.16667 8.49973 2.39053 8.49973 2.66667L8.49973 11.3333C8.49973 11.6095 8.27587 11.8333 7.99973 11.8333C7.72359 11.8333 7.49973 11.6095 7.49973 11.3333L7.49973 2.66667C7.49973 2.39053 7.72359 2.16667 7.99973 2.16667Z" fill="#384250"/>
<path d="M11.4997 2.66667C11.4997 2.39053 11.2759 2.16667 10.9997 2.16667C10.7236 2.16667 10.4997 2.39053 10.4997 2.66667L10.4997 11.3333C10.4997 11.6095 10.7236 11.8333 10.9997 11.8333C11.2759 11.8333 11.4997 11.6095 11.4997 11.3333L11.4997 2.66667Z" fill="#384250"/>
<path d="M13.9997 2.16667C14.2759 2.16667 14.4997 2.39053 14.4997 2.66667L14.4997 13.3333C14.4997 13.6095 14.2759 13.8333 13.9997 13.8333C13.7236 13.8333 13.4997 13.6095 13.4997 13.3333L13.4997 2.66667C13.4997 2.39053 13.7236 2.16667 13.9997 2.16667Z" fill="#384250"/>
<path d="M7.33306 13.3333C7.33306 12.9651 7.63154 12.6667 7.99973 12.6667L8.00572 12.6667C8.37391 12.6667 8.67238 12.9651 8.67238 13.3333C8.67238 13.7015 8.37391 14 8.00572 14L7.99973 14C7.63154 14 7.33306 13.7015 7.33306 13.3333Z" fill="#384250"/>
<path d="M10.9997 12.6667C10.6315 12.6667 10.3331 12.9651 10.3331 13.3333C10.3331 13.7015 10.6315 14 10.9997 14L11.0057 14C11.3739 14 11.6724 13.7015 11.6724 13.3333C11.6724 12.9651 11.3739 12.6667 11.0057 12.6667L10.9997 12.6667Z" fill="#384250"/>
</svg>
