<svg width="20" height="22" viewBox="0 0 20 22" fill="none" xmlns="http://www.w3.org/2000/svg">
<g id="elements">
<g id="Icon">
<path fill-rule="evenodd" clip-rule="evenodd" d="M2.271 20.8138C1.89 20.5458 1.55101 20.2258 1.26101 19.8628C0.250011 18.5918 0.25 16.9648 0.25 13.7258V11.1808C0.25 8.12584 0.25 6.59281 0.771997 5.27682C1.606 3.17182 3.36199 1.51481 5.58999 0.732812C6.96898 0.249817 8.58996 0.249817 11.8189 0.249817C13.7008 0.249817 14.646 0.249817 15.484 0.543811C16.845 1.02181 17.919 2.03582 18.43 3.32482C18.751 4.13381 18.751 5.0308 18.751 6.81676V11.0115C18.751 11.4255 18.415 11.7615 18.001 11.7615C17.587 11.7615 17.251 11.4255 17.251 11.0115V6.81682C17.251 5.22096 17.251 4.41979 17.036 3.87682C16.685 2.99182 15.938 2.29181 14.988 1.95781C14.391 1.74782 13.532 1.74782 11.8201 1.74782C11.5523 1.74782 11.2962 1.74782 11.051 1.74808C11.0341 1.74923 11.0169 1.74982 10.9996 1.74982C9.57565 1.74982 8.41664 2.90882 8.41664 4.33282C8.41664 4.49273 8.42462 4.66504 8.43306 4.84724L8.43493 4.88774C8.45986 5.43229 8.4881 6.04891 8.33466 6.62482C8.11166 7.45682 7.45665 8.11182 6.62465 8.33482C6.04905 8.48818 5.43379 8.46005 4.88848 8.43513L4.84852 8.43328C4.66579 8.42482 4.49299 8.41682 4.33265 8.41682C2.94598 8.41682 1.8106 9.51585 1.75202 10.8884C1.752 10.9838 1.752 11.0809 1.752 11.1796V13.7248C1.752 16.6158 1.75201 18.0668 2.43701 18.9278C2.63701 19.1788 2.87201 19.4008 3.13701 19.5858C3.77202 20.0329 4.54106 20.1881 5.99044 20.2375C6.40229 20.2516 6.73438 20.5853 6.73438 20.9973C6.73438 21.416 6.39252 21.7559 5.97407 21.7431C4.26353 21.6908 3.23945 21.4962 2.271 20.8138ZM1.80577 7.79502C2.50141 7.24532 3.37947 6.91682 4.33265 6.91682C4.52344 6.91682 4.71854 6.92548 4.90912 6.93393L4.95165 6.93582L4.96754 6.93655C5.42157 6.95733 5.88872 6.97872 6.23666 6.88482C6.55166 6.80082 6.80065 6.55182 6.88465 6.23682C6.97843 5.88467 6.95676 5.4121 6.93581 4.95512L6.93566 4.95182C6.92566 4.74782 6.91664 4.53782 6.91664 4.33282C6.91664 3.39005 7.23799 2.52078 7.77689 1.82882C7.0938 1.88564 6.55715 1.98232 6.08799 2.14681C4.27099 2.78481 2.84199 4.12682 2.16799 5.82782C1.96233 6.34692 1.85835 6.96084 1.80577 7.79502Z" fill="#067647"/>
<path fill-rule="evenodd" clip-rule="evenodd" d="M12.4543 13.2498H13.0457C13.8317 13.2498 14.4873 13.2498 15.0079 13.311C15.5509 13.3749 16.0606 13.5158 16.4813 13.8839C16.7899 14.1538 16.9706 14.4755 17.0781 14.8252C17.211 14.7397 17.3369 14.6642 17.4557 14.6014C17.8266 14.4054 18.3357 14.2181 18.8733 14.4514C19.4417 14.6979 19.6202 15.2248 19.6873 15.6396C19.7502 16.0287 19.7501 16.5383 19.75 17.098V17.9016C19.7501 18.4613 19.7502 18.971 19.6873 19.3601C19.6202 19.7748 19.4417 20.3018 18.8733 20.5483C18.3357 20.7815 17.8266 20.5942 17.4557 20.3982C17.3369 20.3354 17.211 20.2599 17.0781 20.1744C16.9706 20.5241 16.7899 20.8458 16.4813 21.1158C16.0606 21.4839 15.5509 21.6247 15.0079 21.6886C14.4873 21.7499 13.8317 21.7498 13.0457 21.7498H12.4543C11.6683 21.7498 11.0127 21.7499 10.4922 21.6886C9.94909 21.6247 9.43941 21.4839 9.01869 21.1158C8.58356 20.735 8.40268 20.2514 8.32278 19.7314C8.2499 19.2572 8.24995 18.667 8.25 17.9921V17.0075C8.24995 16.3327 8.2499 15.7425 8.32278 15.2682C8.40268 14.7482 8.58356 14.2646 9.01869 13.8839C9.43941 13.5158 9.94909 13.3749 10.4922 13.311C11.0127 13.2498 11.6683 13.2498 12.4543 13.2498ZM17.249 18.4689C17.6585 18.7629 17.9381 18.9565 18.1567 19.0721C18.176 19.0823 18.1936 19.0912 18.2098 19.0991C18.2478 18.8446 18.25 18.4635 18.25 17.8419V17.1577C18.25 16.5361 18.2477 16.1551 18.2098 15.9005C18.1936 15.9084 18.176 15.9174 18.1567 15.9276C17.9381 16.0431 17.6585 16.2367 17.249 16.5308C17.25 16.6843 17.25 16.8432 17.25 17.0071V17.9921C17.25 18.1561 17.25 18.3154 17.249 18.4689ZM10.6674 14.8007C10.2574 14.849 10.0983 14.9324 10.0064 15.0127C9.92901 15.0805 9.85361 15.1821 9.80538 15.496C9.75207 15.8429 9.75001 16.3163 9.75001 17.0623V17.9373C9.75001 18.6833 9.75207 19.1567 9.80538 19.5036C9.85361 19.8176 9.92901 19.9191 10.0064 19.9869C10.0983 20.0673 10.2574 20.1507 10.6674 20.1989C11.0899 20.2486 11.6564 20.2498 12.5 20.2498H13C13.8436 20.2498 14.4101 20.2486 14.8326 20.1989C15.2426 20.1507 15.4017 20.0673 15.4936 19.9869C15.571 19.9191 15.6464 19.8176 15.6946 19.5036C15.7479 19.1567 15.75 18.6833 15.75 17.9373V17.0623C15.75 16.3163 15.7479 15.8429 15.6946 15.496C15.6464 15.1821 15.571 15.0805 15.4936 15.0127C15.4017 14.9324 15.2426 14.849 14.8326 14.8007C14.4101 14.751 13.8436 14.7498 13 14.7498H12.5C11.6564 14.7498 11.0899 14.751 10.6674 14.8007Z" fill="#067647"/>
</g>
</g>
</svg>
