<svg width="18" height="16" viewBox="0 0 18 16" fill="none" xmlns="http://www.w3.org/2000/svg">
<g id="elements">
<g id="Icon">
<path d="M1 0C0.447715 0 0 0.447715 0 1C0 1.55228 0.447715 2 1 2H1.00898C1.56127 2 2.00898 1.55228 2.00898 1C2.00898 0.447715 1.56127 0 1.00898 0H1Z" fill="#067647"/>
<path d="M5 0.25C4.58579 0.25 4.25 0.585786 4.25 1C4.25 1.41421 4.58579 1.75 5 1.75L17 1.75C17.4142 1.75 17.75 1.41421 17.75 1C17.75 0.585788 17.4142 0.250001 17 0.250001L5 0.25Z" fill="#067647"/>
<path d="M0 8C0 7.44772 0.447715 7 1 7H1.00898C1.56127 7 2.00898 7.44772 2.00898 8C2.00898 8.55229 1.56127 9 1.00898 9H1C0.447715 9 0 8.55229 0 8Z" fill="#067647"/>
<path d="M1 14C0.447715 14 0 14.4477 0 15C0 15.5523 0.447715 16 1 16H1.00898C1.56127 16 2.00898 15.5523 2.00898 15C2.00898 14.4477 1.56127 14 1.00898 14H1Z" fill="#067647"/>
<path d="M4.25 8C4.25 7.58579 4.58579 7.25 5 7.25L17 7.25C17.4142 7.25 17.75 7.58579 17.75 8C17.75 8.41422 17.4142 8.75 17 8.75L5 8.75C4.58579 8.75 4.25 8.41421 4.25 8Z" fill="#067647"/>
<path d="M5 14.25C4.58579 14.25 4.25 14.5858 4.25 15C4.25 15.4142 4.58579 15.75 5 15.75L17 15.75C17.4142 15.75 17.75 15.4142 17.75 15C17.75 14.5858 17.4142 14.25 17 14.25L5 14.25Z" fill="#067647"/>
</g>
</g>
</svg>
