<svg width="22" height="22" viewBox="0 0 22 22" fill="none" xmlns="http://www.w3.org/2000/svg">
<g id="elements">
<path id="Icon" fill-rule="evenodd" clip-rule="evenodd" d="M10.853 0.750002C10.2827 0.749967 9.78441 0.749937 9.37391 0.803499C8.92659 0.861863 8.50976 0.991177 8.13651 1.29863C7.7718 1.59905 7.54967 1.98685 7.37331 2.4201C7.20511 2.83332 7.05164 3.35955 6.86838 3.98791L6.79192 4.25006L4.32608 4.25003C3.71459 4.24977 3.27466 4.24958 2.90285 4.33943C1.85699 4.59215 0.994661 5.37257 0.787617 6.42558C0.714753 6.79616 0.763397 7.21727 0.822329 7.72744L0.834728 7.83511C0.927286 8.64385 1.19599 9.34645 1.70996 9.91667L1.71698 9.92444L1.7162 9.93257L1.51468 12.1633C1.34325 14.0607 1.20751 15.5631 1.26305 16.7436C1.32014 17.9574 1.58246 18.9564 2.31227 19.7606C3.0428 20.5656 4.00994 20.92 5.20832 21.0874C6.37261 21.2501 7.87258 21.2501 9.765 21.25H12.2356C14.128 21.2501 15.6281 21.2501 16.7923 21.0874C17.9907 20.92 18.9579 20.5656 19.6884 19.7606C20.4182 18.9564 20.6805 17.9574 20.7376 16.7436C20.7932 15.5631 20.6574 14.0607 20.486 12.1633L20.2845 9.93257L20.2837 9.92438L20.2906 9.91667C20.8046 9.34645 21.0733 8.64386 21.1659 7.83511L21.1783 7.72743C21.2372 7.21726 21.2858 6.79616 21.213 6.42558C21.0059 5.37257 20.1436 4.59215 19.0977 4.33943C18.7259 4.24958 18.286 4.24977 17.6745 4.25003L15.2086 4.25006L15.1322 3.98793C14.9489 3.35957 14.7954 2.83332 14.6272 2.4201C14.4509 1.98685 14.2287 1.59905 13.864 1.29863C13.4908 0.991177 13.074 0.861863 12.6266 0.803499C12.2161 0.749937 11.7179 0.749967 11.1476 0.750002H10.853ZM13.6461 4.25006C13.4796 3.68123 13.36 3.28553 13.2379 2.98562C13.1072 2.66448 13.0039 2.53351 12.9103 2.45641C12.8253 2.38635 12.7086 2.32691 12.4326 2.29089C12.1305 2.25148 11.7311 2.25001 11.1026 2.25001H10.8979C10.2695 2.25001 9.87003 2.25148 9.56798 2.29089C9.29196 2.32691 9.17526 2.38635 9.09021 2.45641C8.99662 2.53351 8.89334 2.66448 8.76262 2.98562C8.64054 3.28553 8.5209 3.68123 8.35449 4.25006H13.6461ZM3.01387 12.2398L3.13586 10.8895C3.32439 10.9689 3.52206 11.0398 3.7281 11.1034L7.90572 12.3917C8.04202 12.4338 8.17265 12.474 8.29797 12.5125C8.53811 13.7863 9.65667 14.7499 11.0003 14.7499C12.3439 14.7499 13.4625 13.7863 13.7026 12.5125C13.8278 12.4741 13.9583 12.4338 14.0945 12.3918L18.2725 11.1034C18.4786 11.0398 18.6762 10.9689 18.8648 10.8895L18.9868 12.2398C19.1647 14.2087 19.2894 15.608 19.2393 16.6731C19.1902 17.7172 18.9762 18.3134 18.5776 18.7526C18.1797 19.191 17.6113 19.4584 16.5848 19.6018C15.5364 19.7483 14.1414 19.75 12.1763 19.75H9.82435C7.85928 19.75 6.46431 19.7483 5.41588 19.6018C4.3894 19.4584 3.82095 19.191 3.42306 18.7526C3.02445 18.3134 2.81051 17.7172 2.76139 16.6731C2.71128 15.608 2.836 14.2087 3.01387 12.2398ZM13.745 10.9299L17.8305 9.67C18.4928 9.46574 18.9094 9.20872 19.1764 8.91239C19.4364 8.62394 19.6101 8.23701 19.6756 7.66455C19.753 6.98803 19.7627 6.82437 19.7412 6.71497C19.6645 6.32483 19.3148 5.93505 18.7454 5.79746C18.5715 5.75544 18.3289 5.75006 17.5727 5.75006H4.42787C3.67173 5.75006 3.42906 5.75544 3.25517 5.79746C2.68582 5.93505 2.33615 6.32483 2.25944 6.71497C2.23793 6.82437 2.24758 6.98804 2.325 7.66455C2.39052 8.23701 2.56415 8.62393 2.82415 8.91239C3.09124 9.20872 3.5078 9.46574 4.17014 9.67L8.25556 10.9299C8.26232 10.7984 8.27726 10.6689 8.30992 10.547C8.47174 9.94308 8.94345 9.47138 9.54736 9.30956C9.7739 9.24886 10.0269 9.24936 10.2695 9.24984L10.3336 9.24993H11.667L11.7311 9.24984C11.9736 9.24936 12.2267 9.24886 12.4532 9.30956C13.0571 9.47138 13.5288 9.94308 13.6907 10.547C13.7233 10.6689 13.7383 10.7984 13.745 10.9299ZM9.75948 10.9328C9.78298 10.8485 9.84886 10.7826 9.93315 10.7591C9.93801 10.7583 9.95764 10.7555 10.0032 10.7534C10.0755 10.7501 10.1718 10.7499 10.3336 10.7499H11.667C11.8288 10.7499 11.9251 10.7501 11.9974 10.7534C12.043 10.7555 12.0626 10.7583 12.0674 10.7591C12.1517 10.7826 12.2176 10.8485 12.2411 10.9328C12.2419 10.9376 12.2447 10.9573 12.2468 11.0028C12.2501 11.0751 12.2503 11.1715 12.2503 11.3333V11.9999C12.2503 12.6903 11.6906 13.2499 11.0003 13.2499C10.3099 13.2499 9.75029 12.6903 9.75029 11.9999V11.3333C9.75029 11.1715 9.75047 11.0751 9.75377 11.0028C9.75585 10.9573 9.75868 10.9376 9.75948 10.9328Z" fill="#067647"/>
</g>
</svg>
