<svg width="22" height="18" viewBox="0 0 22 18" fill="none" xmlns="http://www.w3.org/2000/svg">
<g id="elements">
<path id="Icon" fill-rule="evenodd" clip-rule="evenodd" d="M3.96778 0.250001H4.03223C4.472 0.249985 4.85137 0.249971 5.16265 0.278184C5.49184 0.308019 5.81779 0.374076 6.125 0.551445C6.46705 0.748924 6.75108 1.03296 6.94856 1.375C7.12593 1.68222 7.19199 2.00817 7.22182 2.33735C7.24831 2.6296 7.24992 2.98183 7.25 3.38775C7.44236 3.3272 7.63927 3.29614 7.83735 3.27818C8.14865 3.24997 8.52799 3.24998 8.96778 3.25H9.03223C9.47202 3.24998 9.85136 3.24997 10.1627 3.27818C10.4918 3.30802 10.8178 3.37408 11.125 3.55145C11.467 3.74892 11.7511 4.03296 11.9486 4.375C12.1259 4.68222 12.192 5.00817 12.2218 5.33735C12.2319 5.44809 12.2383 5.56743 12.2425 5.69505C12.2686 5.65991 12.2958 5.62548 12.324 5.59181C12.5519 5.32005 12.8355 5.14643 13.1346 5.00574C13.4173 4.87269 13.7736 4.74288 14.1867 4.59238L14.2473 4.57031C14.6609 4.4196 15.0176 4.28961 15.32 4.2095C15.6398 4.12479 15.9689 4.07527 16.3186 4.13693C16.7075 4.20552 17.0714 4.37525 17.374 4.62906C17.6459 4.85725 17.8196 5.14123 17.9602 5.44064C18.0932 5.72376 18.2229 6.08057 18.3733 6.49424L20.7909 13.1434C20.9411 13.5566 21.0707 13.913 21.1506 14.2151C21.235 14.5346 21.2843 14.8635 21.2226 15.2127C21.154 15.6013 20.9844 15.9649 20.7309 16.2672C20.503 16.539 20.2194 16.7126 19.9204 16.8533C19.6376 16.9863 19.2813 17.1162 18.8682 17.2666L18.8076 17.2887C18.394 17.4394 18.0373 17.5694 17.7349 17.6495C17.4151 17.7342 17.086 17.7838 16.7363 17.7221C16.3475 17.6535 15.9835 17.4838 15.681 17.23C15.409 17.0018 15.2354 16.7178 15.0947 16.4184C14.9617 16.1353 14.832 15.7784 14.6816 15.3647L12.264 8.71563C12.2593 8.70273 12.2547 8.68983 12.25 8.67704L12.25 14.5322C12.25 14.972 12.25 15.3514 12.2218 15.6627C12.192 15.9918 12.1259 16.3178 11.9486 16.625C11.7511 16.967 11.467 17.2511 11.125 17.4486C10.8178 17.6259 10.4918 17.692 10.1627 17.7218C9.85136 17.75 9.47203 17.75 9.03225 17.75H8.9678C8.52801 17.75 8.14864 17.75 7.83735 17.7218C7.50817 17.692 7.18222 17.6259 6.875 17.4486C6.74045 17.3709 6.61487 17.2798 6.50001 17.177C6.38514 17.2798 6.25956 17.3709 6.125 17.4486C5.81779 17.6259 5.49184 17.692 5.16265 17.7218C4.85137 17.75 4.47205 17.75 4.03229 17.75H3.96776C3.52799 17.75 3.14863 17.75 2.83735 17.7218C2.50817 17.692 2.18222 17.6259 1.875 17.4486C1.53296 17.2511 1.24892 16.967 1.05145 16.625C0.874076 16.3178 0.808019 15.9918 0.778184 15.6627C0.749971 15.3514 0.749985 14.972 0.750001 14.5323L0.750001 3.46778C0.749985 3.028 0.749971 2.64864 0.778184 2.33735C0.808019 2.00817 0.874076 1.68222 1.05145 1.375C1.24892 1.03296 1.53296 0.748924 1.875 0.551445C2.18222 0.374076 2.50817 0.308019 2.83735 0.278184C3.14864 0.249971 3.528 0.249985 3.96778 0.250001ZM7.25 6.47223L7.25 14.5278C7.25004 14.9931 7.25113 15.2964 7.27206 15.5273C7.29247 15.7524 7.32689 15.8341 7.35048 15.875C7.41631 15.989 7.51099 16.0837 7.625 16.1495C7.66587 16.1731 7.7476 16.2075 7.97275 16.2279C8.2082 16.2493 8.51889 16.25 9 16.25C9.48111 16.25 9.7918 16.2493 10.0273 16.2279C10.2524 16.2075 10.3341 16.1731 10.375 16.1495C10.489 16.0837 10.5837 15.989 10.6495 15.875C10.6731 15.8341 10.7075 15.7524 10.7279 15.5273C10.7493 15.2918 10.75 14.9811 10.75 14.5L10.75 6.5C10.75 6.01889 10.7493 5.7082 10.7279 5.47275C10.7075 5.2476 10.6731 5.16587 10.6495 5.125C10.5837 5.01099 10.489 4.91631 10.375 4.85048C10.3341 4.82689 10.2524 4.79247 10.0273 4.77206C9.7918 4.75072 9.48111 4.75 9 4.75C8.51889 4.75 8.2082 4.75072 7.97275 4.77206C7.7476 4.79247 7.66587 4.82689 7.625 4.85048C7.51099 4.91631 7.41631 5.01099 7.35048 5.125C7.32689 5.16587 7.29247 5.2476 7.27206 5.47275C7.25113 5.70364 7.25004 6.00688 7.25 6.47223ZM5.75 3.5L5.75 14.5201C5.74998 14.9898 5.74899 15.2951 5.72794 15.5273C5.70754 15.7524 5.67311 15.8341 5.64952 15.875C5.58369 15.989 5.48902 16.0837 5.375 16.1495C5.33414 16.1731 5.2524 16.2075 5.02726 16.2279C4.7918 16.2493 4.48111 16.25 4 16.25C3.51889 16.25 3.2082 16.2493 2.97275 16.2279C2.7476 16.2075 2.66587 16.1731 2.625 16.1495C2.51099 16.0837 2.41631 15.989 2.35048 15.875C2.32689 15.8341 2.29247 15.7524 2.27206 15.5273C2.25072 15.2918 2.25 14.9811 2.25 14.5L2.25 3.5C2.25 3.01889 2.25072 2.7082 2.27206 2.47275C2.29247 2.2476 2.32689 2.16587 2.35048 2.125C2.41631 2.01099 2.51099 1.91631 2.625 1.85048C2.66587 1.82689 2.7476 1.79247 2.97275 1.77206C3.2082 1.75072 3.51889 1.75 4 1.75C4.48111 1.75 4.7918 1.75072 5.02726 1.77206C5.2524 1.79247 5.33414 1.82689 5.375 1.85048C5.48902 1.91631 5.5837 2.01099 5.64952 2.125C5.67311 2.16587 5.70754 2.2476 5.72794 2.47275C5.74928 2.7082 5.75 3.01889 5.75 3.5ZM14.7305 5.99072C15.183 5.82587 15.4754 5.72008 15.7042 5.65948C15.9229 5.60154 16.0115 5.60593 16.058 5.61413C16.1877 5.637 16.309 5.69357 16.4098 5.77818C16.446 5.80852 16.5063 5.8736 16.6026 6.07841C16.7032 6.2926 16.8101 6.58462 16.9747 7.03718L19.3702 13.6257C19.5345 14.0777 19.64 14.3698 19.7003 14.5983C19.7581 14.8168 19.7537 14.9054 19.7455 14.9519C19.7226 15.0814 19.6661 15.2026 19.5816 15.3034C19.5512 15.3395 19.4862 15.3998 19.2817 15.496C19.0679 15.5967 18.7763 15.7037 18.3244 15.8683C17.872 16.0332 17.5795 16.139 17.3508 16.1995C17.132 16.2575 17.0434 16.2531 16.9969 16.2449C16.8673 16.222 16.7459 16.1655 16.6451 16.0809C16.6089 16.0505 16.5486 15.9854 16.4524 15.7806C16.3518 15.5664 16.2448 15.2744 16.0803 14.8219L13.6848 8.23336C13.5204 7.78134 13.415 7.4892 13.3546 7.2607C13.2968 7.04221 13.3013 6.95365 13.3095 6.90718C13.3323 6.77767 13.3889 6.65645 13.4734 6.55568C13.5037 6.51952 13.5687 6.45921 13.7732 6.363C13.987 6.26237 14.2786 6.15537 14.7305 5.99072Z" fill="#067647"/>
</g>
</svg>
