<svg width="22" height="22" viewBox="0 0 22 22" fill="none" xmlns="http://www.w3.org/2000/svg">
<g id="elements">
<path id="Icon" fill-rule="evenodd" clip-rule="evenodd" d="M10.6755 0.250001H10.3249H10.3249C9.57944 0.249979 8.95503 0.249961 8.44574 0.310259C7.90564 0.374204 7.4198 0.512689 6.98229 0.839704C6.54707 1.16501 6.27137 1.59351 6.04579 2.09636C5.84333 2.54769 5.65709 3.11709 5.43793 3.79842C5.03855 3.8204 4.67016 3.85235 4.33103 3.89881C3.20972 4.05243 2.29737 4.37711 1.5785 5.10965C0.86155 5.84022 0.545531 6.76413 0.395669 7.89997C0.249973 9.00424 0.249985 10.4149 0.25 12.1947V12.1947V12.3053V12.3053C0.249985 14.0851 0.249973 15.4958 0.395669 16.6C0.545531 17.7359 0.86155 18.6598 1.5785 19.3904C2.29737 20.1229 3.20972 20.4476 4.33103 20.6012C5.41745 20.75 6.80415 20.75 8.54827 20.75H8.54833H10.0065C10.4207 20.75 10.7565 20.4142 10.7565 20C10.7565 19.5858 10.4207 19.25 10.0065 19.25H8.60546C6.79124 19.25 5.50744 19.2483 4.53463 19.1151C3.58487 18.985 3.04401 18.7421 2.64909 18.3397C2.25225 17.9353 2.01137 17.3784 1.88278 16.4038C1.75154 15.4091 1.75 14.0975 1.75 12.25C1.75 10.4025 1.75154 9.09092 1.88278 8.09618C2.01137 7.12159 2.25225 6.56467 2.64909 6.16028C3.04401 5.75785 3.58487 5.51505 4.53463 5.38493C5.50744 5.25165 6.79125 5.25 8.60546 5.25H12.4082C14.2224 5.25 15.5062 5.25165 16.479 5.38493C17.4288 5.51505 17.9696 5.75785 18.3646 6.16028C18.9865 6.79405 19.2039 7.77267 19.2502 10.0155C19.2587 10.4296 19.6013 10.7584 20.0155 10.7498C20.4296 10.7413 20.7584 10.3987 20.7498 9.98453C20.705 7.80913 20.5271 6.22233 19.4352 5.10965C18.7163 4.37711 17.8039 4.05243 16.6826 3.89881C16.3397 3.85183 15.9668 3.81968 15.5622 3.79768C15.3432 3.11668 15.157 2.54753 14.9546 2.09636C14.729 1.59351 14.4533 1.16501 14.0181 0.839704C13.5806 0.512689 13.0948 0.374204 12.5547 0.310259C12.0454 0.249961 11.421 0.249979 10.6755 0.250001H10.6755ZM13.9709 3.75428C13.8263 3.31583 13.7073 2.98059 13.586 2.71031C13.4168 2.33303 13.2741 2.1563 13.1201 2.04117C12.9683 1.92775 12.7682 1.84602 12.3783 1.79985C11.9675 1.75122 11.4324 1.75 10.6318 1.75H10.3686C9.56803 1.75 9.03288 1.75122 8.6221 1.79985C8.2322 1.84602 8.03207 1.92775 7.88033 2.04117C7.72631 2.1563 7.58364 2.33303 7.41439 2.71031C7.29313 2.98062 7.17408 3.3159 7.02944 3.7544C7.50262 3.74999 8.00836 3.75 8.54836 3.75H12.4653C13.0002 3.75 13.5016 3.74999 13.9709 3.75428ZM11.25 16.5C11.25 13.6005 13.6005 11.25 16.5 11.25C19.3995 11.25 21.75 13.6005 21.75 16.5C21.75 19.3995 19.3995 21.75 16.5 21.75C13.6005 21.75 11.25 19.3995 11.25 16.5ZM16.5 12.75C14.4289 12.75 12.75 14.4289 12.75 16.5C12.75 18.5711 14.4289 20.25 16.5 20.25C18.5711 20.25 20.25 18.5711 20.25 16.5C20.25 14.4289 18.5711 12.75 16.5 12.75ZM16.5 13.95C16.9142 13.95 17.25 14.2858 17.25 14.7V16.5486L18.266 17.226C18.6107 17.4557 18.7038 17.9214 18.474 18.266C18.2443 18.6107 17.7786 18.7038 17.434 18.474L16.084 17.574C15.8753 17.4349 15.75 17.2008 15.75 16.95V14.7C15.75 14.2858 16.0858 13.95 16.5 13.95Z" fill="#067647"/>
</g>
</svg>
