<svg width="24" height="25" viewBox="0 0 24 25" fill="none" xmlns="http://www.w3.org/2000/svg">
<path fill-rule="evenodd" clip-rule="evenodd" d="M4.4801 2.54565H4.4001C4.0337 2.54565 3.7185 2.54565 3.4401 2.61125C3.00912 2.71424 2.61506 2.93453 2.30159 3.24772C1.98812 3.56091 1.76747 3.95477 1.6641 4.38565C1.6001 4.66405 1.6001 4.97765 1.6001 5.34565V9.34565C1.6001 9.71205 1.6001 10.0273 1.6657 10.3057C1.76868 10.7366 1.98897 11.1307 2.30216 11.4442C2.61535 11.7576 3.00921 11.9783 3.4401 12.0817C3.7185 12.1457 4.0321 12.1457 4.4001 12.1457H8.4001C8.7665 12.1457 9.0817 12.1457 9.3601 12.0801C9.79108 11.9771 10.1851 11.7568 10.4986 11.4436C10.8121 11.1304 11.0327 10.7365 11.1361 10.3057C11.2001 10.0273 11.2001 9.71365 11.2001 9.34565V5.34565C11.2001 4.97925 11.2001 4.66405 11.1345 4.38565C11.0315 3.95467 10.8112 3.56061 10.498 3.24714C10.1848 2.93367 9.79099 2.71303 9.3601 2.60965C9.0817 2.54565 8.7681 2.54565 8.4001 2.54565H8.3201H4.4801ZM3.8129 4.16805C3.8817 4.15205 3.9889 4.14565 4.4801 4.14565H8.3201C8.8129 4.14565 8.9185 4.15045 8.9873 4.16805C9.13103 4.20242 9.26242 4.27593 9.36692 4.38043C9.47142 4.48493 9.54493 4.61633 9.5793 4.76005C9.5953 4.82725 9.6001 4.93285 9.6001 5.42565V9.26565C9.6001 9.75845 9.5953 9.86405 9.5777 9.93285C9.54333 10.0766 9.46982 10.208 9.36532 10.3125C9.26082 10.417 9.12943 10.4905 8.9857 10.5249C8.9201 10.5393 8.8145 10.5457 8.3201 10.5457H4.4801C3.9873 10.5457 3.8817 10.5409 3.8129 10.5233C3.66917 10.4889 3.53777 10.4154 3.43327 10.3109C3.32878 10.2064 3.25527 10.075 3.2209 9.93125C3.2065 9.86565 3.2001 9.76005 3.2001 9.26565V5.42565C3.2001 4.93285 3.2049 4.82725 3.2225 4.75845C3.25687 4.61473 3.33038 4.48333 3.43487 4.37883C3.53937 4.27433 3.67077 4.20082 3.8145 4.16645M15.6801 2.54565H15.6001C15.2337 2.54565 14.9185 2.54565 14.6401 2.61125C14.2091 2.71424 13.8151 2.93453 13.5016 3.24772C13.1881 3.56091 12.9675 3.95477 12.8641 4.38565C12.8001 4.66405 12.8001 4.97765 12.8001 5.34565V9.34565C12.8001 9.71205 12.8001 10.0273 12.8657 10.3057C12.9687 10.7366 13.189 11.1307 13.5022 11.4442C13.8154 11.7576 14.2092 11.9783 14.6401 12.0817C14.9185 12.1457 15.2321 12.1457 15.6001 12.1457H19.6001C19.9665 12.1457 20.2817 12.1457 20.5601 12.0801C20.9911 11.9771 21.3851 11.7568 21.6986 11.4436C22.0121 11.1304 22.2327 10.7365 22.3361 10.3057C22.4001 10.0273 22.4001 9.71365 22.4001 9.34565V5.34565C22.4001 4.97925 22.4001 4.66405 22.3345 4.38565C22.2315 3.95467 22.0112 3.56061 21.698 3.24714C21.3848 2.93367 20.991 2.71303 20.5601 2.60965C20.2817 2.54565 19.9681 2.54565 19.6001 2.54565H19.5201H15.6801ZM15.0129 4.16805C15.0817 4.15205 15.1889 4.14565 15.6801 4.14565H19.5201C20.0129 4.14565 20.1185 4.15045 20.1873 4.16805C20.331 4.20242 20.4624 4.27593 20.5669 4.38043C20.6714 4.48493 20.7449 4.61633 20.7793 4.76005C20.7953 4.82725 20.8001 4.93285 20.8001 5.42565V9.26565C20.8001 9.75845 20.7937 9.86405 20.7777 9.93285C20.7433 10.0766 20.6698 10.208 20.5653 10.3125C20.4608 10.417 20.3294 10.4905 20.1857 10.5249C20.1185 10.5409 20.0129 10.5457 19.5201 10.5457H15.6801C15.1873 10.5457 15.0817 10.5409 15.0129 10.5233C14.8692 10.4889 14.7378 10.4154 14.6333 10.3109C14.5288 10.2064 14.4553 10.075 14.4209 9.93125C14.4065 9.86565 14.4001 9.76005 14.4001 9.26565V5.42565C14.4001 4.93285 14.4049 4.82725 14.4225 4.75845C14.4569 4.61473 14.5304 4.48333 14.6349 4.37883C14.7394 4.27433 14.8708 4.20082 15.0145 4.16645M4.4001 13.7457H8.4001C8.7665 13.7457 9.0817 13.7457 9.3601 13.8113C9.79108 13.9142 10.1851 14.1345 10.4986 14.4477C10.8121 14.7609 11.0327 15.1548 11.1361 15.5857C11.2001 15.8641 11.2001 16.1777 11.2001 16.5457V20.5457C11.2001 20.9121 11.2001 21.2273 11.1345 21.5057C11.0315 21.9366 10.8112 22.3307 10.498 22.6442C10.1848 22.9576 9.79099 23.1783 9.3601 23.2817C9.0817 23.3457 8.7681 23.3457 8.4001 23.3457H4.4001C4.0337 23.3457 3.7185 23.3457 3.4401 23.2801C3.00912 23.1771 2.61506 22.9568 2.30159 22.6436C1.98812 22.3304 1.76747 21.9365 1.6641 21.5057C1.6001 21.2273 1.6001 20.9137 1.6001 20.5457V16.5457C1.6001 16.1793 1.6001 15.8641 1.6657 15.5857C1.76868 15.1547 1.98897 14.7606 2.30216 14.4471C2.61535 14.1337 3.00921 13.913 3.4401 13.8097C3.7185 13.7457 4.0321 13.7457 4.4001 13.7457ZM4.4801 15.3457C3.9873 15.3457 3.8817 15.3505 3.8129 15.3681C3.66917 15.4024 3.53777 15.4759 3.43327 15.5804C3.32878 15.6849 3.25527 15.8163 3.2209 15.9601C3.2065 16.0257 3.2001 16.1313 3.2001 16.6257V20.4657C3.2001 20.9585 3.2049 21.0641 3.2225 21.1329C3.25687 21.2766 3.33038 21.408 3.43487 21.5125C3.53937 21.617 3.67077 21.6905 3.8145 21.7249C3.8817 21.7409 3.9873 21.7457 4.4801 21.7457H8.3201C8.8129 21.7457 8.9185 21.7393 8.9873 21.7233C9.13103 21.6889 9.26242 21.6154 9.36692 21.5109C9.47142 21.4064 9.54493 21.275 9.5793 21.1313C9.5953 21.0641 9.6001 20.9585 9.6001 20.4657V16.6257C9.6001 16.1329 9.5953 16.0273 9.5777 15.9585C9.54333 15.8147 9.46982 15.6833 9.36532 15.5788C9.26082 15.4743 9.12943 15.4008 8.9857 15.3665C8.9201 15.3521 8.8145 15.3457 8.3201 15.3457H4.4801ZM15.6801 13.7457H15.6001C15.2337 13.7457 14.9185 13.7457 14.6401 13.8113C14.2091 13.9142 13.8151 14.1345 13.5016 14.4477C13.1881 14.7609 12.9675 15.1548 12.8641 15.5857C12.8001 15.8641 12.8001 16.1777 12.8001 16.5457V20.5457C12.8001 20.9121 12.8001 21.2273 12.8657 21.5057C12.9687 21.9366 13.189 22.3307 13.5022 22.6442C13.8154 22.9576 14.2092 23.1783 14.6401 23.2817C14.9185 23.3473 15.2337 23.3473 15.6001 23.3473H19.6001C19.9665 23.3473 20.2817 23.3473 20.5601 23.2817C20.9908 23.1784 21.3845 22.958 21.6977 22.6448C22.0108 22.3317 22.2313 21.9379 22.3345 21.5073C22.4001 21.2289 22.4001 20.9137 22.4001 20.5473V16.5457C22.4001 16.1793 22.4001 15.8641 22.3345 15.5857C22.2315 15.1547 22.0112 14.7606 21.698 14.4471C21.3848 14.1337 20.991 13.913 20.5601 13.8097C20.2817 13.7457 19.9681 13.7457 19.6001 13.7457H19.5201H15.6801ZM15.0129 15.3681C15.0817 15.3521 15.1889 15.3457 15.6801 15.3457H19.5201C20.0129 15.3457 20.1185 15.3505 20.1873 15.3681C20.331 15.4024 20.4624 15.4759 20.5669 15.5804C20.6714 15.6849 20.7449 15.8163 20.7793 15.9601C20.7953 16.0273 20.8001 16.1329 20.8001 16.6257V20.4657C20.8001 20.9585 20.7937 21.0641 20.7777 21.1329C20.7433 21.2766 20.6698 21.408 20.5653 21.5125C20.4608 21.617 20.3294 21.6905 20.1857 21.7249C20.1185 21.7409 20.0129 21.7457 19.5201 21.7457H15.6801C15.1873 21.7457 15.0817 21.7393 15.0129 21.7233C14.8692 21.6889 14.7378 21.6154 14.6333 21.5109C14.5288 21.4064 14.4553 21.275 14.4209 21.1313C14.4065 21.0657 14.4001 20.9601 14.4001 20.4657V16.6257C14.4001 16.1329 14.4049 16.0273 14.4225 15.9585C14.4569 15.8147 14.5304 15.6833 14.6349 15.5788C14.7394 15.4743 14.8708 15.4008 15.0145 15.3665" fill="#575656"/>
</svg>
