<svg width="32" height="32" viewBox="0 0 32 32" fill="none" xmlns="http://www.w3.org/2000/svg">
<path d="M0 16C0 7.16344 7.16344 0 16 0C24.8366 0 32 7.16344 32 16C32 24.8366 24.8366 32 16 32C7.16344 32 0 24.8366 0 16Z" fill="#F3FCF6"/>
<path fill-rule="evenodd" clip-rule="evenodd" d="M16.8005 14.9468C17.0805 15.1135 17.3138 15.1668 17.5072 15.1668L17.5205 15.1735C17.7539 15.1735 17.9205 15.0868 18.0205 15.0135C18.2072 14.8735 18.4938 14.5468 18.3272 13.8401L18.1472 12.9934L18.8071 12.3268C19.1271 12.0001 19.2538 11.6201 19.1405 11.2668C19.0271 10.9201 18.7072 10.6735 18.2538 10.5935L17.4272 10.4601C17.4138 10.4534 17.3871 10.4468 17.3871 10.4468L16.9205 9.50011C16.7138 9.08011 16.3805 8.83344 16.0139 8.83344C15.6605 8.82678 15.3072 9.07344 15.0938 9.50011L14.6205 10.4535L13.7605 10.5935C13.3138 10.6735 12.9938 10.9135 12.8805 11.2601C12.7671 11.6135 12.8872 12.0001 13.2072 12.3268L13.8739 13.0201L13.6872 13.8401C13.5205 14.5468 13.8005 14.8801 13.9872 15.0135C14.1738 15.1468 14.5739 15.3135 15.1939 14.9468L16.0072 14.4734L16.8005 14.9468ZM16.5205 13.6068C16.3739 13.5201 16.1872 13.4734 16.0005 13.4734L16.0205 13.4667C15.8339 13.4667 15.6472 13.5135 15.4938 13.6001L14.7005 14.0734C14.6953 14.0761 14.6911 14.0797 14.687 14.0832C14.6809 14.0886 14.6752 14.0935 14.6672 14.0935C14.6672 14.0801 14.6738 14.0467 14.6738 14.0467L14.8605 13.2201C14.9272 12.8934 14.8138 12.5068 14.5872 12.2801L13.9272 11.6135C13.9225 11.6088 13.9177 11.6049 13.9133 11.6012C13.9052 11.5946 13.8981 11.5887 13.8938 11.5801C13.9005 11.5734 13.9272 11.5734 13.9272 11.5734L14.7938 11.4335C15.0805 11.3801 15.3739 11.1601 15.5205 10.8867L15.9872 9.94681C15.9901 9.94096 15.9943 9.93511 15.9981 9.92982C16.003 9.92304 16.0072 9.91719 16.0072 9.91344C16.0138 9.92011 16.0205 9.94013 16.0205 9.94013L16.4938 10.9001C16.6338 11.1601 16.9272 11.3801 17.2338 11.4401L18.0805 11.5801C18.0938 11.5868 18.1072 11.5868 18.1205 11.5868C18.1072 11.5934 18.0872 11.6201 18.0872 11.6201L17.4272 12.2868C17.2005 12.5201 17.0872 12.9068 17.1538 13.2401L17.3405 14.0601C17.3472 14.0734 17.3472 14.0868 17.3472 14.1001C17.3339 14.0935 17.3138 14.0801 17.3138 14.0801L16.5205 13.6068Z" fill="#067647"/>
<path fill-rule="evenodd" clip-rule="evenodd" d="M8.8335 22.6666C8.8335 22.94 9.06016 23.1666 9.3335 23.1666H22.6668C22.9402 23.1666 23.1668 22.94 23.1668 22.6666C23.1668 22.3933 22.9402 22.1666 22.6668 22.1666H22.1668V21.3333C22.1668 20.2866 22.1668 19.7133 21.7268 19.2733C21.2868 18.8333 20.7135 18.8333 19.6668 18.8333H19.3335C19.0008 18.8333 18.7305 18.8333 18.5002 18.8685V18.6666C18.5002 17.62 18.5001 17.0467 18.0601 16.6067C17.6201 16.1667 17.0468 16.1666 16.0002 16.1666C14.9535 16.1666 14.3802 16.1667 13.9402 16.6067C13.6919 16.8549 13.5838 17.1456 13.5366 17.5398C13.2997 17.5 13.018 17.5 12.6668 17.5H12.3335C11.2868 17.5 10.7135 17.5 10.2735 17.94C9.83352 18.38 9.8335 18.9533 9.8335 20V22.1666H9.3335C9.06016 22.1666 8.8335 22.3933 8.8335 22.6666ZM17.5002 22.1666H14.5002V18.6666C14.5002 17.9401 14.5002 17.4599 14.6468 17.3133C14.7935 17.1666 15.2734 17.1666 15.9999 17.1666C16.7264 17.1666 17.2069 17.1666 17.3535 17.3133C17.5002 17.4599 17.5002 17.9399 17.5002 18.6664V22.1666ZM21.1668 21.3333V22.1666H18.5002V20.6666C18.5002 20.34 18.5002 19.9266 18.5402 19.8866C18.5935 19.8333 19.0064 19.8333 19.333 19.8333H19.6668C20.3933 19.8333 20.8735 19.8333 21.0202 19.98C21.1668 20.1266 21.1668 20.6068 21.1668 21.3333ZM10.8335 22.1666H13.5002V19.3333C13.5002 19.0067 13.5002 18.5933 13.4469 18.54C13.4069 18.5 12.9935 18.5 12.6668 18.5H12.3335C11.607 18.5 11.1268 18.5 10.9801 18.6466C10.8335 18.7933 10.8335 19.2732 10.8335 19.9997V22.1666Z" fill="#067647"/>
</svg>
