<svg width="16" height="16" viewBox="0 0 16 16" fill="none" xmlns="http://www.w3.org/2000/svg">
<path fill-rule="evenodd" clip-rule="evenodd" d="M2.84733 14.5425C2.59333 14.3639 2.36734 14.1505 2.17401 13.9085C1.50001 13.0612 1.5 11.9765 1.5 9.81719V8.12052C1.5 6.08388 1.5 5.06185 1.848 4.18453C2.404 2.78119 3.57466 1.67652 5.05999 1.15519C5.97932 0.833191 7.05998 0.833191 9.2126 0.833191C10.4672 0.833191 11.0974 0.833191 11.656 1.02919C12.5633 1.34785 13.2793 2.02386 13.62 2.88319C13.834 3.42252 13.834 4.02051 13.834 5.21115V8.00767C13.834 8.28367 13.61 8.50767 13.334 8.50767C13.058 8.50767 12.834 8.28367 12.834 8.00767V5.21119C12.834 4.14729 12.834 3.61318 12.6907 3.25119C12.4567 2.66119 11.9587 2.19452 11.3253 1.97185C10.9273 1.83186 10.3547 1.83186 9.21337 1.83186C9.03488 1.83186 8.86412 1.83186 8.7007 1.83203C8.68938 1.8328 8.67795 1.83319 8.66643 1.83319C7.7171 1.83319 6.94443 2.60586 6.94443 3.55519C6.94443 3.6618 6.94975 3.77667 6.95537 3.89814L6.95662 3.92514C6.97324 4.28817 6.99207 4.69925 6.88977 5.08319C6.7411 5.63786 6.30443 6.07452 5.74976 6.22319C5.36603 6.32543 4.95586 6.30668 4.59232 6.29007L4.56568 6.28884C4.44386 6.2832 4.32866 6.27786 4.22177 6.27786C3.29732 6.27786 2.5404 7.01054 2.50135 7.92557C2.50133 7.98918 2.50133 8.05389 2.50133 8.11974V9.81652C2.50133 11.7439 2.50134 12.7112 2.95801 13.2852C3.09134 13.4525 3.24801 13.6005 3.42467 13.7239C3.84801 14.0219 4.3607 14.1254 5.32696 14.1583C5.60153 14.1677 5.82292 14.3901 5.82292 14.6649C5.82292 14.944 5.59502 15.1706 5.31604 15.162C4.17569 15.1271 3.49297 14.9974 2.84733 14.5425ZM2.53718 5.86333C3.00094 5.49686 3.58631 5.27786 4.22177 5.27786C4.34896 5.27786 4.47903 5.28363 4.60608 5.28927L4.63443 5.29052L4.64503 5.29101C4.94771 5.30487 5.25915 5.31913 5.4911 5.25652C5.7011 5.20052 5.8671 5.03453 5.9231 4.82453C5.98562 4.58976 5.97117 4.27471 5.95721 3.97006L5.9571 3.96786C5.95044 3.83186 5.94443 3.69186 5.94443 3.55519C5.94443 2.92668 6.15866 2.34717 6.51793 1.88586C6.06253 1.92374 5.70477 1.98819 5.39199 2.09786C4.18066 2.52319 3.228 3.41786 2.77866 4.55186C2.64155 4.89792 2.57223 5.30721 2.53718 5.86333Z" fill="#384250"/>
<path fill-rule="evenodd" clip-rule="evenodd" d="M9.63622 9.49986H10.0305C10.5545 9.49984 10.9915 9.49983 11.3386 9.54066C11.7006 9.58325 12.0404 9.67715 12.3209 9.92257C12.5266 10.1025 12.647 10.317 12.7187 10.5501C12.8073 10.4931 12.8913 10.4428 12.9705 10.4009C13.2177 10.2703 13.5571 10.1454 13.9156 10.3009C14.2944 10.4652 14.4135 10.8165 14.4582 11.093C14.5001 11.3524 14.5001 11.6922 14.5 12.0653V12.6011C14.5001 12.9742 14.5001 13.314 14.4582 13.5734C14.4135 13.8499 14.2944 14.2012 13.9156 14.3655C13.5571 14.521 13.2177 14.3961 12.9705 14.2654C12.8913 14.2236 12.8073 14.1733 12.7187 14.1163C12.647 14.3494 12.5266 14.5638 12.3209 14.7438C12.0404 14.9892 11.7006 15.0831 11.3386 15.1257C10.9915 15.1666 10.5545 15.1665 10.0304 15.1665H9.63623C9.1122 15.1665 8.67515 15.1666 8.3281 15.1257C7.96606 15.0831 7.62627 14.9892 7.34579 14.7438C7.05571 14.49 6.93512 14.1676 6.88185 13.8209C6.83327 13.5048 6.8333 13.1113 6.83334 12.6614V12.005C6.8333 11.5551 6.83327 11.1616 6.88185 10.8455C6.93512 10.4988 7.05571 10.1764 7.34579 9.92257C7.62627 9.67715 7.96606 9.58325 8.3281 9.54066C8.67515 9.49983 9.1122 9.49984 9.63622 9.49986ZM12.8327 12.9792C13.1056 13.1753 13.292 13.3043 13.4378 13.3814C13.4506 13.3881 13.4624 13.3941 13.4732 13.3994C13.4985 13.2297 13.5 12.9757 13.5 12.5613V12.1051C13.5 11.6907 13.4985 11.4367 13.4732 11.267C13.4624 11.2723 13.4506 11.2782 13.4378 11.285C13.292 11.3621 13.1056 11.4911 12.8327 11.6872C12.8334 11.7895 12.8333 11.8954 12.8333 12.0047V12.6614C12.8333 12.7707 12.8334 12.8769 12.8327 12.9792ZM8.44494 10.5338C8.17158 10.566 8.06553 10.6216 8.0043 10.6751C7.95267 10.7203 7.90241 10.788 7.87025 10.9973C7.83472 11.2286 7.83334 11.5442 7.83334 12.0415V12.6249C7.83334 13.1222 7.83472 13.4378 7.87025 13.6691C7.90241 13.8783 7.95267 13.9461 8.0043 13.9912C8.06553 14.0448 8.17158 14.1004 8.44494 14.1326C8.72659 14.1657 9.10429 14.1665 9.66667 14.1665H10C10.5624 14.1665 10.9401 14.1657 11.2217 14.1326C11.4951 14.1004 11.6011 14.0448 11.6624 13.9912C11.714 13.9461 11.7643 13.8783 11.7964 13.6691C11.832 13.4378 11.8333 13.1222 11.8333 12.6249V12.0415C11.8333 11.5442 11.832 11.2286 11.7964 10.9973C11.7643 10.788 11.714 10.7203 11.6624 10.6751C11.6011 10.6216 11.4951 10.566 11.2217 10.5338C10.9401 10.5007 10.5624 10.4999 10 10.4999H9.66667C9.10429 10.4999 8.72659 10.5007 8.44494 10.5338Z" fill="#384250"/>
</svg>
