<svg width="10" height="10" viewBox="0 0 10 10" fill="none" xmlns="http://www.w3.org/2000/svg">
<path d="M5.41931 0.729065H4.58037C3.76072 0.729059 3.11372 0.729054 2.60785 0.797066C2.08814 0.86694 1.67085 1.01371 1.34225 1.34231C1.01365 1.67091 0.866879 2.0882 0.797005 2.60791C0.728993 3.11378 0.728998 3.76079 0.729004 4.58043V5.41937C0.728998 6.23901 0.728993 6.88602 0.797005 7.39189C0.866879 7.9116 1.01365 8.32889 1.34225 8.65749C1.67085 8.98609 2.08814 9.13286 2.60785 9.20273C3.11372 9.27074 3.76073 9.27074 4.58037 9.27073H5.42061C6.2534 9.27074 6.90826 9.27074 7.41831 9.19909C7.58922 9.17508 7.70831 9.01707 7.6843 8.84615C7.66029 8.67524 7.50227 8.55616 7.33136 8.58017C6.86984 8.64501 6.25898 8.64573 5.39567 8.64573H4.604C3.75548 8.64573 3.15052 8.64507 2.69113 8.5833C2.24072 8.52275 1.97731 8.40866 1.78419 8.21555C1.59107 8.02243 1.47699 7.75902 1.41643 7.30861C1.35467 6.84921 1.354 6.24426 1.354 5.39573V4.60407C1.354 3.75554 1.35467 3.15059 1.41643 2.69119C1.47699 2.24078 1.59107 1.97737 1.78419 1.78425C1.97731 1.59113 2.24072 1.47705 2.69113 1.41649C3.15053 1.35473 3.75548 1.35407 4.604 1.35407H5.39567C6.2442 1.35407 6.84915 1.35473 7.30855 1.41649C7.75895 1.47705 8.02237 1.59113 8.21548 1.78425C8.4086 1.97737 8.52269 2.24078 8.58324 2.69119C8.64501 3.15059 8.64567 3.75554 8.64567 4.60407V5.39573C8.64567 5.90107 8.64562 6.32241 8.63185 6.68172C8.63005 6.72858 8.62848 6.76926 8.62671 6.80545C8.59323 6.7824 8.55566 6.75584 8.51191 6.72488L7.95117 6.32813C7.81028 6.22844 7.61525 6.26185 7.51557 6.40274C7.41588 6.54363 7.44929 6.73865 7.59018 6.83834L8.16758 7.24688C8.2773 7.32456 8.38881 7.40352 8.48822 7.45205C8.60183 7.50751 8.77225 7.55927 8.95425 7.46947C9.13299 7.38128 9.19744 7.2198 9.22348 7.09474C9.24566 6.9882 9.25072 6.85488 9.25561 6.72604L9.25639 6.70566C9.27067 6.33309 9.27067 5.90016 9.27067 5.40079V4.58043C9.27068 3.76079 9.27068 3.11378 9.20267 2.60791C9.1328 2.0882 8.98602 1.67091 8.65743 1.34231C8.32883 1.01371 7.91154 0.86694 7.39183 0.797066C6.88596 0.729054 6.23895 0.729059 5.41931 0.729065Z" fill="#085D3A"/>
<path fill-rule="evenodd" clip-rule="evenodd" d="M5.27292 3.75376L5.23919 3.73587C4.91687 3.56495 4.65198 3.42449 4.43382 3.33789C4.21201 3.24983 3.98264 3.1934 3.74907 3.25518C3.58799 3.29778 3.43936 3.37916 3.31815 3.49329C3.13842 3.66254 3.07573 3.89021 3.04785 4.12023C3.02065 4.3445 3.02066 4.63311 3.02067 4.97964V5.02033C3.02066 5.36685 3.02065 5.65546 3.04785 5.87974C3.07573 6.10975 3.13842 6.33743 3.31815 6.50668C3.43936 6.62081 3.58799 6.70219 3.74907 6.74479C3.98264 6.80657 4.21201 6.75013 4.43382 6.66208C4.65198 6.57548 4.91687 6.43502 5.23919 6.26409L5.27292 6.24621C5.60635 6.06942 5.88 5.92433 6.07764 5.78958C6.27538 5.65476 6.4599 5.49015 6.52781 5.24929C6.57385 5.08604 6.57385 4.91393 6.52781 4.75068C6.4599 4.50981 6.27538 4.34521 6.07764 4.21039C5.88 4.07564 5.60634 3.93054 5.27292 3.75376ZM3.90887 3.8594C3.94642 3.84947 4.02082 3.84638 4.20322 3.91879C4.38553 3.99116 4.61995 4.11495 4.96297 4.29684C5.3178 4.48498 5.56017 4.61402 5.72557 4.72679C5.89424 4.84179 5.92055 4.90002 5.92627 4.9203C5.94103 4.97263 5.94103 5.02734 5.92627 5.07967C5.92055 5.09995 5.89424 5.15818 5.72557 5.27318C5.56017 5.38595 5.3178 5.51499 4.96297 5.70313C4.61995 5.88502 4.38553 6.0088 4.20322 6.08118C4.02082 6.15359 3.94642 6.1505 3.90887 6.14057C3.84577 6.12388 3.79015 6.09265 3.74662 6.05166C3.72714 6.03332 3.69022 5.98526 3.6683 5.80451C3.64622 5.6224 3.64567 5.37212 3.64567 4.99998C3.64567 4.62784 3.64622 4.37756 3.6683 4.19546C3.69022 4.0147 3.72714 3.96665 3.74662 3.9483C3.79015 3.90732 3.84577 3.87609 3.90887 3.8594Z" fill="#085D3A"/>
</svg>
