<svg width="20" height="20" viewBox="0 0 20 20" fill="none" xmlns="http://www.w3.org/2000/svg">
<path fill-rule="evenodd" clip-rule="evenodd" d="M9.30897 10.9784C9.32552 10.992 9.33923 11.0052 9.35116 11.018C9.42567 11.0983 9.50875 11.2506 9.60741 11.6993C10.0665 13.7872 10.4228 15.4073 10.802 16.5059C10.991 17.0538 11.2038 17.528 11.4732 17.8777C11.7544 18.2427 12.1369 18.5185 12.6403 18.5407C12.9537 18.5546 13.2143 18.4114 13.393 18.2787C13.5813 18.1388 13.7584 17.9512 13.9226 17.746C14.2527 17.3337 14.5994 16.7632 14.9444 16.1039C15.6377 14.7789 16.3719 13.0023 16.9931 11.1746C17.614 9.34772 18.1315 7.44215 18.3807 5.8584C18.505 5.06856 18.5665 4.33504 18.5323 3.72062C18.4999 3.13794 18.3758 2.52586 17.9978 2.11879C17.6083 1.69929 16.9975 1.54217 16.4141 1.48593C15.801 1.42684 15.0667 1.46614 14.2762 1.56983C12.6907 1.77779 10.7752 2.25916 8.93522 2.85145C7.09405 3.4441 5.29932 4.15719 3.95525 4.84037C3.28633 5.18038 2.70616 5.52441 2.28439 5.85486C2.07437 6.01941 1.88273 6.19664 1.73857 6.38529C1.60107 6.56522 1.4564 6.82122 1.45839 7.12983C1.46362 7.93989 2.01528 8.51239 2.60277 8.89667C3.20241 9.28889 3.98336 9.58445 4.75972 9.81597C5.54441 10.05 6.36959 10.2313 7.07899 10.3783C7.25076 10.4139 7.41369 10.4471 7.56686 10.4783C8.06492 10.5798 8.45988 10.6603 8.72056 10.7334C8.94941 10.7977 9.09425 10.8531 9.19033 10.9027C9.22751 10.9328 9.26735 10.958 9.30897 10.9784ZM2.69679 7.19757C2.69677 7.19758 2.69666 7.19787 2.69679 7.19757L2.69755 7.19593C2.69718 7.19668 2.69694 7.19723 2.69679 7.19757ZM2.73177 7.14427C2.72331 7.15534 2.71674 7.16464 2.71168 7.17223C2.73352 7.34779 2.86886 7.57706 3.28702 7.85058C3.73435 8.14318 4.37767 8.39764 5.11693 8.61809C5.84786 8.83606 6.62964 9.00864 7.33259 9.15429C7.48327 9.18551 7.63227 9.21584 7.77723 9.24536C8.2883 9.34941 8.74955 9.44331 9.05822 9.52992C9.19542 9.56841 9.32933 9.6098 9.45819 9.65795L12.0581 7.05804C12.3022 6.81396 12.6979 6.81396 12.942 7.05804C13.1861 7.30212 13.1861 7.69784 12.942 7.94192L10.4618 10.4221C10.6471 10.7169 10.7471 11.0618 10.8282 11.4308C11.2949 13.5531 11.634 15.0853 11.9836 16.0981C12.1588 16.6059 12.3188 16.9271 12.4634 17.1148C12.544 17.2194 12.6026 17.2619 12.642 17.2793L12.6476 17.2752C12.7166 17.224 12.8173 17.1266 12.9468 16.9649C13.204 16.6436 13.5075 16.1537 13.8368 15.5244C14.4921 14.2722 15.2025 12.5586 15.8096 10.7724C16.417 8.98537 16.9116 7.15311 17.1459 5.66407C17.2634 4.91751 17.3116 4.2809 17.2843 3.79006C17.2552 3.26748 17.1467 3.03918 17.0818 2.96936C17.0176 2.90019 16.8047 2.77937 16.2941 2.73016C15.8132 2.68381 15.1832 2.71156 14.4387 2.80921C12.9542 3.00393 11.1168 3.46237 9.31823 4.04132C7.52077 4.61991 5.791 5.30948 4.52165 5.95468C3.88386 6.27887 3.38509 6.58045 3.0553 6.83883C2.88954 6.9687 2.78724 7.07168 2.73177 7.14427Z" fill="#161616"/>
</svg>
