<svg width="16" height="16" viewBox="0 0 16 16" fill="none" xmlns="http://www.w3.org/2000/svg">
<path fill-rule="evenodd" clip-rule="evenodd" d="M7.35277 8.91631C7.36828 8.92905 7.38112 8.94141 7.39229 8.95349C7.46207 9.0287 7.53989 9.17134 7.63229 9.59149C8.06227 11.5471 8.39597 13.0644 8.75113 14.0934C8.92814 14.6064 9.12745 15.0507 9.37977 15.3782C9.64313 15.72 10.0014 15.9782 10.4729 15.9991C10.7664 16.0121 11.0105 15.878 11.1778 15.7537C11.3542 15.6227 11.5201 15.4469 11.6738 15.2548C11.983 14.8687 12.3077 14.3343 12.6308 13.7169C13.2802 12.4758 13.9678 10.812 14.5496 9.10016C15.1312 7.38909 15.6158 5.60437 15.8492 4.12105C15.9657 3.3813 16.0233 2.6943 15.9912 2.11884C15.9609 1.57312 15.8447 0.999847 15.4906 0.618592C15.1258 0.225704 14.5538 0.0785387 14.0074 0.0258652C13.4331 -0.0294776 12.7454 0.00733012 12.005 0.104445C10.5201 0.299217 8.72603 0.75006 7.00272 1.30479C5.27831 1.85986 3.59739 2.52773 2.33855 3.16758C1.71204 3.48603 1.16866 3.80824 0.77364 4.11774C0.576938 4.27185 0.397451 4.43784 0.262432 4.61453C0.133651 4.78305 -0.0018448 5.02281 1.90125e-05 5.31185C0.00491736 6.07054 0.521595 6.60674 1.07183 6.96665C1.63345 7.33401 2.36487 7.61081 3.092 7.82765C3.82693 8.04678 4.59979 8.21668 5.2642 8.35436C5.42508 8.38761 5.57768 8.4187 5.72114 8.44802C6.18761 8.54308 6.55753 8.61847 6.80168 8.68694C7.01601 8.74707 7.15167 8.79895 7.24166 8.84541C7.27648 8.87369 7.31379 8.8973 7.35277 8.91631ZM1.15989 5.3753C1.15987 5.37531 1.15977 5.37558 1.15989 5.3753ZM1.19265 5.32538C1.18473 5.33575 1.17857 5.34446 1.17383 5.35156C1.19429 5.51599 1.32105 5.73072 1.71269 5.9869C2.13165 6.26094 2.73418 6.49927 3.42656 6.70574C4.11114 6.90988 4.84335 7.07152 5.50172 7.20793C5.64285 7.23717 5.7824 7.26558 5.91817 7.29323C6.39683 7.39068 6.82883 7.47863 7.11792 7.55974C7.24642 7.59579 7.37184 7.63455 7.49253 7.67965L9.92758 5.24462C10.1562 5.01602 10.5268 5.01602 10.7554 5.24462C10.984 5.47322 10.984 5.84384 10.7554 6.07244L8.4325 8.39529C8.60605 8.67148 8.69971 8.99451 8.77567 9.34011C9.21277 11.3278 9.53037 12.7629 9.8578 13.7114C10.0219 14.187 10.1717 14.4879 10.3072 14.6637C10.3827 14.7616 10.4375 14.8013 10.4744 14.8177L10.4797 14.8139C10.5443 14.7659 10.6386 14.6746 10.7599 14.5232C11.0008 14.2222 11.2851 13.7635 11.5935 13.174C12.2072 12.0012 12.8726 10.3964 13.4412 8.72337C14.0101 7.04972 14.4733 5.33366 14.6927 3.93905C14.8028 3.23983 14.8479 2.64359 14.8224 2.18388C14.7951 1.69444 14.6935 1.48061 14.6327 1.41522C14.5726 1.35044 14.3732 1.23728 13.895 1.1912C13.4446 1.14778 12.8545 1.17377 12.1572 1.26523C10.7669 1.4476 9.04596 1.87697 7.36145 2.4192C5.67797 2.9611 4.05789 3.60695 2.86903 4.21123C2.27168 4.51486 1.80454 4.79731 1.49566 5.03931C1.34042 5.16094 1.2446 5.25739 1.19265 5.32538Z" fill="#161616"/>
</svg>
