<svg width="40" height="40" viewBox="0 0 40 40" fill="none" xmlns="http://www.w3.org/2000/svg">
<path d="M0 20C0 8.95431 8.95431 0 20 0C31.0457 0 40 8.95431 40 20C40 31.0457 31.0457 40 20 40C8.95431 40 0 31.0457 0 20Z" fill="#F9FAFB"/>
<path fill-rule="evenodd" clip-rule="evenodd" d="M19.3089 20.9784C19.3255 20.992 19.3392 21.0052 19.3511 21.0181C19.4256 21.0984 19.5087 21.2507 19.6073 21.6993C20.0665 23.7873 20.4227 25.4074 20.8019 26.506C20.991 27.0538 21.2037 27.5281 21.4732 27.8778C21.7543 28.2428 22.1368 28.5185 22.6402 28.5408C22.9536 28.5546 23.2142 28.4115 23.3929 28.2787C23.5812 28.1389 23.7583 27.9512 23.9225 27.7461C24.2526 27.3338 24.5993 26.7632 24.9443 26.104C25.6377 24.7789 26.3718 23.0024 26.993 21.1747C27.614 19.3478 28.1314 17.4422 28.3807 15.8585C28.505 15.0686 28.5665 14.3351 28.5323 13.7207C28.4999 13.138 28.3758 12.5259 27.9977 12.1188C27.6082 11.6994 26.9975 11.5422 26.414 11.486C25.8009 11.4269 25.0666 11.4662 24.2761 11.5699C22.6906 11.7778 20.7752 12.2592 18.9352 12.8515C17.094 13.4442 15.2993 14.1573 13.9552 14.8404C13.2863 15.1804 12.7061 15.5245 12.2843 15.8549C12.0743 16.0195 11.8827 16.1967 11.7385 16.3854C11.601 16.5653 11.4563 16.8213 11.4583 17.1299C11.4636 17.94 12.0152 18.5125 12.6027 18.8967C13.2023 19.289 13.9833 19.5845 14.7597 19.816C15.5443 20.05 16.3695 20.2314 17.0789 20.3784C17.2507 20.4139 17.4136 20.4471 17.5668 20.4784C18.0649 20.5799 18.4598 20.6604 18.7205 20.7335C18.9494 20.7977 19.0942 20.8531 19.1903 20.9027C19.2275 20.9329 19.2673 20.9581 19.3089 20.9784ZM12.6967 17.1976C12.6967 17.1976 12.6966 17.1979 12.6967 17.1976L12.6975 17.196C12.6971 17.1967 12.6969 17.1973 12.6967 17.1976ZM12.7317 17.1443C12.7233 17.1554 12.7167 17.1647 12.7116 17.1723C12.7335 17.3478 12.8688 17.5771 13.287 17.8506C13.7343 18.1432 14.3776 18.3977 15.1169 18.6182C15.8478 18.8361 16.6296 19.0087 17.3325 19.1543C17.4832 19.1856 17.6322 19.2159 17.7772 19.2454C18.2882 19.3495 18.7495 19.4434 19.0582 19.53C19.1954 19.5685 19.3293 19.6099 19.4581 19.658L22.058 17.0581C22.3021 16.814 22.6978 16.814 22.9419 17.0581C23.186 17.3022 23.186 17.6979 22.9419 17.942L20.4618 20.4221C20.647 20.717 20.747 21.0619 20.8282 21.4309C21.2949 23.5532 21.6339 25.0854 21.9835 26.0982C22.1588 26.606 22.3187 26.9272 22.4633 27.1149C22.544 27.2195 22.6025 27.2619 22.642 27.2794L22.6476 27.2753C22.7165 27.2241 22.8173 27.1266 22.9467 26.9649C23.2039 26.6436 23.5075 26.1538 23.8368 25.5244C24.492 24.2722 25.2024 22.5587 25.8095 20.7724C26.4169 18.9854 26.9115 17.1532 27.1459 15.6641C27.2634 14.9176 27.3115 14.281 27.2842 13.7901C27.2551 13.2675 27.1466 13.0392 27.0818 12.9694C27.0175 12.9003 26.8046 12.7794 26.2941 12.7302C25.8131 12.6839 25.1831 12.7116 24.4387 12.8093C22.9541 13.004 21.1168 13.4624 19.3182 14.0414C17.5207 14.62 15.7909 15.3095 14.5216 15.9547C13.8838 16.2789 13.385 16.5805 13.0552 16.8389C12.8895 16.9688 12.7872 17.0717 12.7317 17.1443Z" fill="#161616"/>
</svg>
