<svg width="16" height="16" viewBox="0 0 16 16" fill="none" xmlns="http://www.w3.org/2000/svg">
<path d="M6.35325 5.64663C6.158 5.45136 5.84141 5.45134 5.64614 5.64659C5.45087 5.84184 5.45085 6.15842 5.6461 6.3537L7.29261 8.00038L5.64653 9.64663C5.45128 9.8419 5.45129 10.1585 5.64657 10.3537C5.84184 10.549 6.15842 10.549 6.35367 10.3537L7.99967 8.70752L9.64567 10.3537C9.84093 10.549 10.1575 10.549 10.3528 10.3537C10.5481 10.1585 10.5481 9.8419 10.3528 9.64663L8.70674 8.00038L10.3532 6.3537C10.5485 6.15842 10.5485 5.84184 10.3532 5.64659C10.1579 5.45134 9.84135 5.45136 9.6461 5.64663L7.99967 7.29323L6.35325 5.64663Z" fill="#384250"/>
<path fill-rule="evenodd" clip-rule="evenodd" d="M7.99967 15.1668C4.04163 15.1668 0.833008 11.9582 0.833008 8.00016C0.833008 4.04212 4.04163 0.833496 7.99967 0.833496C11.9577 0.833496 15.1663 4.04212 15.1663 8.00016C15.1663 11.9582 11.9577 15.1668 7.99967 15.1668ZM1.83301 8.00016C1.83301 11.4059 4.59392 14.1668 7.99967 14.1668C11.4054 14.1668 14.1663 11.4059 14.1663 8.00016C14.1663 4.59441 11.4054 1.8335 7.99967 1.8335C4.59392 1.8335 1.83301 4.59441 1.83301 8.00016Z" fill="#384250"/>
</svg>
