<svg width="14" height="14" viewBox="0 0 14 14" fill="none" xmlns="http://www.w3.org/2000/svg">
<path fill-rule="evenodd" clip-rule="evenodd" d="M2.60763 2.60727C2.77849 2.43641 3.0555 2.43641 3.22635 2.60727L7.00033 6.38124L10.7743 2.60727C10.9452 2.43641 11.2222 2.43641 11.393 2.60727C11.5639 2.77812 11.5639 3.05513 11.393 3.22599L7.61904 6.99996L11.393 10.7739C11.5639 10.9448 11.5639 11.2218 11.393 11.3927C11.2222 11.5635 10.9452 11.5635 10.7743 11.3927L7.00033 7.61868L3.22635 11.3927C3.0555 11.5635 2.77849 11.5635 2.60763 11.3927C2.43678 11.2218 2.43678 10.9448 2.60763 10.7739L6.38161 6.99996L2.60763 3.22599C2.43678 3.05513 2.43678 2.77812 2.60763 2.60727Z" fill="#1849A9"/>
</svg>
