<svg width="14" height="14" viewBox="0 0 14 14" fill="none" xmlns="http://www.w3.org/2000/svg">
<path d="M2.21088 11.7903C3.10746 12.6875 4.40887 12.6875 7.00122 12.6875L7.00065 12.6869C9.59298 12.6869 10.8938 12.6869 11.791 11.7903C12.6403 10.9416 12.6841 9.68099 12.6882 7.52557C12.6882 7.28407 12.4927 7.0875 12.2512 7.0875C12.0097 7.0875 11.8132 7.28293 11.8132 7.52443C11.8091 9.61918 11.7472 10.5974 11.1726 11.172C10.5315 11.8125 9.35207 11.8125 7.00065 11.8125C4.64923 11.8125 3.46915 11.8125 2.82865 11.172C2.18815 10.5309 2.18815 9.35142 2.18815 7.00001C2.18815 4.6487 2.18815 3.4691 2.82922 2.82803C3.4038 2.25344 4.38146 2.19158 6.47679 2.1875C6.71887 2.1875 6.91372 1.99093 6.91372 1.74943C6.91314 1.50793 6.71772 1.3125 6.47622 1.3125C4.3208 1.31658 3.05963 1.36033 2.21088 2.20966C1.31372 3.10624 1.31372 4.40765 1.31372 6.99994C1.31372 9.59223 1.31372 10.8932 2.21088 11.7903Z" fill="#161616"/>
<path d="M5.98039 8.75003C5.98039 8.99153 6.17639 9.18753 6.41789 9.18753C6.65939 9.18753 6.85539 8.9921 6.85539 8.7506C6.85539 6.66761 6.85539 5.62219 7.32496 4.97238C7.48129 4.75537 7.6709 4.56695 7.8879 4.4112C8.50506 3.9667 9.47687 3.94626 11.3552 3.95035C10.8964 4.38487 10.3365 4.85227 10.2697 4.90802C10.2659 4.91124 10.2637 4.91309 10.2632 4.91347C10.0771 5.06747 10.0515 5.34336 10.2055 5.52945C10.3595 5.71553 10.6354 5.74121 10.8215 5.58721L10.8236 5.58548C10.896 5.52531 12.0226 4.58921 12.484 4.04252C12.6088 3.89435 12.6794 3.71934 12.6876 3.53734V3.53096C12.6957 3.32738 12.6234 3.12379 12.4834 2.95754C12.0228 2.41155 10.8965 1.4758 10.8236 1.41524L10.8215 1.41347C10.6354 1.25889 10.3595 1.2851 10.2055 1.47118C10.0515 1.65726 10.0771 1.93321 10.2632 2.08721C10.272 2.09421 10.8926 2.60868 11.382 3.07535C9.30128 3.07126 8.21982 3.09401 7.37748 3.70009C7.08407 3.91068 6.82795 4.16621 6.61562 4.45962C5.98039 5.33868 5.98039 6.47926 5.98039 8.75003Z" fill="#161616"/>
</svg>
