<svg width="20" height="20" viewBox="0 0 20 20" fill="none" xmlns="http://www.w3.org/2000/svg">
<path d="M12.0897 6.29314C12.3436 6.05935 12.3599 5.66398 12.1262 5.41003C11.8924 5.15608 11.4967 5.14002 11.2427 5.37381L11.24 5.37635L11.2322 5.38357L11.2029 5.41076C11.1775 5.43439 11.1407 5.46884 11.094 5.51288C11.0008 5.60094 10.8681 5.72747 10.7091 5.88258C10.3916 6.19225 9.96661 6.61844 9.54004 7.0814C9.11589 7.54172 8.67857 8.0509 8.34347 8.52496C8.17616 8.76165 8.02493 9.00269 7.91328 9.2342C7.80746 9.45361 7.708 9.72289 7.708 9.99998C7.70801 10.2771 7.80746 10.5463 7.91328 10.7658C8.02493 10.9973 8.17616 11.2383 8.34347 11.475C8.67856 11.9491 9.11588 12.4582 9.54002 12.9186C9.96659 13.3815 10.3916 13.8077 10.7091 14.1174C10.8681 14.2725 11.0008 14.3991 11.094 14.4871C11.1407 14.5312 11.1775 14.5656 11.2029 14.5892L11.2321 14.6164L11.2399 14.6237L11.243 14.6265C11.4969 14.8603 11.8923 14.8439 12.1261 14.59C12.3599 14.336 12.3433 13.9404 12.0893 13.7066L12.0814 13.6992L12.0549 13.6746C12.0314 13.6528 11.9967 13.6202 11.9522 13.5782C11.8631 13.4942 11.7354 13.3724 11.5819 13.2226C11.2744 12.9226 10.8661 12.513 10.4593 12.0716C10.0501 11.6275 9.65411 11.1636 9.36421 10.7535C9.21902 10.5481 9.10983 10.3692 9.03919 10.2228C8.96839 10.076 8.9591 10.0078 8.95811 10.0006V9.99939C8.9591 9.99213 8.9684 9.92397 9.03918 9.77719C9.10982 9.63072 9.21901 9.45189 9.3642 9.24648C9.6541 8.83637 10.0501 8.37251 10.4593 7.92842C10.8661 7.48697 11.2744 7.07738 11.5819 6.77736C11.7354 6.62763 11.8631 6.50585 11.9522 6.4218C11.9967 6.37979 12.0315 6.34724 12.0549 6.32538L12.0814 6.30078L12.0879 6.29479L12.0897 6.29314Z" fill="#1B8354"/>
<path fill-rule="evenodd" clip-rule="evenodd" d="M10.0473 1.45834H9.95203C8.12644 1.45833 6.69254 1.45832 5.57303 1.60884C4.42581 1.76308 3.5156 2.08561 2.80044 2.80077C2.08527 3.51594 1.76274 4.42615 1.6085 5.57336C1.45799 6.69288 1.458 8.12678 1.45801 9.95236V10.0477C1.458 11.8732 1.45799 13.3071 1.6085 14.4267C1.76274 15.5739 2.08527 16.4841 2.80044 17.1993C3.5156 17.9144 4.42581 18.2369 5.57303 18.3912C6.69254 18.5417 8.12643 18.5417 9.95201 18.5417H10.0473C11.8729 18.5417 13.3068 18.5417 14.4263 18.3912C15.5735 18.2369 16.4837 17.9144 17.1989 17.1993C17.9141 16.4841 18.2366 15.5739 18.3908 14.4267C18.5414 13.3071 18.5414 11.8733 18.5413 10.0477V9.95237C18.5414 8.12679 18.5414 6.69287 18.3908 5.57336C18.2366 4.42615 17.9141 3.51594 17.1989 2.80077C16.4837 2.08561 15.5735 1.76308 14.4263 1.60884C13.3068 1.45832 11.8729 1.45833 10.0473 1.45834ZM3.68432 3.68465C4.12852 3.24045 4.73098 2.9833 5.73959 2.84769C6.76617 2.70967 8.11603 2.70834 9.99967 2.70834C11.8833 2.70834 13.2332 2.70967 14.2598 2.84769C15.2684 2.9833 15.8708 3.24045 16.315 3.68465C16.7592 4.12886 17.0164 4.73132 17.152 5.73992C17.29 6.76651 17.2913 8.11637 17.2913 10C17.2913 11.8837 17.29 13.2335 17.152 14.2601C17.0164 15.2687 16.7592 15.8712 16.315 16.3154C15.8708 16.7596 15.2684 17.0167 14.2598 17.1523C13.2332 17.2903 11.8833 17.2917 9.99967 17.2917C8.11603 17.2917 6.76617 17.2903 5.73959 17.1523C4.73098 17.0167 4.12852 16.7596 3.68432 16.3154C3.24012 15.8712 2.98296 15.2687 2.84736 14.2601C2.70934 13.2335 2.70801 11.8837 2.70801 10C2.70801 8.11637 2.70934 6.76651 2.84736 5.73992C2.98296 4.73132 3.24012 4.12886 3.68432 3.68465Z" fill="#1B8354"/>
</svg>
