<svg width="16" height="16" viewBox="0 0 16 16" fill="none" xmlns="http://www.w3.org/2000/svg">
<path d="M7.99985 2.16671L8.66652 2.16669C8.94266 2.16668 9.16651 1.94281 9.1665 1.66667C9.1665 1.39053 8.94263 1.16668 8.66649 1.16669L7.96172 1.16671C6.50125 1.1667 5.35413 1.16669 4.45852 1.2871C3.54075 1.41049 2.81258 1.66852 2.24045 2.24065C1.66831 2.81278 1.41029 3.54095 1.2869 4.45872C1.16649 5.35433 1.1665 6.50145 1.1665 7.96192V8.03816C1.1665 9.49863 1.16649 10.6457 1.2869 11.5414C1.41029 12.4591 1.66831 13.1873 2.24045 13.7594C2.81258 14.3316 3.54075 14.5896 4.45852 14.713C5.35413 14.8334 6.50124 14.8334 7.9617 14.8334H8.03795C9.49841 14.8334 10.6455 14.8334 11.5412 14.713C12.4589 14.5896 13.1871 14.3316 13.7592 13.7594C14.3314 13.1873 14.5894 12.4591 14.7128 11.5414C14.8332 10.6458 14.8332 9.49864 14.8332 8.03818V8.00004C14.8332 7.77875 14.8324 7.61097 14.8317 7.49824C14.8313 7.44188 14.8309 7.39928 14.8306 7.37064L14.8303 7.33817L14.8302 7.32678C14.8265 7.05066 14.5997 6.82977 14.3236 6.8334C14.0475 6.83703 13.8266 7.06427 13.8302 7.34039L13.8304 7.34971L13.8307 7.38057C13.831 7.40813 13.8313 7.44964 13.8317 7.5049C13.8324 7.61544 13.8332 7.781 13.8332 8.00004C13.8332 9.50696 13.8321 10.5868 13.7217 11.4081C13.6132 12.215 13.4075 12.697 13.0521 13.0523C12.6968 13.4077 12.2148 13.6134 11.4079 13.7219C10.5866 13.8323 9.50675 13.8334 7.99984 13.8334C6.49292 13.8334 5.41303 13.8323 4.59177 13.7219C3.78488 13.6134 3.30292 13.4077 2.94755 13.0523C2.59219 12.697 2.38647 12.215 2.27798 11.4081C2.16757 10.5868 2.1665 9.50696 2.1665 8.00004C2.1665 6.49313 2.16757 5.41324 2.27798 4.59197C2.38647 3.78509 2.59219 3.30312 2.94755 2.94776C3.30292 2.59239 3.78488 2.38667 4.59177 2.27819C5.41303 2.16777 6.49294 2.16671 7.99985 2.16671Z" fill="#384250"/>
<path fill-rule="evenodd" clip-rule="evenodd" d="M9.83317 3.66669C9.83317 2.28598 10.9525 1.16669 12.3332 1.16669C13.7139 1.16669 14.8332 2.28598 14.8332 3.66669C14.8332 5.0474 13.7139 6.16669 12.3332 6.16669C10.9525 6.16669 9.83317 5.0474 9.83317 3.66669ZM12.3332 2.16669C11.5047 2.16669 10.8332 2.83826 10.8332 3.66669C10.8332 4.49511 11.5047 5.16669 12.3332 5.16669C13.1616 5.16669 13.8332 4.49511 13.8332 3.66669C13.8332 2.83826 13.1616 2.16669 12.3332 2.16669Z" fill="#384250"/>
<path d="M7.66651 5.16669C7.94265 5.16669 8.16651 5.39054 8.16651 5.66669V11.6667C8.16651 11.9428 7.94265 12.1667 7.66651 12.1667C7.39036 12.1667 7.16651 11.9428 7.16651 11.6667V5.66669C7.16651 5.39054 7.39036 5.16669 7.66651 5.16669Z" fill="#384250"/>
<path d="M10.9998 8.50002C11.276 8.50002 11.4998 8.72388 11.4998 9.00002V11.6667C11.4998 11.9428 11.276 12.1667 10.9998 12.1667C10.7237 12.1667 10.4998 11.9428 10.4998 11.6667V9.00002C10.4998 8.72388 10.7237 8.50002 10.9998 8.50002Z" fill="#384250"/>
<path d="M4.33317 9.16669C4.60931 9.16669 4.83317 9.39055 4.83317 9.66669V11.6667C4.83317 11.9428 4.60931 12.1667 4.33317 12.1667C4.05703 12.1667 3.83317 11.9428 3.83317 11.6667V9.66669C3.83317 9.39055 4.05703 9.16669 4.33317 9.16669Z" fill="#384250"/>
</svg>
