<svg width="40" height="40" viewBox="0 0 40 40" fill="none" xmlns="http://www.w3.org/2000/svg">
<path d="M0 20C0 8.95431 8.95431 0 20 0C31.0457 0 40 8.95431 40 20C40 31.0457 31.0457 40 20 40C8.95431 40 0 31.0457 0 20Z" fill="#F3FCF6"/>
<path fill-rule="evenodd" clip-rule="evenodd" d="M20.4649 11.0417H17.8678C16.5341 11.0417 15.4664 11.0417 14.6284 11.1603C13.7588 11.2833 13.0452 11.5448 12.4842 12.1355C11.9274 12.7216 11.6847 13.4593 11.5698 14.359C11.458 15.2347 11.458 16.353 11.458 17.7624L11.458 22.2376C11.458 23.6471 11.458 24.7653 11.5698 25.641C11.6847 26.5407 11.9274 27.2785 12.4842 27.8646C13.0452 28.4552 13.7588 28.7167 14.6284 28.8398C15.4664 28.9584 16.5341 28.9584 17.8677 28.9584L19.1663 28.9584C19.5115 28.9584 19.7913 28.6785 19.7913 28.3334C19.7913 27.9882 19.5115 27.7084 19.1663 27.7084L17.9163 27.7084C16.5228 27.7084 15.5438 27.7069 14.8035 27.6021C14.0846 27.5004 13.6836 27.3123 13.3904 27.0037C13.0929 26.6905 12.9084 26.255 12.8098 25.4826C12.7092 24.6954 12.708 23.6571 12.708 22.193L12.708 17.807C12.708 16.3429 12.7092 15.3046 12.8098 14.5174C12.9084 13.745 13.0929 13.3095 13.3904 12.9964C13.6836 12.6878 14.0846 12.4997 14.8035 12.3979C14.9617 12.3755 15.1307 12.3579 15.3124 12.3439C15.3817 12.7584 15.4457 13.1209 15.5333 13.4153C15.6373 13.7645 15.7942 14.0909 16.0967 14.3472C16.3992 14.6034 16.7469 14.7045 17.1085 14.7496C17.4441 14.7915 17.8565 14.7915 18.3306 14.7915H20.0021C20.4763 14.7915 20.8887 14.7915 21.2243 14.7496C21.5858 14.7045 21.9336 14.6034 22.2361 14.3472C22.5386 14.0909 22.6955 13.7645 22.7995 13.4153C22.8871 13.1209 22.951 12.7584 23.0204 12.3439C23.202 12.3579 23.371 12.3755 23.5291 12.3979C24.248 12.4997 24.6491 12.6878 24.9423 12.9964C25.2398 13.3095 25.4243 13.745 25.5229 14.5174C25.6235 15.3046 25.6247 16.3429 25.6247 17.807V20.8334C25.6247 21.1785 25.9045 21.4584 26.2497 21.4584C26.5949 21.4584 26.8747 21.1785 26.8747 20.8334V17.7624C26.8747 16.353 26.8747 15.2347 26.7629 14.359C26.6479 13.4593 26.4053 12.7216 25.8485 12.1355C25.2874 11.5448 24.5739 11.2833 23.7043 11.1603C22.8663 11.0417 21.7986 11.0417 20.4649 11.0417ZM16.7313 13.0586C16.676 12.8726 16.63 12.6338 16.5723 12.2969C16.9726 12.2919 17.418 12.2917 17.9163 12.2917H20.4163C20.9147 12.2917 21.3601 12.2919 21.7605 12.2969C21.7028 12.6338 21.6568 12.8726 21.6014 13.0586C21.5348 13.2823 21.4753 13.3534 21.4281 13.3934C21.3809 13.4334 21.301 13.4804 21.0694 13.5093C20.8205 13.5404 20.487 13.5415 19.9652 13.5415H18.3675C17.8458 13.5415 17.5123 13.5404 17.2634 13.5093C17.0318 13.4804 16.9518 13.4334 16.9046 13.3934C16.8574 13.3534 16.7979 13.2823 16.7313 13.0586Z" fill="#067647"/>
<path d="M28.125 23.9227C28.4504 23.8074 28.6207 23.4502 28.5055 23.1249C28.3902 22.7995 28.0331 22.6291 27.7077 22.7444C27.0118 22.9908 26.3355 23.4657 25.7304 23.9964C25.1187 24.5328 24.5444 25.1579 24.0541 25.7457C23.6123 26.2753 23.2325 26.7821 22.9483 27.1793C22.6623 26.7906 22.3783 26.5293 22.1172 26.3552C22.0963 26.3412 22.0754 26.3269 22.0544 26.3125L22.0535 26.3119C21.8635 26.1817 21.6595 26.0419 21.2497 26.0419C20.9045 26.0419 20.6247 26.3217 20.6247 26.6669C20.6247 26.9981 20.8824 27.2692 21.2083 27.2905C21.2114 27.2912 21.2157 27.2923 21.2212 27.2939C21.2508 27.3023 21.3219 27.3273 21.4238 27.3952C21.6265 27.5303 21.9777 27.8538 22.3573 28.613C22.4581 28.8145 22.6594 28.9462 22.8844 28.9577C23.1093 28.9692 23.3232 28.8586 23.444 28.6686C23.5182 28.5571 23.7385 28.2266 23.8773 28.0299C24.1555 27.6359 24.5495 27.1031 25.0139 26.5464C25.4795 25.9883 26.0081 25.4155 26.5545 24.9362C27.1075 24.4513 27.6444 24.0929 28.125 23.9227Z" fill="#067647"/>
<path d="M15.833 18.5417C15.4878 18.5417 15.208 18.8215 15.208 19.1667C15.208 19.5119 15.4878 19.7917 15.833 19.7917L22.4997 19.7917C22.8449 19.7917 23.1247 19.5119 23.1247 19.1667C23.1247 18.8215 22.8449 18.5417 22.4997 18.5417L15.833 18.5417Z" fill="#067647"/>
<path d="M15.833 22.7084C15.4878 22.7084 15.208 22.9882 15.208 23.3334C15.208 23.6785 15.4878 23.9584 15.833 23.9584H19.1663C19.5115 23.9584 19.7913 23.6785 19.7913 23.3334C19.7913 22.9882 19.5115 22.7084 19.1663 22.7084H15.833Z" fill="#067647"/>
</svg>
