<svg width="16" height="16" viewBox="0 0 16 16" fill="none" xmlns="http://www.w3.org/2000/svg">
<path fill-rule="evenodd" clip-rule="evenodd" d="M5.16673 1.33337C5.16673 1.05723 4.94287 0.833374 4.66673 0.833374C4.39059 0.833374 4.16673 1.05723 4.16673 1.33337V1.73506C3.60587 1.83623 3.10366 2.10457 2.71903 2.4869L2.27045 2.19851C2.03817 2.04917 1.72881 2.11642 1.57948 2.3487C1.43015 2.58098 1.49739 2.89034 1.72967 3.03967L2.1549 3.31305C2.01957 3.6268 1.94451 3.97165 1.94451 4.33337C1.94451 4.69515 2.0196 5.04005 2.15496 5.35384L1.72995 5.62708C1.49767 5.77641 1.43043 6.08577 1.57976 6.31805C1.72909 6.55033 2.03845 6.61757 2.27073 6.46824L2.71915 6.17996C3.10376 6.56222 3.60593 6.83053 4.16673 6.93169V7.33337C4.16673 7.60952 4.39059 7.83337 4.66673 7.83337C4.94287 7.83337 5.16673 7.60952 5.16673 7.33337V6.93169C5.72753 6.83053 6.2297 6.56222 6.61431 6.17996L7.06272 6.46824C7.295 6.61757 7.60436 6.55033 7.75369 6.31805C7.90303 6.08577 7.83578 5.77641 7.6035 5.62708L7.17849 5.35384C7.31386 5.04005 7.38895 4.69515 7.38895 4.33337C7.38895 3.97165 7.31388 3.6268 7.17855 3.31305L7.60378 3.03967C7.83606 2.89034 7.90331 2.58098 7.75398 2.3487C7.60465 2.11642 7.29529 2.04917 7.06301 2.19851L6.61442 2.4869C6.2298 2.10457 5.72758 1.83623 5.16673 1.73506V1.33337ZM3.22853 3.42934C3.53475 2.9873 4.06148 2.69052 4.66673 2.69052C5.27197 2.69052 5.79871 2.98729 6.10492 3.42934C6.28515 3.68952 6.38895 3.99973 6.38895 4.33337C6.38895 4.66706 6.28513 4.9773 6.10485 5.2375C5.79863 5.6795 5.27193 5.97623 4.66673 5.97623C4.06153 5.97623 3.53483 5.6795 3.2286 5.2375C3.04833 4.9773 2.94451 4.66706 2.94451 4.33337C2.94451 3.99973 3.0483 3.68952 3.22853 3.42934Z" fill="#384250"/>
<path fill-rule="evenodd" clip-rule="evenodd" d="M6.77514 15.1667C5.51854 15.1667 4.88846 15.1667 4.32781 14.9707C3.41914 14.6514 2.70181 13.9761 2.36114 13.1167C2.14714 12.5774 2.14713 11.9794 2.14713 10.7881V8.67487C2.14713 8.39887 2.37113 8.17487 2.64713 8.17487C2.92313 8.17487 3.14713 8.39887 3.14713 8.67487V10.7881C3.14713 11.8521 3.14714 12.3861 3.29047 12.7474C3.52447 13.3374 4.02314 13.8041 4.65847 14.0267C5.0578 14.1667 5.6318 14.1667 6.77514 14.1667C6.98151 14.1667 7.17791 14.1667 7.36428 14.1665C8.2994 14.1499 9.05533 13.3837 9.05533 12.4447C9.05533 12.3378 9.05 12.2227 9.04436 12.1009L9.04315 12.0748C9.02653 11.7118 9.00771 11.3007 9.11 10.9167C9.258 10.3621 9.69533 9.92541 10.25 9.77674C10.6339 9.67444 11.045 9.69327 11.4081 9.70989L11.4341 9.71109C11.5559 9.71673 11.6711 9.72207 11.778 9.72207C12.7185 9.72207 13.4855 8.96379 13.4998 8.02666L13.4998 6.18208C13.4998 4.25475 13.4998 3.28741 13.0425 2.71341C12.9098 2.54674 12.7525 2.39874 12.5751 2.27474C11.9478 1.83341 10.9092 1.83341 8.83925 1.83341H8.65714C8.38114 1.83341 8.15714 1.60941 8.15714 1.33341C8.15714 1.05741 8.38114 0.833412 8.65714 0.833412H8.83914C11.1197 0.833412 12.2645 0.833412 13.1505 1.45674C13.4051 1.6354 13.6325 1.84874 13.8251 2.09074C14.4998 2.93807 14.4998 4.02207 14.4998 6.18207L14.4998 7.98585C14.4999 7.99057 14.5 7.99532 14.5 8.00008C14.5 8.00544 14.5 8.0108 14.5 8.01616C14.4999 8.02197 14.4999 8.02777 14.4998 8.03357C14.4996 9.96777 14.4909 10.9599 14.1511 11.8154C13.5945 13.2187 12.4218 14.3227 10.9338 14.8447C10.1031 15.1355 9.14036 15.1637 7.37369 15.1664C7.36026 15.1666 7.34681 15.1667 7.33333 15.1667C7.32836 15.1667 7.3234 15.1667 7.31846 15.1665C7.14521 15.1667 6.96431 15.1667 6.77514 15.1667ZM10.6031 13.9007C10.2919 14.0098 9.93586 14.0741 9.48336 14.1121C9.8417 13.6511 10.0553 13.0723 10.0553 12.4447C10.0553 12.3175 10.0496 12.1874 10.0439 12.0604L10.0427 12.0321L10.0426 12.0299C10.0286 11.7252 10.0142 11.4102 10.0767 11.1754C10.1327 10.9654 10.2987 10.7994 10.5087 10.7434C10.7408 10.6808 11.0532 10.6951 11.3555 10.709L11.3653 10.7094L11.3937 10.7107C11.5207 10.7163 11.6508 10.7221 11.778 10.7221C12.414 10.7221 12.9999 10.5027 13.4638 10.1356C13.4286 10.6912 13.3592 11.1002 13.2218 11.4461C12.7718 12.5807 11.8171 13.4747 10.6031 13.9007Z" fill="#384250"/>
</svg>
