<svg width="20" height="20" viewBox="0 0 20 20" fill="none" xmlns="http://www.w3.org/2000/svg">
<path d="M12.0995 5.38251C12.3485 5.62158 12.3565 6.01722 12.1175 6.26621L7.74321 10.822C7.60355 10.9675 7.4671 11.1097 7.35099 11.2086C7.28985 11.2607 7.20163 11.3297 7.0938 11.3809C6.98225 11.4338 6.79291 11.4937 6.57065 11.433C6.3189 11.3642 6.16434 11.1796 6.09543 10.997C6.04078 10.8521 6.04004 10.7136 6.04218 10.6388C6.04634 10.4932 6.07671 10.3082 6.10434 10.1399L6.40265 8.31718C6.4584 7.97653 6.77974 7.74558 7.12039 7.80133C7.46103 7.85708 7.69199 8.17842 7.63624 8.51907L7.51599 9.25384L11.2158 5.40048C11.4549 5.15149 11.8505 5.14345 12.0995 5.38251Z" fill="#F9FAFB"/>
<path d="M12.4839 10.7463L12.3636 11.4811C12.3079 11.8218 12.5388 12.1431 12.8795 12.1988C13.2201 12.2546 13.5415 12.0236 13.5972 11.683L13.8955 9.86029C13.9232 9.69196 13.9535 9.50696 13.9577 9.36141C13.9598 9.28659 13.9591 9.14804 13.9045 9.00322C13.8355 8.82057 13.681 8.63596 13.4292 8.56719C13.207 8.50648 13.0176 8.56642 12.9061 8.61931C12.7983 8.67044 12.71 8.73952 12.6489 8.7916C12.5328 8.89049 12.3963 9.03265 12.2567 9.17816L7.88242 13.734C7.64335 13.9829 7.6514 14.3786 7.90039 14.6177C8.14937 14.8567 8.54502 14.8487 8.78409 14.5997L12.4839 10.7463Z" fill="#F9FAFB"/>
<path fill-rule="evenodd" clip-rule="evenodd" d="M10.0476 1.45834H9.95227C8.12669 1.45833 6.69279 1.45832 5.57327 1.60884C4.42606 1.76308 3.51585 2.08561 2.80068 2.80077C2.08551 3.51594 1.76299 4.42615 1.60875 5.57336C1.45823 6.69288 1.45824 8.12678 1.45825 9.95237V10.0477C1.45824 11.8732 1.45823 13.3071 1.60875 14.4267C1.76299 15.5739 2.08551 16.4841 2.80068 17.1993C3.51585 17.9144 4.42606 18.2369 5.57327 18.3912C6.69278 18.5417 8.12667 18.5417 9.95225 18.5417H10.0476C11.8731 18.5417 13.3071 18.5417 14.4266 18.3912C15.5738 18.2369 16.484 17.9144 17.1992 17.1993C17.9143 16.4841 18.2369 15.5739 18.3911 14.4267C18.5416 13.3071 18.5416 11.8733 18.5416 10.0477V9.95237C18.5416 8.12679 18.5416 6.69287 18.3911 5.57336C18.2369 4.42615 17.9143 3.51594 17.1992 2.80077C16.484 2.08561 15.5738 1.76308 14.4266 1.60884C13.3071 1.45832 11.8732 1.45833 10.0476 1.45834ZM3.68456 3.68465C4.12877 3.24045 4.73123 2.9833 5.73983 2.84769C6.76641 2.70967 8.11627 2.70834 9.99992 2.70834C11.8836 2.70834 13.2334 2.70967 14.26 2.84769C15.2686 2.9833 15.8711 3.24045 16.3153 3.68465C16.7595 4.12886 17.0166 4.73132 17.1522 5.73992C17.2903 6.76651 17.2916 8.11637 17.2916 10C17.2916 11.8837 17.2903 13.2335 17.1522 14.2601C17.0166 15.2687 16.7595 15.8712 16.3153 16.3154C15.8711 16.7596 15.2686 17.0167 14.26 17.1523C13.2334 17.2904 11.8836 17.2917 9.99992 17.2917C8.11627 17.2917 6.76641 17.2904 5.73983 17.1523C4.73123 17.0167 4.12877 16.7596 3.68456 16.3154C3.24036 15.8712 2.9832 15.2687 2.8476 14.2601C2.70958 13.2335 2.70825 11.8837 2.70825 10C2.70825 8.11637 2.70958 6.76651 2.8476 5.73992C2.9832 4.73132 3.24036 4.12886 3.68456 3.68465Z" fill="#F9FAFB"/>
</svg>
