<svg width="20" height="21" viewBox="0 0 20 21" fill="none" xmlns="http://www.w3.org/2000/svg">
<g id="Iconsax/Linear/searchnormal1" clip-path="url(#clip0_1_5365)">
<path id="Vector" d="M19.091 19.591L17.2728 17.7728M9.54554 18.6819C10.6797 18.6819 11.8027 18.4585 12.8505 18.0245C13.8983 17.5905 14.8504 16.9543 15.6524 16.1524C16.4543 15.3504 17.0905 14.3983 17.5245 13.3505C17.9585 12.3027 18.1819 11.1797 18.1819 10.0455C18.1819 8.9114 17.9585 7.78836 17.5245 6.74055C17.0905 5.69274 16.4543 4.74067 15.6524 3.93871C14.8504 3.13675 13.8983 2.5006 12.8505 2.06658C11.8027 1.63257 10.6797 1.40918 9.54554 1.40918C7.25504 1.40918 5.05834 2.31908 3.43871 3.93871C1.81908 5.55834 0.90918 7.75504 0.90918 10.0455C0.90918 12.336 1.81908 14.5327 3.43871 16.1524C5.05834 17.772 7.25504 18.6819 9.54554 18.6819V18.6819Z" stroke="#9DA4AE" stroke-width="1.5" stroke-linecap="round" stroke-linejoin="round"/>
</g>
<defs>
<clipPath id="clip0_1_5365">
<rect width="20" height="20" fill="white" transform="translate(0 0.5)"/>
</clipPath>
</defs>
</svg>
