<svg width="20" height="20" viewBox="0 0 20 20" fill="none" xmlns="http://www.w3.org/2000/svg">
<g clip-path="url(#clip0_1_5788)">
<path d="M19.091 19.091L17.2728 17.2728M9.54554 18.1819C10.6797 18.1819 11.8027 17.9585 12.8505 17.5245C13.8983 17.0905 14.8504 16.4543 15.6524 15.6524C16.4543 14.8504 17.0905 13.8983 17.5245 12.8505C17.9585 11.8027 18.1819 10.6797 18.1819 9.54554C18.1819 8.4114 17.9585 7.28836 17.5245 6.24055C17.0905 5.19274 16.4543 4.24067 15.6524 3.43871C14.8504 2.63675 13.8983 2.0006 12.8505 1.56658C11.8027 1.13257 10.6797 0.90918 9.54554 0.90918C7.25504 0.90918 5.05834 1.81908 3.43871 3.43871C1.81908 5.05834 0.90918 7.25504 0.90918 9.54554C0.90918 11.836 1.81908 14.0327 3.43871 15.6524C5.05834 17.272 7.25504 18.1819 9.54554 18.1819V18.1819Z" stroke="#575656" stroke-opacity="0.25" stroke-width="1.5" stroke-linecap="round" stroke-linejoin="round"/>
</g>
<defs>
<clipPath id="clip0_1_5788">
<rect width="20" height="20" fill="white"/>
</clipPath>
</defs>
</svg>
