<svg width="20" height="20" viewBox="0 0 20 20" fill="none" xmlns="http://www.w3.org/2000/svg">
<path fill-rule="evenodd" clip-rule="evenodd" d="M9.1665 1.04169C4.67919 1.04169 1.0415 4.67937 1.0415 9.16669C1.0415 13.654 4.67919 17.2917 9.1665 17.2917C11.1852 17.2917 13.0319 16.5555 14.4529 15.337L17.8912 18.7753C18.1353 19.0194 18.531 19.0194 18.7751 18.7753C19.0192 18.5312 19.0192 18.1355 18.7751 17.8914L15.3368 14.4531C16.5553 13.0321 17.2915 11.1854 17.2915 9.16669C17.2915 4.67937 13.6538 1.04169 9.1665 1.04169ZM2.2915 9.16669C2.2915 5.36973 5.36955 2.29169 9.1665 2.29169C12.9635 2.29169 16.0415 5.36973 16.0415 9.16669C16.0415 12.9636 12.9635 16.0417 9.1665 16.0417C5.36955 16.0417 2.2915 12.9636 2.2915 9.16669Z" fill="#161616"/>
</svg>
