<svg width="16" height="16" viewBox="0 0 16 16" fill="none" xmlns="http://www.w3.org/2000/svg">
<path d="M10.6663 9.16659C10.9425 9.16659 11.1663 8.94273 11.1663 8.66659C11.1663 8.39044 10.9425 8.16659 10.6663 8.16659H8.66634C8.3902 8.16659 8.16634 8.39044 8.16634 8.66659C8.16634 8.94273 8.3902 9.16659 8.66634 9.16659H10.6663Z" fill="#161616"/>
<path d="M10.6663 11.8333C10.9425 11.8333 11.1663 11.6094 11.1663 11.3333C11.1663 11.0571 10.9425 10.8333 10.6663 10.8333L5.99967 10.8333C5.72353 10.8333 5.49967 11.0571 5.49967 11.3333C5.49967 11.6094 5.72353 11.8333 5.99967 11.8333H10.6663Z" fill="#161616"/>
<path fill-rule="evenodd" clip-rule="evenodd" d="M8.03548 15.1666H7.45562C6.39304 15.1666 5.55626 15.1666 4.89242 15.0974C4.21459 15.0268 3.65722 14.8794 3.18041 14.5435C2.92588 14.3641 2.69889 14.1507 2.50683 13.9093C2.14357 13.4526 1.98333 12.9155 1.90708 12.2674C1.83299 11.6378 1.833 10.8461 1.83301 9.8502V8.10296C1.83301 7.13071 1.83301 6.37618 1.87317 5.76727C1.91388 5.15006 1.99737 4.64778 2.1808 4.18491C2.73954 2.77498 3.9161 1.67418 5.39297 1.15574C6.31222 0.833048 7.44017 0.833131 9.41708 0.833277L9.65889 0.833267C10.749 0.833041 11.4283 0.8329 11.9888 1.02964C12.8881 1.34536 13.6092 2.01743 13.9525 2.88384C14.069 3.17766 14.119 3.4896 14.1429 3.85288C14.1663 4.20793 14.1663 4.64494 14.1663 5.1945V9.37295C14.1664 10.5964 14.1664 11.5685 14.0576 12.33C13.9451 13.1174 13.7077 13.7522 13.1792 14.2497C12.6549 14.7431 11.9931 14.9611 11.1714 15.065C10.3684 15.1666 9.34077 15.1666 8.03548 15.1666ZM11.0458 14.0729C11.7673 13.9817 12.1882 13.8091 12.4938 13.5215C12.7952 13.2378 12.9726 12.8536 13.0676 12.1886C13.1651 11.506 13.1663 10.6054 13.1663 9.33328V5.21207C13.1663 4.64106 13.1661 4.23699 13.1451 3.9187C13.1244 3.60488 13.0851 3.40921 13.0229 3.25225C12.7918 2.66926 12.2981 2.19807 11.6575 1.97319C11.2793 1.84042 10.7868 1.83328 9.54513 1.83328C9.33144 1.83328 9.1297 1.83335 8.93891 1.83374C8.01613 1.86601 7.27797 2.62425 7.27797 3.55489C7.27797 3.65298 7.28228 3.75843 7.28778 3.87683L7.28983 3.92071C7.29468 4.02397 7.29997 4.13639 7.30229 4.24847C7.30756 4.50186 7.29955 4.79756 7.22307 5.08299C7.0741 5.63897 6.63983 6.07324 6.08384 6.22222C5.79841 6.2987 5.50272 6.3067 5.24932 6.30144C5.13725 6.29911 5.02488 6.29383 4.92161 6.28898L4.87769 6.28692C4.75929 6.28143 4.65383 6.27711 4.55575 6.27711C3.60459 6.27711 2.83353 7.04818 2.83353 7.99934C2.83353 8.00701 2.83335 8.01465 2.83301 8.02224C2.83301 8.05491 2.83301 8.08788 2.83301 8.12116V9.81813C2.83301 10.8534 2.83382 11.5862 2.90022 12.1505C2.96525 12.7032 3.08758 13.033 3.28946 13.2868C3.42124 13.4525 3.5783 13.6005 3.75637 13.726C4.03448 13.9219 4.39811 14.0405 4.99608 14.1028C5.60203 14.166 6.38671 14.1666 7.48452 14.1666H7.99967C9.34864 14.1666 10.313 14.1657 11.0458 14.0729ZM2.86911 5.86243C3.33285 5.4959 3.91875 5.27711 4.55575 5.27711C4.67959 5.27711 4.80599 5.28252 4.92403 5.288L4.96928 5.29011C5.07373 5.29501 5.17206 5.29962 5.27009 5.30165C5.49718 5.30637 5.67891 5.29544 5.82503 5.25629C6.03592 5.19978 6.20064 5.03506 6.25715 4.82417C6.2963 4.67805 6.30723 4.49633 6.30251 4.26923C6.30047 4.17121 6.29587 4.0729 6.29097 3.96846L6.28885 3.92317C6.28338 3.80513 6.27797 3.67873 6.27797 3.55489C6.27797 2.92651 6.49088 2.34785 6.84851 1.88713C6.38639 1.92502 6.03688 1.98953 5.72419 2.09929C4.5061 2.52689 3.55689 3.42681 3.11046 4.55332C2.98127 4.87933 2.90845 5.26534 2.871 5.83308C2.87036 5.84282 2.86973 5.85261 2.86911 5.86243Z" fill="#161616"/>
</svg>
