<svg width="21" height="20" viewBox="0 0 21 20" fill="none" xmlns="http://www.w3.org/2000/svg">
<path d="M6.0031 7.1294C6.10467 7.26388 6.40793 7.66534 6.58853 7.89676C6.95026 8.36027 7.44452 8.97618 7.97769 9.59026C8.51356 10.2074 9.07648 10.8085 9.57658 11.2504C9.82734 11.472 10.0476 11.6403 10.2294 11.7499C10.4004 11.853 10.5013 11.8744 10.5013 11.8744C10.5013 11.8744 10.5994 11.853 10.7703 11.7499C10.9521 11.6403 11.1724 11.472 11.4231 11.2504C11.9232 10.8085 12.4861 10.2074 13.022 9.59025C13.5552 8.97616 14.0494 8.36025 14.4112 7.89673C14.5918 7.66531 14.8946 7.26442 14.9962 7.12994C15.2009 6.852 15.5925 6.79206 15.8705 6.99675C16.1484 7.20145 16.2078 7.59269 16.0031 7.87063L16.0015 7.87273C15.895 8.01376 15.5809 8.42963 15.3966 8.66577C15.0267 9.13975 14.518 9.77384 13.9659 10.4098C13.4165 11.0426 12.8117 11.6915 12.2508 12.1871C11.971 12.4343 11.6875 12.6566 11.4157 12.8204C11.161 12.9739 10.8386 13.125 10.4998 13.125C10.1611 13.125 9.83868 12.9739 9.58404 12.8204C9.31223 12.6566 9.02866 12.4343 8.74891 12.1871C8.18798 11.6915 7.58325 11.0426 7.03382 10.4098C6.48169 9.77386 5.973 9.13978 5.6031 8.6658C5.41871 8.42953 5.10464 8.01371 4.9983 7.87292L4.9969 7.87107C4.7922 7.59313 4.85128 7.20149 5.12922 6.99679C5.40714 6.7921 5.7984 6.85149 6.0031 7.1294Z" fill="#9DA4AE"/>
</svg>
