<svg width="20" height="20" viewBox="0 0 20 20" fill="none" xmlns="http://www.w3.org/2000/svg">
<path d="M6.6665 8.54105C6.32133 8.54105 6.0415 8.82088 6.0415 9.16605C6.0415 9.51123 6.32133 9.79105 6.6665 9.79105H9.1665C9.51168 9.79105 9.7915 9.51123 9.7915 9.16605C9.7915 8.82088 9.51168 8.54105 9.1665 8.54105H6.6665Z" fill="#161616"/>
<path d="M6.6665 5.20772C6.32133 5.20772 6.0415 5.48754 6.0415 5.83272C6.0415 6.1779 6.32133 6.45772 6.6665 6.45772L12.4998 6.45772C12.845 6.45772 13.1248 6.1779 13.1248 5.83272C13.1248 5.48754 12.845 5.20772 12.4998 5.20772H6.6665Z" fill="#161616"/>
<path fill-rule="evenodd" clip-rule="evenodd" d="M9.95507 1.04102H10.6799C12.0081 1.04101 13.0541 1.041 13.8839 1.12749C14.7312 1.2158 15.4279 1.40003 16.0239 1.81995C16.3421 2.04412 16.6258 2.31087 16.8659 2.6127C17.32 3.18359 17.5203 3.85489 17.6156 4.66503C17.7082 5.45206 17.7082 6.44163 17.7082 7.68654V9.87059C17.7082 11.0859 17.7082 12.0291 17.658 12.7902C17.6071 13.5617 17.5027 14.1896 17.2734 14.7682C16.575 16.5306 15.1043 17.9066 13.2582 18.5546C12.1092 18.958 10.6992 18.9579 8.22808 18.9577L7.92582 18.9577C6.56319 18.958 5.71403 18.9582 5.01347 18.7122C3.88925 18.3176 2.98796 17.4775 2.55877 16.3945C2.41322 16.0272 2.35072 15.6373 2.32077 15.1832C2.2915 14.7394 2.2915 14.1931 2.2915 13.5062V8.2831C2.29149 6.75384 2.29148 5.53861 2.42745 4.58673C2.56805 3.60252 2.86485 2.80898 3.52548 2.1872C4.18076 1.57047 5.00809 1.29797 6.03521 1.168C7.03888 1.041 8.32346 1.041 9.95507 1.04102ZM6.19213 2.40811C5.29036 2.52222 4.76424 2.73787 4.38219 3.09745C4.00549 3.45199 3.78363 3.93227 3.66489 4.76349C3.543 5.61677 3.5415 6.74259 3.5415 8.33268V13.4842C3.5415 14.198 3.54182 14.7031 3.56806 15.1009C3.59394 15.4932 3.64309 15.7378 3.72085 15.934C4.00964 16.6627 4.62675 17.2517 5.4275 17.5328C5.90028 17.6988 6.51591 17.7077 8.06802 17.7077C8.33512 17.7077 8.5873 17.7076 8.82579 17.7071C9.97926 17.6668 10.902 16.719 10.902 15.5557C10.902 15.4331 10.8966 15.3012 10.8897 15.1533L10.8871 15.0984C10.8811 14.9693 10.8745 14.8288 10.8716 14.6887C10.865 14.372 10.875 14.0023 10.9706 13.6456C11.1568 12.9506 11.6996 12.4077 12.3946 12.2215C12.7514 12.1259 13.121 12.1159 13.4378 12.1225C13.5779 12.1254 13.7183 12.132 13.8474 12.1381L13.9023 12.1406C14.0503 12.1475 14.1821 12.1529 14.3047 12.1529C15.4937 12.1529 16.4575 11.1891 16.4575 10.0001C16.4575 9.99052 16.4577 9.98098 16.4582 9.97149C16.4582 9.93065 16.4582 9.88943 16.4582 9.84783V7.72662C16.4582 6.43259 16.4572 5.51659 16.3742 4.8111C16.2929 4.1203 16.14 3.70808 15.8876 3.39081C15.7229 3.18371 15.5266 2.99862 15.304 2.8418C14.9563 2.59687 14.5018 2.44866 13.7543 2.37076C12.9969 2.29181 12.016 2.29102 10.6438 2.29102H9.99984C8.31362 2.29102 7.10819 2.2922 6.19213 2.40811ZM16.413 12.6712C15.8334 13.1294 15.101 13.4029 14.3047 13.4029C14.1499 13.4029 13.9919 13.3961 13.8444 13.3893L13.7878 13.3866C13.6573 13.3805 13.5344 13.3748 13.4118 13.3722C13.128 13.3663 12.9008 13.38 12.7181 13.4289C12.4545 13.4996 12.2486 13.7055 12.178 13.9691C12.1291 14.1517 12.1154 14.3789 12.1213 14.6627C12.1238 14.7853 12.1296 14.9082 12.1357 15.0387L12.1384 15.0953C12.1452 15.2429 12.152 15.4009 12.152 15.5557C12.152 16.3412 11.8858 17.0645 11.4388 17.6404C12.0164 17.593 12.4533 17.5124 12.8442 17.3752C14.3668 16.8407 15.5533 15.7158 16.1114 14.3076C16.2728 13.9001 16.3639 13.4176 16.4107 12.7079C16.4115 12.6958 16.4123 12.6835 16.413 12.6712Z" fill="#161616"/>
</svg>
