<svg width="24" height="24" viewBox="0 0 24 24" fill="none" xmlns="http://www.w3.org/2000/svg">
<path fill-rule="evenodd" clip-rule="evenodd" d="M11.4079 22.752C9.1979 22.752 6.8799 22.696 5.2499 22.601C3.8879 22.521 2.7809 21.818 2.0499 20.566C1.4689 19.57 1.26088 18.456 1.26088 17.744C1.24511 16.4913 1.24974 13.9942 1.25466 11.3355L1.25488 11.219C1.25788 9.79698 1.26088 8.32597 1.26088 6.96497C1.26088 2.30297 4.19088 1.55799 5.48388 1.45699C5.74488 1.41999 7.61987 1.17098 10.0259 1.27198C10.4399 1.28898 10.7609 1.63899 10.7439 2.05299C10.7269 2.46699 10.3779 2.78798 9.96288 2.77098C7.57188 2.67098 5.6939 2.94298 5.6749 2.94598C5.6569 2.94898 5.63789 2.95099 5.61889 2.95199C4.31489 3.04599 2.75991 3.81898 2.75991 6.96598C2.75991 8.32798 2.7569 9.79998 2.7539 11.223L2.75302 11.6933C2.74828 14.2118 2.7439 16.5391 2.75991 17.735C2.75991 18.422 3.19688 20.979 5.33588 21.104C8.40288 21.282 13.9279 21.322 16.4549 21.105C16.4582 21.105 16.4615 21.1048 16.4649 21.1044L16.4759 21.103C16.4989 21.102 18.7669 20.947 19.0269 18.709C19.2879 16.464 19.2699 14.826 19.2629 14.209C19.2629 14.1632 19.2622 14.1229 19.2617 14.0878C19.2613 14.0608 19.2609 14.0369 19.2609 14.016C19.2609 13.602 19.5969 13.266 20.0109 13.266C20.4249 13.266 20.7609 13.602 20.7609 14.016C20.7609 14.06 20.7609 14.119 20.7629 14.192L20.763 14.201C20.7701 14.8509 20.7886 16.5539 20.5169 18.882C20.1949 21.655 17.8029 22.525 16.5729 22.599C15.3389 22.704 13.4169 22.75 11.4069 22.75L11.4079 22.752ZM15.9802 9.26697H15.9412C15.6712 9.25297 15.4292 9.09498 15.3092 8.85298C14.8762 7.98598 14.4542 7.55198 14.4492 7.54798C14.1562 7.25498 14.1562 6.77999 14.4492 6.48699C14.7422 6.19399 15.2172 6.19399 15.5102 6.48699C15.5462 6.52299 15.7572 6.73997 16.0372 7.14097C16.6882 6.29797 17.7072 5.17299 18.7302 4.80999C19.1202 4.67199 19.5492 4.87597 19.6872 5.26597C19.8252 5.65597 19.6212 6.08498 19.2312 6.22298C18.3812 6.52398 17.1742 8.03597 16.6132 8.91797C16.4752 9.13497 16.2362 9.26597 15.9802 9.26597V9.26697ZM11.2402 7.01709C11.2402 10.1881 13.8223 12.7671 16.9953 12.7671C20.1683 12.7671 22.7502 10.1881 22.7502 7.01709C22.7502 3.84609 20.1683 1.26709 16.9953 1.26709C13.8223 1.26709 11.2402 3.84609 11.2402 7.01709ZM12.7402 7.01709C12.7402 4.67409 14.6493 2.76709 16.9953 2.76709C19.3413 2.76709 21.2502 4.67409 21.2502 7.01709C21.2502 9.36009 19.3413 11.2671 16.9953 11.2671C14.6493 11.2671 12.7402 9.36009 12.7402 7.01709ZM10.98 13.7671H6.97998C6.56598 13.7671 6.22998 13.4311 6.22998 13.0171C6.22998 12.6031 6.56598 12.2671 6.97998 12.2671H10.98C11.394 12.2671 11.73 12.6031 11.73 13.0171C11.73 13.4311 11.394 13.7671 10.98 13.7671ZM6.97998 17.7671H14.98C15.394 17.7671 15.73 17.4311 15.73 17.0171C15.73 16.6031 15.394 16.2671 14.98 16.2671H6.97998C6.56598 16.2671 6.22998 16.6031 6.22998 17.0171C6.22998 17.4311 6.56598 17.7671 6.97998 17.7671Z" fill="#161616"/>
</svg>
