<svg width="32" height="32" viewBox="0 0 32 32" fill="none" xmlns="http://www.w3.org/2000/svg">
<path d="M0 16C0 7.16344 7.16344 0 16 0C24.8366 0 32 7.16344 32 16C32 24.8366 24.8366 32 16 32C7.16344 32 0 24.8366 0 16Z" fill="#F3FCF6"/>
<path d="M17.3709 8.83331H14.629C13.4038 8.8333 12.4334 8.83329 11.6739 8.9354C10.8923 9.04049 10.2597 9.2619 9.76075 9.76081C9.26184 10.2597 9.04043 10.8924 8.93534 11.674C8.83323 12.4334 8.83324 13.4039 8.83325 14.629V14.7043C8.83324 15.9294 8.83323 16.8999 8.93534 17.6593C9.04043 18.4409 9.26184 19.0736 9.76075 19.5725C10.4466 20.2584 11.3915 20.4242 12.6458 20.4762C12.9217 20.4877 13.1547 20.2733 13.1662 19.9974C13.1776 19.7215 12.9632 19.4886 12.6873 19.4771C11.4452 19.4255 10.8595 19.257 10.4679 18.8654C10.1857 18.5832 10.0166 18.1968 9.92643 17.5261C9.83431 16.841 9.83325 15.9379 9.83325 14.6666C9.83325 13.3954 9.83431 12.4923 9.92643 11.8072C10.0166 11.1365 10.1857 10.7501 10.4679 10.4679C10.75 10.1858 11.1364 10.0167 11.8072 9.92649C12.4923 9.83438 13.3954 9.83331 14.6666 9.83331H17.3333C18.6045 9.83331 19.5076 9.83438 20.1927 9.92649C20.8634 10.0167 21.2498 10.1858 21.532 10.4679C21.8141 10.7501 21.9832 11.1365 22.0734 11.8072C22.1655 12.4923 22.1666 13.3954 22.1666 14.6666C22.1666 15.9379 22.1655 16.841 22.0734 17.5261C21.9832 18.1968 21.8141 18.5832 21.532 18.8654C21.2593 19.1381 20.8895 19.3049 20.2606 19.3973C19.9874 19.4374 19.7984 19.6914 19.8386 19.9646C19.8787 20.2378 20.1327 20.4268 20.4059 20.3867C21.1511 20.2773 21.7575 20.0541 22.2391 19.5725C22.738 19.0736 22.9594 18.4409 23.0645 17.6593C23.1666 16.8999 23.1666 15.9294 23.1666 14.7043V14.629C23.1666 13.4039 23.1666 12.4334 23.0645 11.674C22.9594 10.8924 22.738 10.2597 22.2391 9.76081C21.7402 9.2619 21.1075 9.04049 20.3259 8.9354C19.5665 8.83329 18.596 8.8333 17.3709 8.83331Z" fill="#067647"/>
<path d="M19.3333 13.1666C19.6094 13.1666 19.8333 12.9428 19.8333 12.6666C19.8333 12.3905 19.6094 12.1666 19.3333 12.1666H12.6666C12.3904 12.1666 12.1666 12.3905 12.1666 12.6666C12.1666 12.9428 12.3904 13.1666 12.6666 13.1666H19.3333Z" fill="#067647"/>
<path fill-rule="evenodd" clip-rule="evenodd" d="M15.0659 19.6222C15.3487 19.7575 15.6655 19.8333 15.9999 19.8333C17.1965 19.8333 18.1666 18.8633 18.1666 17.6666C18.1666 16.47 17.1965 15.5 15.9999 15.5C14.8033 15.5 13.8333 16.47 13.8333 17.6666C13.8333 20.4198 14.9607 22.0453 15.5188 22.85C15.5429 22.8849 15.5662 22.9184 15.5881 22.9502C15.6884 23.0959 15.8583 23.1778 16.0347 23.1654C16.2112 23.1531 16.368 23.0485 16.4471 22.8903L17.2108 21.363L19.0852 22.4341C19.304 22.5591 19.5817 22.5018 19.7331 22.3002C19.8844 22.0987 19.8621 21.816 19.681 21.6407C19.6112 21.5731 19.516 21.4413 19.4067 21.2472C19.3018 21.0607 19.2002 20.8464 19.1102 20.6389C19.0207 20.4324 18.9453 20.2392 18.8923 20.0973C18.8658 20.0265 18.8451 19.969 18.8311 19.9296C18.8242 19.9099 18.8189 19.8947 18.8154 19.8847L18.8116 19.8737L18.8106 19.8708C18.722 19.6093 18.4382 19.4692 18.1767 19.5578C17.9212 19.6443 17.7815 19.9172 17.8577 20.1735C17.8591 20.1775 17.8621 20.1863 17.8658 20.1971C17.8732 20.2188 17.8833 20.2487 17.8885 20.2634C17.9042 20.3076 17.9268 20.3705 17.9555 20.4473C17.9818 20.5176 18.0133 20.5999 18.0491 20.6903L17.248 20.2325C17.1287 20.1643 16.9866 20.1483 16.855 20.1881C16.7235 20.2279 16.6142 20.3201 16.5527 20.443L15.9379 21.6726C15.6262 21.1658 15.2853 20.4957 15.0659 19.6222ZM15.9999 16.5C15.3556 16.5 14.8333 17.0223 14.8333 17.6666C14.8333 18.311 15.3556 18.8333 15.9999 18.8333C16.6443 18.8333 17.1666 18.311 17.1666 17.6666C17.1666 17.0223 16.6443 16.5 15.9999 16.5Z" fill="#067647"/>
</svg>
