<svg width="24" height="24" viewBox="0 0 24 24" fill="none" xmlns="http://www.w3.org/2000/svg">
<path fill-rule="evenodd" clip-rule="evenodd" d="M15.5416 1.25L11.9998 1.25L8.45839 1.25H8.45837C7.52429 1.24999 6.76306 1.24997 6.1432 1.31738C5.49593 1.38776 4.93383 1.53717 4.41987 1.87981C3.90591 2.22245 3.5518 2.68385 3.23788 3.25426C2.93725 3.80051 2.64448 4.50319 2.28523 5.36544L1.31665 7.69002C1.27673 7.77787 1.25325 7.87477 1.25015 7.97679C1.24992 7.98439 1.2498 7.99198 1.2498 7.99956V8L1.2498 13.4872V13.4872C1.24979 15.4578 1.24977 17.0159 1.41971 18.2347C1.59473 19.4901 1.96276 20.4957 2.78095 21.2846C3.59532 22.0699 4.6269 22.4198 5.9155 22.5869C7.17398 22.75 8.78517 22.75 10.8336 22.75H13.166C15.2144 22.75 16.8256 22.75 18.0841 22.5869C19.3727 22.4198 20.4043 22.0699 21.2187 21.2846C22.0368 20.4957 22.4049 19.4901 22.5799 18.2347C22.7498 17.0159 22.7498 15.4578 22.7498 13.4872L22.7498 8.02387C22.7528 7.93268 22.739 7.83965 22.7068 7.74915C22.7018 7.73509 22.6964 7.72121 22.6906 7.70755L21.7147 5.36537L21.7147 5.36536L21.7147 5.36533L21.7147 5.36527C21.3555 4.5031 21.0627 3.80048 20.7621 3.25426C20.4482 2.68385 20.0941 2.22245 19.5801 1.87981C19.0662 1.53717 18.5041 1.38776 17.8568 1.31738C17.2369 1.24997 16.4757 1.24999 15.5416 1.25H15.5416ZM8.5 2.75L11.2498 2.75L11.2498 7.25L3.125 7.25L3.65384 5.98077C4.03298 5.07084 4.29529 4.44397 4.55202 3.97748C4.7999 3.52706 5.01011 3.2891 5.25192 3.12789C5.49373 2.96668 5.79424 2.86417 6.30536 2.80859C6.8347 2.75103 7.51424 2.75 8.5 2.75ZM12.7498 2.75L12.7498 7.25L20.875 7.25L20.3462 5.98077C19.967 5.07084 19.7047 4.44397 19.448 3.97748C19.2001 3.52706 18.9899 3.2891 18.7481 3.12789C18.5063 2.96668 18.2057 2.86417 17.6946 2.80859C17.1653 2.75103 16.4858 2.75 15.5 2.75L12.7498 2.75ZM2.7498 8.75L11.9998 8.75L21.2498 8.75V13.4286C21.2498 15.4708 21.2481 16.9243 21.0943 18.0276C20.9439 19.1064 20.661 19.7386 20.1775 20.2049C19.6901 20.6748 19.0232 20.9526 17.8913 21.0993C16.7404 21.2485 15.2265 21.25 13.1109 21.25H10.8887C8.7731 21.25 7.25919 21.2485 6.10835 21.0993C4.97638 20.9526 4.30953 20.6748 3.82215 20.2049C3.3386 19.7386 3.05575 19.1064 2.90534 18.0276C2.75151 16.9243 2.7498 15.4708 2.7498 13.4286L2.7498 8.75ZM9.9998 11.25C9.58559 11.25 9.2498 11.5858 9.2498 12C9.2498 12.4142 9.58559 12.75 9.9998 12.75L13.9998 12.75C14.414 12.75 14.7498 12.4142 14.7498 12C14.7498 11.5858 14.414 11.25 13.9998 11.25L9.9998 11.25Z" fill="#161616"/>
</svg>
