<svg width="24" height="25" viewBox="0 0 24 25" fill="none" xmlns="http://www.w3.org/2000/svg">
<path d="M12 0.945557C5.37262 0.945557 0 6.31818 0 12.9456C0 19.5733 5.37262 24.9456 12 24.9456C18.6278 24.9456 24.0004 19.5733 24.0004 12.9456C24.0004 6.31818 18.6278 0.945557 12 0.945557ZM12 23.4692C6.21037 23.4692 1.5 18.7352 1.5 12.9455C1.5 7.15588 6.21037 2.44551 12 2.44551C17.7896 2.44551 22.5004 7.15591 22.5004 12.9455C22.5004 18.7351 17.7896 23.4692 12 23.4692ZM10.8971 19.7068H12.7841V17.8025H10.8971V19.7068ZM11.9779 6.18466C10.8791 6.18466 9.9739 6.48091 9.2629 7.07268C8.5519 7.66478 8.20615 8.85053 8.22377 9.83303L8.25152 9.88778H9.97277C9.97277 9.30166 10.1681 8.45941 10.5589 8.15716C10.9493 7.85528 11.4225 7.70416 11.9783 7.70416C12.6188 7.70416 13.1111 7.87816 13.4565 8.22613C13.8015 8.57413 13.9736 9.07176 13.9736 9.71826C13.9736 10.2616 13.8461 10.7255 13.59 11.1099C13.3331 11.4943 12.9026 12.0437 12.2989 12.7581C11.676 13.3198 11.2913 13.7713 11.145 14.1129C10.9984 14.4549 10.9223 15.0684 10.9166 15.953H12.7204C12.7204 15.398 12.7556 14.9889 12.8258 14.7264C12.8955 14.4643 13.0954 14.1681 13.425 13.8384C14.1334 13.1552 14.7023 12.4869 15.1331 11.8333C15.5629 11.1804 15.7781 10.46 15.7781 9.67253C15.7781 8.57378 15.4459 7.71766 14.7803 7.10453C14.1143 6.49103 13.1801 6.18466 11.9779 6.18466Z" fill="#161616"/>
</svg>
