<svg width="16" height="17" viewBox="0 0 16 17" fill="none" xmlns="http://www.w3.org/2000/svg">
<path d="M-0.000244141 2.5C-0.000244141 1.39543 0.895186 0.5 1.99976 0.5H13.9998C15.1043 0.5 15.9998 1.39543 15.9998 2.5V14.5C15.9998 15.6046 15.1043 16.5 13.9998 16.5H1.99976C0.895186 16.5 -0.000244141 15.6046 -0.000244141 14.5V2.5Z" fill="#0D121C"/>
<path fill-rule="evenodd" clip-rule="evenodd" d="M11.7294 5.5233C12.0899 5.88378 12.0899 6.46825 11.7294 6.82874L7.49862 11.0596C7.32551 11.2327 7.09072 11.3299 6.84591 11.3299C6.60109 11.3299 6.36631 11.2327 6.1932 11.0596L4.27012 9.13646C3.90963 8.77597 3.90963 8.1915 4.27012 7.83101C4.6306 7.47053 5.21506 7.47053 5.57555 7.83101L6.84591 9.10139L10.424 5.5233C10.7844 5.16281 11.3689 5.16281 11.7294 5.5233Z" fill="white"/>
</svg>
