<svg width="12" height="13" viewBox="0 0 12 13" fill="none" xmlns="http://www.w3.org/2000/svg">
<path d="M8.5 7.5C8.63261 7.5 8.75979 7.44732 8.85355 7.35355C8.94732 7.25979 9 7.13261 9 7C9 6.86739 8.94732 6.74021 8.85355 6.64645C8.75979 6.55268 8.63261 6.5 8.5 6.5C8.36739 6.5 8.24021 6.55268 8.14645 6.64645C8.05268 6.74021 8 6.86739 8 7C8 7.13261 8.05268 7.25979 8.14645 7.35355C8.24021 7.44732 8.36739 7.5 8.5 7.5ZM8.5 9.5C8.63261 9.5 8.75979 9.44732 8.85355 9.35355C8.94732 9.25979 9 9.13261 9 9C9 8.86739 8.94732 8.74021 8.85355 8.64645C8.75979 8.55268 8.63261 8.5 8.5 8.5C8.36739 8.5 8.24021 8.55268 8.14645 8.64645C8.05268 8.74021 8 8.86739 8 9C8 9.13261 8.05268 9.25979 8.14645 9.35355C8.24021 9.44732 8.36739 9.5 8.5 9.5ZM6.5 7C6.5 7.13261 6.44732 7.25979 6.35355 7.35355C6.25979 7.44732 6.13261 7.5 6 7.5C5.86739 7.5 5.74021 7.44732 5.64645 7.35355C5.55268 7.25979 5.5 7.13261 5.5 7C5.5 6.86739 5.55268 6.74021 5.64645 6.64645C5.74021 6.55268 5.86739 6.5 6 6.5C6.13261 6.5 6.25979 6.55268 6.35355 6.64645C6.44732 6.74021 6.5 6.86739 6.5 7ZM6.5 9C6.5 9.13261 6.44732 9.25979 6.35355 9.35355C6.25979 9.44732 6.13261 9.5 6 9.5C5.86739 9.5 5.74021 9.44732 5.64645 9.35355C5.55268 9.25979 5.5 9.13261 5.5 9C5.5 8.86739 5.55268 8.74021 5.64645 8.64645C5.74021 8.55268 5.86739 8.5 6 8.5C6.13261 8.5 6.25979 8.55268 6.35355 8.64645C6.44732 8.74021 6.5 8.86739 6.5 9ZM3.5 7.5C3.63261 7.5 3.75979 7.44732 3.85355 7.35355C3.94732 7.25979 4 7.13261 4 7C4 6.86739 3.94732 6.74021 3.85355 6.64645C3.75979 6.55268 3.63261 6.5 3.5 6.5C3.36739 6.5 3.24021 6.55268 3.14645 6.64645C3.05268 6.74021 3 6.86739 3 7C3 7.13261 3.05268 7.25979 3.14645 7.35355C3.24021 7.44732 3.36739 7.5 3.5 7.5ZM3.5 9.5C3.63261 9.5 3.75979 9.44732 3.85355 9.35355C3.94732 9.25979 4 9.13261 4 9C4 8.86739 3.94732 8.74021 3.85355 8.64645C3.75979 8.55268 3.63261 8.5 3.5 8.5C3.36739 8.5 3.24021 8.55268 3.14645 8.64645C3.05268 8.74021 3 8.86739 3 9C3 9.13261 3.05268 9.25979 3.14645 9.35355C3.24021 9.44732 3.36739 9.5 3.5 9.5Z" fill="#212529"/>
<path fill-rule="evenodd" clip-rule="evenodd" d="M3.49999 1.375C3.59944 1.375 3.69483 1.41451 3.76515 1.48483C3.83548 1.55516 3.87499 1.65054 3.87499 1.75V2.1315C4.20599 2.125 4.57049 2.125 4.97149 2.125H7.02799C7.42949 2.125 7.79399 2.125 8.12499 2.1315V1.75C8.12499 1.65054 8.1645 1.55516 8.23482 1.48483C8.30515 1.41451 8.40053 1.375 8.49999 1.375C8.59944 1.375 8.69483 1.41451 8.76515 1.48483C8.83548 1.55516 8.87499 1.65054 8.87499 1.75V2.1635C9.00499 2.1735 9.12816 2.18617 9.24449 2.2015C9.83049 2.2805 10.305 2.4465 10.6795 2.8205C11.0535 3.195 11.2195 3.6695 11.2985 4.2555C11.375 4.8255 11.375 5.553 11.375 6.472V7.528C11.375 8.447 11.375 9.175 11.2985 9.7445C11.2195 10.3305 11.0535 10.805 10.6795 11.1795C10.305 11.5535 9.83049 11.7195 9.24449 11.7985C8.67449 11.875 7.94699 11.875 7.02799 11.875H4.97249C4.05349 11.875 3.32549 11.875 2.75599 11.7985C2.16999 11.7195 1.69549 11.5535 1.32099 11.1795C0.946988 10.805 0.780988 10.3305 0.701988 9.7445C0.625488 9.1745 0.625488 8.447 0.625488 7.528V6.472C0.625488 5.553 0.625488 4.825 0.701988 4.2555C0.780988 3.6695 0.946988 3.195 1.32099 2.8205C1.69549 2.4465 2.16999 2.2805 2.75599 2.2015C2.87265 2.18617 2.99582 2.1735 3.12549 2.1635V1.75C3.12549 1.65063 3.16493 1.55532 3.23515 1.48501C3.30536 1.4147 3.40062 1.37513 3.49999 1.375ZM2.85499 2.945C2.35249 3.0125 2.06249 3.1395 1.85099 3.351C1.63949 3.5625 1.51249 3.8525 1.44499 4.355C1.43365 4.44 1.42399 4.52983 1.41599 4.6245H10.584C10.576 4.52983 10.5663 4.43983 10.555 4.3545C10.4875 3.852 10.3605 3.562 10.149 3.3505C9.93749 3.139 9.64749 3.012 9.14449 2.9445C8.63099 2.8755 7.95349 2.8745 6.99999 2.8745H4.99999C4.04649 2.8745 3.36949 2.876 2.85499 2.945ZM1.37499 6.5C1.37499 6.073 1.37499 5.7015 1.38149 5.375H10.6185C10.625 5.7015 10.625 6.073 10.625 6.5V7.5C10.625 8.4535 10.624 9.131 10.555 9.645C10.4875 10.1475 10.3605 10.4375 10.149 10.649C9.93749 10.8605 9.64749 10.9875 9.14449 11.055C8.63099 11.124 7.95349 11.125 6.99999 11.125H4.99999C4.04649 11.125 3.36949 11.124 2.85499 11.055C2.35249 10.9875 2.06249 10.8605 1.85099 10.649C1.63949 10.4375 1.51249 10.1475 1.44499 9.6445C1.37599 9.131 1.37499 8.4535 1.37499 7.5V6.5Z" fill="#212529"/>
</svg>
