<svg width="24" height="25" viewBox="0 0 24 25" fill="none" xmlns="http://www.w3.org/2000/svg">
<path d="M12 22.9456C17.5228 22.9456 22 18.4684 22 12.9456C22 7.42271 17.5228 2.94556 12 2.94556C6.47715 2.94556 2 7.42271 2 12.9456C2 18.4684 6.47715 22.9456 12 22.9456Z" stroke="#212529" stroke-width="1.5"/>
<path d="M12 16.9456C14.2091 16.9456 16 15.1547 16 12.9456C16 10.7364 14.2091 8.94556 12 8.94556C9.79086 8.94556 8 10.7364 8 12.9456C8 15.1547 9.79086 16.9456 12 16.9456Z" stroke="#212529" stroke-width="1.5"/>
<path d="M15 9.94556L19 5.94556M5 19.9456L9 15.9456M9 9.94556L5 5.94556M19 19.9456L15 15.9456" stroke="#212529" stroke-width="1.5"/>
</svg>
