<svg width="12" height="12" viewBox="0 0 12 12" fill="none" xmlns="http://www.w3.org/2000/svg">
<g id="Sort arrow">
<path id="Vector" d="M9 4.875C9 4.97656 8.96289 5.06445 8.88867 5.13867C8.81445 5.21289 8.72656 5.25 8.625 5.25C8.52344 5.25 8.43555 5.21289 8.36133 5.13867L6 2.77734V10.125C6 10.2266 5.96289 10.3145 5.88867 10.3887C5.81445 10.4629 5.72656 10.5 5.625 10.5C5.52344 10.5 5.43555 10.4629 5.36133 10.3887C5.28711 10.3145 5.25 10.2266 5.25 10.125V2.77734L2.88867 5.13867C2.81445 5.21289 2.72656 5.25 2.625 5.25C2.52344 5.25 2.43555 5.21289 2.36133 5.13867C2.28711 5.06445 2.25 4.97656 2.25 4.875C2.25 4.77344 2.28711 4.68555 2.36133 4.61133L5.36133 1.61133C5.43555 1.53711 5.52344 1.5 5.625 1.5C5.72656 1.5 5.81445 1.53711 5.88867 1.61133L8.88867 4.61133C8.96289 4.68555 9 4.77344 9 4.875Z" fill="#767676"/>
</g>
</svg>
