<svg width="32" height="32" viewBox="0 0 32 32" fill="none" xmlns="http://www.w3.org/2000/svg">
<path d="M0 16C0 7.16344 7.16344 0 16 0C24.8366 0 32 7.16344 32 16C32 24.8366 24.8366 32 16 32C7.16344 32 0 24.8366 0 16Z" fill="#F3FCF6"/>
<path d="M13.3337 16C12.9655 16 12.667 16.2985 12.667 16.6666C12.667 17.0348 12.9655 17.3333 13.3337 17.3333H13.3396C13.7078 17.3333 14.0063 17.0348 14.0063 16.6666C14.0063 16.2985 13.7078 16 13.3396 16H13.3337Z" fill="#067647"/>
<path d="M15.9973 16C15.6291 16 15.3307 16.2985 15.3307 16.6666C15.3307 17.0348 15.6291 17.3333 15.9973 17.3333H16.0033C16.3715 17.3333 16.67 17.0348 16.67 16.6666C16.67 16.2985 16.3715 16 16.0033 16H15.9973Z" fill="#067647"/>
<path d="M18.661 16C18.2928 16 17.9943 16.2985 17.9943 16.6666C17.9943 17.0348 18.2928 17.3333 18.661 17.3333H18.667C19.0352 17.3333 19.3337 17.0348 19.3337 16.6666C19.3337 16.2985 19.0352 16 18.667 16H18.661Z" fill="#067647"/>
<path d="M13.3337 18.6666C12.9655 18.6666 12.667 18.9651 12.667 19.3333C12.667 19.7015 12.9655 20 13.3337 20H13.3396C13.7078 20 14.0063 19.7015 14.0063 19.3333C14.0063 18.9651 13.7078 18.6666 13.3396 18.6666H13.3337Z" fill="#067647"/>
<path d="M15.9973 18.6666C15.6291 18.6666 15.3307 18.9651 15.3307 19.3333C15.3307 19.7015 15.6291 20 15.9973 20H16.0033C16.3715 20 16.67 19.7015 16.67 19.3333C16.67 18.9651 16.3715 18.6666 16.0033 18.6666H15.9973Z" fill="#067647"/>
<path fill-rule="evenodd" clip-rule="evenodd" d="M12.5003 9.33331C12.5003 9.05717 12.2765 8.83331 12.0003 8.83331C11.7242 8.83331 11.5003 9.05717 11.5003 9.33331V9.75651C10.9638 9.90857 10.5113 10.1557 10.1347 10.5629C9.61608 11.1235 9.38556 11.8319 9.27516 12.7197C9.16698 13.5895 9.16699 14.7043 9.16699 16.1267V16.54C9.16699 17.9623 9.16698 19.0771 9.27516 19.947C9.38556 20.8347 9.61608 21.5431 10.1347 22.1037C10.6584 22.6699 11.3288 22.9267 12.1678 23.0486C12.9799 23.1667 14.0174 23.1667 15.3265 23.1666H16.6742C17.9833 23.1667 19.0208 23.1667 19.8328 23.0486C20.6718 22.9267 21.3422 22.6699 21.866 22.1037C22.3846 21.5431 22.6151 20.8347 22.7255 19.947C22.8337 19.0771 22.8337 17.9623 22.8337 16.5399V16.1267C22.8337 14.7043 22.8337 13.5895 22.7255 12.7197C22.6151 11.8319 22.3846 11.1235 21.866 10.5629C21.4893 10.1557 21.0368 9.90857 20.5003 9.75651V9.33331C20.5003 9.05717 20.2765 8.83331 20.0003 8.83331C19.7242 8.83331 19.5003 9.05717 19.5003 9.33331V9.57724C18.743 9.49996 17.811 9.49997 16.6742 9.49998H15.3265C14.1897 9.49997 13.2577 9.49996 12.5003 9.57724V9.33331ZM11.5194 10.8039C11.579 11.0133 11.7718 11.1666 12.0003 11.1666C12.2765 11.1666 12.5003 10.9428 12.5003 10.6666V10.583C13.2077 10.501 14.1219 10.5 15.367 10.5H16.6337C17.8787 10.5 18.793 10.501 19.5003 10.583V10.6666C19.5003 10.9428 19.7242 11.1666 20.0003 11.1666C20.2289 11.1666 20.4216 11.0133 20.4813 10.8039C20.7528 10.9119 20.959 11.055 21.1319 11.2419C21.4473 11.5829 21.634 12.0506 21.7325 12.8376C21.711 12.8348 21.6892 12.8333 21.667 12.8333H10.3337C10.3115 12.8333 10.2896 12.8348 10.2682 12.8376C10.3667 12.0506 10.5534 11.5829 10.8688 11.2419C11.0417 11.055 11.2479 10.9119 11.5194 10.8039ZM10.1937 13.8135C10.1674 14.4554 10.167 15.2242 10.167 16.1621V16.5045C10.167 17.97 10.1679 19.0226 10.2675 19.8236C10.3658 20.6139 10.5526 21.0829 10.8688 21.4247C11.1798 21.7609 11.5985 21.9554 12.3117 22.059C13.0435 22.1654 14.0082 22.1666 15.367 22.1666H16.6337C17.9924 22.1666 18.9572 22.1654 19.689 22.059C20.4021 21.9554 20.8209 21.7609 21.1319 21.4247C21.448 21.0829 21.6349 20.6139 21.7331 19.8236C21.8327 19.0226 21.8337 17.97 21.8337 16.5045V16.1621C21.8337 15.2242 21.8333 14.4554 21.8069 13.8135C21.7625 13.8264 21.7156 13.8333 21.667 13.8333H10.3337C10.2851 13.8333 10.2381 13.8264 10.1937 13.8135Z" fill="#067647"/>
</svg>
