<svg width="32" height="32" viewBox="0 0 32 32" fill="none" xmlns="http://www.w3.org/2000/svg">
<path d="M0 16C0 7.16344 7.16344 0 16 0C24.8366 0 32 7.16344 32 16C32 24.8366 24.8366 32 16 32C7.16344 32 0 24.8366 0 16Z" fill="#F3FCF6"/>
<path d="M15.4997 18C15.4997 17.7239 15.7235 17.5 15.9997 17.5L17.333 17.5C17.6091 17.5 17.833 17.7239 17.833 18C17.833 18.2761 17.6091 18.5 17.333 18.5L15.9997 18.5C15.7235 18.5 15.4997 18.2761 15.4997 18Z" fill="#067647"/>
<path d="M19.333 17.5C19.0569 17.5 18.833 17.7239 18.833 18C18.833 18.2761 19.0569 18.5 19.333 18.5L20.6663 18.5C20.9425 18.5 21.1663 18.2761 21.1663 18C21.1663 17.7239 20.9425 17.5 20.6663 17.5L19.333 17.5Z" fill="#067647"/>
<path fill-rule="evenodd" clip-rule="evenodd" d="M22.8784 12.2139C23.0541 12.2962 23.1663 12.4727 23.1663 12.6667L23.1663 21.3563C23.1664 21.493 23.1665 21.6409 23.1497 21.7657C23.13 21.9119 23.0795 22.0987 22.9223 22.2559C22.7651 22.4131 22.5783 22.4637 22.4321 22.4833C22.3072 22.5001 22.1594 22.5001 22.0227 22.5L14.7688 22.5C14.7514 22.5 14.7343 22.4991 14.7174 22.4974C14.7005 22.4991 14.6835 22.5 14.6663 22.5L10.0145 22.5C9.85848 22.5001 9.69401 22.5001 9.55723 22.4811C9.39968 22.4592 9.19362 22.4023 9.03091 22.2196C8.86734 22.0359 8.83525 21.8238 8.83312 21.6637C8.83129 21.5259 8.8522 21.3634 8.87186 21.2107L10.1737 11.0701C10.2327 10.6101 10.3329 10.1474 10.6799 9.84388C11.0257 9.54139 11.4991 9.5 11.9705 9.5C12.4419 9.5 12.9153 9.54139 13.2611 9.84388C13.6081 10.1474 13.7083 10.6101 13.7673 11.0701L14.2504 14.8332C14.616 14.8321 14.7254 14.8245 14.8238 14.7925C14.932 14.7573 15.0337 14.6903 15.4069 14.4189L18.3723 12.2623C18.5243 12.1517 18.7256 12.1358 18.8932 12.2211C19.0608 12.3065 19.1663 12.4786 19.1663 12.6667V14.5766C19.1663 14.7181 19.1666 14.8333 19.1683 14.9283C19.2424 14.8688 19.3311 14.7952 19.4397 14.7047L22.3462 12.2826C22.4953 12.1584 22.7027 12.1316 22.8784 12.2139ZM14.3788 15.8331L15.1063 21.5L21.9997 21.5C22.0657 21.5 22.1193 21.5 22.1656 21.4992C22.1663 21.4529 22.1663 21.3994 22.1663 21.3333L22.1663 13.7342L20.0537 15.4947C19.84 15.6729 19.6388 15.8406 19.4652 15.9472C19.2917 16.0536 18.984 16.2012 18.6462 16.043C18.3084 15.8848 18.2248 15.5539 18.1955 15.3525C18.1662 15.1509 18.1663 14.889 18.1663 14.6108L18.1663 13.6486L15.944 15.2649C15.6463 15.4817 15.411 15.6531 15.133 15.7435C14.9027 15.8184 14.6635 15.8311 14.3788 15.8331ZM11.3383 10.5965C11.3015 10.6288 11.2251 10.7329 11.1655 11.1974L11.1267 11.5H12.8143L12.7755 11.1974C12.7158 10.7329 12.6395 10.6288 12.6027 10.5965C12.5646 10.5633 12.4469 10.5 11.9705 10.5C11.4941 10.5 11.3764 10.5633 11.3383 10.5965ZM14.098 21.5L12.9427 12.5H10.9983L9.86695 21.313C9.85748 21.3867 9.84979 21.4468 9.844 21.499C9.89858 21.5 9.96175 21.5 10.0396 21.5H14.098Z" fill="#067647"/>
</svg>
