<svg width="32" height="32" viewBox="0 0 32 32" fill="none" xmlns="http://www.w3.org/2000/svg">
<path d="M0 16C0 7.16344 7.16344 0 16 0C24.8366 0 32 7.16344 32 16C32 24.8366 24.8366 32 16 32C7.16344 32 0 24.8366 0 16Z" fill="#F3FCF6"/>
<path d="M13.333 14.8334C13.0569 14.8334 12.833 15.0572 12.833 15.3334C12.833 15.6095 13.0569 15.8334 13.333 15.8334H15.333C15.6091 15.8334 15.833 15.6095 15.833 15.3334C15.833 15.0572 15.6091 14.8334 15.333 14.8334H13.333Z" fill="#067647"/>
<path d="M13.333 12.1667C13.0569 12.1667 12.833 12.3906 12.833 12.6667C12.833 12.9428 13.0569 13.1667 13.333 13.1667L17.9997 13.1667C18.2758 13.1667 18.4997 12.9429 18.4997 12.6667C18.4997 12.3906 18.2758 12.1667 17.9997 12.1667H13.333Z" fill="#067647"/>
<path fill-rule="evenodd" clip-rule="evenodd" d="M15.9639 8.83334H16.5437C17.6063 8.83334 18.4431 8.83333 19.1069 8.90252C19.7848 8.97317 20.3421 9.12055 20.8189 9.45649C21.0735 9.63583 21.3005 9.84922 21.4925 10.0907C21.8558 10.5474 22.016 11.0844 22.0923 11.7326C22.1664 12.3622 22.1663 13.1538 22.1663 14.1498V15.897C22.1663 16.8693 22.1663 17.6238 22.1262 18.2327C22.0855 18.8499 22.002 19.3522 21.8185 19.8151C21.2598 21.225 20.0832 22.3258 18.6064 22.8442C17.6871 23.1669 16.5592 23.1668 14.5823 23.1667L14.3405 23.1667C13.2504 23.1669 12.571 23.1671 12.0106 22.9703C11.1112 22.6546 10.3902 21.9825 10.0468 21.1161C9.93038 20.8223 9.88038 20.5104 9.85642 20.1471C9.833 19.792 9.83301 19.355 9.83301 18.8055V14.627C9.833 13.4036 9.83299 12.4314 9.94177 11.6699C10.0542 10.8825 10.2917 10.2477 10.8202 9.75029C11.3444 9.25691 12.0063 9.03891 12.828 8.93493C13.6309 8.83333 14.6586 8.83333 15.9639 8.83334ZM12.9535 9.92702C12.2321 10.0183 11.8112 10.1908 11.5056 10.4785C11.2042 10.7621 11.0267 11.1463 10.9317 11.8113C10.8342 12.4939 10.833 13.3946 10.833 14.6667V18.7879C10.833 19.3589 10.8333 19.763 10.8543 20.0813C10.875 20.3951 10.9143 20.5907 10.9765 20.7477C11.2075 21.3307 11.7012 21.8019 12.3418 22.0268C12.72 22.1595 13.2125 22.1667 14.4542 22.1667C14.6679 22.1667 14.8696 22.1666 15.0604 22.1662C15.9832 22.1339 16.7214 21.3757 16.7214 20.4451C16.7214 20.347 16.7171 20.2415 16.7116 20.1231L16.7095 20.0793C16.7047 19.976 16.6994 19.8636 16.6971 19.7515C16.6918 19.4981 16.6998 19.2024 16.7763 18.917C16.9253 18.361 17.3595 17.9267 17.9155 17.7777C18.2009 17.7013 18.4966 17.6933 18.75 17.6985C18.8621 17.7008 18.9745 17.7061 19.0777 17.711L19.1217 17.713C19.2401 17.7185 19.3455 17.7228 19.4436 17.7228C20.3948 17.7228 21.1658 16.9518 21.1658 16.0006C21.1658 15.9929 21.166 15.9853 21.1663 15.9777C21.1663 15.9451 21.1663 15.9121 21.1663 15.8788V14.1818C21.1663 13.1466 21.1655 12.4138 21.0991 11.8494C21.0341 11.2968 20.9118 10.967 20.7099 10.7132C20.5781 10.5475 20.421 10.3994 20.243 10.274C19.9649 10.078 19.6012 9.95946 19.0033 9.89714C18.3973 9.83398 17.6126 9.83334 16.5148 9.83334H15.9997C14.6507 9.83334 13.6864 9.83429 12.9535 9.92702ZM21.1302 18.1375C20.6665 18.5041 20.0806 18.7228 19.4436 18.7228C19.3198 18.7228 19.1934 18.7174 19.0753 18.712L19.0301 18.7098C18.9256 18.705 18.8273 18.7003 18.7293 18.6983C18.5022 18.6936 18.3204 18.7045 18.1743 18.7437C17.9634 18.8002 17.7987 18.9649 17.7422 19.1758C17.703 19.3219 17.6921 19.5036 17.6968 19.7307C17.6989 19.8287 17.7035 19.9271 17.7084 20.0315L17.7105 20.0768C17.716 20.1948 17.7214 20.3212 17.7214 20.4451C17.7214 21.0735 17.5085 21.6521 17.1508 22.1128C17.613 22.0749 17.9625 22.0104 18.2752 21.9007C19.4933 21.4731 20.4425 20.5731 20.8889 19.4466C21.0181 19.1206 21.0909 18.7346 21.1283 18.1669C21.129 18.1571 21.1296 18.1474 21.1302 18.1375Z" fill="#067647"/>
</svg>
