<svg width="32" height="32" viewBox="0 0 32 32" fill="none" xmlns="http://www.w3.org/2000/svg">
<path d="M0 16C0 7.16344 7.16344 0 16 0C24.8366 0 32 7.16344 32 16C32 24.8366 24.8366 32 16 32C7.16344 32 0 24.8366 0 16Z" fill="#F3FCF6"/>
<path fill-rule="evenodd" clip-rule="evenodd" d="M12.3775 11.25C12.6394 11.0183 12.9439 10.8333 13.333 10.8333C13.7221 10.8333 14.0266 11.0183 14.2886 11.25C14.5345 11.4675 14.8023 11.7811 15.1141 12.1463L16.6947 13.9971C17.0237 14.3822 17.3006 14.7065 17.4911 14.9964C17.6935 15.3042 17.833 15.623 17.833 16C17.833 16.3769 17.6935 16.6957 17.4911 17.0036C17.3006 17.2935 17.0237 17.6177 16.6947 18.0029L15.1141 19.8537C14.8023 20.2188 14.5345 20.5325 14.2886 20.75C14.0266 20.9817 13.7221 21.1666 13.333 21.1666C12.9439 21.1666 12.6394 20.9817 12.3775 20.75C12.1315 20.5325 11.8637 20.2188 11.5519 19.8537L9.9713 18.0029C9.64236 17.6177 9.36542 17.2935 9.17489 17.0036C8.97255 16.6957 8.83301 16.3769 8.83301 16C8.83301 15.623 8.97255 15.3042 9.17489 14.9964C9.36542 14.7065 9.64236 14.3822 9.9713 13.9971L11.5519 12.1463C11.8637 11.7811 12.1315 11.4675 12.3775 11.25ZM13.04 11.999C12.8531 12.1643 12.6307 12.4229 12.2893 12.8227L10.7521 14.6227C10.3974 15.038 10.1624 15.3146 10.0106 15.5456C9.86661 15.7646 9.83301 15.8913 9.83301 16C9.83301 16.1086 9.86661 16.2353 10.0106 16.4543C10.1624 16.6854 10.3974 16.9619 10.7521 17.3773L12.2893 19.1773C12.6307 19.577 12.8531 19.8356 13.04 20.001C13.217 20.1575 13.2929 20.1666 13.333 20.1666C13.3732 20.1666 13.4491 20.1575 13.626 20.001C13.8129 19.8356 14.0353 19.577 14.3767 19.1773L15.9139 17.3773C16.2686 16.9619 16.5036 16.6854 16.6555 16.4543C16.7994 16.2353 16.833 16.1086 16.833 16C16.833 15.8913 16.7994 15.7646 16.6555 15.5456C16.5036 15.3146 16.2686 15.038 15.9139 14.6227L14.3767 12.8227C14.0353 12.4229 13.8129 12.1643 13.626 11.999C13.4491 11.8425 13.3732 11.8333 13.333 11.8333C13.2929 11.8333 13.217 11.8425 13.04 11.999Z" fill="#067647"/>
<path d="M16.3543 10.9427C16.5701 10.7703 16.8847 10.8055 17.057 11.0213L19.4171 13.9762C19.7317 14.3701 19.9959 14.7008 20.1775 14.9958C20.3703 15.3091 20.4997 15.6275 20.4997 16C20.4997 16.3725 20.3703 16.6909 20.1775 17.0042C19.9959 17.2992 19.7318 17.6299 19.4172 18.0238L17.057 20.9787C16.8847 21.1945 16.5701 21.2297 16.3543 21.0573C16.1386 20.885 16.1033 20.5704 16.2757 20.3546L18.6169 17.4234C18.9554 16.9996 19.1803 16.7166 19.3258 16.4801C19.4638 16.2559 19.4997 16.1208 19.4997 16C19.4997 15.8792 19.4638 15.744 19.3258 15.5199C19.1803 15.2834 18.9554 15.0004 18.6169 14.5766L16.2757 11.6454C16.1033 11.4296 16.1386 11.115 16.3543 10.9427Z" fill="#067647"/>
<path d="M19.7237 11.0213C19.5514 10.8055 19.2368 10.7703 19.021 10.9427C18.8052 11.115 18.77 11.4296 18.9423 11.6454L21.2835 14.5766C21.622 15.0004 21.8469 15.2834 21.9925 15.5199C22.1304 15.744 22.1664 15.8792 22.1664 16C22.1664 16.1208 22.1304 16.2559 21.9925 16.4801C21.8469 16.7166 21.622 16.9996 21.2835 17.4234L18.9423 20.3546C18.77 20.5704 18.8052 20.885 19.021 21.0573C19.2368 21.2297 19.5514 21.1945 19.7237 20.9787L22.0838 18.0238C22.3984 17.6299 22.6626 17.2992 22.8441 17.0042C23.0369 16.6909 23.1664 16.3725 23.1664 16C23.1664 15.6275 23.0369 15.3091 22.8441 14.9958C22.6626 14.7008 22.3984 14.3701 22.0838 13.9762L19.7237 11.0213Z" fill="#067647"/>
</svg>
