<svg width="18" height="18" viewBox="0 0 18 18" fill="none" xmlns="http://www.w3.org/2000/svg">
<path fill-rule="evenodd" clip-rule="evenodd" d="M9.82496 13.02C10.1925 13.2375 10.5 13.3125 10.7475 13.3125L10.74 13.305C11.025 13.305 11.2275 13.2 11.355 13.11C11.58 12.945 11.94 12.525 11.73 11.61L11.4675 10.455C11.46 10.4175 11.5125 10.29 11.5125 10.29L12.4425 9.3525C12.8625 8.9325 13.02 8.44501 12.8775 8.00251C12.735 7.56751 12.3225 7.25999 11.745 7.16249L10.5525 6.96C10.515 6.9525 10.425 6.87 10.425 6.87L9.76499 5.54251C9.49499 5.00251 9.07496 4.6875 8.60996 4.6875C8.14496 4.6875 7.72498 5.00251 7.45498 5.54251L6.79498 6.87C6.77248 6.9 6.675 6.96 6.675 6.96L5.48248 7.16249C4.90498 7.25999 4.49247 7.56751 4.34997 8.00251C4.20747 8.44501 4.36497 8.9325 4.77747 9.3525L5.70747 10.29C5.72997 10.32 5.75247 10.455 5.75247 10.455L5.48998 11.6175C5.27998 12.5325 5.63999 12.945 5.87249 13.1175C6.10499 13.29 6.61498 13.5 7.40998 13.02L8.52747 12.3525C8.56497 12.3375 8.69996 12.3525 8.69996 12.3525L9.82496 13.02ZM9.28498 11.385C9.09208 11.2737 8.86248 11.2138 8.63248 11.2125C8.63499 11.2125 8.63749 11.2125 8.63999 11.2125H8.62498C8.62748 11.2125 8.62998 11.2125 8.63248 11.2125C8.40249 11.2138 8.17289 11.2737 7.97999 11.385L6.85499 12.0525C6.72749 12.1275 6.63749 12.165 6.57749 12.18C6.56999 12.12 6.57748 12.015 6.60748 11.8725L6.87747 10.71C6.96747 10.3125 6.82499 9.8025 6.53249 9.51L5.60246 8.57249C5.5218 8.48679 5.47503 8.42482 5.45304 8.39567C5.445 8.38502 5.44027 8.37875 5.4384 8.37731C5.44011 8.37671 5.44312 8.37476 5.44771 8.37179C5.47193 8.35608 5.54011 8.31187 5.6925 8.28749L6.89248 8.085C7.26748 8.0175 7.66498 7.7175 7.82998 7.38L8.48998 6.05251C8.53025 5.96749 8.57052 5.91184 8.59646 5.87599C8.61399 5.85175 8.62498 5.83657 8.62498 5.82749C8.65498 5.84999 8.71499 5.91 8.78249 6.045L9.4425 7.37249C9.615 7.72499 9.99746 8.00999 10.3875 8.07749L11.58 8.28001C11.7375 8.30251 11.82 8.3475 11.82 8.3475C11.8191 8.34921 11.8182 8.35109 11.8172 8.35313C11.8005 8.38696 11.7615 8.46598 11.6625 8.56501L10.7325 9.50251C10.44 9.79501 10.2975 10.305 10.3875 10.71L10.65 11.8725C10.68 12.0149 10.68 12.1199 10.68 12.1799C10.62 12.1649 10.53 12.1275 10.4025 12.0525L9.28498 11.385Z" fill="#384250"/>
<path fill-rule="evenodd" clip-rule="evenodd" d="M8.66788 1.3125H8.58212C6.93909 1.31249 5.64858 1.31248 4.64102 1.44795C3.60853 1.58676 2.78933 1.87704 2.14569 2.52069C1.50204 3.16433 1.21176 3.98353 1.07295 5.01602C0.937482 6.02358 0.93749 7.31409 0.9375 8.95712V9.04288C0.93749 10.6859 0.937482 11.9764 1.07295 12.984C1.21176 14.0165 1.50204 14.8357 2.14569 15.4793C2.78933 16.123 3.60853 16.4132 4.64102 16.5521C5.64858 16.6875 6.93908 16.6875 8.5821 16.6875H8.66788C10.3109 16.6875 11.6014 16.6875 12.609 16.5521C13.6415 16.4132 14.4607 16.123 15.1043 15.4793C15.748 14.8357 16.0382 14.0165 16.1771 12.984C16.3125 11.9764 16.3125 10.6859 16.3125 9.0429V8.95713C16.3125 7.31411 16.3125 6.02358 16.1771 5.01602C16.0382 3.98353 15.748 3.16433 15.1043 2.52069C14.4607 1.87704 13.6415 1.58676 12.609 1.44795C11.6014 1.31248 10.3109 1.31249 8.66788 1.3125ZM2.94118 3.31618C3.34096 2.9164 3.88318 2.68496 4.79092 2.56291C5.71485 2.4387 6.92972 2.4375 8.625 2.4375C10.3203 2.4375 11.5352 2.4387 12.4591 2.56291C13.3668 2.68496 13.909 2.9164 14.3088 3.31618C14.7086 3.71596 14.94 4.25818 15.0621 5.16592C15.1863 6.08985 15.1875 7.30472 15.1875 9C15.1875 10.6953 15.1863 11.9102 15.0621 12.8341C14.94 13.7418 14.7086 14.284 14.3088 14.6838C13.909 15.0836 13.3668 15.315 12.4591 15.4371C11.5352 15.5613 10.3203 15.5625 8.625 15.5625C6.92972 15.5625 5.71485 15.5613 4.79092 15.4371C3.88318 15.315 3.34096 15.0836 2.94118 14.6838C2.5414 14.284 2.30996 13.7418 2.18791 12.8341C2.0637 11.9102 2.0625 10.6953 2.0625 9C2.0625 7.30472 2.0637 6.08985 2.18791 5.16592C2.30996 4.25818 2.5414 3.71596 2.94118 3.31618Z" fill="#384250"/>
</svg>
