<svg width="14" height="14" viewBox="0 0 14 14" fill="none" xmlns="http://www.w3.org/2000/svg">
<path fill-rule="evenodd" clip-rule="evenodd" d="M9.1876 13.2709H10.0329C11.1511 13.2709 12.0606 12.4711 12.1037 11.4468C12.1329 10.6278 11.8115 9.8572 11.2188 9.33045C11.0816 9.21131 10.9424 9.09473 10.8074 8.98168L10.7706 8.9509C10.677 8.8725 10.5839 8.79454 10.4896 8.71442L10.4882 8.71319C9.55227 7.9253 9.03362 7.48867 8.98756 7.09629C8.98348 7.03213 8.98348 6.96791 8.98756 6.90375C9.03364 6.51116 9.55221 6.07425 10.4902 5.285L10.4909 5.28441C11.2322 4.6586 12.1539 3.88051 12.1037 2.55034C12.0606 1.52892 11.1511 0.729187 10.0335 0.729187H3.96679C2.84913 0.729187 1.93969 1.52952 1.89653 2.5521C1.84519 3.87044 2.84619 4.72154 3.51061 5.28562L3.51206 5.28685C4.44798 6.07474 4.96663 6.51137 5.01269 6.90375C5.01677 6.96791 5.01677 7.03213 5.01269 7.09629C4.96661 7.4894 4.44821 7.92565 3.50989 8.71526L3.50876 8.71621C2.7296 9.37581 1.84696 10.123 1.89653 11.4497C1.93969 12.4711 2.84913 13.2709 3.96679 13.2709H9.1876ZM9.18492 12.3964H10.0329C10.6909 12.3964 11.2054 11.9735 11.2293 11.413C11.2491 10.8582 11.0345 10.3373 10.6407 9.98727C10.5125 9.87556 10.376 9.76126 10.2434 9.65023L10.2196 9.63026C10.121 9.54801 10.0224 9.46518 9.92437 9.38234L9.92227 9.38058C8.80768 8.44253 8.1924 7.92471 8.11604 7.17793L8.1149 7.16158C8.1079 7.05424 8.1079 6.9446 8.1149 6.83727L8.11604 6.82092C8.19245 6.07425 8.80847 5.55569 9.92613 4.61536C10.7335 3.93403 11.2608 3.42416 11.2287 2.58475C11.2054 2.02591 10.6909 1.60362 10.0329 1.60362H3.96622L3.96679 1.60419C3.30879 1.60419 2.79431 2.02712 2.77039 2.58771C2.73831 3.41254 3.34202 3.9947 4.07469 4.6177C5.19119 5.55686 5.8066 6.07545 5.88302 6.82211L5.88422 6.83846C5.89122 6.9458 5.89122 7.05544 5.88422 7.16277L5.88302 7.17912C5.8066 7.92579 5.19064 8.44435 4.07298 9.38468C3.24173 10.0882 2.73889 10.5765 2.77039 11.4153C2.79372 11.9735 3.30822 12.3964 3.96622 12.3964H4.81475C4.81989 12.2293 4.8375 12.0943 4.89779 11.9572C4.90537 11.9374 4.91297 11.921 4.91881 11.9093L4.92695 11.8848L4.95088 11.8451C5.06069 11.6627 5.21333 11.5526 5.44395 11.3863L5.4654 11.3709C6.09131 10.9252 6.43548 10.6802 6.89456 10.6493C6.96106 10.6452 7.03803 10.6452 7.10278 10.6493C7.56387 10.6802 7.90846 10.9255 8.53295 11.37L8.53428 11.3709L8.54829 11.3808L8.54893 11.3813C8.7854 11.5513 8.93865 11.6616 9.0488 11.8451L9.07272 11.8848L9.08087 11.9093C9.08728 11.9222 9.09489 11.9385 9.10189 11.9572C9.16215 12.0942 9.17977 12.2292 9.18492 12.3964ZM8.31029 12.3958H5.68996L5.69053 12.3953C5.69228 12.3527 5.6952 12.3206 5.69987 12.3072L5.71098 12.2838C5.74524 12.2473 5.85234 12.1702 5.95805 12.0941L5.95946 12.0931L5.97348 12.0831C6.52006 11.6941 6.74987 11.5354 6.9517 11.522C6.98028 11.5202 7.02053 11.5202 7.04678 11.522C7.25094 11.5354 7.48081 11.6941 8.02739 12.0831L8.04255 12.0943C8.04872 12.0987 8.0549 12.1032 8.06108 12.1076C8.16004 12.1791 8.25807 12.2498 8.29046 12.2844L8.30094 12.3066C8.30561 12.3206 8.30854 12.3532 8.31029 12.3958Z" fill="#912018"/>
</svg>
