<svg width="14" height="14" viewBox="0 0 14 14" fill="none" xmlns="http://www.w3.org/2000/svg">
<path d="M6.38483 0.729187H6.41667C6.65829 0.729187 6.85417 0.925063 6.85417 1.16669C6.85417 1.40831 6.65829 1.60419 6.41667 1.60419C5.3048 1.60419 4.51332 1.60505 3.91257 1.68287C3.32279 1.75926 2.98329 1.90286 2.73697 2.14018C2.49293 2.3753 2.34696 2.6959 2.26873 3.25651C2.1885 3.83143 2.1875 4.59019 2.1875 5.66275V10.4888C2.1875 11.1768 2.18876 11.6405 2.23877 11.9656C2.28787 12.2848 2.365 12.3389 2.40691 12.3613C2.47873 12.3996 2.60969 12.4196 2.84649 12.3477C3.07939 12.277 3.35144 12.1358 3.64704 11.9491C3.9396 11.7642 4.23248 11.5495 4.51001 11.3444L4.56237 11.3057C4.81278 11.1205 5.06088 10.937 5.26349 10.815L5.28067 10.8046C5.4915 10.6776 5.677 10.5659 5.8415 10.4884C6.01965 10.4045 6.2044 10.3449 6.41667 10.3449C6.62894 10.3449 6.81369 10.4045 6.99184 10.4884C7.15634 10.5659 7.34184 10.6776 7.55267 10.8046L7.56985 10.815C7.77245 10.937 8.02056 11.1205 8.27096 11.3057L8.32333 11.3444C8.60086 11.5495 8.89374 11.7642 9.1863 11.9491C9.4819 12.1358 9.75395 12.277 9.98685 12.3477C10.2236 12.4196 10.3546 12.3996 10.4264 12.3613C10.4683 12.3389 10.5455 12.2848 10.5946 11.9656C10.6446 11.6405 10.6458 11.1768 10.6458 10.4888V7.00002C10.6458 6.7584 10.8417 6.56252 11.0833 6.56252C11.325 6.56252 11.5208 6.7584 11.5208 7.00002V10.5268C11.5209 11.167 11.5209 11.6989 11.4594 12.0987C11.3958 12.5122 11.2475 12.9147 10.8386 13.1331C10.4739 13.3278 10.0728 13.2882 9.73267 13.185C9.38868 13.0806 9.03903 12.891 8.71888 12.6887C8.3957 12.4845 8.07879 12.2517 7.80326 12.0481L7.77086 12.0241C7.50088 11.8245 7.28404 11.6642 7.11848 11.5646C6.8854 11.4242 6.73823 11.3362 6.61894 11.28C6.50883 11.2281 6.45534 11.2199 6.41667 11.2199C6.378 11.2199 6.32451 11.2281 6.2144 11.28C6.09511 11.3362 5.94794 11.4242 5.71486 11.5646C5.5493 11.6642 5.33246 11.8245 5.06249 12.0241L5.03008 12.0481C4.75455 12.2517 4.43764 12.4845 4.11446 12.6887C3.79431 12.891 3.44466 13.0806 3.10067 13.185C2.76057 13.2882 2.35944 13.3278 1.99475 13.1331C1.58583 12.9147 1.43756 12.5122 1.37394 12.0987C1.31246 11.699 1.31248 11.167 1.3125 10.5268L1.3125 5.62885C1.31249 4.59789 1.31248 3.77798 1.40213 3.13558C1.49475 2.47185 1.6905 1.93337 2.12987 1.51006C2.56697 1.08894 3.11915 0.903329 3.80017 0.815116C4.46367 0.729173 5.31189 0.729179 6.38483 0.729187Z" fill="#161616"/>
<path d="M12.5594 0.857338C12.7302 1.0282 12.7302 1.30521 12.5593 1.47606L10.8269 3.20835L12.5593 4.94065C12.7302 5.1115 12.7302 5.38851 12.5594 5.55937C12.3885 5.73023 12.1115 5.73024 11.9407 5.55939L10.2082 3.82705L8.47602 5.55912C8.30516 5.72997 8.02815 5.72996 7.8573 5.5591C7.68645 5.38824 7.68646 5.11123 7.85732 4.94038L9.58946 3.20835L7.85732 1.47632C7.68646 1.30548 7.68645 1.02847 7.8573 0.857607C8.02815 0.686747 8.30516 0.686737 8.47602 0.857586L10.2082 2.58966L11.9407 0.857318C12.1115 0.686469 12.3885 0.686478 12.5594 0.857338Z" fill="#161616"/>
</svg>
