<svg width="18" height="18" viewBox="0 0 18 18" fill="none" xmlns="http://www.w3.org/2000/svg">
<g id="elements">
<g id="Icon">
<path d="M12.7944 6.92217C13.0276 6.66772 13.0104 6.27237 12.756 6.03912C12.5015 5.80587 12.1062 5.82306 11.8729 6.07751L7.73069 10.5963L6.10893 8.97457C5.86486 8.73049 5.46913 8.73049 5.22505 8.97457C4.98097 9.21864 4.98097 9.61437 5.22505 9.85845L7.30838 11.9418C7.42893 12.0623 7.59347 12.1284 7.7639 12.1247C7.93433 12.121 8.09586 12.0478 8.21105 11.9222L12.7944 6.92217Z" fill="#067647"/>
<path fill-rule="evenodd" clip-rule="evenodd" d="M9.00033 17.9582C4.05277 17.9582 0.0419922 13.9474 0.0419922 8.99984C0.0419922 4.05229 4.05277 0.0415039 9.00033 0.0415039C13.9479 0.0415039 17.9587 4.05229 17.9587 8.99984C17.9587 13.9474 13.9479 17.9582 9.00033 17.9582ZM1.29199 8.99984C1.29199 13.257 4.74313 16.7082 9.00033 16.7082C13.2575 16.7082 16.7087 13.257 16.7087 8.99984C16.7087 4.74264 13.2575 1.2915 9.00033 1.2915C4.74313 1.2915 1.29199 4.74264 1.29199 8.99984Z" fill="#067647"/>
</g>
</g>
</svg>
