<svg width="20" height="20" viewBox="0 0 20 20" fill="none" xmlns="http://www.w3.org/2000/svg">
<g id="Feedback Icon">
<path id="bg" fill-rule="evenodd" clip-rule="evenodd" d="M10.0007 19.1668C15.0633 19.1668 19.1673 15.0628 19.1673 10.0002C19.1673 4.93755 15.0633 0.833496 10.0007 0.833496C4.93804 0.833496 0.833984 4.93755 0.833984 10.0002C0.833984 15.0628 4.93804 19.1668 10.0007 19.1668Z" fill="white"/>
<path id="Icon" fill-rule="evenodd" clip-rule="evenodd" d="M10.0007 19.1668C15.0633 19.1668 19.1673 15.0628 19.1673 10.0002C19.1673 4.93755 15.0633 0.833496 10.0007 0.833496C4.93804 0.833496 0.833984 4.93755 0.833984 10.0002C0.833984 15.0628 4.93804 19.1668 10.0007 19.1668ZM5.87583 9.26793C5.5504 9.59337 5.5504 10.121 5.87583 10.4464L8.23285 12.8035C8.55829 13.1289 9.08593 13.1289 9.41137 12.8035L14.1254 8.08942C14.4508 7.76398 14.4508 7.23634 14.1254 6.91091C13.8 6.58547 13.2723 6.58547 12.9469 6.91091L8.82211 11.0357L7.05434 9.26793C6.72891 8.94249 6.20127 8.94249 5.87583 9.26793Z" fill="#067647"/>
</g>
</svg>
