<svg width="16" height="16" viewBox="0 0 16 16" fill="none" xmlns="http://www.w3.org/2000/svg">
<path d="M4.22079 8.31905C3.97297 8.19722 3.67332 8.29936 3.55149 8.54717C3.42966 8.79499 3.5318 9.09464 3.77961 9.21647L5.11295 9.87194C5.36076 9.99376 5.66042 9.89163 5.78224 9.64381C5.90407 9.396 5.80194 9.09634 5.55412 8.97451L4.22079 8.31905Z" fill="#161616"/>
<path fill-rule="evenodd" clip-rule="evenodd" d="M5.215 3.78474C5.46436 3.66611 5.57034 3.36779 5.45171 3.11843C5.33308 2.86907 5.03477 2.76308 4.7854 2.88171L3.35248 3.56339C2.84887 3.80294 2.42154 4.00621 2.12439 4.20353C1.82892 4.39974 1.5002 4.69439 1.5002 5.16298L1.5002 11.4952C1.5002 12.2385 2.05111 12.7287 2.71896 13.1227C3.39766 13.5231 4.3961 13.9377 5.65819 14.4619L5.79792 14.5199C6.7452 14.9136 7.35381 15.1666 8.0002 15.1666C8.64658 15.1666 9.25518 14.9136 10.2025 14.5199L10.3421 14.4619C11.6043 13.9378 12.6027 13.5231 13.2815 13.1227C13.9493 12.7287 14.5002 12.2385 14.5002 11.4952L14.5002 5.16298C14.5002 4.69439 14.1715 4.39974 13.876 4.20353C13.5789 4.00622 13.1516 3.80297 12.648 3.56344L11.215 2.88171C10.9656 2.76309 10.6673 2.86907 10.5487 3.11843C10.4301 3.36779 10.536 3.66611 10.7854 3.78474L12.1823 4.44926C12.7318 4.71067 13.0927 4.88375 13.3228 5.03659C13.4116 5.09552 13.4589 5.13723 13.4832 5.16298C13.4589 5.18873 13.4116 5.23044 13.3228 5.28938C13.0927 5.44221 12.7317 5.61529 12.1823 5.8767L10.2348 6.80318C8.99042 7.39517 8.50748 7.61236 8.0002 7.61236C7.49293 7.61236 7.00998 7.39518 5.76561 6.80318L3.81814 5.8767C3.26864 5.61529 2.90774 5.44221 2.67758 5.28938C2.58883 5.23043 2.54153 5.18873 2.51715 5.16298C2.54153 5.13723 2.58882 5.09553 2.67758 5.03659C2.90774 4.88375 3.26865 4.71067 3.81814 4.44926L5.215 3.78474ZM2.5002 11.4952L2.5002 6.3429C2.74448 6.47337 3.03318 6.61069 3.35255 6.7626L5.44476 7.75796C6.29888 8.1646 6.91145 8.45623 7.5002 8.56523L7.5002 14.0935C7.1798 14.0071 6.76367 13.8382 6.08326 13.5556C4.77079 13.0105 3.83805 12.6218 3.22708 12.2614C2.59784 11.8902 2.5002 11.658 2.5002 11.4952ZM8.5002 14.0935L8.5002 8.56523C9.08894 8.45623 9.7015 8.1646 10.5556 7.75797L12.648 6.76254C12.9673 6.61065 13.256 6.47334 13.5002 6.34289L13.5002 11.4952C13.5002 11.658 13.4026 11.8902 12.7733 12.2614C12.1624 12.6218 11.2296 13.0105 9.91717 13.5556C9.23675 13.8382 8.8206 14.0071 8.5002 14.0935Z" fill="#161616"/>
<path d="M9.71711 5.02832C9.89424 4.81647 9.86609 4.50114 9.65424 4.32401C9.44239 4.14689 9.12706 4.17503 8.94993 4.38688L8.50267 4.92183L8.50267 1.33311C8.50267 1.05697 8.27881 0.83311 8.00267 0.83311C7.72652 0.83311 7.50267 1.05697 7.50267 1.33311L7.50267 4.92463L7.04953 4.38579C6.8718 4.17445 6.55639 4.1472 6.34505 4.32493C6.1337 4.50266 6.10645 4.81807 6.28418 5.02941L7.14397 6.05181C7.14937 6.05824 7.15493 6.06452 7.16065 6.07066C7.31746 6.23913 7.61227 6.49451 7.9959 6.4997C8.39587 6.50511 8.69836 6.24287 8.85903 6.05461L9.71711 5.02832Z" fill="#161616"/>
</svg>
