<svg width="40" height="40" viewBox="0 0 40 40" fill="none" xmlns="http://www.w3.org/2000/svg">
<path d="M0 20C0 8.95431 8.95431 0 20 0C31.0457 0 40 8.95431 40 20C40 31.0457 31.0457 40 20 40C8.95431 40 0 31.0457 0 20Z" fill="#F3FCF6"/>
<path d="M15.7872 12.7081C16.8062 12.7081 17.1539 12.7176 17.4469 12.8275C18.1364 13.086 18.439 13.6912 18.9004 14.6141L18.9891 14.7914H15.8337C15.4885 14.7914 15.2087 15.0712 15.2087 15.4164C15.2087 15.7616 15.4885 16.0414 15.8337 16.0414H19.9878C19.9964 16.0416 20.0051 16.0416 20.0139 16.0414H23.9587C24.8495 16.0414 25.4705 16.0422 25.9493 16.0909C26.4175 16.1385 26.6799 16.2268 26.8754 16.3574C27.0801 16.4942 27.2559 16.67 27.3927 16.8747C27.515 17.0578 27.6087 17.3593 27.6586 17.8993C27.7081 18.4338 27.7087 19.1111 27.7087 19.9997C27.7087 20.3449 27.9885 20.6247 28.3337 20.6247C28.6788 20.6247 28.9587 20.3449 28.9587 19.9997V19.9722C28.9587 19.1171 28.9587 18.3828 28.9033 17.7842C28.8479 17.1846 28.731 16.6278 28.432 16.1802C28.204 15.839 27.911 15.5461 27.5698 15.3181C27.1347 15.0273 26.6429 14.905 26.0758 14.8473C25.5263 14.7914 24.8415 14.7914 23.9924 14.7914L20.3866 14.7914L20.0315 14.0812C20.0055 14.0293 19.9792 13.9761 19.9524 13.9217C19.559 13.1258 19.0487 12.0931 17.8858 11.657C17.3534 11.4574 16.7604 11.4577 15.9025 11.458L15.7583 11.4581C15.026 11.4581 14.4354 11.4581 13.9584 11.5001C13.467 11.5434 13.0369 11.6351 12.6441 11.8542C12.1381 12.1366 11.7206 12.5542 11.4382 13.0602C11.219 13.453 11.1273 13.883 11.084 14.3745C11.042 14.8514 11.042 15.442 11.042 16.1743V18.7976C11.042 20.7212 11.042 22.2287 11.2001 23.405C11.362 24.6089 11.6998 25.559 12.4454 26.3046C13.1064 26.9656 13.929 27.307 14.9495 27.4885C15.9519 27.6669 17.199 27.6995 18.7476 27.7063C19.0928 27.7079 19.3738 27.4293 19.3753 27.0841C19.3768 26.7389 19.0982 26.4579 18.7531 26.4564C17.1918 26.4495 16.0492 26.4146 15.1684 26.2579C14.3057 26.1044 13.7518 25.8432 13.3293 25.4207C12.8546 24.946 12.5822 24.3038 12.439 23.2384C12.2933 22.1551 12.292 20.7316 12.292 18.7497V16.2033C12.292 15.4353 12.2926 14.8999 12.3292 14.4842C12.3651 14.0769 12.4319 13.8445 12.5297 13.6694C12.6991 13.3657 12.9497 13.1152 13.2533 12.9458C13.4284 12.848 13.6608 12.7812 14.0682 12.7453C14.4838 12.7086 15.0192 12.7081 15.7872 12.7081Z" fill="#067647"/>
<path d="M21.667 22.2913C21.3218 22.2913 21.042 22.5712 21.042 22.9163C21.042 23.2615 21.3218 23.5413 21.667 23.5413H28.3337C28.6788 23.5413 28.9587 23.2615 28.9587 22.9163C28.9587 22.5712 28.6788 22.2913 28.3337 22.2913H21.667Z" fill="#067647"/>
<path d="M21.667 24.7913C21.3218 24.7913 21.042 25.0712 21.042 25.4163C21.042 25.7615 21.3218 26.0413 21.667 26.0413H28.3337C28.6788 26.0413 28.9587 25.7615 28.9587 25.4163C28.9587 25.0712 28.6788 24.7913 28.3337 24.7913H21.667Z" fill="#067647"/>
<path d="M21.6671 27.2912C21.3219 27.2912 21.0421 27.571 21.0421 27.9161C21.0421 28.2613 21.3219 28.5412 21.6671 28.5412L25.0003 28.5413C25.3455 28.5414 25.6253 28.2616 25.6253 27.9164C25.6253 27.5712 25.3455 27.2914 25.0004 27.2913L21.6671 27.2912Z" fill="#067647"/>
</svg>
