<svg width="24" height="24" viewBox="0 0 24 24" fill="none" xmlns="http://www.w3.org/2000/svg">
<path d="M2.75 11.9646C2.75 6.87801 6.88885 2.75 12 2.75C17.1111 2.75 21.25 6.87801 21.25 11.9646C21.25 13.2938 20.9679 14.5555 20.4608 15.6951C20.2924 16.0735 20.4626 16.5168 20.8411 16.6852C21.2195 16.8536 21.6628 16.6834 21.8312 16.3049C22.4221 14.9772 22.75 13.5081 22.75 11.9646C22.75 6.04456 17.9345 1.25 12 1.25C6.06545 1.25 1.25 6.04456 1.25 11.9646C1.25 13.5081 1.57793 14.9772 2.16879 16.3049C2.33721 16.6834 2.78051 16.8536 3.15894 16.6852C3.53737 16.5168 3.70763 16.0735 3.53921 15.6951C3.03208 14.5555 2.75 13.2938 2.75 11.9646Z" fill="#067647"/>
<path fill-rule="evenodd" clip-rule="evenodd" d="M7.75 10C7.75 7.65279 9.65279 5.75 12 5.75C14.3472 5.75 16.25 7.65279 16.25 10C16.25 12.3472 14.3472 14.25 12 14.25C9.65279 14.25 7.75 12.3472 7.75 10ZM12 7.25C10.4812 7.25 9.25 8.48122 9.25 10C9.25 11.5188 10.4812 12.75 12 12.75C13.5188 12.75 14.75 11.5188 14.75 10C14.75 8.48122 13.5188 7.25 12 7.25Z" fill="#067647"/>
<path fill-rule="evenodd" clip-rule="evenodd" d="M16.5911 16.4608C16.6765 16.5098 16.7839 16.5682 16.9068 16.635C17.4592 16.9352 18.3255 17.406 18.9182 17.9654C19.2872 18.3138 19.669 18.7999 19.7391 19.4182C19.8149 20.0872 19.5068 20.6913 18.9533 21.1997C18.0243 22.0532 16.8947 22.75 15.4295 22.75H8.57089C7.10575 22.75 5.97614 22.0532 5.04711 21.1997C4.49363 20.6913 4.18554 20.0872 4.26137 19.4182C4.33146 18.7999 4.7132 18.3138 5.08224 17.9654C5.67492 17.406 6.54125 16.9352 7.09358 16.635C7.21655 16.5682 7.32397 16.5098 7.40932 16.4608C10.2209 14.8464 13.7795 14.8464 16.5911 16.4608ZM15.8442 17.7616C13.4951 16.4128 10.5053 16.4128 8.15622 17.7616C8.01905 17.8404 7.87117 17.9213 7.71801 18.0052C7.16588 18.3074 6.5453 18.6472 6.11183 19.0563C5.84169 19.3113 5.76287 19.4898 5.75183 19.5872C5.74654 19.6338 5.73677 19.7964 6.0619 20.0951C6.84966 20.8188 7.63211 21.25 8.57089 21.25H15.4295C16.3683 21.25 17.1508 20.8188 17.9385 20.0951C18.2637 19.7964 18.2539 19.6338 18.2486 19.5872C18.2376 19.4898 18.1587 19.3113 17.8886 19.0563C17.4551 18.6472 16.8346 18.3074 16.2824 18.0052C16.1293 17.9213 15.9814 17.8403 15.8442 17.7616Z" fill="#067647"/>
</svg>
