<svg width="12" height="14" viewBox="0 0 12 14" fill="none" xmlns="http://www.w3.org/2000/svg">
<g id="elements">
<g id="Icon">
<path fill-rule="evenodd" clip-rule="evenodd" d="M5.99976 0.729187C4.30838 0.729187 2.93726 2.10031 2.93726 3.79169C2.93726 5.48306 4.30838 6.85419 5.99976 6.85419C7.69113 6.85419 9.06226 5.48306 9.06226 3.79169C9.06226 2.10031 7.69113 0.729187 5.99976 0.729187ZM3.81226 3.79169C3.81226 2.58356 4.79163 1.60419 5.99976 1.60419C7.20788 1.60419 8.18726 2.58356 8.18726 3.79169C8.18726 4.99981 7.20788 5.97919 5.99976 5.97919C4.79163 5.97919 3.81226 4.99981 3.81226 3.79169Z" fill="#161616"/>
<path fill-rule="evenodd" clip-rule="evenodd" d="M9.63325 8.79622C9.53839 8.7427 9.4546 8.69543 9.38677 8.65504C7.31358 7.42057 4.68614 7.42057 2.61295 8.65504C2.5451 8.69544 2.46129 8.74272 2.3664 8.79625C1.95059 9.03084 1.32204 9.38545 0.891445 9.80692C0.622139 10.0705 0.366257 10.4179 0.319739 10.8435C0.270269 11.296 0.467706 11.7207 0.863799 12.0981C1.54714 12.7491 2.36719 13.2709 3.42787 13.2709H8.57185C9.63253 13.2709 10.4526 12.7491 11.1359 12.0981C11.532 11.7207 11.7294 11.296 11.68 10.8435C11.6335 10.4179 11.3776 10.0705 11.1083 9.80692C10.6777 9.38545 10.0491 9.0308 9.63325 8.79622ZM3.06061 9.40685C4.85796 8.33663 7.14176 8.33663 8.93911 9.40685C9.03704 9.46516 9.14435 9.52605 9.25676 9.58982C9.67245 9.82565 10.1578 10.101 10.4962 10.4322C10.7063 10.6379 10.7958 10.8075 10.8102 10.9385C10.8215 11.0426 10.7952 11.2142 10.5324 11.4646C9.92811 12.0403 9.31411 12.3959 8.57185 12.3959H3.42787C2.6856 12.3959 2.0716 12.0403 1.46736 11.4646C1.20449 11.2142 1.17818 11.0426 1.18956 10.9385C1.20388 10.8075 1.29343 10.6379 1.50351 10.4322C1.84189 10.101 2.32724 9.82566 2.74293 9.58983C2.85531 9.52607 2.96269 9.46516 3.06061 9.40685Z" fill="#161616"/>
</g>
</g>
</svg>
