<svg width="16" height="16" viewBox="0 0 16 16" fill="none" xmlns="http://www.w3.org/2000/svg">
<path fill-rule="evenodd" clip-rule="evenodd" d="M8.00033 2.1665C6.43552 2.1665 5.16699 3.43503 5.16699 4.99984C5.16699 6.56464 6.43552 7.83317 8.00033 7.83317C9.56513 7.83317 10.8337 6.56464 10.8337 4.99984C10.8337 3.43503 9.56513 2.1665 8.00033 2.1665ZM6.16699 4.99984C6.16699 3.98732 6.9878 3.1665 8.00033 3.1665C9.01285 3.1665 9.83366 3.98732 9.83366 4.99984C9.83366 6.01236 9.01285 6.83317 8.00033 6.83317C6.9878 6.83317 6.16699 6.01236 6.16699 4.99984Z" fill="#161616"/>
<path d="M3.66702 3.49984C2.4704 3.49984 1.50035 4.46989 1.50035 5.6665C1.50035 6.86312 2.4704 7.83317 3.66702 7.83317C3.94316 7.83317 4.16702 7.60931 4.16702 7.33317C4.16702 7.05703 3.94316 6.83317 3.66702 6.83317C3.02269 6.83317 2.50035 6.31084 2.50035 5.6665C2.50035 5.02217 3.02269 4.49984 3.66702 4.49984C3.94316 4.49984 4.16702 4.27598 4.16702 3.99984C4.16702 3.72369 3.94316 3.49984 3.66702 3.49984Z" fill="#161616"/>
<path d="M3.83165 8.62145C3.80677 8.34643 3.56366 8.14366 3.28864 8.16854C2.66295 8.22514 2.05459 8.46585 1.51839 8.87875C1.4875 8.90254 1.4468 8.93215 1.39898 8.96694C1.17186 9.13217 0.784056 9.41429 0.522715 9.74511C0.355727 9.95649 0.199567 10.2331 0.171452 10.5658C0.142007 10.9141 0.258791 11.2525 0.509163 11.561C0.892398 12.0332 1.41826 12.4998 2.15099 12.4998C2.42714 12.4998 2.65099 12.276 2.65099 11.9998C2.65099 11.7237 2.42714 11.4998 2.15099 11.4998C1.88465 11.4998 1.61587 11.3378 1.28561 10.9308C1.17083 10.7894 1.16363 10.7005 1.1679 10.65C1.1735 10.5837 1.20875 10.4899 1.30741 10.365C1.47357 10.1547 1.70649 9.98346 1.93289 9.81706C1.99928 9.76827 2.0651 9.71989 2.12851 9.67106C2.52209 9.36798 2.95187 9.20309 3.37874 9.16447C3.65376 9.13959 3.85653 8.89647 3.83165 8.62145Z" fill="#161616"/>
<path d="M12.0003 3.49984C11.7242 3.49984 11.5003 3.72369 11.5003 3.99984C11.5003 4.27598 11.7242 4.49984 12.0003 4.49984C12.6447 4.49984 13.167 5.02217 13.167 5.6665C13.167 6.31084 12.6447 6.83317 12.0003 6.83317C11.7242 6.83317 11.5003 7.05703 11.5003 7.33317C11.5003 7.60931 11.7242 7.83317 12.0003 7.83317C13.1969 7.83317 14.167 6.86312 14.167 5.6665C14.167 4.46989 13.1969 3.49984 12.0003 3.49984Z" fill="#161616"/>
<path d="M12.712 8.16854C12.437 8.14366 12.1939 8.34643 12.169 8.62145C12.1441 8.89647 12.3469 9.13959 12.6219 9.16447C13.0488 9.20309 13.4786 9.36798 13.8722 9.67106C13.9356 9.71988 14.0014 9.76825 14.0677 9.81703C14.2941 9.98343 14.5271 10.1547 14.6933 10.365C14.7919 10.4899 14.8272 10.5837 14.8328 10.65C14.8371 10.7005 14.8299 10.7894 14.7151 10.9308C14.3848 11.3378 14.116 11.4998 13.8497 11.4998C13.5735 11.4998 13.3497 11.7237 13.3497 11.9998C13.3497 12.276 13.5735 12.4998 13.8497 12.4998C14.5824 12.4998 15.1083 12.0332 15.4915 11.561C15.7419 11.2525 15.8587 10.9141 15.8292 10.5658C15.8011 10.2331 15.645 9.95649 15.478 9.74511C15.2166 9.41429 14.8289 9.13222 14.6018 8.96699C14.554 8.9322 14.5132 8.90254 14.4823 8.87875C13.9461 8.46585 13.3377 8.22514 12.712 8.16854Z" fill="#161616"/>
<path fill-rule="evenodd" clip-rule="evenodd" d="M5.12667 9.6487C6.88518 8.56133 9.11566 8.56133 10.8742 9.6487C10.926 9.68074 10.9916 9.71915 11.0671 9.76329C11.4086 9.96312 11.9508 10.2804 12.3207 10.6564C12.5531 10.8926 12.7848 11.2146 12.8271 11.616C12.8723 12.0454 12.69 12.4429 12.3423 12.7869C11.7679 13.3552 11.0563 13.8332 10.1233 13.8332H5.87751C4.94454 13.8332 4.23298 13.3552 3.65857 12.7869C3.31086 12.4429 3.12859 12.0454 3.17379 11.616C3.21604 11.2146 3.44777 10.8926 3.68012 10.6564C4.05006 10.2804 4.59218 9.96317 4.9337 9.76333C5.00915 9.71918 5.07482 9.68076 5.12667 9.6487ZM10.3483 10.4992C8.91204 9.61115 7.08881 9.61115 5.65259 10.4992C5.56637 10.5525 5.47393 10.607 5.37855 10.6633C5.0373 10.8645 4.65846 11.0879 4.39298 11.3577C4.22965 11.5237 4.17627 11.6449 4.1683 11.7206C4.16328 11.7683 4.16569 11.8819 4.36188 12.076C4.85024 12.5592 5.32234 12.8332 5.87751 12.8332H10.1233C10.6785 12.8332 11.1506 12.5592 11.639 12.076C11.8352 11.8819 11.8376 11.7683 11.8325 11.7206C11.8246 11.6449 11.7712 11.5237 11.6079 11.3577C11.3424 11.0879 10.9636 10.8645 10.6223 10.6633C10.5269 10.6071 10.4345 10.5525 10.3483 10.4992Z" fill="#161616"/>
</svg>
