<svg width="36" height="36" viewBox="0 0 36 36" fill="none" xmlns="http://www.w3.org/2000/svg">
<path d="M5.25019 21C3.54769 21 2.02219 22.011 1.45219 23.5155C1.30519 23.904 0.873191 24.0945 0.484691 23.952C0.0976907 23.805 -0.0973093 23.3715 0.0481907 22.9845C0.838691 20.8995 2.92819 19.5 5.25019 19.5C7.57219 19.5 9.66169 20.901 10.4522 22.9845C10.5992 23.3715 10.4042 23.805 10.0157 23.952C9.92719 23.9835 9.83869 24 9.75019 24C9.44719 24 9.16219 23.8155 9.04819 23.5155C8.47819 22.011 6.95269 21 5.25019 21ZM15.0002 3C15.0002 1.3455 16.3457 0 18.0002 0C19.6547 0 21.0002 1.3455 21.0002 3C21.0002 4.6545 19.6547 6 18.0002 6C16.3457 6 15.0002 4.6545 15.0002 3ZM16.5002 3C16.5002 3.828 17.1737 4.5 18.0002 4.5C18.8267 4.5 19.5002 3.828 19.5002 3C19.5002 2.172 18.8267 1.5 18.0002 1.5C17.1737 1.5 16.5002 2.172 16.5002 3ZM24.7502 4.5H27.7502C29.8172 4.5 31.5002 6.1815 31.5002 8.25C31.5002 8.664 31.8362 9 32.2502 9C32.6642 9 33.0002 8.664 33.0002 8.25C33.0002 5.355 30.6452 3 27.7502 3H24.7502C24.3362 3 24.0002 3.336 24.0002 3.75C24.0002 4.164 24.3362 4.5 24.7502 4.5ZM33.7502 15C33.7502 16.6545 32.4047 18 30.7502 18C29.0957 18 27.7502 16.6545 27.7502 15C27.7502 13.3455 29.0957 12 30.7502 12C32.4047 12 33.7502 13.3455 33.7502 15ZM32.2502 15C32.2502 14.172 31.5767 13.5 30.7502 13.5C29.9237 13.5 29.2502 14.172 29.2502 15C29.2502 15.828 29.9237 16.5 30.7502 16.5C31.5767 16.5 32.2502 15.828 32.2502 15ZM18.0002 30C16.3457 30 15.0002 28.6545 15.0002 27C15.0002 25.3455 16.3457 24 18.0002 24C19.6547 24 21.0002 25.3455 21.0002 27C21.0002 28.6545 19.6547 30 18.0002 30ZM18.0002 28.5C18.8267 28.5 19.5002 27.828 19.5002 27C19.5002 26.172 18.8267 25.5 18.0002 25.5C17.1737 25.5 16.5002 26.172 16.5002 27C16.5002 27.828 17.1737 28.5 18.0002 28.5ZM18.0002 7.5C15.6797 7.5 13.5887 8.901 12.7982 10.9845C12.6512 11.3715 12.8462 11.805 13.2347 11.952C13.6217 12.096 14.0537 11.904 14.2022 11.5155C14.7722 10.011 16.2977 9 18.0002 9C19.7027 9 21.2282 10.011 21.7982 11.5155C21.9122 11.8155 22.1972 12 22.5002 12C22.5887 12 22.6787 11.9835 22.7657 11.952C23.1527 11.805 23.3477 11.3715 23.2022 10.9845C22.4117 8.8995 20.3222 7.5 18.0002 7.5ZM5.25019 18C3.59569 18 2.25019 16.6545 2.25019 15C2.25019 13.3455 3.59569 12 5.25019 12C6.90469 12 8.25019 13.3455 8.25019 15C8.25019 16.6545 6.90469 18 5.25019 18ZM5.25019 16.5C6.07669 16.5 6.75019 15.828 6.75019 15C6.75019 14.172 6.07669 13.5 5.25019 13.5C4.42369 13.5 3.75019 14.172 3.75019 15C3.75019 15.828 4.42369 16.5 5.25019 16.5ZM35.9522 22.9845C35.1617 20.8995 33.0722 19.5 30.7502 19.5C28.4282 19.5 26.3387 20.901 25.5482 22.9845C25.4012 23.3715 25.5962 23.805 25.9847 23.952C26.3732 24.0945 26.8052 23.904 26.9522 23.5155C27.5222 22.011 29.0477 21 30.7502 21C32.4527 21 33.9782 22.011 34.5482 23.5155C34.6622 23.8155 34.9472 24 35.2502 24C35.3387 24 35.4287 23.9835 35.5157 23.952C35.9027 23.805 36.0977 23.3715 35.9522 22.9845ZM32.2502 25.5C31.8362 25.5 31.5002 25.836 31.5002 26.25V27.75C31.5002 29.8185 29.8172 31.5 27.7502 31.5H24.7502C24.3362 31.5 24.0002 31.836 24.0002 32.25C24.0002 32.664 24.3362 33 24.7502 33H27.7502C30.6452 33 33.0002 30.645 33.0002 27.75V26.25C33.0002 25.836 32.6642 25.5 32.2502 25.5ZM11.2502 31.5H8.25019C6.18319 31.5 4.50019 29.8185 4.50019 27.75V26.25C4.50019 25.836 4.16419 25.5 3.75019 25.5C3.33619 25.5 3.00019 25.836 3.00019 26.25V27.75C3.00019 30.645 5.35519 33 8.25019 33H11.2502C11.6642 33 12.0002 32.664 12.0002 32.25C12.0002 31.836 11.6642 31.5 11.2502 31.5ZM11.2502 3H8.25019C5.35519 3 3.00019 5.355 3.00019 8.25C3.00019 8.664 3.33619 9 3.75019 9C4.16419 9 4.50019 8.664 4.50019 8.25C4.50019 6.1815 6.18319 4.5 8.25019 4.5H11.2502C11.6642 4.5 12.0002 4.164 12.0002 3.75C12.0002 3.336 11.6642 3 11.2502 3ZM18.0002 31.5C15.6797 31.5 13.5887 32.901 12.7982 34.9845C12.6512 35.3715 12.8462 35.805 13.2347 35.952C13.6217 36.096 14.0537 35.904 14.2022 35.5155C14.7722 34.011 16.2977 33 18.0002 33C19.7027 33 21.2282 34.011 21.7982 35.5155C21.9122 35.8155 22.1972 36 22.5002 36C22.5887 36 22.6787 35.9835 22.7657 35.952C23.1527 35.805 23.3477 35.3715 23.2022 34.9845C22.4117 32.8995 20.3222 31.5 18.0002 31.5Z" fill="#0091B4"/>
</svg>
