<svg width="33" height="33" viewBox="0 0 33 33" fill="none" xmlns="http://www.w3.org/2000/svg">
<path d="M31.755 21.3776H30.495L30.531 21.2636C32.268 15.4751 32.451 9.60262 31.0755 3.81262C30.6945 2.20462 29.3745 0.982125 27.792 0.770625C20.1345 -0.256875 12.3705 -0.256875 4.713 0.770625C3.1305 0.982125 1.8105 2.20462 1.4295 3.81262C0.0510001 9.61762 0.2385 15.5021 1.9845 21.2981L2.0055 21.3776H0.75C0.336 21.3776 0 21.7136 0 22.1276C0 22.5416 0.336 22.8776 0.75 22.8776H15.504V27.9476C13.932 27.9806 12.363 28.1171 10.803 28.3586C10.521 28.4021 10.287 28.6031 10.2015 28.8746L10.095 29.2136C9.7455 30.3146 9.5535 30.9221 9.5835 32.2661C9.5925 32.6786 9.924 33.0011 10.3515 32.9981C10.7655 32.9891 11.094 32.6456 11.0835 32.2301C11.0595 31.1726 11.1765 30.7646 11.49 29.7731C14.6535 29.3276 17.853 29.3276 21.018 29.7731C21.3315 30.7646 21.45 31.1726 21.4245 32.2301C21.4155 32.6441 21.7425 32.9876 22.1565 32.9981H22.1745C22.581 32.9981 22.9155 32.6741 22.9245 32.2661C22.956 30.9221 22.7625 30.3161 22.413 29.2136L22.3065 28.8746C22.221 28.6016 21.9885 28.4021 21.705 28.3586C20.145 28.1171 18.5745 27.9806 17.004 27.9476V22.8776H31.755C32.169 22.8776 32.505 22.5416 32.505 22.1276C32.505 21.7136 32.169 21.3776 31.755 21.3776ZM3.423 20.8721C1.752 15.3266 1.5735 9.70312 2.8905 4.15912C3.1305 3.15262 3.9435 2.38762 4.914 2.25712C12.4395 1.24763 20.07 1.24763 27.594 2.25712C28.5645 2.38613 29.3775 3.15112 29.6175 4.15912C30.9315 9.68962 30.756 15.2996 29.097 20.8256L28.9215 21.3761H3.561L3.423 20.8706V20.8721Z" fill="#0091B4"/>
</svg>
