<svg width="24" height="24" viewBox="0 0 24 24" fill="none" xmlns="http://www.w3.org/2000/svg">
<g id="Vector">
<g id="Vector_2">
<mask id="path-1-inside-1_478_1743" fill="white">
<path d="M3.50009 14C2.3651 14 1.34811 14.674 0.968117 15.677C0.870118 15.936 0.582121 16.063 0.323124 15.968C0.0651264 15.87 -0.0648722 15.581 0.0321268 15.323C0.559121 13.933 1.95211 13 3.50009 13C5.04807 13 6.44106 13.934 6.96805 15.323C7.06605 15.581 6.93605 15.87 6.67706 15.968C6.61806 15.989 6.55906 16 6.50006 16C6.29806 16 6.10806 15.877 6.03206 15.677C5.65207 14.674 4.63508 14 3.50009 14ZM10 2C10 0.897 10.897 0 12 0C13.103 0 14 0.897 14 2C14 3.103 13.103 4 12 4C10.897 4 10 3.103 10 2ZM11 2C11 2.552 11.449 3 12 3C12.551 3 13 2.552 13 2C13 1.448 12.551 1 12 1C11.449 1 11 1.448 11 2ZM16.5 3H18.4999C19.8779 3 20.9999 4.121 20.9999 5.5C20.9999 5.776 21.2239 6 21.4999 6C21.7759 6 21.9999 5.776 21.9999 5.5C21.9999 3.57 20.4299 2 18.4999 2H16.5C16.224 2 16 2.224 16 2.5C16 2.776 16.224 3 16.5 3ZM22.4999 10C22.4999 11.103 21.6029 12 20.4999 12C19.3969 12 18.4999 11.103 18.4999 10C18.4999 8.897 19.3969 8 20.4999 8C21.6029 8 22.4999 8.897 22.4999 10ZM21.4999 10C21.4999 9.448 21.0509 9 20.4999 9C19.9489 9 19.4999 9.448 19.4999 10C19.4999 10.552 19.9489 11 20.4999 11C21.0509 11 21.4999 10.552 21.4999 10ZM12 20C10.897 20 10 19.103 10 18C10 16.897 10.897 16 12 16C13.103 16 14 16.897 14 18C14 19.103 13.103 20 12 20ZM12 19C12.551 19 13 18.552 13 18C13 17.448 12.551 17 12 17C11.449 17 11 17.448 11 18C11 18.552 11.449 19 12 19ZM12 5C10.453 5 9.05903 5.934 8.53204 7.323C8.43404 7.581 8.56404 7.87 8.82303 7.968C9.08103 8.064 9.36903 7.936 9.46803 7.677C9.84802 6.674 10.865 6 12 6C13.135 6 14.152 6.674 14.532 7.677C14.608 7.877 14.798 8 15 8C15.059 8 15.119 7.989 15.177 7.968C15.435 7.87 15.565 7.581 15.468 7.323C14.941 5.933 13.548 5 12 5ZM3.50009 12C2.3971 12 1.50011 11.103 1.50011 10C1.50011 8.897 2.3971 8 3.50009 8C4.60308 8 5.50007 8.897 5.50007 10C5.50007 11.103 4.60308 12 3.50009 12ZM3.50009 11C4.05108 11 4.50008 10.552 4.50008 10C4.50008 9.448 4.05108 9 3.50009 9C2.9491 9 2.5001 9.448 2.5001 10C2.5001 10.552 2.9491 11 3.50009 11ZM23.9679 15.323C23.4409 13.933 22.0479 13 20.4999 13C18.9519 13 17.5589 13.934 17.0319 15.323C16.9339 15.581 17.0639 15.87 17.3229 15.968C17.5819 16.063 17.8699 15.936 17.9679 15.677C18.3479 14.674 19.3649 14 20.4999 14C21.6349 14 22.6519 14.674 23.0319 15.677C23.1079 15.877 23.2979 16 23.4999 16C23.5589 16 23.6189 15.989 23.6769 15.968C23.9349 15.87 24.0649 15.581 23.9679 15.323ZM21.4999 17C21.2239 17 20.9999 17.224 20.9999 17.5V18.5C20.9999 19.879 19.8779 21 18.4999 21H16.5C16.224 21 16 21.224 16 21.5C16 21.776 16.224 22 16.5 22H18.4999C20.4299 22 21.9999 20.43 21.9999 18.5V17.5C21.9999 17.224 21.7759 17 21.4999 17ZM7.50005 21H5.50007C4.12208 21 3.0001 19.879 3.0001 18.5V17.5C3.0001 17.224 2.7761 17 2.5001 17C2.2241 17 2.00011 17.224 2.00011 17.5V18.5C2.00011 20.43 3.57009 22 5.50007 22H7.50005C7.77605 22 8.00004 21.776 8.00004 21.5C8.00004 21.224 7.77605 21 7.50005 21ZM7.50005 2H5.50007C3.57009 2 2.00011 3.57 2.00011 5.5C2.00011 5.776 2.2241 6 2.5001 6C2.7761 6 3.0001 5.776 3.0001 5.5C3.0001 4.121 4.12208 3 5.50007 3H7.50005C7.77605 3 8.00004 2.776 8.00004 2.5C8.00004 2.224 7.77605 2 7.50005 2ZM12 21C10.453 21 9.05903 21.934 8.53204 23.323C8.43404 23.581 8.56404 23.87 8.82303 23.968C9.08103 24.064 9.36903 23.936 9.46803 23.677C9.84802 22.674 10.865 22 12 22C13.135 22 14.152 22.674 14.532 23.677C14.608 23.877 14.798 24 15 24C15.059 24 15.119 23.989 15.177 23.968C15.435 23.87 15.565 23.581 15.468 23.323C14.941 21.933 13.548 21 12 21Z"/>
</mask>
<path d="M3.50009 14C2.3651 14 1.34811 14.674 0.968117 15.677C0.870118 15.936 0.582121 16.063 0.323124 15.968C0.0651264 15.87 -0.0648722 15.581 0.0321268 15.323C0.559121 13.933 1.95211 13 3.50009 13C5.04807 13 6.44106 13.934 6.96805 15.323C7.06605 15.581 6.93605 15.87 6.67706 15.968C6.61806 15.989 6.55906 16 6.50006 16C6.29806 16 6.10806 15.877 6.03206 15.677C5.65207 14.674 4.63508 14 3.50009 14ZM10 2C10 0.897 10.897 0 12 0C13.103 0 14 0.897 14 2C14 3.103 13.103 4 12 4C10.897 4 10 3.103 10 2ZM11 2C11 2.552 11.449 3 12 3C12.551 3 13 2.552 13 2C13 1.448 12.551 1 12 1C11.449 1 11 1.448 11 2ZM16.5 3H18.4999C19.8779 3 20.9999 4.121 20.9999 5.5C20.9999 5.776 21.2239 6 21.4999 6C21.7759 6 21.9999 5.776 21.9999 5.5C21.9999 3.57 20.4299 2 18.4999 2H16.5C16.224 2 16 2.224 16 2.5C16 2.776 16.224 3 16.5 3ZM22.4999 10C22.4999 11.103 21.6029 12 20.4999 12C19.3969 12 18.4999 11.103 18.4999 10C18.4999 8.897 19.3969 8 20.4999 8C21.6029 8 22.4999 8.897 22.4999 10ZM21.4999 10C21.4999 9.448 21.0509 9 20.4999 9C19.9489 9 19.4999 9.448 19.4999 10C19.4999 10.552 19.9489 11 20.4999 11C21.0509 11 21.4999 10.552 21.4999 10ZM12 20C10.897 20 10 19.103 10 18C10 16.897 10.897 16 12 16C13.103 16 14 16.897 14 18C14 19.103 13.103 20 12 20ZM12 19C12.551 19 13 18.552 13 18C13 17.448 12.551 17 12 17C11.449 17 11 17.448 11 18C11 18.552 11.449 19 12 19ZM12 5C10.453 5 9.05903 5.934 8.53204 7.323C8.43404 7.581 8.56404 7.87 8.82303 7.968C9.08103 8.064 9.36903 7.936 9.46803 7.677C9.84802 6.674 10.865 6 12 6C13.135 6 14.152 6.674 14.532 7.677C14.608 7.877 14.798 8 15 8C15.059 8 15.119 7.989 15.177 7.968C15.435 7.87 15.565 7.581 15.468 7.323C14.941 5.933 13.548 5 12 5ZM3.50009 12C2.3971 12 1.50011 11.103 1.50011 10C1.50011 8.897 2.3971 8 3.50009 8C4.60308 8 5.50007 8.897 5.50007 10C5.50007 11.103 4.60308 12 3.50009 12ZM3.50009 11C4.05108 11 4.50008 10.552 4.50008 10C4.50008 9.448 4.05108 9 3.50009 9C2.9491 9 2.5001 9.448 2.5001 10C2.5001 10.552 2.9491 11 3.50009 11ZM23.9679 15.323C23.4409 13.933 22.0479 13 20.4999 13C18.9519 13 17.5589 13.934 17.0319 15.323C16.9339 15.581 17.0639 15.87 17.3229 15.968C17.5819 16.063 17.8699 15.936 17.9679 15.677C18.3479 14.674 19.3649 14 20.4999 14C21.6349 14 22.6519 14.674 23.0319 15.677C23.1079 15.877 23.2979 16 23.4999 16C23.5589 16 23.6189 15.989 23.6769 15.968C23.9349 15.87 24.0649 15.581 23.9679 15.323ZM21.4999 17C21.2239 17 20.9999 17.224 20.9999 17.5V18.5C20.9999 19.879 19.8779 21 18.4999 21H16.5C16.224 21 16 21.224 16 21.5C16 21.776 16.224 22 16.5 22H18.4999C20.4299 22 21.9999 20.43 21.9999 18.5V17.5C21.9999 17.224 21.7759 17 21.4999 17ZM7.50005 21H5.50007C4.12208 21 3.0001 19.879 3.0001 18.5V17.5C3.0001 17.224 2.7761 17 2.5001 17C2.2241 17 2.00011 17.224 2.00011 17.5V18.5C2.00011 20.43 3.57009 22 5.50007 22H7.50005C7.77605 22 8.00004 21.776 8.00004 21.5C8.00004 21.224 7.77605 21 7.50005 21ZM7.50005 2H5.50007C3.57009 2 2.00011 3.57 2.00011 5.5C2.00011 5.776 2.2241 6 2.5001 6C2.7761 6 3.0001 5.776 3.0001 5.5C3.0001 4.121 4.12208 3 5.50007 3H7.50005C7.77605 3 8.00004 2.776 8.00004 2.5C8.00004 2.224 7.77605 2 7.50005 2ZM12 21C10.453 21 9.05903 21.934 8.53204 23.323C8.43404 23.581 8.56404 23.87 8.82303 23.968C9.08103 24.064 9.36903 23.936 9.46803 23.677C9.84802 22.674 10.865 22 12 22C13.135 22 14.152 22.674 14.532 23.677C14.608 23.877 14.798 24 15 24C15.059 24 15.119 23.989 15.177 23.968C15.435 23.87 15.565 23.581 15.468 23.323C14.941 21.933 13.548 21 12 21Z" fill="#1B8354" stroke="#067647" stroke-width="3" mask="url(#path-1-inside-1_478_1743)"/>
</g>
</g>
</svg>
