<svg width="16" height="16" viewBox="0 0 16 16" fill="none" xmlns="http://www.w3.org/2000/svg">
<g id="elements">
<path id="Icon" fill-rule="evenodd" clip-rule="evenodd" d="M4.66683 0.5C3.28612 0.5 2.16683 1.61929 2.16683 3C2.16683 3.62492 2.39612 4.19628 2.77515 4.63455C2.38654 4.70567 2.04743 4.81844 1.75192 5.00314C1.27788 5.29941 1.03926 5.70392 0.930112 6.21133C0.833378 6.66101 0.833434 7.22208 0.833499 7.86622V8.80044C0.833434 9.44459 0.833378 10.0057 0.930112 10.4553C1.03926 10.9627 1.27788 11.3673 1.75192 11.6635C2.19565 11.9409 2.73769 12.056 3.398 12.1115C3.71057 12.1378 4.06526 12.1515 4.46764 12.1587L2.64661 13.9798C2.45135 14.175 2.45135 14.4916 2.64661 14.6869C2.84187 14.8821 3.15845 14.8821 3.35372 14.6869L5.8335 12.2071L5.8335 15C5.8335 15.2761 6.05735 15.5 6.3335 15.5C6.60964 15.5 6.8335 15.2761 6.8335 15V12.2071L9.31328 14.6869C9.50854 14.8821 9.82512 14.8821 10.0204 14.6869C10.2156 14.4916 10.2156 14.175 10.0204 13.9798L8.19935 12.1587C8.60173 12.1515 8.95643 12.1378 9.269 12.1115C9.92931 12.056 10.4714 11.9409 10.9151 11.6635C11.3332 11.4022 11.5681 11.0567 11.6926 10.6307C12.1486 10.9007 12.5384 11.1207 12.8741 11.2682C13.3337 11.4701 13.8022 11.5879 14.2697 11.4194C14.5027 11.3354 14.6948 11.1935 14.8369 10.9914C14.9719 10.7992 15.044 10.5778 15.0869 10.3576C15.167 9.94548 15.167 9.39708 15.1669 8.76381V7.9026C15.167 7.26932 15.167 6.72093 15.0869 6.3088C15.044 6.08861 14.9719 5.86719 14.8369 5.67503C14.6948 5.47289 14.5027 5.33101 14.2697 5.24699C13.8022 5.07847 13.3337 5.19627 12.8741 5.3982C12.5384 5.54568 12.1485 5.7657 11.6926 6.03571C11.568 5.6098 11.3331 5.26439 10.9151 5.00314C10.6585 4.84277 10.369 4.73662 10.0428 4.66489C10.3294 4.29752 10.5002 3.83536 10.5002 3.33333C10.5002 2.13672 9.53011 1.16667 8.3335 1.16667C7.75463 1.16667 7.22879 1.39367 6.84014 1.76352C6.40983 1.00882 5.59775 0.5 4.66683 0.5ZM3.16683 3C3.16683 2.17157 3.8384 1.5 4.66683 1.5C5.49526 1.5 6.16683 2.17157 6.16683 3C6.16683 3.82843 5.49526 4.5 4.66683 4.5C3.8384 4.5 3.16683 3.82843 3.16683 3ZM8.3335 2.16667C7.68916 2.16667 7.16683 2.689 7.16683 3.33333C7.16683 3.97767 7.68916 4.5 8.3335 4.5C8.97783 4.5 9.50016 3.97767 9.50016 3.33333C9.50016 2.689 8.97783 2.16667 8.3335 2.16667ZM11.827 9.54633C12.4634 9.92779 12.9169 10.1948 13.2763 10.3527C13.6637 10.5229 13.8312 10.5145 13.9305 10.4787C13.9809 10.4605 14.0013 10.4411 14.0187 10.4164C14.0431 10.3817 14.0772 10.3108 14.1053 10.1667C14.1646 9.8614 14.1669 9.41219 14.1669 8.71231V7.95409C14.1669 7.25422 14.1646 6.805 14.1053 6.49972C14.0772 6.35563 14.0431 6.28469 14.0187 6.25001C14.0013 6.22531 13.9809 6.20588 13.9305 6.18773C13.8312 6.1519 13.6637 6.14354 13.2763 6.31373C12.9169 6.47164 12.4634 6.73862 11.827 7.12009C11.8336 7.35357 11.8335 7.60285 11.8335 7.86599V8.80044C11.8335 9.06349 11.8336 9.31292 11.827 9.54633ZM6.66684 11.1667H6.00017C4.89132 11.1667 4.09125 11.1662 3.48174 11.115C2.87124 11.0637 2.52161 10.9653 2.28192 10.8155C2.07255 10.6847 1.96945 10.5319 1.90775 10.245C1.83614 9.91217 1.8335 9.45961 1.8335 8.75V7.91667C1.8335 7.20705 1.83614 6.75449 1.90775 6.42163C1.96945 6.13479 2.07255 5.98199 2.28192 5.85114C2.52161 5.70133 2.87124 5.60294 3.48174 5.55164C4.09125 5.50042 4.89132 5.5 6.00017 5.5H6.66684C7.77569 5.5 8.57576 5.50042 9.18527 5.55164C9.79576 5.60294 10.1454 5.70133 10.3851 5.85114C10.5945 5.98199 10.6976 6.13479 10.7593 6.42163C10.8309 6.75449 10.8335 7.20705 10.8335 7.91667V8.75C10.8335 9.45961 10.8309 9.91217 10.7593 10.245C10.6976 10.5319 10.5945 10.6847 10.3851 10.8155C10.1454 10.9653 9.79576 11.0637 9.18527 11.115C8.57576 11.1662 7.77569 11.1667 6.66684 11.1667Z" fill="#161616"/>
</g>
</svg>
