<svg width="20" height="20" viewBox="0 0 20 20" fill="none" xmlns="http://www.w3.org/2000/svg">
<path d="M13.3334 11.4582C13.6786 11.4582 13.9584 11.1784 13.9584 10.8332C13.9584 10.488 13.6786 10.2082 13.3334 10.2082H10.8334C10.4882 10.2082 10.2084 10.488 10.2084 10.8332C10.2084 11.1784 10.4882 11.4582 10.8334 11.4582H13.3334Z" fill="#F9FAFB"/>
<path d="M13.3334 14.7915C13.6786 14.7915 13.9584 14.5117 13.9584 14.1665C13.9584 13.8213 13.6786 13.5415 13.3334 13.5415L7.50008 13.5415C7.1549 13.5415 6.87508 13.8213 6.87508 14.1665C6.87508 14.5117 7.1549 14.7915 7.50008 14.7915H13.3334Z" fill="#F9FAFB"/>
<path fill-rule="evenodd" clip-rule="evenodd" d="M10.0448 18.9582H9.32001C7.99179 18.9582 6.94582 18.9582 6.11601 18.8717C5.26873 18.7834 4.57201 18.5992 3.976 18.1793C3.65783 17.9551 3.3741 17.6884 3.13402 17.3865C2.67995 16.8156 2.47966 16.1443 2.38433 15.3342C2.29173 14.5472 2.29174 13.5576 2.29175 12.3127V10.1287C2.29175 8.91334 2.29175 7.97017 2.34195 7.20904C2.39284 6.43753 2.4972 5.80968 2.72649 5.23109C3.42492 3.46868 4.89561 2.09268 6.7417 1.44463C7.89076 1.04126 9.3007 1.04137 11.7718 1.04155L12.0741 1.04154C13.4367 1.04126 14.2859 1.04108 14.9864 1.287C16.1107 1.68165 17.012 2.52174 17.4411 3.60475C17.5867 3.97203 17.6492 4.36195 17.6791 4.81606C17.7084 5.25987 17.7084 5.80613 17.7084 6.49308V11.7161C17.7084 13.2454 17.7084 14.4606 17.5725 15.4125C17.4319 16.3967 17.1351 17.1903 16.4744 17.812C15.8192 18.4288 14.9918 18.7013 13.9647 18.8312C12.961 18.9582 11.6765 18.9582 10.0448 18.9582ZM13.8078 17.5911C14.7096 17.477 15.2357 17.2614 15.6177 16.9018C15.9944 16.5473 16.2163 16.067 16.335 15.2357C16.4569 14.3825 16.4584 13.2566 16.4584 11.6666V6.51504C16.4584 5.80128 16.4581 5.29619 16.4319 4.89833C16.406 4.50605 16.3568 4.26147 16.2791 4.06527C15.9903 3.33653 15.3732 2.74754 14.5724 2.46645C14.0996 2.30048 13.484 2.29156 11.9319 2.29156C11.6648 2.29156 11.4126 2.29165 11.1741 2.29213C10.0207 2.33247 9.09795 3.28026 9.09795 4.44357C9.09795 4.56618 9.10334 4.69799 9.11021 4.84599L9.11278 4.90084C9.11884 5.02992 9.12545 5.17044 9.12836 5.31054C9.13493 5.62728 9.12493 5.9969 9.02933 6.35369C8.84311 7.04867 8.30027 7.5915 7.60529 7.77772C7.2485 7.87333 6.87889 7.88333 6.56214 7.87675C6.42205 7.87384 6.28158 7.86724 6.1525 7.86117L6.0976 7.85861C5.9496 7.85174 5.81778 7.84634 5.69517 7.84634C4.50623 7.84634 3.5424 8.81018 3.5424 9.99912C3.5424 10.0087 3.54218 10.0183 3.54175 10.0277C3.54175 10.0686 3.54175 10.1098 3.54175 10.1514V12.2726C3.54175 13.5667 3.54276 14.4826 3.62577 15.1881C3.70705 15.8789 3.85996 16.2912 4.11231 16.6084C4.27703 16.8155 4.47336 17.0006 4.69595 17.1574C5.04359 17.4024 5.49812 17.5506 6.24559 17.6285C7.00303 17.7074 7.98387 17.7082 9.35614 17.7082H10.0001C11.6863 17.7082 12.8917 17.707 13.8078 17.5911ZM3.58687 7.328C4.16656 6.86983 4.89893 6.59635 5.69517 6.59635C5.84997 6.59635 6.00798 6.6031 6.15552 6.60995L6.21208 6.61259C6.34265 6.61871 6.46556 6.62448 6.5881 6.62702C6.87197 6.63292 7.09912 6.61926 7.28177 6.57032C7.54538 6.49968 7.75129 6.29378 7.82192 6.03017C7.87086 5.84752 7.88452 5.62036 7.87863 5.33649C7.87608 5.21397 7.87032 5.09108 7.8642 4.96053L7.86155 4.90392C7.85471 4.75637 7.84795 4.59837 7.84795 4.44357C7.84795 3.65809 8.11409 2.93477 8.56112 2.35886C7.98347 2.40623 7.54659 2.48687 7.15573 2.62407C5.63311 3.15857 4.4466 4.28347 3.88857 5.69161C3.72708 6.09911 3.63605 6.58163 3.58924 7.29131C3.58844 7.30348 3.58765 7.31571 3.58687 7.328Z" fill="#F9FAFB"/>
</svg>
