<svg width="24" height="24" viewBox="0 0 24 24" fill="none" xmlns="http://www.w3.org/2000/svg">
<path d="M3.5827 8.25C5.01642 5.00655 8.23022 2.75 12 2.75C17.1086 2.75 21.25 6.89137 21.25 12C21.25 17.1086 17.1086 21.25 12 21.25C11.5858 21.25 11.25 21.5858 11.25 22C11.25 22.4142 11.5858 22.75 12 22.75C17.9371 22.75 22.75 17.9371 22.75 12C22.75 6.06294 17.937 1.25 12 1.25C7.18163 1.25 3.15293 4.4182 1.78446 8.77526C1.71291 9.00307 1.75411 9.25133 1.89541 9.44382C2.03671 9.6363 2.26122 9.75 2.5 9.75H5C5.41421 9.75 5.75 9.41421 5.75 9C5.75 8.58579 5.41421 8.25 5 8.25H3.5827Z" fill="#384250"/>
<path d="M12 7.25C12.4142 7.25 12.75 7.58579 12.75 8V11.6893L14.5303 13.4697C14.8232 13.7626 14.8232 14.2374 14.5303 14.5303C14.2374 14.8232 13.7626 14.8232 13.4697 14.5303L11.4697 12.5303C11.329 12.3897 11.25 12.1989 11.25 12V8C11.25 7.58579 11.5858 7.25 12 7.25Z" fill="#384250"/>
<path d="M2.75 12C2.75 11.5858 2.41421 11.25 2 11.25C1.58579 11.25 1.25 11.5858 1.25 12C1.25 12.3598 1.26622 12.7159 1.29798 13.0675C1.33524 13.48 1.69987 13.7842 2.11241 13.747C2.52494 13.7097 2.82916 13.3451 2.79189 12.9325C2.76419 12.6258 2.75 12.3147 2.75 12Z" fill="#384250"/>
<path d="M3.39683 15.5819C3.25082 15.1942 2.81823 14.9984 2.4306 15.1444C2.04297 15.2904 1.8471 15.723 1.99311 16.1106C2.15314 16.5354 2.33725 16.9477 2.54371 17.3455C2.73452 17.7131 3.18724 17.8565 3.55488 17.6657C3.92253 17.4749 4.06589 17.0222 3.87508 16.6545C3.69585 16.3092 3.53591 15.9511 3.39683 15.5819Z" fill="#384250"/>
<path d="M5.38092 18.7963C5.09913 18.4927 4.62459 18.475 4.321 18.7568C4.01741 19.0386 3.99973 19.5131 4.28152 19.8167C4.60937 20.1699 4.9594 20.5009 5.32938 20.807C5.64849 21.0711 6.12126 21.0265 6.38535 20.7074C6.64943 20.3883 6.60483 19.9155 6.28572 19.6514C5.96671 19.3874 5.66443 19.1017 5.38092 18.7963Z" fill="#384250"/>
<path d="M8.31224 20.9258C7.93562 20.7534 7.49053 20.9189 7.31808 21.2955C7.14564 21.6721 7.31115 22.1172 7.68776 22.2897C8.03755 22.4498 8.3972 22.5912 8.76551 22.7124C9.15896 22.8419 9.5829 22.6279 9.7124 22.2345C9.84191 21.841 9.62794 21.4171 9.23449 21.2876C8.91961 21.184 8.61186 21.063 8.31224 20.9258Z" fill="#384250"/>
</svg>
