<svg width="40" height="40" viewBox="0 0 40 40" fill="none" xmlns="http://www.w3.org/2000/svg">
<path d="M0 20C0 8.95431 8.95431 0 20 0C31.0457 0 40 8.95431 40 20C40 31.0457 31.0457 40 20 40C8.95431 40 0 31.0457 0 20Z" fill="#F3FCF6"/>
<path fill-rule="evenodd" clip-rule="evenodd" d="M20 23.75C17.9289 23.75 16.25 22.0711 16.25 20C16.25 17.9289 17.9289 16.25 20 16.25C22.0711 16.25 23.75 17.9289 23.75 20C23.75 22.0711 22.0711 23.75 20 23.75ZM17.75 20C17.75 21.2426 18.7574 22.25 20 22.25C21.2426 22.25 22.25 21.2426 22.25 20C22.25 18.7574 21.2426 17.75 20 17.75C18.7574 17.75 17.75 18.7574 17.75 20Z" fill="#067647"/>
<path fill-rule="evenodd" clip-rule="evenodd" d="M20 12.25C17.4294 12.25 15.226 13.3814 13.5203 14.713C11.8131 16.0458 10.5513 17.6197 9.84541 18.6095L9.79219 18.6837C9.53904 19.0358 9.25 19.4378 9.25 20C9.25 20.5622 9.53904 20.9642 9.79219 21.3163L9.84541 21.3905C10.5513 22.3803 11.8131 23.9542 13.5203 25.287C15.226 26.6186 17.4294 27.75 20 27.75C22.5706 27.75 24.774 26.6186 26.4797 25.287C28.1869 23.9542 29.4487 22.3803 30.1546 21.3905L30.2078 21.3163C30.461 20.9642 30.75 20.5622 30.75 20C30.75 19.4378 30.461 19.0358 30.2078 18.6837L30.1546 18.6095C29.4487 17.6197 28.1869 16.0458 26.4797 14.713C24.774 13.3814 22.5706 12.25 20 12.25ZM11.0667 19.4805C11.7269 18.5547 12.8924 17.1062 14.4434 15.8953C15.9959 14.6833 17.8813 13.75 20 13.75C22.1187 13.75 24.0041 14.6833 25.5566 15.8953C27.1076 17.1062 28.2731 18.5547 28.9333 19.4805C29.0967 19.7095 29.1744 19.8213 29.2207 19.9103C29.2502 19.9669 29.2501 19.9824 29.25 19.9976L29.25 20L29.25 20.0024C29.2501 20.0176 29.2502 20.0331 29.2207 20.0897C29.1744 20.1787 29.0967 20.2905 28.9333 20.5195C28.2731 21.4453 27.1076 22.8938 25.5566 24.1047C24.0041 25.3167 22.1187 26.25 20 26.25C17.8813 26.25 15.9959 25.3167 14.4434 24.1047C12.8924 22.8938 11.7269 21.4453 11.0667 20.5195C10.9033 20.2905 10.8256 20.1787 10.7793 20.0897C10.7498 20.0331 10.7499 20.0176 10.75 20.0024L10.75 20L10.75 19.9976C10.7499 19.9824 10.7498 19.9669 10.7793 19.9103C10.8256 19.8213 10.9033 19.7095 11.0667 19.4805Z" fill="#067647"/>
</svg>
