<svg id="Layer_1" height="512" viewBox="0 0 32 32" width="512" xmlns="http://www.w3.org/2000/svg" data-name="Layer 1"><g fill="rgb(0,0,0)"><path d="m10.94 5.67a1 1 0 0 0 -1.88 0l-7 20a1 1 0 0 0 1.88.66l1.87-5.33h8.38l1.87 5.33a1 1 0 0 0 .94.67 1 1 0 0 0 .33-.06 1 1 0 0 0 .61-1.27zm-4.43 13.33 3.49-10 3.49 10z"/><path d="m30 25a1 1 0 0 1 -1-1v-7a5 5 0 0 0 -8.75-3.31 1 1 0 0 0 .09 1.42 1 1 0 0 0 .66.25 1 1 0 0 0 .75-.34 3 3 0 0 1 5.25 1.98v1a4.92 4.92 0 0 0 -3-1 5 5 0 1 0 3.47 8.59 3 3 0 0 0 2.53 1.41 1 1 0 0 0 0-2zm-6 0a3 3 0 1 1 3-3 3 3 0 0 1 -3 3z"/></g></svg>