<svg width="20" height="20" viewBox="0 0 20 20" fill="none" xmlns="http://www.w3.org/2000/svg">
<g id="Feedback Icon">
<path id="bg" fill-rule="evenodd" clip-rule="evenodd" d="M9.99967 19.1663C15.0623 19.1663 19.1663 15.0623 19.1663 9.99967C19.1663 4.93706 15.0623 0.833008 9.99967 0.833008C4.93706 0.833008 0.833008 4.93706 0.833008 9.99967C0.833008 15.0623 4.93706 19.1663 9.99967 19.1663Z" fill="white"/>
<path id="Icon" fill-rule="evenodd" clip-rule="evenodd" d="M9.99967 19.1663C15.0623 19.1663 19.1663 15.0623 19.1663 9.99967C19.1663 4.93706 15.0623 0.833008 9.99967 0.833008C4.93706 0.833008 0.833008 4.93706 0.833008 9.99967C0.833008 15.0623 4.93706 19.1663 9.99967 19.1663ZM9.99967 5.83301C9.53944 5.83301 9.16634 6.2061 9.16634 6.66634V9.99967C9.16634 10.4599 9.53944 10.833 9.99967 10.833C10.4599 10.833 10.833 10.4599 10.833 9.99967V6.66634C10.833 6.2061 10.4599 5.83301 9.99967 5.83301ZM9.99967 12.4997C9.53944 12.4997 9.16634 12.8728 9.16634 13.333C9.16634 13.7932 9.53944 14.1663 9.99967 14.1663C10.4599 14.1663 10.833 13.7932 10.833 13.333C10.833 12.8728 10.4599 12.4997 9.99967 12.4997Z" fill="#B42318"/>
</g>
</svg>
