<svg width="14" height="12" viewBox="0 0 14 12" fill="none" xmlns="http://www.w3.org/2000/svg">
<g id="elements">
<g id="Icon">
<path d="M6.41219 8.33331C6.41219 8.01115 6.67336 7.74998 6.99552 7.74998H7.00076C7.32293 7.74998 7.5841 8.01115 7.5841 8.33331C7.5841 8.65548 7.32293 8.91665 7.00076 8.91665H6.99552C6.67336 8.91665 6.41219 8.65548 6.41219 8.33331Z" fill="#93370D"/>
<path d="M6.56258 6.58331C6.56258 6.82494 6.75846 7.02081 7.00008 7.02081C7.24171 7.02081 7.43758 6.82494 7.43758 6.58331V4.24998C7.43758 4.00835 7.24171 3.81248 7.00008 3.81248C6.75846 3.81248 6.56258 4.00835 6.56258 4.24998V6.58331Z" fill="#93370D"/>
<path fill-rule="evenodd" clip-rule="evenodd" d="M6.04457 0.175397C6.66551 -0.030715 7.33466 -0.030715 7.95559 0.175397C8.57396 0.380656 9.05947 0.867469 9.54723 1.55145C10.0334 2.23316 10.5705 3.18368 11.263 4.40894L11.2902 4.45704C11.9827 5.68248 12.5199 6.63296 12.8546 7.40376C13.191 8.17831 13.3585 8.84708 13.2249 9.48955C13.0903 10.1364 12.7584 10.7247 12.275 11.1693C11.7929 11.6128 11.1363 11.7999 10.3097 11.8898C9.48769 11.9792 8.41244 11.9792 7.02852 11.9791H6.97165C5.58773 11.9792 4.51248 11.9792 3.69049 11.8898C2.86382 11.7999 2.20729 11.6128 1.72512 11.1693C1.24178 10.7247 0.909894 10.1364 0.775304 9.48955C0.64163 8.84708 0.809165 8.17831 1.14555 7.40376C1.4803 6.63296 2.01745 5.68248 2.71 4.45704L2.73719 4.40894C3.42962 3.18368 3.96679 2.23316 4.45294 1.55145C4.9407 0.867469 5.42621 0.380656 6.04457 0.175397ZM7.67994 1.00584C7.23798 0.859137 6.76219 0.859137 6.32023 1.00584C5.97257 1.12124 5.62308 1.41761 5.16535 2.05948C4.70919 2.69915 4.19424 3.60915 3.4853 4.86361C2.77641 6.11798 2.26239 7.02868 1.94813 7.75231C1.63332 8.4772 1.55445 8.93878 1.63196 9.31131C1.72973 9.78123 1.97032 10.2059 2.3175 10.5253C2.59017 10.7761 3.01505 10.9362 3.78506 11.0199C4.55414 11.1035 5.58177 11.1041 7.00008 11.1041C8.4184 11.1041 9.44602 11.1035 10.2151 11.0199C10.9851 10.9362 11.41 10.7761 11.6827 10.5253C12.0299 10.2059 12.2704 9.78123 12.3682 9.31131C12.4457 8.93878 12.3669 8.4772 12.052 7.75231C11.7378 7.02868 11.2238 6.11798 10.5149 4.86361C9.80593 3.60915 9.29098 2.69915 8.83482 2.05948C8.37709 1.41761 8.0276 1.12124 7.67994 1.00584Z" fill="#93370D"/>
</g>
</g>
</svg>
