<svg width="16" height="16" viewBox="0 0 16 16" fill="none" xmlns="http://www.w3.org/2000/svg">
<path d="M7.32829 10.6667C7.32829 10.2986 7.62676 10.0001 7.99495 10.0001H8.00094C8.36913 10.0001 8.66761 10.2986 8.66761 10.6667C8.66761 11.0349 8.36913 11.3334 8.00094 11.3334H7.99495C7.62676 11.3334 7.32829 11.0349 7.32829 10.6667Z" fill="#384250"/>
<path d="M7.50016 8.66675C7.50016 8.94289 7.72402 9.16675 8.00016 9.16675C8.2763 9.16675 8.50016 8.94289 8.50016 8.66675V6.00008C8.50016 5.72394 8.27631 5.50008 8.00016 5.50008C7.72402 5.50008 7.50016 5.72394 7.50016 6.00008V8.66675Z" fill="#384250"/>
<path fill-rule="evenodd" clip-rule="evenodd" d="M6.90815 1.34342C7.61779 1.10786 8.38254 1.10786 9.09218 1.34342C9.79888 1.578 10.3538 2.13435 10.9112 2.91605C11.4668 3.69515 12.0807 4.78145 12.872 6.18175L12.9031 6.23672C13.6946 7.63723 14.3085 8.72348 14.6911 9.6044C15.0755 10.4896 15.267 11.2539 15.1142 11.9882C14.9604 12.7275 14.5811 13.3997 14.0287 13.9079C13.4776 14.4148 12.7273 14.6286 11.7826 14.7313C10.8431 14.8334 9.61429 14.8334 8.03266 14.8334H7.96767C6.38604 14.8334 5.15719 14.8334 4.21778 14.7313C3.27301 14.6286 2.52269 14.4148 1.97164 13.9079C1.41924 13.3997 1.03995 12.7275 0.886131 11.9882C0.733362 11.2539 0.92483 10.4896 1.30927 9.6044C1.69184 8.72348 2.30573 7.63723 3.09722 6.23672L3.12828 6.18175C3.91963 4.78146 4.53355 3.69515 5.08914 2.91605C5.64658 2.13435 6.20145 1.578 6.90815 1.34342ZM8.77714 2.29249C8.27204 2.12483 7.72829 2.12483 7.22319 2.29249C6.82587 2.42438 6.42645 2.76308 5.90332 3.49666C5.382 4.2277 4.79349 5.26771 3.98327 6.70137C3.1731 8.13493 2.58566 9.17574 2.2265 10.0027C1.86672 10.8312 1.77658 11.3587 1.86516 11.7845C1.9769 12.3215 2.25186 12.8069 2.64864 13.1719C2.96027 13.4585 3.44584 13.6415 4.32586 13.7372C5.20481 13.8327 6.37923 13.8334 8.00017 13.8334C9.6211 13.8334 10.7955 13.8327 11.6745 13.7372C12.5545 13.6415 13.0401 13.4585 13.3517 13.1719C13.7485 12.8069 14.0234 12.3215 14.1352 11.7845C14.2237 11.3587 14.1336 10.8312 13.7738 10.0027C13.4147 9.17574 12.8272 8.13493 12.0171 6.70137C11.2068 5.26771 10.6183 4.2277 10.097 3.49666C9.57388 2.76308 9.17446 2.42438 8.77714 2.29249Z" fill="#384250"/>
</svg>
